<?xml version="1.0" standalone="no"?>
<!DOCTYPE svg PUBLIC "-//W3C//DTD SVG 1.1//EN" "http://www.w3.org/Graphics/SVG/1.1/DTD/svg11.dtd" >
<svg xmlns="http://www.w3.org/2000/svg">
<metadata></metadata>
<defs>
<font id="rawengulksansregular" horiz-adv-x="428" >
<font-face units-per-em="1000" ascent="786" descent="-214" />
<missing-glyph horiz-adv-x="321" />
<glyph unicode="&#xfb01;" d="M326 612q0 13 9 22t22 9t22 -9t9 -22t-9 -22.5t-22 -9.5t-22 9.5t-9 22.5zM279 642q-23 10 -47 10q-44 0 -75.5 -31.5t-31.5 -75.5v-81h250v-464h-36v429h-214v-429h-36v429h-71v35h71v81q0 59 42 101t101 42q33 0 63 -14z" />
<glyph unicode="&#xfb03;" horiz-adv-x="678" d="M594 612q0 13 9 22t22 9t22 -9t9 -22t-9 -22.5t-22 -9.5t-22 9.5t-9 22.5zM304 634q-27 18 -63 18q-48 0 -82 -34t-34 -82v-72h232v81q0 59 42 101t101 42q32 0 62 -14l-16 -32q-23 10 -46 10q-44 0 -75.5 -31.5t-31.5 -75.5v-81h250v-464h-36v429h-214v-429h-36v429 h-232v-429h-36v429h-71v35h71v72q0 63 44.5 107.5t107.5 44.5q42 0 82 -25z" />
<glyph unicode=" "  horiz-adv-x="321" />
<glyph unicode="&#x09;" horiz-adv-x="321" />
<glyph unicode="&#xa0;" horiz-adv-x="321" />
<glyph unicode="!" horiz-adv-x="142" d="M40 22q0 13 9 22.5t22 9.5t22.5 -9.5t9.5 -22.5t-9.5 -22t-22.5 -9t-22 9t-9 22zM54 679h35v-500h-35v500z" />
<glyph unicode="&#x22;" horiz-adv-x="232" d="M151 566q10 37 10 79q0 21 -3 33l35 6q3 -12 3 -39q0 -51 -10 -88l-8 -28l-35 10zM53 566q9 33 9 79q0 25 -2 33l35 6q3 -12 3 -39q0 -51 -10 -88l-9 -28l-34 10z" />
<glyph unicode="#" horiz-adv-x="375" d="M235 250l12 143h-107l-12 -143h107zM232 214h-107l-10 -107h-36l10 107h-71l3 36h71l12 143h-71l4 36h70l10 107h36l-10 -107h107l10 107h36l-10 -107h71l-3 -36h-71l-12 -143h71l-4 -36h-70l-10 -107h-36z" />
<glyph unicode="$" horiz-adv-x="571" d="M268 696h36v-54q131 -8 208 -85l-24 -25q-33 33 -83 52t-101 22v-247q47 -12 73.5 -19.5t65.5 -24t59.5 -34.5t36 -47t15.5 -66q0 -72 -66.5 -118.5t-183.5 -49.5v-54h-36v55q-71 5 -141.5 40t-103.5 69l25 25q30 -31 94 -62t126 -36v293q-39 10 -65 18t-57 22.5 t-49 30.5t-30.5 40.5t-12.5 54.5q0 58 64 99.5t150 46.5v54zM268 368v238q-76 -4 -127.5 -38t-51.5 -72q0 -52 45.5 -79t133.5 -49zM304 321v-285q99 3 156.5 39t57.5 93q0 24 -7.5 43t-24.5 34t-33 25.5t-45 20.5t-49 15.5t-55 14.5z" />
<glyph unicode="%" horiz-adv-x="607" d="M540 619l27 -23l-500 -572l-27 23zM268 518q0 -51 -33.5 -88t-91.5 -37t-91.5 37t-33.5 88q0 50 33 87.5t92 37.5t92 -37.5t33 -87.5zM143 607q-43 0 -66 -26.5t-23 -62.5q0 -37 22.5 -63t66.5 -26t66.5 26t22.5 63q0 36 -22.5 62.5t-66.5 26.5zM589 125q0 -51 -33.5 -88 t-91.5 -37t-91.5 37t-33.5 88q0 50 33 87.5t92 37.5t92 -37.5t33 -87.5zM464 214q-43 0 -66 -26.5t-23 -62.5q0 -37 22.5 -63t66.5 -26t67 26t23 63q0 36 -23 62.5t-67 26.5z" />
<glyph unicode="&#x26;" horiz-adv-x="642" d="M54 179q0 -67 68.5 -114t165.5 -47q78 0 141 37l-164 177q-51 55 -79 89q-56 -5 -94 -45.5t-38 -96.5zM375 482q0 36 -31 62.5t-76 26.5q-44 0 -75.5 -31.5t-31.5 -75.5v-4q0 -40 25.5 -79.5t104.5 -124.5l168 -180q68 57 68 135q0 47 -24.5 78.5t-56.5 31.5v36h161v-36 h-92q48 -41 48 -110q0 -93 -79 -161q16 -14 38 -14h103v-36h-103q-36 0 -67 29q-75 -47 -167 -47q-112 0 -191 58t-79 139q0 63 42.5 110t106.5 57q-42 59 -42 114v4q0 59 42 101t101 42q58 0 100.5 -36t42.5 -89v-18h-36v18z" />
<glyph unicode="'" horiz-adv-x="125" d="M53 566q9 33 9 79q0 25 -2 33l35 6q3 -12 3 -39q0 -51 -10 -88l-9 -28l-34 10z" />
<glyph unicode="(" horiz-adv-x="214" d="M54 268q0 -297 145 -470l-20 -17q-80 96 -120.5 222.5t-40.5 264.5t41 264.5t120 221.5l20 -16q-73 -87 -109 -210t-36 -260z" />
<glyph unicode=")" horiz-adv-x="214" d="M161 268q0 136 -36.5 259t-109.5 211l21 16q79 -94 119.5 -221t40.5 -265t-40 -264.5t-120 -222.5l-21 17q146 175 146 470z" />
<glyph unicode="*" horiz-adv-x="285" d="M255 577l13 -33l-97 -35l60 -82l-28 -22l-60 83l-60 -83l-29 22l60 82l-96 35l12 33l95 -34v100h36v-100z" />
<glyph unicode="+" horiz-adv-x="446" d="M241 357h179v-36h-179v-178h-36v178h-178v36h178v179h36v-179z" />
<glyph unicode="," horiz-adv-x="142" d="M36 22q0 13 9 22.5t22 9.5t22 -9.5t9 -22.5q0 -65 -60 -125l-16 16q36 36 36 80q-22 7 -22 29z" />
<glyph unicode="-" horiz-adv-x="339" d="M312 286h-285v35h285v-35z" />
<glyph unicode="." horiz-adv-x="142" d="M36 22q0 13 9 22.5t22 9.5t22 -9.5t9 -22.5t-9 -22t-22 -9t-22 9t-9 22z" />
<glyph unicode="/" horiz-adv-x="500" d="M470 696l30 -19l-470 -734l-30 19z" />
<glyph unicode="0" horiz-adv-x="446" d="M223 652q85 0 141 -99t56 -232t-56 -231.5t-141 -98.5t-140.5 98.5t-55.5 231.5t55.5 232t140.5 99zM62 321q0 -126 49 -210t112 -84t112 84t49 210t-49 210.5t-112 84.5t-112 -84.5t-49 -210.5z" />
<glyph unicode="1" horiz-adv-x="178" d="M40 533l-27 23l77 87h35v-643h-36v589h-1q-9 -12 -26.5 -31.5t-21.5 -24.5z" />
<glyph unicode="2" horiz-adv-x="464" d="M36 464q0 78 57.5 133t138.5 55t139 -58t58 -139q0 -55 -32.5 -108.5t-108.5 -124.5l-201 -184v-2h342v-36h-393v33l227 215q72 68 101 115t29 92q0 66 -47 113.5t-114 47.5t-114 -44.5t-47 -107.5h-35z" />
<glyph unicode="3" horiz-adv-x="482" d="M232 27q85 0 132 44.5t47 107.5t-48 111.5t-131 48.5v36q58 0 91.5 38t33.5 87t-33 82.5t-92 33.5t-92 -34t-33 -82h-36q0 62 43 107t118 45t118 -45t43 -107q0 -45 -27 -83t-70 -56v-1q66 -18 108 -68t42 -113q0 -77 -57.5 -132.5t-156.5 -55.5t-156.5 55.5t-57.5 132.5 h36q0 -62 47 -107t131 -45z" />
<glyph unicode="4" horiz-adv-x="455" d="M348 429h36v-286h54v-36h-54v-107h-36v107h-339v34l3 4q123 169 176 283.5t53 214.5h36q0 -106 -52 -221t-170 -279h293v286z" />
<glyph unicode="5" horiz-adv-x="464" d="M214 473q94 0 154.5 -70t60.5 -171t-60.5 -171t-154.5 -70q-57 0 -103 28t-75 76l30 17q10 -17 25 -33.5t49 -34t74 -17.5q79 0 129 59.5t50 145.5t-50 146t-129 60q-77 0 -128 -60l-9 -11l-29 13l15 263h312v-36h-278l-10 -186q55 52 127 52z" />
<glyph unicode="6" horiz-adv-x="437" d="M223 27q66 0 113.5 59.5t47.5 145.5q0 87 -48 146.5t-113 59.5t-113 -59.5t-48 -146.5q0 -86 47.5 -145.5t113.5 -59.5zM349 590q-57 26 -108 26q-67 0 -115.5 -68.5t-64.5 -193.5h1q25 54 67.5 86.5t93.5 32.5q80 0 138.5 -70t58.5 -171t-58.5 -171t-138.5 -70t-138 70 t-58 171q0 121 22.5 214t72 149.5t119.5 56.5q62 0 123 -29z" />
<glyph unicode="7" horiz-adv-x="401" d="M0 643h384v-33l-83 -114q-131 -178 -131 -496h-36q0 331 137 518q35 48 68 87v2h-339v36z" />
<glyph unicode="8" horiz-adv-x="482" d="M27 179q0 63 42 113t108 68v1q-43 18 -70 56t-27 83q0 62 43 107t118 45t117.5 -44.5t43.5 -107.5q0 -45 -27 -83t-70 -56v-1q66 -18 108 -68t42 -113q-1 -78 -58 -133t-156 -55q-100 0 -157 55t-57 133zM241 339q-83 0 -131 -48.5t-48 -111.5t47 -107.5t132 -44.5 t132 44.5t47 107.5t-48 111.5t-131 48.5zM241 375q58 0 91.5 38t33.5 87t-33 82.5t-92 33.5t-92 -33.5t-33 -82.5t33.5 -87t91.5 -38z" />
<glyph unicode="9" horiz-adv-x="437" d="M214 616q-65 0 -112.5 -59t-47.5 -146t47.5 -146.5t112.5 -59.5t113 59.5t48 146.5q0 86 -47.5 145.5t-113.5 59.5zM88 53q57 -26 108 -26q67 0 116 68.5t65 193.5h-1q-25 -54 -68 -86.5t-94 -32.5q-80 0 -138 70t-58 171t58 171t138 70t138.5 -70t58.5 -171 q0 -121 -23 -214t-72.5 -149.5t-119.5 -56.5q-62 0 -123 29z" />
<glyph unicode=":" horiz-adv-x="142" d="M36 406q0 13 9 22.5t22 9.5t22 -9.5t9 -22.5t-9 -22t-22 -9t-22 9t-9 22zM36 22q0 13 9 22.5t22 9.5t22 -9.5t9 -22.5t-9 -22t-22 -9t-22 9t-9 22z" />
<glyph unicode=";" horiz-adv-x="142" d="M36 406q0 13 9 22.5t22 9.5t22 -9.5t9 -22.5t-9 -22t-22 -9t-22 9t-9 22zM36 22q0 13 9 22.5t22 9.5t22 -9.5t9 -22.5q0 -65 -60 -125l-25 25q34 34 45 71q-22 7 -22 29z" />
<glyph unicode="&#x3c;" horiz-adv-x="392" d="M337 126l-319 176v40l320 169l16 -32l-299 -157v-1l299 -164z" />
<glyph unicode="=" horiz-adv-x="446" d="M420 214h-393v36h393v-36zM420 393h-393v36h393v-36z" />
<glyph unicode="&#x3e;" horiz-adv-x="392" d="M56 126l-17 31l299 164v1l-299 157l16 32l320 -169v-40z" />
<glyph unicode="?" horiz-adv-x="410" d="M147 22q0 13 9.5 22.5t22.5 9.5t22 -9.5t9 -22.5t-9 -22t-22 -9t-22.5 9t-9.5 22zM161 257q0 34 18.5 59.5t44.5 42t52 34t44.5 47t18.5 69.5q0 59 -42 101t-101 42t-100.5 -44.5t-41.5 -107.5h-36q0 78 52 133t126 55t126.5 -53t52.5 -126q0 -46 -18.5 -80t-44.5 -53.5 t-52.5 -36t-45 -36.5t-18.5 -46v-78h-35v78z" />
<glyph unicode="@" horiz-adv-x="821" d="M481 135l56 281h-95q-63 0 -125.5 -68t-62.5 -171q0 -63 33.5 -97t73.5 -34q30 0 64.5 21.5t52.5 59.5zM365 -134q-159 0 -248.5 96t-89.5 234q0 168 124.5 293t308.5 125q107 0 185 -47t114 -116.5t36 -149.5q0 -118 -66.5 -201.5t-160.5 -83.5q-72 0 -88 53h-1 q-52 -58 -118 -58q-55 0 -99 43.5t-44 122.5q0 119 73 197t151 78h138l-64 -326q-4 -24 -4 -30q0 -44 56 -44q79 0 135 73t56 176q0 52 -18.5 100.5t-54 88.5t-94.5 64.5t-132 24.5q-84 0 -159 -32t-127 -85t-82 -122.5t-30 -143.5q0 -123 79 -208.5t224 -85.5q106 0 195 45 l15 -31q-100 -50 -210 -50z" />
<glyph unicode="A" horiz-adv-x="571" d="M122 214h327l-163 410zM108 179l-73 -185l-34 12l271 682h27l272 -682l-34 -12l-74 185h-355z" />
<glyph unicode="B" horiz-adv-x="571" d="M89 393h170q79 0 133 39.5t54 93.5q0 47 -50.5 82t-123.5 35h-183v-250zM89 357v-321h232q82 0 139.5 45t57.5 107q0 69 -58.5 119t-142.5 50h-228zM362 382q83 -14 137.5 -68.5t54.5 -125.5q0 -77 -68 -132.5t-165 -55.5h-267v679h218q86 0 148 -44t62 -109 q0 -46 -33 -84t-87 -59v-1z" />
<glyph unicode="C" horiz-adv-x="607" d="M357 652q-128 0 -215.5 -91.5t-87.5 -221.5t87.5 -221t215.5 -91q117 0 200 70l23 -26q-96 -80 -223 -80q-144 0 -241.5 101.5t-97.5 246.5t97.5 247t241.5 102q127 0 223 -80l-23 -27q-84 71 -200 71z" />
<glyph unicode="D" horiz-adv-x="642" d="M54 679h232q141 0 240 -99.5t99 -240.5t-99 -240t-240 -99h-232v679zM89 36h197q126 0 214.5 88.5t88.5 214.5t-88.5 215t-214.5 89h-197v-607z" />
<glyph unicode="E" horiz-adv-x="535" d="M89 643v-286h250v-36h-250v-285h429v-36h-464v679h428v-36h-393z" />
<glyph unicode="F" horiz-adv-x="535" d="M54 679h464v-36h-429v-286h286v-36h-286v-321h-35v679z" />
<glyph unicode="G" horiz-adv-x="660" d="M54 339q1 -131 87.5 -221.5t215.5 -90.5q78 0 141 45t91 117v97h-143v35h179v-321h-30l-5 125h-1q-38 -61 -99.5 -97.5t-132.5 -36.5q-144 0 -241 101t-98 247q0 145 97.5 247t241.5 102q136 0 231 -87l-24 -26q-83 77 -207 77q-128 0 -215.5 -91.5t-87.5 -221.5z" />
<glyph unicode="H" horiz-adv-x="607" d="M54 679h35v-322h429v322h36v-679h-36v321h-429v-321h-35v679z" />
<glyph unicode="I" horiz-adv-x="142" d="M89 0h-35v679h35v-679z" />
<glyph unicode="J" horiz-adv-x="339" d="M139 27q54 0 91.5 33.5t37.5 91.5v491h-214v36h250v-527q0 -74 -48.5 -117.5t-116.5 -43.5q-40 0 -78.5 17t-57.5 48l30 19q14 -22 43.5 -35t62.5 -13z" />
<glyph unicode="K" horiz-adv-x="571" d="M89 0h-35v679h35v-460l400 469l27 -23l-264 -310l239 -282q20 -22 30.5 -29.5t26.5 -7.5h6v-36h-6q-26 0 -43.5 11.5t-40.5 38.5l-236 277l-139 -163v-164z" />
<glyph unicode="L" horiz-adv-x="535" d="M89 36h429v-36h-464v679h35v-643z" />
<glyph unicode="M" horiz-adv-x="892" d="M18 3l90 683h30l308 -653l309 653h30l90 -683l-36 -6l-80 611l-292 -617h-40l-293 618l-80 -612z" />
<glyph unicode="N" horiz-adv-x="607" d="M554 679v-688h-37l-428 633v-624h-35v688h36l428 -634v625h36z" />
<glyph unicode="O" horiz-adv-x="714" d="M357 688q141 0 240 -102.5t99 -246.5t-99 -246t-240 -102t-240 102t-99 246t99 246.5t240 102.5zM54 339q0 -129 88.5 -220.5t214.5 -91.5t215 91.5t89 220.5t-89 221t-215 92t-214.5 -92t-88.5 -221z" />
<glyph unicode="P" horiz-adv-x="571" d="M54 679h267q97 0 165 -68t68 -165t-68 -164.5t-165 -67.5h-232v-214h-35v679zM89 643v-393h232q81 0 139 57.5t58 138.5t-58 139t-139 58h-232z" />
<glyph unicode="Q" horiz-adv-x="714" d="M357 688q141 0 240 -102.5t99 -246.5t-99 -246t-240 -102q-132 0 -190 -93q37 20 77 20q47 0 147 -30t128 -30q21 0 34.5 15t13.5 29h36q0 -29 -24.5 -54t-59.5 -25q-34 0 -133 29.5t-142 29.5q-27 0 -56 -14t-34 -33l-4 -14h-39v18q0 43 37 93.5t103 75.5 q-103 35 -168 126t-65 205q0 144 99 246.5t240 102.5zM357 27q126 0 215 91.5t89 220.5q0 130 -89.5 221.5t-214.5 91.5t-214 -91.5t-89 -221.5t89 -221t214 -91z" />
<glyph unicode="R" horiz-adv-x="571" d="M548 0q-26 0 -46 10.5t-40 41.5l-103 161q-31 48 -67.5 60.5t-112.5 12.5h-90v-286h-35v679h236q107 0 167.5 -58.5t60.5 -138.5q0 -93 -74 -150q-40 -32 -121 -38v-1q40 -20 66 -60l104 -162q13 -21 24.5 -28t30.5 -7h6v-36h-6zM89 321h201q94 0 143 49t49 112 q0 65 -50 113t-142 48h-201v-322z" />
<glyph unicode="S" horiz-adv-x="571" d="M286 27q98 0 165 45.5t67 106.5q0 54 -48 90t-116 57t-136 42.5t-116 61t-48 97.5q0 69 69 115t163 46q138 0 232 -84l-23 -27q-82 75 -209 75q-84 0 -140.5 -38t-56.5 -87q0 -40 34.5 -70t86 -46.5t112 -37t112 -41t86 -60t34.5 -93.5q0 -80 -79.5 -134t-188.5 -54 q-95 0 -163 33t-105 71l25 25q33 -33 95 -63t148 -30z" />
<glyph unicode="T" horiz-adv-x="571" d="M18 679h536v-36h-250v-643h-36v643h-250v36z" />
<glyph unicode="U" horiz-adv-x="571" d="M536 241q0 -103 -73 -176.5t-177 -73.5t-177 73.5t-73 176.5v438h35v-438q0 -88 63 -151t152 -63q88 0 151 62.5t63 151.5v438h36v-438z" />
<glyph unicode="V" horiz-adv-x="571" d="M1 672l34 13l251 -631l251 631l34 -13l-272 -681h-27z" />
<glyph unicode="W" horiz-adv-x="928" d="M1 672l34 13l233 -628l178 457v93h36v-93l179 -457l233 628l34 -13l-254 -681h-27l-183 471l-183 -471h-27z" />
<glyph unicode="X" horiz-adv-x="571" d="M21 668l29 21l236 -309l235 309l29 -21l-242 -317l260 -340l-29 -22l-253 332l-254 -332l-28 22l259 340z" />
<glyph unicode="Y" horiz-adv-x="571" d="M3 670l30 18l253 -414l252 414l31 -18l-265 -435v-235h-36v235z" />
<glyph unicode="Z" horiz-adv-x="535" d="M500 679v-24l-429 -618h-1v-1h448v-36h-500v23l429 619h1v1h-412v36h464z" />
<glyph unicode="[" horiz-adv-x="178" d="M89 714v-893h72v-35h-107v964h107v-36h-72z" />
<glyph unicode="\" horiz-adv-x="500" d="M30 696l470 -734l-30 -19l-470 734z" />
<glyph unicode="]" horiz-adv-x="178" d="M89 714h-71v36h107v-964h-107v35h71v893z" />
<glyph unicode="^" horiz-adv-x="464" d="M218 688q4 5 11 5q6 0 10 -5l193 -251l-21 -16l-182 236l-191 -237l-20 18z" />
<glyph unicode="_" horiz-adv-x="642" d="M625 -179h-607v27h607v-27z" />
<glyph unicode="`" horiz-adv-x="178" d="M146 536l-137 115l37 37l124 -125z" />
<glyph unicode="a" horiz-adv-x="491" d="M214 -9q-91 0 -143.5 43t-52.5 109q0 60 52.5 101.5t125.5 41.5h215v44q0 43 -46.5 75.5t-114.5 32.5q-87 0 -154 -41l-19 30q75 46 173 46q80 0 138 -41t58 -102v-330h-30l-4 98h-1q-29 -49 -81.5 -78t-115.5 -29zM214 27q80 0 138.5 50.5t58.5 109.5v63h-215 q-60 0 -101 -32t-41 -75q0 -50 41.5 -83t118.5 -33z" />
<glyph unicode="b" horiz-adv-x="535" d="M286 438q-81 0 -139 -61t-58 -145q0 -85 58 -145t139 -60t138.5 60t57.5 145q0 84 -57.5 145t-138.5 61zM286 473q96 0 164 -71t68 -170t-68 -170t-164 -71q-62 1 -114 34.5t-81 89.5h-3l-4 -115h-30v679h35v-331h1q29 56 81.5 90t114.5 35z" />
<glyph unicode="c" horiz-adv-x="464" d="M259 473q98 0 170 -77l-26 -25q-64 67 -144 67q-84 0 -144.5 -61t-60.5 -145t60.5 -144.5t144.5 -60.5q81 0 144 66l26 -25q-72 -77 -170 -77q-99 0 -170 71t-71 170t70.5 170t170.5 71z" />
<glyph unicode="d" horiz-adv-x="535" d="M250 27q81 0 138.5 60.5t57.5 144.5q0 85 -57.5 145.5t-138.5 60.5t-138.5 -60.5t-57.5 -145.5q0 -84 57.5 -144.5t138.5 -60.5zM250 -9q-96 0 -164 71t-68 170t68 170t164 71q62 -1 114.5 -35t81.5 -90v331h36v-679h-30l-4 115h-3q-29 -56 -81 -89.5t-114 -34.5z" />
<glyph unicode="e" horiz-adv-x="482" d="M228 250q16 0 34.5 6.5t32.5 13.5t35 23.5t29.5 23.5t30 27t24.5 22q-62 72 -155 72q-79 0 -138.5 -54.5t-66.5 -133.5h174zM227 214h-173q7 -79 66 -133t139 -54q88 0 150 65l26 -24q-72 -77 -176 -77q-100 0 -170.5 70.5t-70.5 170.5t71 170.5t170 70.5q59 0 110 -26.5 t85 -72.5l9 -13l-12 -11q-2 -2 -39 -35.5t-57.5 -49t-58 -33.5t-69.5 -18z" />
<glyph unicode="f" horiz-adv-x="321" d="M89 0v429h-71v35h71v72q0 63 44.5 107.5t107.5 44.5q42 0 76.5 -20.5t54.5 -55.5l-30 -18q-33 58 -101 58q-48 0 -82 -34t-34 -82v-72h143v-35h-143v-429h-36z" />
<glyph unicode="g" horiz-adv-x="535" d="M250 438q-81 0 -138.5 -61t-57.5 -145q0 -85 57.5 -145t138.5 -60t138.5 60t57.5 145q0 84 -57.5 145t-138.5 61zM250 473q62 -1 114 -34.5t81 -89.5h3l4 115h30v-437q0 -100 -70.5 -170.5t-170.5 -70.5q-105 0 -176 76l26 25q63 -66 150 -66q85 0 145 60.5t60 145.5v89 q-29 -56 -81.5 -90t-114.5 -35q-96 0 -164 71t-68 170t68 170t164 71z" />
<glyph unicode="h" horiz-adv-x="526" d="M54 679h35v-347h2q31 64 88 102.5t125 38.5q81 0 129.5 -43.5t48.5 -117.5v-312h-36v312q0 60 -38 93t-104 33q-89 0 -152 -68t-63 -165v-205h-35v679z" />
<glyph unicode="i" horiz-adv-x="142" d="M54 464h35v-464h-35v464zM40 612q0 13 9 22t22 9t22.5 -9t9.5 -22t-9.5 -22.5t-22.5 -9.5t-22 9.5t-9 22.5z" />
<glyph unicode="j" horiz-adv-x="142" d="M54 464h35v-544q0 -56 -39.5 -95t-94.5 -39h-9v35h9q41 0 70 29.5t29 69.5v544zM40 612q0 13 9 22t22 9t22.5 -9t9.5 -22t-9.5 -22.5t-22.5 -9.5t-22 9.5t-9 22.5z" />
<glyph unicode="k" horiz-adv-x="464" d="M54 679h35v-493l291 291l25 -25l-192 -193l167 -186q33 -37 61 -37h5v-36h-5q-25 0 -44 11.5t-43 37.5l-167 184l-98 -98v-135h-35v679z" />
<glyph unicode="l" horiz-adv-x="142" d="M54 679h35v-641q0 -2 2 -2v-36q-16 0 -26.5 11t-10.5 27v641z" />
<glyph unicode="m" horiz-adv-x="848" d="M54 464h31l3 -129h2q29 63 81.5 100.5t114.5 37.5q73 0 114 -36.5t46 -104.5q29 64 81.5 102.5t115.5 38.5q78 0 119.5 -41.5t41.5 -119.5v-312h-36v312q0 126 -125 126q-81 0 -139 -68t-58 -165v-205h-35v312q0 126 -125 126q-81 0 -139 -68t-58 -165v-205h-35v464z" />
<glyph unicode="n" horiz-adv-x="526" d="M54 464h30l4 -132h3q31 64 88 102.5t125 38.5q81 0 129.5 -43.5t48.5 -117.5v-312h-36v312q0 60 -38 93t-104 33q-89 0 -152 -68t-63 -165v-205h-35v464z" />
<glyph unicode="o" horiz-adv-x="500" d="M250 473q96 0 164 -70.5t68 -170.5t-68 -170.5t-164 -70.5t-164 70.5t-68 170.5t68 170.5t164 70.5zM250 438q-81 0 -138.5 -60.5t-57.5 -145.5t57.5 -145t138.5 -60t138.5 60t57.5 145t-57.5 145.5t-138.5 60.5z" />
<glyph unicode="p" horiz-adv-x="535" d="M286 438q-81 0 -139 -61t-58 -145q0 -85 58 -145t139 -60t138.5 60t57.5 145q0 84 -57.5 145t-138.5 61zM286 473q96 0 164 -71t68 -170t-68 -170t-164 -71q-62 1 -114.5 35t-81.5 90h-1v-330h-35v678h30l4 -115h3q29 56 81 89.5t114 34.5z" />
<glyph unicode="q" horiz-adv-x="535" d="M250 438q-81 0 -138.5 -61t-57.5 -145q0 -85 57.5 -145t138.5 -60t138.5 60t57.5 145q0 84 -57.5 145t-138.5 61zM250 473q62 -1 114 -34.5t81 -89.5h3l4 115h30v-643h18v-35h-54v330q-29 -56 -81.5 -90t-114.5 -35q-96 0 -164 71t-68 170t68 170t164 71z" />
<glyph unicode="r" horiz-adv-x="321" d="M54 464h30l4 -149h2q30 72 87.5 115t126.5 43l-4 -36q-87 -2 -149 -77.5t-62 -180.5v-179h-35v464z" />
<glyph unicode="s" d="M214 27q69 0 115 30.5t46 67.5q0 34 -33 56.5t-80.5 36t-94.5 28t-80 42t-33 69.5q0 50 47.5 83t112.5 33q104 0 161 -70l-27 -24q-49 59 -134 59q-50 0 -87.5 -23.5t-37.5 -57.5q0 -31 33 -51.5t80.5 -33.5t95 -28.5t80.5 -45t33 -73.5q0 -58 -59 -96t-138 -38 q-70 0 -120.5 23t-75.5 57l28 22q51 -66 168 -66z" />
<glyph unicode="t" horiz-adv-x="321" d="M89 571h36v-107h179v-35h-179v-304q0 -41 28.5 -69.5t69.5 -28.5q37 0 70 23l21 -29q-39 -30 -91 -30q-55 0 -94.5 39.5t-39.5 94.5v304h-71v35h71v107z" />
<glyph unicode="u" horiz-adv-x="526" d="M45 464h35v-312q0 -60 38.5 -92.5t104.5 -32.5q89 0 152 68t63 164v205h35v-464h-30l-4 132h-3q-31 -64 -88 -102.5t-125 -38.5q-81 0 -129.5 43.5t-48.5 117.5v312z" />
<glyph unicode="v" horiz-adv-x="517" d="M11 456l32 16l216 -425l216 425l32 -16l-236 -464h-24z" />
<glyph unicode="w" horiz-adv-x="785" d="M12 457l32 14l188 -419l143 317v77h36v-77l143 -317l188 419l32 -14l-208 -465h-25l-148 329l-148 -329h-25z" />
<glyph unicode="x" horiz-adv-x="464" d="M22 453l27 23l183 -207l183 207l27 -23l-186 -211l204 -230l-27 -24l-201 227l-201 -227l-27 24l204 230z" />
<glyph unicode="y" horiz-adv-x="500" d="M2 457l32 14l207 -466l224 467l33 -16l-277 -575q-45 -95 -120 -95q-33 0 -62 19.5t-46 45.5l30 19q13 -21 34.5 -35t43.5 -14q50 0 87 76l33 66z" />
<glyph unicode="z" horiz-adv-x="464" d="M36 464h393v-25l-353 -402v-1h370v-36h-428v25l353 403v1h-335v35z" />
<glyph unicode="{" horiz-adv-x="178" d="M54 366v259q0 74 29.5 99.5t77.5 25.5v-31q-36 0 -54 -18t-18 -72v-263q0 -70 -58 -98q58 -28 58 -98v-264q0 -54 18 -71.5t54 -17.5v-31q-48 0 -77.5 25.5t-29.5 99.5v259q0 21 -6 36t-15.5 22t-17.5 10t-15 3h-18v54h18q7 0 15 3t17.5 10t15.5 22t6 36z" />
<glyph unicode="|" horiz-adv-x="142" d="M54 719h35v-898h-35v898z" />
<glyph unicode="}" horiz-adv-x="178" d="M125 366q0 -21 6 -36t15.5 -22t17.5 -10t15 -3h17v-54h-17q-7 0 -15 -3t-17.5 -10t-15.5 -22t-6 -36v-259q0 -74 -29.5 -99.5t-77.5 -25.5v31q36 0 53.5 17.5t17.5 71.5v264q0 70 58 98q-58 28 -58 98v263q0 55 -17.5 72.5t-53.5 17.5v31q48 0 77.5 -25.5t29.5 -99.5 v-259z" />
<glyph unicode="~" horiz-adv-x="339" d="M93 386q21 0 43 -11l84 -39q15 -7 27 -7q27 0 35 34l36 -6q-5 -30 -24 -47t-47 -17q-21 0 -43 11l-84 39q-15 7 -27 7q-28 0 -36 -34l-36 5q5 32 25 48.5t47 16.5z" />
<glyph unicode="&#xa1;" horiz-adv-x="142" d="M103 442q0 -13 -9.5 -22t-22.5 -9t-22 9t-9 22t9 22t22 9t22.5 -9t9.5 -22zM89 -214h-35v500h35v-500z" />
<glyph unicode="&#xa2;" horiz-adv-x="464" d="M268 473v-410q82 3 141 65l26 -24q-71 -74 -167 -77v-63h-36v64q-90 11 -152 79.5t-62 160.5t62 160.5t152 78.5v64h36v-62q96 -3 167 -77l-26 -24q-59 62 -141 65zM232 64v407q-76 -10 -127 -68t-51 -135t51.5 -135.5t126.5 -68.5z" />
<glyph unicode="&#xa3;" horiz-adv-x="500" d="M161 509v-152h143v-36h-143v-169q0 -70 -54 -116h339v18h36v-54h-473v36q48 0 82 34t34 82v169h-71v36h71v152q0 63 44.5 107.5t107.5 44.5q41 0 76 -21t55 -55l-31 -18q-33 58 -100 58q-48 0 -82 -34t-34 -82z" />
<glyph unicode="&#xa4;" horiz-adv-x="321" d="M160 434q44 0 78 -27l42 44l24 -27l-42 -42q26 -34 26 -76q0 -43 -24 -74l40 -40l-27 -23l-38 37q-35 -27 -79 -27q-43 0 -76 25l-40 -40l-23 27l38 38q-27 34 -27 77q0 44 28 80l-43 43l27 23l42 -41q29 23 74 23zM95 371q-27 -27 -27 -65t27 -65t65 -27t65 27t27 65 t-27 65t-65 27t-65 -27z" />
<glyph unicode="&#xa5;" horiz-adv-x="571" d="M125 250v36h118l-217 357h-17v36h37l238 -393h4l241 402l32 -18l-232 -384h117v-36h-139l-3 -6v-65h142v-36h-142v-143h-36v143h-143v36h143v65l-4 6h-139z" />
<glyph unicode="&#xa6;" horiz-adv-x="142" d="M54 357v357h35v-357h-35zM89 179v-358h-35v358h35z" />
<glyph unicode="&#xa7;" horiz-adv-x="553" d="M390 54q50 17 75.5 47.5t25.5 66.5q0 53 -37 91.5t-83.5 56.5t-110 43.5t-97.5 50.5q-50 -17 -75.5 -47.5t-25.5 -66.5q0 -53 37 -91.5t83.5 -56.5t110 -43.5t97.5 -50.5zM277 643q-73 0 -108 -31t-35 -80q0 -51 40.5 -85t98 -55.5t115.5 -45t98.5 -68t40.5 -110.5 q0 -45 -27.5 -82t-78.5 -58q34 -40 34 -96q0 -63 -44.5 -104.5t-133.5 -41.5q-74 0 -126.5 52.5t-52.5 125.5h36q0 -59 42 -101t101 -42q73 0 108 31t35 80q0 51 -40.5 85t-98 55.5t-115.5 45t-98.5 68t-40.5 110.5q0 43 26.5 80.5t79.5 60.5q-35 42 -35 95q0 63 45 105 t134 42q73 0 125.5 -52.5t52.5 -126.5h-35q0 59 -42 101t-101 42z" />
<glyph unicode="&#xa8;" horiz-adv-x="321" d="M237 594q0 13 9 22t22 9t22 -9t9 -22t-9 -22.5t-22 -9.5t-22 9.5t-9 22.5zM27 594q0 13 9 22t22 9t22 -9t9 -22t-9 -22.5t-22 -9.5t-22 9.5t-9 22.5z" />
<glyph unicode="&#xa9;" horiz-adv-x="812" d="M411 549q-85 0 -145.5 -60.5t-60.5 -144.5t61 -145t145 -61q80 0 143 66l27 -25q-71 -76 -170 -76t-170 71t-71 170t70.5 170t170.5 71q98 0 170 -77l-27 -25q-63 66 -143 66zM736 169q-49 -80 -138 -128q-87 -46 -192 -46t-192 46q-88 47 -137 128q-50 78 -50 172 t50 172q49 81 137 128q91 48 192 48t192 -48q89 -48 138 -128q50 -78 50 -172t-50 -172zM750 341q0 84 -45 154q-47 74 -124 115q-81 44 -175 44t-175 -44q-77 -41 -124 -115q-45 -70 -45 -154q0 -83 45 -153q48 -75 124 -116q79 -42 175 -42q97 0 175 42q76 41 124 116 q45 70 45 153z" />
<glyph unicode="&#xaa;" horiz-adv-x="357" d="M304 571q0 90 -107 90q-73 0 -114 -31l-23 28q48 38 137 38q62 0 102 -30t40 -95v-259h-31l-4 37q-52 -45 -133 -45q-67 0 -110 33t-43 87q0 48 41.5 80t111.5 32h133v35zM304 406v94h-133q-57 0 -87 -23t-30 -53q0 -39 33 -62t84 -23q43 0 80.5 18.5t52.5 48.5z" />
<glyph unicode="&#xab;" horiz-adv-x="321" d="M45 233v-3l116 -140l-28 -22l-124 150v28l124 152l28 -23zM188 233v-3l116 -140l-28 -22l-124 150v28l124 152l28 -23z" />
<glyph unicode="&#xac;" horiz-adv-x="500" d="M18 357h428v-250h-35v214h-393v36z" />
<glyph unicode="&#xad;" horiz-adv-x="339" d="M312 286h-285v35h285v-35z" />
<glyph unicode="&#xae;" horiz-adv-x="812" d="M425 355q51 0 79.5 27t28.5 63t-28 62.5t-80 26.5h-113v-179h113zM558 148q-4 0 -16 2q-15 4 -20 8q-12 9 -21 24l-62 97q-18 29 -30 35t-51 6h-46v-165h-36v415h149q68 0 106 -37t38 -88q0 -46 -32.5 -78.5t-91.5 -37.5q11 -11 24 -30l62 -97q6 -10 12 -14l2 -1l4 -2 q4 -1 9 -1h25v-36h-25zM750 341q0 84 -45 154q-47 74 -124 115q-81 44 -175 44t-175 -44q-77 -41 -124 -115q-45 -70 -45 -154q0 -83 45 -153q48 -75 124 -116q79 -42 175 -42q97 0 175 42q76 41 124 116q45 70 45 153zM736 169q-49 -80 -138 -128q-87 -46 -192 -46t-192 46 q-88 47 -137 128q-50 78 -50 172t50 172q49 81 137 128q91 48 192 48t192 -48q89 -48 138 -128q50 -78 50 -172t-50 -172z" />
<glyph unicode="&#xaf;" horiz-adv-x="321" d="M304 607h-286v36h286v-36z" />
<glyph unicode="&#xb0;" horiz-adv-x="214" d="M107 643q-19 0 -36 -16.5t-17 -37.5t17 -37t36 -16q20 0 37 16t17 37t-17.5 37.5t-36.5 16.5zM107 679q34 0 61.5 -27t27.5 -63q0 -35 -27.5 -62t-61.5 -27t-61.5 27t-27.5 62q0 36 27.5 63t61.5 27z" />
<glyph unicode="&#xb1;" horiz-adv-x="446" d="M420 71h-393v36h393v-36zM241 393h179v-36h-179v-178h-36v178h-178v36h178v178h36v-178z" />
<glyph unicode="&#xb2;" horiz-adv-x="285" d="M268 429h-250v29l138 137q43 42 59.5 68.5t16.5 49.5v1q0 37 -26 63.5t-63 26.5t-63 -26.5t-26 -63.5h-36q0 52 36.5 88.5t88.5 36.5t88.5 -36.5t36.5 -88.5v-1q0 -33 -21 -65.5t-66 -77.5l-107 -106h194v-35z" />
<glyph unicode="&#xb3;" horiz-adv-x="285" d="M143 664q28 0 48 20.5t20 49.5t-20 49.5t-48 20.5t-48 -20.5t-20 -49.5h-36q0 43 30.5 74t73.5 31t73 -31t30 -74q0 -54 -43 -86q30 -17 47.5 -47t17.5 -65q0 -52 -36.5 -88.5t-88.5 -36.5t-88.5 36.5t-36.5 88.5h36q0 -37 26 -63.5t63 -26.5t63 26.5t26 63.5 q0 38 -26 65.5t-63 27.5v35z" />
<glyph unicode="&#xb4;" horiz-adv-x="178" d="M41 545l-25 25l99 100l26 -25z" />
<glyph unicode="&#xb5;" horiz-adv-x="535" d="M446 132q-30 -65 -87 -103t-127 -38q-112 0 -158 77l6 -247h-26v331v43v269h35v-312q0 -60 38.5 -92.5t104.5 -32.5q87 0 150.5 66.5t63.5 165.5v205h36v-464h-30l-5 132h-1z" />
<glyph unicode="&#xb6;" horiz-adv-x="392" d="M161 -179v536q-59 0 -101 42t-42 101t42 101t101 42h178v-822h-35v786h-108v-786h-35zM161 607q-45 0 -76 -31t-31 -76t31 -76t76 -31v214z" />
<glyph unicode="&#xb7;" horiz-adv-x="142" d="M36 237q0 13 9 22t22 9t22 -9t9 -22t-9 -22.5t-22 -9.5t-22 9.5t-9 22.5z" />
<glyph unicode="&#xb8;" horiz-adv-x="366" d="M124 -71l-22 6l22 77l26 -7l-12 -41q12 4 28 4q38 0 61 -26t23 -60q0 -36 -27 -56.5t-61 -20.5q-53 0 -78 42l23 14q18 -29 55 -29q25 0 38.5 16t13.5 38t-12.5 38.5t-35.5 16.5q-15 0 -42 -12z" />
<glyph unicode="&#xb9;" horiz-adv-x="142" d="M54 762l-17 -18l-27 23l48 54h31v-392h-35v333z" />
<glyph unicode="&#xba;" d="M214 661q-66 0 -113 -47.5t-47 -113.5t47 -113.5t113 -47.5t113.5 47.5t47.5 113.5t-47.5 113.5t-113.5 47.5zM411 500q0 -81 -58 -138.5t-139 -57.5t-138.5 57.5t-57.5 138.5t57.5 138.5t138.5 57.5t139 -57.5t58 -138.5z" />
<glyph unicode="&#xbb;" horiz-adv-x="321" d="M134 233l-116 142l28 23l124 -152v-28l-124 -150l-28 22l116 140v3zM277 233l-116 142l27 23l124 -152v-28l-124 -150l-27 22l116 140v3z" />
<glyph unicode="&#xbc;" horiz-adv-x="607" d="M54 620l-17 -19l-27 23l48 55h31v-393h-35v334zM518 214h36v-143h35v-35h-35v-72h-36v72h-197v29l3 5q74 112 101.5 171t27.5 116h35q0 -63 -26.5 -124t-92.5 -162h149v143zM487 619l26 -23l-500 -572l-26 23z" />
<glyph unicode="&#xbd;" horiz-adv-x="642" d="M54 620l-17 -19l-27 23l48 55h31v-393h-35v334zM625 -36h-250v30l138 136q76 75 76 119v1q0 37 -26 63t-63 26t-63 -26t-26 -63h-36q0 52 36.5 88.5t88.5 36.5t88.5 -36.5t36.5 -88.5v-1q0 -59 -87 -144l-107 -105h194v-36zM487 619l26 -23l-500 -572l-26 23z" />
<glyph unicode="&#xbe;" horiz-adv-x="750" d="M143 521q28 0 48 20.5t20 49.5t-20 49.5t-48 20.5t-48 -20.5t-20 -49.5h-36q0 43 30.5 74t73.5 31t73 -31t30 -74q0 -54 -43 -86q30 -17 47.5 -47t17.5 -65q0 -52 -36.5 -88.5t-88.5 -36.5t-88.5 36.5t-36.5 88.5h36q0 -37 26 -63t63 -26t63 26t26 63q0 38 -26 65.5 t-63 27.5v35zM661 214h35v-143h36v-35h-36v-72h-35v72h-197v29l3 5q74 112 101.5 171t27.5 116h35q0 -63 -26.5 -124t-92.5 -162h149v143zM629 619l27 -23l-500 -572l-27 23z" />
<glyph unicode="&#xbf;" horiz-adv-x="392" d="M246 442q0 -13 -9.5 -22t-22.5 -9t-22 9t-9 22t9 22t22 9t22.5 -9t9.5 -22zM232 207q0 -34 -18.5 -59.5t-44.5 -42t-52 -34t-44.5 -47t-18.5 -69.5q0 -59 41.5 -101t100.5 -42t101 42t42 101l36 9q0 -74 -53 -130.5t-126 -56.5q-74 0 -126 52.5t-52 125.5q0 46 18.5 80 t44.5 53.5t52 36t44.5 36.5t18.5 46v79h36v-79z" />
<glyph unicode="&#xc0;" horiz-adv-x="571" d="M122 214h327l-163 410zM108 179l-73 -185l-34 12l271 682h27l272 -682l-34 -12l-74 185h-355zM316 759l-99 100l26 25l99 -100z" />
<glyph unicode="&#xc1;" horiz-adv-x="571" d="M122 214h327l-163 410zM108 179l-73 -185l-34 12l271 682h27l272 -682l-34 -12l-74 185h-355zM273 759l-25 25l99 100l26 -25z" />
<glyph unicode="&#xc2;" horiz-adv-x="571" d="M122 214h327l-163 410zM108 179l-73 -185l-34 12l271 682h27l272 -682l-34 -12l-74 185h-355zM296 848h-3l-123 -98l-23 28l133 106h29l133 -106l-22 -28z" />
<glyph unicode="&#xc3;" horiz-adv-x="571" d="M122 214h327l-163 410zM108 179l-73 -185l-34 12l271 682h27l272 -682l-34 -12l-74 185h-355zM329 841q20 -9 30 -9q24 0 30 31l6 25l34 -7l-4 -24q-11 -60 -66 -60q-24 0 -43 10l-55 31q-18 8 -31 8q-24 0 -30 -31l-5 -24l-35 6l4 24q11 60 66 60q24 0 43 -10z" />
<glyph unicode="&#xc4;" horiz-adv-x="571" d="M122 214h327l-163 410zM108 179l-73 -185l-34 12l271 682h27l272 -682l-34 -12l-74 185h-355zM371 808q0 13 9 22t22 9t22 -9t9 -22t-9 -22t-22 -9t-22 9t-9 22zM161 808q0 13 9 22t22 9t22 -9t9 -22t-9 -22t-22 -9t-22 9t-9 22z" />
<glyph unicode="&#xc5;" horiz-adv-x="571" d="M286 839q-22 0 -43 -19q-20 -20 -20 -43t20 -43t43 -20q21 0 43 20q19 19 19 43t-19 43q-21 19 -43 19zM122 214h327l-163 410zM286 866q32 0 60 -27q29 -27 29 -62q0 -36 -29 -63q-22 -21 -47 -25l272 -683l-34 -12l-74 185h-355l-73 -185l-34 12l272 683q-25 4 -48 26 q-29 27 -29 62t29 62t61 27z" />
<glyph unicode="&#xc6;" horiz-adv-x="839" d="M343 679h443v-36h-322v-286h179v-36h-179v-285h357v-36h-392v179h-297l-98 -196l-32 16zM150 214h279v429h-64z" />
<glyph unicode="&#xc7;" horiz-adv-x="607" d="M308 -84l-22 6l21 73q-125 19 -207 116t-82 228q0 145 97.5 247t241.5 102q127 0 223 -80l-23 -27q-84 71 -200 71q-128 0 -215.5 -91.5t-87.5 -221.5t87.5 -221t215.5 -91q117 0 200 70l23 -26q-96 -80 -223 -80q-15 0 -23 1l-12 -40q9 3 28 3q38 0 61 -25.5t23 -59.5 q0 -36 -27 -56.5t-61 -20.5q-53 0 -78 42l23 13q17 -28 55 -28q25 0 38.5 15.5t13.5 37.5t-12.5 39t-35.5 17q-12 0 -42 -13z" />
<glyph unicode="&#xc8;" horiz-adv-x="535" d="M89 643v-286h250v-36h-250v-285h429v-36h-464v679h428v-36h-393zM289 759l-99 100l26 25l99 -100z" />
<glyph unicode="&#xc9;" horiz-adv-x="535" d="M89 643v-286h250v-36h-250v-285h429v-36h-464v679h428v-36h-393zM246 759l-25 25l100 100l25 -25z" />
<glyph unicode="&#xca;" horiz-adv-x="535" d="M89 643v-286h250v-36h-250v-285h429v-36h-464v679h428v-36h-393zM270 848h-4l-123 -98l-22 28l133 106h28l133 -106l-22 -28z" />
<glyph unicode="&#xcb;" horiz-adv-x="535" d="M89 643v-286h250v-36h-250v-285h429v-36h-464v679h428v-36h-393zM344 808q0 13 9 22t22 9t22 -9t9 -22t-9 -22t-22 -9t-22 9t-9 22zM134 808q0 13 9 22t22 9t22 -9t9 -22t-9 -22t-22 -9t-22 9t-9 22z" />
<glyph unicode="&#xcc;" horiz-adv-x="142" d="M89 0h-35v679h35v-679zM93 759l-99 100l26 25l99 -100z" />
<glyph unicode="&#xcd;" horiz-adv-x="142" d="M89 0h-35v679h35v-679zM50 759l-25 25l99 100l26 -25z" />
<glyph unicode="&#xce;" horiz-adv-x="142" d="M89 0h-35v679h35v-679zM73 848h-3l-124 -98l-22 28l133 106h29l133 -106l-23 -28z" />
<glyph unicode="&#xcf;" horiz-adv-x="142" d="M89 0h-35v679h35v-679zM125 808q0 13 9 22t22 9t22.5 -9t9.5 -22t-9.5 -22t-22.5 -9t-22 9t-9 22zM-45 808q0 13 9.5 22t22.5 9t22 -9t9 -22t-9 -22t-22 -9t-22.5 9t-9.5 22z" />
<glyph unicode="&#xd0;" horiz-adv-x="678" d="M125 36h196q126 0 215 88.5t89 214.5t-89 215t-215 89h-196v-286h179v-36h-179v-285zM89 679h232q141 0 240.5 -99.5t99.5 -240.5t-99.5 -240t-240.5 -99h-232v321h-71v36h71v322z" />
<glyph unicode="&#xd1;" horiz-adv-x="607" d="M368 832q24 0 30 31l5 24l35 -6l-4 -24q-11 -60 -66 -60q-28 0 -70.5 24.5t-58.5 24.5q-24 0 -30 -31l-6 -24l-35 6l5 24q11 60 66 60q28 0 70.5 -24.5t58.5 -24.5zM554 679v-688h-37l-428 633v-624h-35v688h36l428 -634v625h36z" />
<glyph unicode="&#xd2;" horiz-adv-x="714" d="M357 688q141 0 240 -102.5t99 -246.5t-99 -246t-240 -102t-240 102t-99 246t99 246.5t240 102.5zM54 339q0 -130 89 -221t214 -91q126 0 215 91.5t89 220.5q0 130 -89.5 221.5t-214.5 91.5t-214 -91.5t-89 -221.5zM379 759l-100 100l26 25l99 -100z" />
<glyph unicode="&#xd3;" horiz-adv-x="714" d="M357 688q141 0 240 -102.5t99 -246.5t-99 -246t-240 -102t-240 102t-99 246t99 246.5t240 102.5zM54 339q0 -130 89 -221t214 -91q126 0 215 91.5t89 220.5q0 130 -89.5 221.5t-214.5 91.5t-214 -91.5t-89 -221.5zM336 759l-25 25l99 100l26 -25z" />
<glyph unicode="&#xd4;" horiz-adv-x="714" d="M357 688q141 0 240 -102.5t99 -246.5t-99 -246t-240 -102t-240 102t-99 246t99 246.5t240 102.5zM54 339q0 -130 89 -221t214 -91q126 0 215 91.5t89 220.5q0 130 -89.5 221.5t-214.5 91.5t-214 -91.5t-89 -221.5zM359 848h-4l-123 -98l-22 28l133 106h28l133 -106 l-22 -28z" />
<glyph unicode="&#xd5;" horiz-adv-x="714" d="M357 688q141 0 240 -102.5t99 -246.5t-99 -246t-240 -102t-240 102t-99 246t99 246.5t240 102.5zM54 339q0 -130 89 -221t214 -91q126 0 215 91.5t89 220.5q0 130 -89.5 221.5t-214.5 91.5t-214 -91.5t-89 -221.5zM391 841q20 -9 30 -9q25 0 31 31l5 25l35 -7l-4 -24 q-11 -60 -67 -60q-23 0 -42 10l-56 31q-18 8 -30 8q-25 0 -31 -31l-5 -24l-35 6l5 24q11 60 66 60q24 0 43 -10z" />
<glyph unicode="&#xd6;" horiz-adv-x="714" d="M357 688q141 0 240 -102.5t99 -246.5t-99 -246t-240 -102t-240 102t-99 246t99 246.5t240 102.5zM54 339q0 -130 89 -221t214 -91q126 0 215 91.5t89 220.5q0 130 -89.5 221.5t-214.5 91.5t-214 -91.5t-89 -221.5zM433 808q0 13 9 22t22 9t22.5 -9t9.5 -22t-9.5 -22 t-22.5 -9t-22 9t-9 22zM223 808q0 13 9 22t22 9t22.5 -9t9.5 -22t-9.5 -22t-22.5 -9t-22 9t-9 22z" />
<glyph unicode="&#xd7;" horiz-adv-x="285" d="M143 346l101 102l25 -26l-101 -101l102 -100l-26 -26l-101 101l-101 -101l-26 26l102 100l-102 101l26 26z" />
<glyph unicode="&#xd8;" horiz-adv-x="714" d="M666 682l25 -25l-81 -84q86 -99 86 -234q0 -145 -97.5 -246.5t-241.5 -101.5q-132 0 -228 88l-81 -83l-25 25l81 84q-86 99 -86 234q0 145 97.5 247t241.5 102q131 0 228 -89zM560 573q-85 79 -203 79q-128 0 -215.5 -91.5t-87.5 -221.5q0 -121 75 -209zM585 548 l-431 -443q84 -78 203 -78q128 0 216 91t88 221q0 120 -76 209z" />
<glyph unicode="&#xd9;" horiz-adv-x="571" d="M308 759l-99 100l25 25l100 -100zM536 241q0 -103 -73 -176.5t-177 -73.5t-177 73.5t-73 176.5v438h35v-438q0 -88 63 -151t152 -63q88 0 151 62.5t63 151.5v438h36v-438z" />
<glyph unicode="&#xda;" horiz-adv-x="571" d="M265 759l-25 25l99 100l26 -25zM536 241q0 -103 -73 -176.5t-177 -73.5t-177 73.5t-73 176.5v438h35v-438q0 -88 63 -151t152 -63q88 0 151 62.5t63 151.5v438h36v-438z" />
<glyph unicode="&#xdb;" horiz-adv-x="571" d="M288 848h-4l-123 -98l-23 27l133 107h29l133 -107l-22 -27zM536 241q0 -103 -73 -176.5t-177 -73.5t-177 73.5t-73 176.5v438h35v-438q0 -88 63 -151t152 -63q88 0 151 62.5t63 151.5v438h36v-438z" />
<glyph unicode="&#xdc;" horiz-adv-x="571" d="M361 808q0 13 9.5 22t22.5 9t22 -9t9 -22t-9 -22.5t-22 -9.5t-22.5 9.5t-9.5 22.5zM152 808q0 13 9 22t22 9t22 -9t9 -22t-9 -22.5t-22 -9.5t-22 9.5t-9 22.5zM536 241q0 -103 -73 -176.5t-177 -73.5t-177 73.5t-73 176.5v438h35v-438q0 -88 63 -151t152 -63 q88 0 151 62.5t63 151.5v438h36v-438z" />
<glyph unicode="&#xdd;" horiz-adv-x="571" d="M265 759l-25 25l99 100l26 -25zM3 670l30 18l253 -414l252 414l31 -18l-265 -435v-235h-36v235z" />
<glyph unicode="&#xde;" horiz-adv-x="535" d="M89 571v-392h197q81 0 138.5 57.5t57.5 138.5t-57.5 138.5t-138.5 57.5h-197zM54 679h35v-72h197q97 0 164.5 -67.5t67.5 -164.5t-67.5 -164.5t-164.5 -67.5h-197v-143h-35v679z" />
<glyph unicode="&#xdf;" horiz-adv-x="500" d="M321 27q59 0 92 28.5t33 74.5t-36 96t-105 89q-42 23 -116 53l-10 4v57h17q63 0 103 38.5t40 86.5q0 45 -36 71.5t-86 26.5q-52 0 -90 -30t-38 -86v-536h-35v429h-36v35h36v72q0 72 48.5 112t114.5 40q63 0 110.5 -36t47.5 -98q0 -67 -53 -115q-41 -37 -108 -42v-8 q78 -28 106 -43q81 -44 121.5 -101.5t40.5 -114.5q0 -60 -43.5 -99.5t-117.5 -39.5q-50 0 -98 20t-77 59l29 21q48 -64 146 -64z" />
<glyph unicode="&#xe0;" horiz-adv-x="491" d="M214 -9q-91 0 -143.5 43t-52.5 109q0 60 52.5 101.5t125.5 41.5h215v44q0 43 -46.5 75.5t-114.5 32.5q-87 0 -154 -41l-19 30q75 46 173 46q80 0 138 -41t58 -102v-330h-30l-4 98h-1q-29 -49 -81.5 -78t-115.5 -29zM214 27q80 0 138.5 50.5t58.5 109.5v63h-215 q-60 0 -101 -32t-41 -75q0 -50 41.5 -83t118.5 -33zM276 545l-99 100l25 25l100 -100z" />
<glyph unicode="&#xe1;" horiz-adv-x="491" d="M214 -9q-91 0 -143.5 43t-52.5 109q0 60 52.5 101.5t125.5 41.5h215v44q0 43 -46.5 75.5t-114.5 32.5q-87 0 -154 -41l-19 30q75 46 173 46q80 0 138 -41t58 -102v-330h-30l-4 98h-1q-29 -49 -81.5 -78t-115.5 -29zM214 27q80 0 138.5 50.5t58.5 109.5v63h-215 q-60 0 -101 -32t-41 -75q0 -50 41.5 -83t118.5 -33zM233 545l-25 25l99 100l26 -25z" />
<glyph unicode="&#xe2;" horiz-adv-x="491" d="M214 -9q-91 0 -143.5 43t-52.5 109q0 60 52.5 101.5t125.5 41.5h215v44q0 43 -46.5 75.5t-114.5 32.5q-87 0 -154 -41l-19 30q75 46 173 46q80 0 138 -41t58 -102v-330h-30l-4 98h-1q-29 -49 -81.5 -78t-115.5 -29zM214 27q80 0 138.5 50.5t58.5 109.5v63h-215 q-60 0 -101 -32t-41 -75q0 -50 41.5 -83t118.5 -33zM257 634h-4l-123 -98l-23 27l133 107h29l133 -107l-22 -27z" />
<glyph unicode="&#xe3;" horiz-adv-x="491" d="M319 618q24 0 30 31l5 24l35 -6l-4 -24q-11 -60 -66 -60q-28 0 -70.5 24.5t-58.5 24.5q-24 0 -30 -31l-6 -24l-35 6l5 24q11 60 66 60q28 0 70.5 -24.5t58.5 -24.5zM214 -9q-91 0 -143.5 43t-52.5 109q0 60 52.5 101.5t125.5 41.5h215v44q0 43 -46.5 75.5t-114.5 32.5 q-87 0 -154 -41l-19 30q75 46 173 46q80 0 138 -41t58 -102v-330h-30l-4 98h-1q-29 -49 -81.5 -78t-115.5 -29zM214 27q80 0 138.5 50.5t58.5 109.5v63h-215q-60 0 -101 -32t-41 -75q0 -50 41.5 -83t118.5 -33z" />
<glyph unicode="&#xe4;" horiz-adv-x="491" d="M330 594q0 13 9.5 22t22.5 9t22 -9t9 -22t-9 -22.5t-22 -9.5t-22.5 9.5t-9.5 22.5zM121 594q0 13 9 22t22 9t22 -9t9 -22t-9 -22.5t-22 -9.5t-22 9.5t-9 22.5zM214 -9q-91 0 -143.5 43t-52.5 109q0 60 52.5 101.5t125.5 41.5h215v44q0 43 -46.5 75.5t-114.5 32.5 q-87 0 -154 -41l-19 30q75 46 173 46q80 0 138 -41t58 -102v-330h-30l-4 98h-1q-29 -49 -81.5 -78t-115.5 -29zM214 27q80 0 138.5 50.5t58.5 109.5v63h-215q-60 0 -101 -32t-41 -75q0 -50 41.5 -83t118.5 -33z" />
<glyph unicode="&#xe5;" horiz-adv-x="491" d="M254 679q32 0 61 -27q28 -27 28 -63q0 -35 -28 -62q-29 -27 -61 -27q-31 0 -61 28q-28 27 -28 61q0 36 28 63t61 27zM254 652q-21 0 -43 -20q-19 -19 -19 -43t19 -43t43 -19q22 0 43 19q20 20 20 43t-20 43q-22 20 -43 20zM214 -9q-91 0 -143.5 43t-52.5 109 q0 60 52.5 101.5t125.5 41.5h215v44q0 43 -46.5 75.5t-114.5 32.5q-87 0 -154 -41l-19 30q75 46 173 46q80 0 138 -41t58 -102v-330h-30l-4 98h-1q-29 -49 -81.5 -78t-115.5 -29zM214 27q80 0 138.5 50.5t58.5 109.5v63h-215q-60 0 -101 -32t-41 -75q0 -50 41.5 -83 t118.5 -33z" />
<glyph unicode="&#xe6;" horiz-adv-x="866" d="M411 120v94h-197q-76 0 -118 -29.5t-42 -68.5q0 -38 40 -63.5t120 -25.5q59 0 117.5 25.5t79.5 67.5zM447 214q7 -79 66 -133t139 -54q88 0 150 65l26 -24q-72 -77 -176 -77q-64 0 -118.5 31t-87.5 84l-4 -106h-27l-3 73h-2q-34 -39 -88 -60.5t-108 -21.5 q-96 0 -146 36.5t-50 88.5q0 54 51.5 94t144.5 40h197v62q0 68 -45.5 97t-111.5 29q-47 0 -89.5 -12t-64.5 -30l-22 27q28 23 77 36.5t99 13.5q71 0 123.5 -29.5t65.5 -91.5q32 55 87.5 88t121.5 33q121 0 194 -99l10 -13l-12 -11q-2 -2 -39 -35.5t-57.5 -49t-58 -33.5 t-69.5 -18h-173zM621 250q16 0 34.5 6.5t32.5 13.5t35 23.5t29.5 23.5t30 27t24.5 22q-62 72 -155 72q-79 0 -138.5 -54.5t-66.5 -133.5h174z" />
<glyph unicode="&#xe7;" horiz-adv-x="464" d="M259 473q98 0 170 -77l-26 -25q-64 67 -144 67q-84 0 -144.5 -61t-60.5 -145t60.5 -144.5t144.5 -60.5q81 0 144 66l26 -25q-72 -77 -170 -77h-11l-13 -46q9 3 27 3q38 0 61 -26t23 -60q0 -36 -26.5 -56t-60.5 -20q-54 0 -79 42l24 13q18 -29 55 -29q25 0 38.5 16 t13.5 38t-13 38.5t-36 16.5q-14 0 -41 -12l-23 6l23 79q-86 14 -144.5 81.5t-58.5 156.5q0 99 70.5 170t170.5 71z" />
<glyph unicode="&#xe8;" horiz-adv-x="482" d="M281 545l-99 100l25 25l100 -100zM228 250q16 0 34.5 6.5t32.5 13.5t35 23.5t29.5 23.5t30 27t24.5 22q-62 72 -155 72q-79 0 -138.5 -54.5t-66.5 -133.5h174zM227 214h-173q7 -79 66 -133t139 -54q88 0 150 65l26 -24q-72 -77 -176 -77q-100 0 -170.5 70.5t-70.5 170.5 t71 170.5t170 70.5q59 0 110 -26.5t85 -72.5l9 -13l-12 -11q-2 -2 -39 -35.5t-57.5 -49t-58 -33.5t-69.5 -18z" />
<glyph unicode="&#xe9;" horiz-adv-x="482" d="M238 545l-25 25l99 100l26 -25zM228 250q16 0 34.5 6.5t32.5 13.5t35 23.5t29.5 23.5t30 27t24.5 22q-62 72 -155 72q-79 0 -138.5 -54.5t-66.5 -133.5h174zM227 214h-173q7 -79 66 -133t139 -54q88 0 150 65l26 -24q-72 -77 -176 -77q-100 0 -170.5 70.5t-70.5 170.5 t71 170.5t170 70.5q59 0 110 -26.5t85 -72.5l9 -13l-12 -11q-2 -2 -39 -35.5t-57.5 -49t-58 -33.5t-69.5 -18z" />
<glyph unicode="&#xea;" horiz-adv-x="482" d="M261 634h-4l-123 -98l-23 27l133 107h29l133 -107l-22 -27zM228 250q16 0 34.5 6.5t32.5 13.5t35 23.5t29.5 23.5t30 27t24.5 22q-62 72 -155 72q-79 0 -138.5 -54.5t-66.5 -133.5h174zM227 214h-173q7 -79 66 -133t139 -54q88 0 150 65l26 -24q-72 -77 -176 -77 q-100 0 -170.5 70.5t-70.5 170.5t71 170.5t170 70.5q59 0 110 -26.5t85 -72.5l9 -13l-12 -11q-2 -2 -39 -35.5t-57.5 -49t-58 -33.5t-69.5 -18z" />
<glyph unicode="&#xeb;" horiz-adv-x="482" d="M334 594q0 13 9.5 22t22.5 9t22 -9t9 -22t-9 -22.5t-22 -9.5t-22.5 9.5t-9.5 22.5zM125 594q0 13 9 22t22 9t22 -9t9 -22t-9 -22.5t-22 -9.5t-22 9.5t-9 22.5zM228 250q16 0 34.5 6.5t32.5 13.5t35 23.5t29.5 23.5t30 27t24.5 22q-62 72 -155 72q-79 0 -138.5 -54.5 t-66.5 -133.5h174zM227 214h-173q7 -79 66 -133t139 -54q88 0 150 65l26 -24q-72 -77 -176 -77q-100 0 -170.5 70.5t-70.5 170.5t71 170.5t170 70.5q59 0 110 -26.5t85 -72.5l9 -13l-12 -11q-2 -2 -39 -35.5t-57.5 -49t-58 -33.5t-69.5 -18z" />
<glyph unicode="&#xec;" horiz-adv-x="142" d="M93 545l-99 100l25 25l100 -100zM54 464h35v-464h-35v464z" />
<glyph unicode="&#xed;" horiz-adv-x="142" d="M50 545l-25 25l99 100l26 -25zM54 464h35v-464h-35v464z" />
<glyph unicode="&#xee;" horiz-adv-x="142" d="M54 464h35v-464h-35v464zM57 670h29l88 -72l-22 -27l-79 63h-3l-79 -63l-22 27z" />
<glyph unicode="&#xef;" horiz-adv-x="142" d="M54 464h35v-464h-35v464zM107 594q0 13 9 22t22 9t22.5 -9t9.5 -22t-9.5 -22.5t-22.5 -9.5t-22 9.5t-9 22.5zM-27 594q0 13 9 22t22 9t22.5 -9t9.5 -22t-9.5 -22.5t-22.5 -9.5t-22 9.5t-9 22.5z" />
<glyph unicode="&#xf0;" d="M205 -9q-75 0 -131 63.5t-56 177.5t56 177.5t131 63.5q42 0 85 -22t73 -63q-20 124 -78 182l-82 -33l-13 34l64 25q-24 16 -64 31l13 33q53 -19 89 -48l76 30l13 -34l-61 -24q88 -102 91 -344v-17q-3 -108 -67 -170t-139 -62zM375 229v10q-3 94 -56 146.5t-114 52.5 q-59 0 -105 -53t-46 -153q0 -99 46 -152t105 -53q61 0 115 53t55 149z" />
<glyph unicode="&#xf1;" horiz-adv-x="526" d="M333 618q24 0 30 31l5 24l35 -6l-4 -24q-11 -60 -66 -60q-28 0 -70.5 24.5t-58.5 24.5q-24 0 -30 -31l-6 -24l-35 6l5 24q11 60 66 60q28 0 70.5 -24.5t58.5 -24.5zM54 464h30l4 -132h3q31 64 88 102.5t125 38.5q81 0 129.5 -43.5t48.5 -117.5v-312h-36v312q0 60 -38 93 t-104 33q-89 0 -152 -68t-63 -165v-205h-35v464z" />
<glyph unicode="&#xf2;" horiz-adv-x="500" d="M272 545l-99 100l25 25l100 -100zM250 473q96 0 164 -70.5t68 -170.5t-68 -170.5t-164 -70.5t-164 70.5t-68 170.5t68 170.5t164 70.5zM250 438q-81 0 -138.5 -60.5t-57.5 -145.5t57.5 -145t138.5 -60t138.5 60t57.5 145t-57.5 145.5t-138.5 60.5z" />
<glyph unicode="&#xf3;" horiz-adv-x="500" d="M229 545l-25 25l99 100l26 -25zM250 473q96 0 164 -70.5t68 -170.5t-68 -170.5t-164 -70.5t-164 70.5t-68 170.5t68 170.5t164 70.5zM250 438q-81 0 -138.5 -60.5t-57.5 -145.5t57.5 -145t138.5 -60t138.5 60t57.5 145t-57.5 145.5t-138.5 60.5z" />
<glyph unicode="&#xf4;" horiz-adv-x="500" d="M252 634h-4l-123 -98l-23 27l133 107h29l133 -107l-22 -27zM250 473q96 0 164 -70.5t68 -170.5t-68 -170.5t-164 -70.5t-164 70.5t-68 170.5t68 170.5t164 70.5zM250 438q-81 0 -138.5 -60.5t-57.5 -145.5t57.5 -145t138.5 -60t138.5 60t57.5 145t-57.5 145.5 t-138.5 60.5z" />
<glyph unicode="&#xf5;" horiz-adv-x="500" d="M315 618q24 0 30 31l5 24l35 -6l-4 -24q-11 -60 -66 -60q-28 0 -70.5 24.5t-58.5 24.5q-24 0 -30 -31l-6 -24l-35 6l5 24q11 60 66 60q28 0 70.5 -24.5t58.5 -24.5zM250 473q96 0 164 -70.5t68 -170.5t-68 -170.5t-164 -70.5t-164 70.5t-68 170.5t68 170.5t164 70.5z M250 438q-81 0 -138.5 -60.5t-57.5 -145.5t57.5 -145t138.5 -60t138.5 60t57.5 145t-57.5 145.5t-138.5 60.5z" />
<glyph unicode="&#xf6;" horiz-adv-x="500" d="M325 594q0 13 9.5 22t22.5 9t22 -9t9 -22t-9 -22.5t-22 -9.5t-22.5 9.5t-9.5 22.5zM116 594q0 13 9 22t22 9t22 -9t9 -22t-9 -22.5t-22 -9.5t-22 9.5t-9 22.5zM250 473q96 0 164 -70.5t68 -170.5t-68 -170.5t-164 -70.5t-164 70.5t-68 170.5t68 170.5t164 70.5zM250 438 q-81 0 -138.5 -60.5t-57.5 -145.5t57.5 -145t138.5 -60t138.5 60t57.5 145t-57.5 145.5t-138.5 60.5z" />
<glyph unicode="&#xf7;" horiz-adv-x="357" d="M146 478q0 13 9.5 22t22.5 9t22 -9t9 -22t-9 -22.5t-22 -9.5t-22.5 9.5t-9.5 22.5zM146 201q0 13 9.5 22t22.5 9t22 -9t9 -22t-9 -22t-22 -9t-22.5 9t-9.5 22zM339 321h-321v36h321v-36z" />
<glyph unicode="&#xf8;" horiz-adv-x="535" d="M48 -12l-25 24l56 56q-61 71 -61 164q0 104 73 177t177 73q93 0 164 -61l56 56l24 -25l-55 -56q61 -71 61 -164q0 -104 -73 -177t-177 -73q-93 0 -164 61zM431 371l-302 -302q61 -51 139 -51q88 0 151 63t63 151q0 78 -51 139zM406 396q-59 50 -138 50q-88 0 -151 -63 t-63 -151q0 -79 50 -138z" />
<glyph unicode="&#xf9;" horiz-adv-x="526" d="M45 464h35v-312q0 -60 38.5 -92.5t104.5 -32.5q89 0 152 68t63 164v205h35v-464h-30l-4 132h-3q-31 -64 -88 -102.5t-125 -38.5q-81 0 -129.5 43.5t-48.5 117.5v312zM281 545l-99 100l25 25l100 -100z" />
<glyph unicode="&#xfa;" horiz-adv-x="526" d="M45 464h35v-312q0 -60 38.5 -92.5t104.5 -32.5q89 0 152 68t63 164v205h35v-464h-30l-4 132h-3q-31 -64 -88 -102.5t-125 -38.5q-81 0 -129.5 43.5t-48.5 117.5v312zM238 545l-25 25l99 100l26 -25z" />
<glyph unicode="&#xfb;" horiz-adv-x="526" d="M45 464h35v-312q0 -60 38.5 -92.5t104.5 -32.5q89 0 152 68t63 164v205h35v-464h-30l-4 132h-3q-31 -64 -88 -102.5t-125 -38.5q-81 0 -129.5 43.5t-48.5 117.5v312zM261 634h-4l-123 -98l-23 27l133 107h29l133 -107l-22 -27z" />
<glyph unicode="&#xfc;" horiz-adv-x="526" d="M334 594q0 13 9.5 22t22.5 9t22 -9t9 -22t-9 -22.5t-22 -9.5t-22.5 9.5t-9.5 22.5zM125 594q0 13 9 22t22 9t22 -9t9 -22t-9 -22.5t-22 -9.5t-22 9.5t-9 22.5zM45 464h35v-312q0 -60 38.5 -92.5t104.5 -32.5q89 0 152 68t63 164v205h35v-464h-30l-4 132h-3 q-31 -64 -88 -102.5t-125 -38.5q-81 0 -129.5 43.5t-48.5 117.5v312z" />
<glyph unicode="&#xfd;" horiz-adv-x="500" d="M2 457l32 14l207 -466l224 467l33 -16l-277 -575q-45 -95 -120 -95q-33 0 -62 19.5t-46 45.5l30 19q13 -21 34.5 -35t43.5 -14q50 0 87 76l33 66zM229 545l-25 25l99 100l26 -25z" />
<glyph unicode="&#xfe;" horiz-adv-x="535" d="M286 482q102 0 167 -72.5t65 -177.5t-65 -177.5t-167 -72.5q-66 0 -117 31.5t-80 86.5v-314h-35v893h35v-315q29 55 80 86.5t117 31.5zM89 232q0 -91 55 -152.5t142 -61.5t141.5 61.5t54.5 152.5t-54.5 152.5t-141.5 61.5t-142 -61.5t-55 -152.5z" />
<glyph unicode="&#xff;" horiz-adv-x="500" d="M2 457l32 14l207 -466l224 467l33 -16l-277 -575q-45 -95 -120 -95q-33 0 -62 19.5t-46 45.5l30 19q13 -21 34.5 -35t43.5 -14q50 0 87 76l33 66zM326 594q0 13 9 22t22 9t22 -9t9 -22t-9 -22.5t-22 -9.5t-22 9.5t-9 22.5zM116 594q0 13 9 22t22 9t22.5 -9t9.5 -22 t-9.5 -22.5t-22.5 -9.5t-22 9.5t-9 22.5z" />
<glyph unicode="&#x100;" horiz-adv-x="571" d="M122 214h327l-163 410zM108 179l-73 -185l-34 12l271 682h27l272 -682l-34 -12l-74 185h-355zM438 821h-286v36h286v-36z" />
<glyph unicode="&#x101;" horiz-adv-x="491" d="M214 -9q-91 0 -143.5 43t-52.5 109q0 60 52.5 101.5t125.5 41.5h215v44q0 43 -46.5 75.5t-114.5 32.5q-87 0 -154 -41l-19 30q75 46 173 46q80 0 138 -41t58 -102v-330h-30l-4 98h-1q-29 -49 -81.5 -78t-115.5 -29zM411 250h-215q-60 0 -101 -32t-41 -75q0 -50 41.5 -83 t118.5 -33q80 0 138.5 50.5t58.5 109.5v63zM397 607h-285v36h285v-36z" />
<glyph unicode="&#x102;" horiz-adv-x="571" d="M122 214h327l-163 410zM108 179l-73 -185l-34 12l271 682h27l272 -682l-34 -12l-74 185h-355zM295 821q72 0 108 55l29 -21q-47 -69 -137 -69q-91 0 -138 69l30 21q36 -55 108 -55z" />
<glyph unicode="&#x103;" horiz-adv-x="491" d="M254 607q72 0 108 55l30 -21q-48 -70 -138 -70q-89 0 -137 70l29 21q36 -55 108 -55zM214 -9q-91 0 -143.5 43t-52.5 109q0 60 52.5 101.5t125.5 41.5h215v44q0 43 -46.5 75.5t-114.5 32.5q-87 0 -154 -41l-19 30q75 46 173 46q80 0 138 -41t58 -102v-330h-30l-4 98h-1 q-29 -49 -81.5 -78t-115.5 -29zM214 27q80 0 138.5 50.5t58.5 109.5v63h-215q-60 0 -101 -32t-41 -75q0 -50 41.5 -83t118.5 -33z" />
<glyph unicode="&#x104;" horiz-adv-x="571" d="M122 214h327l-163 410zM571 6l-10 -4q-85 -51 -85 -98q0 -21 15.5 -34t37.5 -13q20 0 38 11l18 -30q-26 -17 -56 -17q-38 0 -63.5 23.5t-25.5 56.5q0 59 89 111l-66 167h-355l-73 -185l-34 12l271 682h27z" />
<glyph unicode="&#x105;" horiz-adv-x="491" d="M214 -9q-91 0 -143.5 43t-52.5 109q0 60 52.5 101.5t125.5 41.5h215v44q0 43 -46.5 75.5t-114.5 32.5q-87 0 -154 -41l-19 30q75 46 173 46q80 0 138 -41t58 -102v-326q-84 -49 -84 -100q0 -21 15 -34t37 -13q21 0 39 11l18 -30q-26 -17 -57 -17q-38 0 -63 23.5t-25 56.5 q0 59 89 111l-3 86h-1q-29 -49 -81.5 -78t-115.5 -29zM214 27q80 0 138.5 50.5t58.5 109.5v63h-215q-60 0 -101 -32t-41 -75q0 -50 41.5 -83t118.5 -33z" />
<glyph unicode="&#x106;" horiz-adv-x="607" d="M357 652q-128 0 -215.5 -91.5t-87.5 -221.5t87.5 -221t215.5 -91q117 0 200 70l23 -26q-96 -80 -223 -80q-144 0 -241.5 101.5t-97.5 246.5t97.5 247t241.5 102q127 0 223 -80l-23 -27q-84 71 -200 71zM336 759l-25 25l99 100l26 -25z" />
<glyph unicode="&#x107;" horiz-adv-x="464" d="M238 545l-25 25l99 100l26 -25zM259 473q98 0 170 -77l-26 -25q-64 67 -144 67q-84 0 -144.5 -61t-60.5 -145t60.5 -144.5t144.5 -60.5q81 0 144 66l26 -25q-72 -77 -170 -77q-99 0 -170 71t-71 170t70.5 170t170.5 71z" />
<glyph unicode="&#x108;" horiz-adv-x="607" d="M357 652q-128 0 -215.5 -91.5t-87.5 -221.5t87.5 -221t215.5 -91q117 0 200 70l23 -26q-96 -80 -223 -80q-144 0 -241.5 101.5t-97.5 246.5t97.5 247t241.5 102q127 0 223 -80l-23 -27q-84 71 -200 71zM359 848h-4l-123 -98l-22 28l133 106h28l133 -106l-22 -28z" />
<glyph unicode="&#x109;" horiz-adv-x="464" d="M261 634h-4l-123 -98l-23 27l133 107h29l133 -107l-22 -27zM259 473q98 0 170 -77l-26 -25q-64 67 -144 67q-84 0 -144.5 -61t-60.5 -145t60.5 -144.5t144.5 -60.5q81 0 144 66l26 -25q-72 -77 -170 -77q-99 0 -170 71t-71 170t70.5 170t170.5 71z" />
<glyph unicode="&#x10a;" horiz-adv-x="607" d="M357 652q-128 0 -215.5 -91.5t-87.5 -221.5t87.5 -221t215.5 -91q117 0 200 70l23 -26q-96 -80 -223 -80q-144 0 -241.5 101.5t-97.5 246.5t97.5 247t241.5 102q127 0 223 -80l-23 -27q-84 71 -200 71zM326 826q0 13 9 22t22 9t22 -9t9 -22t-9 -22t-22 -9t-22 9t-9 22z " />
<glyph unicode="&#x10b;" horiz-adv-x="464" d="M227 612q0 13 9.5 22t22.5 9t22 -9t9 -22t-9 -22.5t-22 -9.5t-22.5 9.5t-9.5 22.5zM259 473q98 0 170 -77l-26 -25q-64 67 -144 67q-84 0 -144.5 -61t-60.5 -145t60.5 -144.5t144.5 -60.5q81 0 144 66l26 -25q-72 -77 -170 -77q-99 0 -170 71t-71 170t70.5 170t170.5 71z " />
<glyph unicode="&#x10c;" horiz-adv-x="607" d="M357 652q-128 0 -215.5 -91.5t-87.5 -221.5t87.5 -221t215.5 -91q117 0 200 70l23 -26q-96 -80 -223 -80q-144 0 -241.5 101.5t-97.5 246.5t97.5 247t241.5 102q127 0 223 -80l-23 -27q-84 71 -200 71zM359 795l123 98l22 -28l-133 -106h-28l-133 106l22 28l123 -98h4z " />
<glyph unicode="&#x10d;" horiz-adv-x="464" d="M261 580l123 99l22 -28l-133 -106h-29l-133 106l23 28l123 -99h4zM259 473q98 0 170 -77l-26 -25q-64 67 -144 67q-84 0 -144.5 -61t-60.5 -145t60.5 -144.5t144.5 -60.5q81 0 144 66l26 -25q-72 -77 -170 -77q-99 0 -170 71t-71 170t70.5 170t170.5 71z" />
<glyph unicode="&#x10e;" horiz-adv-x="642" d="M54 679h232q141 0 240 -99.5t99 -240.5t-99 -240t-240 -99h-232v679zM89 36h197q126 0 214.5 88.5t88.5 214.5t-88.5 215t-214.5 89h-197v-607zM288 795l123 98l22 -28l-133 -106h-29l-133 106l23 28l123 -98h4z" />
<glyph unicode="&#x10f;" horiz-adv-x="607" d="M250 27q81 0 138.5 60.5t57.5 144.5q0 85 -57.5 145.5t-138.5 60.5t-138.5 -60.5t-57.5 -145.5q0 -84 57.5 -144.5t138.5 -60.5zM250 -9q-96 0 -164 71t-68 170t68 170t164 71q62 -1 114.5 -35t81.5 -90v331h36v-679h-30l-4 115h-3q-29 -56 -81 -89.5t-114 -34.5z M545 647q0 13 9 22.5t22 9.5t22 -9.5t9 -22.5q0 -65 -60 -125l-16 16q36 36 36 80q-22 7 -22 29z" />
<glyph unicode="&#x110;" horiz-adv-x="642" d="M125 36h196q126 0 215 88.5t89 214.5t-89 215t-215 89h-196v-286h179v-36h-179v-285zM89 679h232q141 0 240.5 -99.5t99.5 -240.5t-99.5 -240t-240.5 -99h-232v321h-71v36h71v322z" />
<glyph unicode="&#x111;" horiz-adv-x="535" d="M250 27q81 0 138.5 60.5t57.5 144.5q0 85 -57.5 145.5t-138.5 60.5t-138.5 -60.5t-57.5 -145.5q0 -84 57.5 -144.5t138.5 -60.5zM482 0h-30l-4 115h-3q-29 -56 -81 -89.5t-114 -34.5q-96 0 -164 71t-68 170t68 170t164 71q62 -1 114.5 -35t81.5 -90v188h-214v35h214v108 h36v-108h36v-35h-36v-536z" />
<glyph unicode="&#x112;" horiz-adv-x="535" d="M89 643v-286h250v-36h-250v-285h429v-36h-464v679h428v-36h-393zM411 821h-286v36h286v-36z" />
<glyph unicode="&#x113;" horiz-adv-x="482" d="M228 250q16 0 34.5 6.5t32.5 13.5t35 23.5t29.5 23.5t30 27t24.5 22q-62 72 -155 72q-79 0 -138.5 -54.5t-66.5 -133.5h174zM54 214q7 -79 66 -133t139 -54q88 0 150 65l26 -24q-72 -77 -176 -77q-100 0 -170.5 70.5t-70.5 170.5t71 170.5t170 70.5q59 0 110 -26.5 t85 -72.5l9 -13l-12 -11q-2 -2 -39 -35.5t-57.5 -49t-58 -33.5t-69.5 -18h-173zM402 607h-286v36h286v-36z" />
<glyph unicode="&#x114;" horiz-adv-x="535" d="M89 643v-286h250v-36h-250v-285h429v-36h-464v679h428v-36h-393zM268 821q72 0 108 55l29 -21q-47 -69 -137 -69q-91 0 -138 69l30 21q36 -55 108 -55z" />
<glyph unicode="&#x115;" horiz-adv-x="482" d="M228 250q16 0 34.5 6.5t32.5 13.5t35 23.5t29.5 23.5t30 27t24.5 22q-62 72 -155 72q-79 0 -138.5 -54.5t-66.5 -133.5h174zM54 214q7 -79 66 -133t139 -54q88 0 150 65l26 -24q-72 -77 -176 -77q-100 0 -170.5 70.5t-70.5 170.5t71 170.5t170 70.5q59 0 110 -26.5 t85 -72.5l9 -13l-12 -11q-2 -2 -39 -35.5t-57.5 -49t-58 -33.5t-69.5 -18h-173zM268 607q72 0 108 55l29 -21q-48 -70 -137 -70q-90 0 -138 70l30 21q36 -55 108 -55z" />
<glyph unicode="&#x116;" horiz-adv-x="535" d="M89 643v-286h250v-36h-250v-285h429v-36h-464v679h428v-36h-393zM237 826q0 13 9 22t22 9t22 -9t9 -22t-9 -22t-22 -9t-22 9t-9 22z" />
<glyph unicode="&#x117;" horiz-adv-x="482" d="M228 250q16 0 34.5 6.5t32.5 13.5t35 23.5t29.5 23.5t30 27t24.5 22q-62 72 -155 72q-79 0 -138.5 -54.5t-66.5 -133.5h174zM54 214q7 -79 66 -133t139 -54q88 0 150 65l26 -24q-72 -77 -176 -77q-100 0 -170.5 70.5t-70.5 170.5t71 170.5t170 70.5q59 0 110 -26.5 t85 -72.5l9 -13l-12 -11q-2 -2 -39 -35.5t-57.5 -49t-58 -33.5t-69.5 -18h-173zM237 612q0 13 9 22t22 9t22 -9t9 -22t-9 -22.5t-22 -9.5t-22 9.5t-9 22.5z" />
<glyph unicode="&#x118;" horiz-adv-x="535" d="M500 0q-67 -38 -79 -52q-15 -17 -15 -46q0 -17 11.5 -30.5t39.5 -13.5q21 0 39 11l17 -31q-25 -16 -56 -16q-40 0 -63 23t-23 57q0 37 18.5 56.5t59.5 41.5h-395v679h428v-36h-393v-286h215v-36h-215v-285h429v-26z" />
<glyph unicode="&#x119;" horiz-adv-x="482" d="M227 214h-173q7 -79 66 -133t139 -54q88 0 150 65l26 -24q-15 -16 -31.5 -28.5t-26.5 -18t-19 -9.5l-10 -4q-8 -5 -22 -13t-20 -11.5t-16.5 -9.5t-14.5 -9t-10.5 -8.5t-9 -9t-6.5 -9t-5 -11t-2 -11.5t-1 -14q0 -17 12 -30.5t40 -13.5q19 0 37 11l18 -31q-25 -16 -55 -16 q-40 0 -64 23t-24 57q0 55 61 88v1h-7q-100 0 -170.5 70.5t-70.5 170.5t71 170.5t170 70.5q59 0 110 -26.5t85 -72.5l9 -13l-12 -11q-2 -2 -39 -35.5t-57.5 -49t-58 -33.5t-69.5 -18zM228 250q16 0 34.5 6.5t32.5 13.5t35 23.5t29.5 23.5t30 27t24.5 22q-62 72 -155 72 q-79 0 -138.5 -54.5t-66.5 -133.5h174z" />
<glyph unicode="&#x11a;" horiz-adv-x="535" d="M89 643v-286h250v-36h-250v-285h429v-36h-464v679h428v-36h-393zM270 795l123 98l22 -28l-133 -106h-28l-133 106l22 28l123 -98h4z" />
<glyph unicode="&#x11b;" horiz-adv-x="482" d="M228 250q16 0 34.5 6.5t32.5 13.5t35 23.5t29.5 23.5t30 27t24.5 22q-62 72 -155 72q-79 0 -138.5 -54.5t-66.5 -133.5h174zM54 214q7 -79 66 -133t139 -54q88 0 150 65l26 -24q-72 -77 -176 -77q-100 0 -170.5 70.5t-70.5 170.5t71 170.5t170 70.5q59 0 110 -26.5 t85 -72.5l9 -13l-12 -11q-2 -2 -39 -35.5t-57.5 -49t-58 -33.5t-69.5 -18h-173zM261 580l123 99l22 -28l-133 -106h-28l-133 106l22 28l123 -99h4z" />
<glyph unicode="&#x11c;" horiz-adv-x="660" d="M54 339q1 -131 87.5 -221.5t215.5 -90.5q78 0 141 45t91 117v97h-143v35h179v-321h-30l-5 125h-1q-38 -61 -99.5 -97.5t-132.5 -36.5q-144 0 -241 101t-98 247q0 145 97.5 247t241.5 102q136 0 231 -87l-24 -26q-83 77 -207 77q-128 0 -215.5 -91.5t-87.5 -221.5z M359 848h-4l-123 -98l-23 27l133 107h29l133 -107l-22 -27z" />
<glyph unicode="&#x11d;" horiz-adv-x="535" d="M250 438q-81 0 -138.5 -61t-57.5 -145q0 -85 57.5 -145t138.5 -60t138.5 60t57.5 145q0 84 -57.5 145t-138.5 61zM250 473q62 -1 114 -34.5t81 -89.5h3l4 115h30v-437q0 -100 -70.5 -170.5t-170.5 -70.5q-105 0 -176 76l26 25q63 -66 150 -66q85 0 145 60.5t60 145.5v89 q-29 -56 -81.5 -90t-114.5 -35q-96 0 -164 71t-68 170t68 170t164 71zM252 634h-4l-123 -98l-23 27l133 107h29l133 -107l-22 -27z" />
<glyph unicode="&#x11e;" horiz-adv-x="660" d="M357 821q72 0 108 55l30 -21q-48 -70 -138 -70q-89 0 -137 70l29 21q36 -55 108 -55zM54 339q1 -131 87.5 -221.5t215.5 -90.5q78 0 141 45t91 117v97h-143v35h179v-321h-30l-5 125h-1q-38 -61 -99.5 -97.5t-132.5 -36.5q-144 0 -241 101t-98 247q0 145 97.5 247 t241.5 102q136 0 231 -87l-24 -26q-83 77 -207 77q-128 0 -215.5 -91.5t-87.5 -221.5z" />
<glyph unicode="&#x11f;" horiz-adv-x="535" d="M250 607q72 0 108 55l30 -21q-48 -70 -138 -70q-89 0 -137 70l29 21q36 -55 108 -55zM250 438q-81 0 -138.5 -61t-57.5 -145q0 -85 57.5 -145t138.5 -60t138.5 60t57.5 145q0 84 -57.5 145t-138.5 61zM250 473q62 -1 114 -34.5t81 -89.5h3l4 115h30v-437 q0 -100 -70.5 -170.5t-170.5 -70.5q-105 0 -176 76l26 25q63 -66 150 -66q85 0 145 60.5t60 145.5v89q-29 -56 -81.5 -90t-114.5 -35q-96 0 -164 71t-68 170t68 170t164 71z" />
<glyph unicode="&#x120;" horiz-adv-x="660" d="M54 339q1 -131 87.5 -221.5t215.5 -90.5q78 0 141 45t91 117v97h-143v35h179v-321h-30l-5 125h-1q-38 -61 -99.5 -97.5t-132.5 -36.5q-144 0 -241 101t-98 247q0 145 97.5 247t241.5 102q136 0 231 -87l-24 -26q-83 77 -207 77q-128 0 -215.5 -91.5t-87.5 -221.5z M326 826q0 13 9 22t22 9t22 -9t9 -22t-9 -22t-22 -9t-22 9t-9 22z" />
<glyph unicode="&#x121;" horiz-adv-x="535" d="M218 612q0 13 9.5 22t22.5 9t22 -9t9 -22t-9 -22.5t-22 -9.5t-22.5 9.5t-9.5 22.5zM250 438q-81 0 -138.5 -61t-57.5 -145q0 -85 57.5 -145t138.5 -60t138.5 60t57.5 145q0 84 -57.5 145t-138.5 61zM250 473q62 -1 114 -34.5t81 -89.5h3l4 115h30v-437 q0 -100 -70.5 -170.5t-170.5 -70.5q-105 0 -176 76l26 25q63 -66 150 -66q85 0 145 60.5t60 145.5v89q-29 -56 -81.5 -90t-114.5 -35q-96 0 -164 71t-68 170t68 170t164 71z" />
<glyph unicode="&#x122;" horiz-adv-x="660" d="M54 339q1 -131 87.5 -221.5t215.5 -90.5q78 0 141 45t91 117v97h-143v35h179v-321h-30l-5 125h-1q-38 -61 -99.5 -97.5t-132.5 -36.5q-144 0 -241 101t-98 247q0 145 97.5 247t241.5 102q136 0 231 -87l-24 -26q-83 77 -207 77q-128 0 -215.5 -91.5t-87.5 -221.5z M302 -94q0 13 9 22.5t22 9.5t22 -9.5t9 -22.5q0 -65 -60 -125l-16 16q36 36 36 80q-22 7 -22 29z" />
<glyph unicode="&#x123;" horiz-adv-x="535" d="M250 438q-81 0 -138.5 -61t-57.5 -145q0 -85 57.5 -145t138.5 -60t138.5 60t57.5 145q0 84 -57.5 145t-138.5 61zM482 27q0 -100 -70.5 -170.5t-170.5 -70.5q-105 0 -176 76l26 25q63 -66 150 -66q85 0 145 60.5t60 145.5v89q-29 -56 -81.5 -90t-114.5 -35q-96 0 -164 71 t-68 170t68 170t164 71q62 -1 114 -34.5t81 -89.5h3l4 115h30v-437zM283 594q0 -13 -9 -22.5t-22 -9.5t-22 9.5t-9 22.5q0 66 59 125l16 -16q-35 -35 -35 -80q22 -7 22 -29z" />
<glyph unicode="&#x124;" horiz-adv-x="607" d="M54 679h35v-322h429v322h36v-679h-36v321h-429v-321h-35v679zM305 848h-3l-123 -98l-23 28l133 106h29l133 -106l-22 -28z" />
<glyph unicode="&#x125;" horiz-adv-x="526" d="M91 332q31 64 88 102.5t125 38.5q81 0 129.5 -43.5t48.5 -117.5v-312h-36v312q0 60 -38 93t-104 33q-89 0 -152 -68t-63 -165v-205h-35v679h35v-347h2zM270 812h-4l-123 -98l-22 28l133 106h28l133 -106l-22 -28z" />
<glyph unicode="&#x126;" horiz-adv-x="607" d="M518 500h-429v-143h429v143zM54 679h35v-143h429v143h36v-143h35v-36h-35v-500h-36v321h-429v-321h-35v500h-36v36h36v143z" />
<glyph unicode="&#x127;" horiz-adv-x="526" d="M90 341q30 65 87 103t127 38q81 0 129.5 -43.5t48.5 -117.5v-321h-36v321q0 60 -38 92.5t-104 32.5q-87 0 -151 -66.5t-64 -165.5v-214h-35v536h-36v35h36v108h35v-108h215v-35h-215v-195h1z" />
<glyph unicode="&#x128;" horiz-adv-x="142" d="M89 0h-35v679h35v-679zM105 841q20 -9 31 -9q24 0 30 31l5 25l35 -7l-4 -24q-11 -60 -66 -60q-24 0 -43 10l-55 31q-18 8 -31 8q-24 0 -30 -31l-6 -24l-34 6l4 24q11 60 66 60q24 0 43 -10z" />
<glyph unicode="&#x129;" horiz-adv-x="142" d="M104 588q-19 0 -40 17t-26 17q-14 0 -14 -15v-21h-31v26q0 19 13 32.5t32 13.5t37.5 -17.5t27.5 -17.5q16 0 16 16v22h31v-27q0 -19 -13.5 -32.5t-32.5 -13.5zM54 464h35v-464h-35v464z" />
<glyph unicode="&#x12a;" horiz-adv-x="142" d="M89 0h-35v679h35v-679zM214 821h-285v36h285v-36z" />
<glyph unicode="&#x12b;" horiz-adv-x="142" d="M54 464h35v-464h-35v464zM143 607h-143v36h143v-36z" />
<glyph unicode="&#x12c;" horiz-adv-x="142" d="M89 0h-35v679h35v-679zM71 821q72 0 108 55l30 -21q-47 -69 -138 -69q-90 0 -137 69l29 21q36 -55 108 -55z" />
<glyph unicode="&#x12d;" horiz-adv-x="142" d="M54 464h35v-464h-35v464zM71 625q43 0 64 31l29 -20q-31 -47 -93 -47q-61 0 -92 47l29 20q21 -31 63 -31z" />
<glyph unicode="&#x12e;" horiz-adv-x="142" d="M89 -9q-52 -29 -68.5 -45t-16.5 -45q0 -17 11 -30.5t39 -13.5q21 0 39 11l18 -30q-26 -17 -57 -17q-40 0 -63 23t-23 57q0 36 20 56t66 43v679h35v-688z" />
<glyph unicode="&#x12f;" horiz-adv-x="142" d="M89 -9q-52 -29 -68.5 -45t-16.5 -45q0 -17 11 -30.5t39 -13.5q21 0 39 11l18 -30q-26 -17 -57 -17q-40 0 -63 23t-23 57q0 36 20 56t66 43v464h35v-473zM40 612q0 13 9 22t22 9t22.5 -9t9.5 -22t-9.5 -22.5t-22.5 -9.5t-22 9.5t-9 22.5z" />
<glyph unicode="&#x130;" horiz-adv-x="142" d="M89 0h-35v679h35v-679zM40 826q0 13 9 22t22 9t22.5 -9t9.5 -22t-9.5 -22t-22.5 -9t-22 9t-9 22z" />
<glyph unicode="&#x131;" horiz-adv-x="142" d="M54 464h35v-464h-35v464z" />
<glyph unicode="&#x132;" horiz-adv-x="482" d="M282 27q54 0 91.5 33.5t37.5 91.5v491h-214v36h250v-527q0 -74 -48.5 -117.5t-116.5 -43.5q-40 0 -78.5 17t-57.5 48l30 19q14 -22 43.5 -35t62.5 -13zM89 0h-35v679h35v-679z" />
<glyph unicode="&#x133;" horiz-adv-x="321" d="M54 464h35v-464h-35v464zM40 612q0 13 9 22t22 9t22.5 -9t9.5 -22t-9.5 -22.5t-22.5 -9.5t-22 9.5t-9 22.5zM232 464h36v-544q0 -56 -39 -95t-95 -39h-9v35h9q40 0 69 29t29 70v544zM219 612q0 13 9 22t22 9t22 -9t9 -22t-9 -22.5t-22 -9.5t-22 9.5t-9 22.5z" />
<glyph unicode="&#x134;" horiz-adv-x="339" d="M139 27q54 0 91.5 33.5t37.5 91.5v491h-214v36h250v-527q0 -74 -48.5 -117.5t-116.5 -43.5q-40 0 -78.5 17t-57.5 48l30 19q14 -22 43.5 -35t62.5 -13zM171 848h-3l-123 -98l-23 28l133 106h29l133 -106l-22 -28z" />
<glyph unicode="&#x135;" horiz-adv-x="142" d="M54 464h35v-544q0 -56 -39.5 -95t-94.5 -39h-9v35h9q41 0 70 29.5t29 69.5v544zM57 670h29l88 -72l-22 -27l-79 63h-3l-79 -63l-22 27z" />
<glyph unicode="&#x136;" horiz-adv-x="571" d="M254 -76q0 13 9.5 22t22.5 9t22 -9t9 -22q0 -65 -60 -125l-16 16q36 36 36 80q-23 8 -23 29zM89 0h-35v679h35v-460l400 469l27 -23l-264 -310l239 -282q20 -22 30.5 -29.5t26.5 -7.5h6v-36h-6q-26 0 -43.5 11.5t-40.5 38.5l-236 277l-139 -163v-164z" />
<glyph unicode="&#x137;" horiz-adv-x="464" d="M89 0h-35v679h35v-493l291 291l25 -25l-192 -193l167 -186q33 -37 61 -37h5v-36h-5q-25 0 -44 11.5t-43 37.5l-167 184l-98 -98v-135zM219 -76q0 13 9 22t22 9t22 -9t9 -22q0 -65 -60 -125l-16 16q36 36 36 80q-22 7 -22 29z" />
<glyph unicode="&#x138;" horiz-adv-x="464" d="M89 0h-35v464h35v-278l291 291l25 -25l-192 -193l167 -186q33 -37 61 -37h5v-36h-5q-25 0 -44 11.5t-43 37.5l-167 184l-98 -98v-135z" />
<glyph unicode="&#x139;" horiz-adv-x="535" d="M89 36h429v-36h-464v679h35v-643zM264 759l-25 25l99 100l26 -25z" />
<glyph unicode="&#x13a;" horiz-adv-x="142" d="M54 679h35v-679h-35v679zM50 759l-25 25l99 100l26 -25z" />
<glyph unicode="&#x13b;" horiz-adv-x="535" d="M89 36h429v-36h-464v679h35v-643zM248 -76q0 13 9 22t22 9t22.5 -9t9.5 -22q0 -65 -60 -125l-16 16q36 36 36 80q-23 8 -23 29z" />
<glyph unicode="&#x13c;" horiz-adv-x="142" d="M54 679h35v-679h-35v679zM43 -76q0 13 9 22t22 9t22 -9t9 -22q0 -66 -59 -125l-17 16q36 36 36 80q-22 7 -22 29z" />
<glyph unicode="&#x13d;" horiz-adv-x="535" d="M89 36h429v-36h-464v679h35v-643zM455 683q0 13 9.5 22t22.5 9t22 -9t9 -22q0 -65 -60 -125l-16 16q36 36 36 80q-23 8 -23 29z" />
<glyph unicode="&#x13e;" horiz-adv-x="214" d="M54 679h35v-679h-35v679zM143 647q0 13 9 22.5t22 9.5t22 -9.5t9 -22.5q0 -66 -59 -125l-17 16q36 36 36 80q-22 7 -22 29z" />
<glyph unicode="&#x13f;" horiz-adv-x="535" d="M89 36h429v-36h-464v679h35v-643zM393 348q0 13 9 22t22 9t22 -9t9 -22t-9 -22t-22 -9t-22 9t-9 22z" />
<glyph unicode="&#x140;" horiz-adv-x="250" d="M54 679h35v-679h-35v679zM161 340q0 13 9 22t22 9t22 -9t9 -22t-9 -22t-22 -9t-22 9t-9 22z" />
<glyph unicode="&#x141;" horiz-adv-x="535" d="M31 200l-22 29l45 34v416h35v-388l263 204l21 -29l-284 -220v-210h429v-36h-464v217z" />
<glyph unicode="&#x142;" horiz-adv-x="214" d="M89 679h36v-267l65 57l24 -27l-89 -77v-365h-36v334l-52 -46l-24 27l76 66v298z" />
<glyph unicode="&#x143;" horiz-adv-x="607" d="M554 679v-688h-37l-428 633v-624h-35v688h36l428 -634v625h36zM300 759l-25 25l99 100l26 -25z" />
<glyph unicode="&#x144;" horiz-adv-x="526" d="M54 464h30l4 -132h3q31 64 88 102.5t125 38.5q81 0 129.5 -43.5t48.5 -117.5v-312h-36v312q0 60 -38 93t-104 33q-89 0 -152 -68t-63 -165v-205h-35v464zM247 545l-25 25l99 100l26 -25z" />
<glyph unicode="&#x145;" horiz-adv-x="607" d="M554 679v-688h-37l-428 633v-624h-35v688h36l428 -634v625h36zM275 -76q0 13 9 22t22 9t22.5 -9t9.5 -22q0 -65 -60 -125l-16 16q35 35 35 80q-22 7 -22 29z" />
<glyph unicode="&#x146;" horiz-adv-x="526" d="M91 332q31 64 88 102.5t125 38.5q81 0 129.5 -43.5t48.5 -117.5v-312h-36v312q0 60 -38 93t-104 33q-89 0 -152 -68t-63 -165v-205h-35v464h30l4 -132h3zM248 -76q0 13 9 22t22 9t22.5 -9t9.5 -22q0 -65 -60 -125l-16 16q36 36 36 80q-23 8 -23 29z" />
<glyph unicode="&#x147;" horiz-adv-x="607" d="M554 679v-688h-37l-428 633v-624h-35v688h36l428 -634v625h36zM323 795l123 98l23 -28l-133 -106h-29l-133 106l22 28l124 -98h3z" />
<glyph unicode="&#x148;" horiz-adv-x="526" d="M91 332q31 64 88 102.5t125 38.5q81 0 129.5 -43.5t48.5 -117.5v-312h-36v312q0 60 -38 93t-104 33q-89 0 -152 -68t-63 -165v-205h-35v464h30l4 -132h3zM270 580l123 99l22 -28l-133 -106h-28l-133 106l22 28l123 -99h4z" />
<glyph unicode="&#x149;" horiz-adv-x="598" d="M27 629q0 13 9 22.5t22 9.5t22 -9.5t9 -22.5q0 -65 -60 -125l-16 17q36 36 36 79q-22 7 -22 29zM163 332q31 64 87.5 102.5t124.5 38.5q81 0 130 -43.5t49 -117.5v-312h-36v312q0 60 -38.5 93t-104.5 33q-89 0 -151.5 -68t-62.5 -165v-205h-36v464h30l4 -132h4z" />
<glyph unicode="&#x14a;" horiz-adv-x="535" d="M54 643h-18v36h53v-121q33 60 90.5 95t124.5 35q81 0 129.5 -43.5t48.5 -117.5v-402q0 -101 -84 -141l-3 -2h-5h-24v36h20q60 33 60 107v402q0 59 -38 92t-104 33q-87 0 -151 -66.5t-64 -165.5v-420h-35v420v223z" />
<glyph unicode="&#x14b;" horiz-adv-x="535" d="M54 429h-18v35h53v-120q33 60 90.5 94.5t124.5 34.5q81 0 129.5 -43.5t48.5 -117.5v-383q0 -101 -84 -141l-3 -2h-5h-24v35h20q60 33 60 108v383q0 60 -38 93t-104 33q-87 0 -151 -67t-64 -166v-205h-35v205v224z" />
<glyph unicode="&#x14c;" horiz-adv-x="714" d="M357 688q141 0 240 -102.5t99 -246.5t-99 -246t-240 -102t-240 102t-99 246t99 246.5t240 102.5zM54 339q0 -130 89 -221t214 -91q126 0 215 91.5t89 220.5q0 130 -89.5 221.5t-214.5 91.5t-214 -91.5t-89 -221.5zM518 821h-286v36h286v-36z" />
<glyph unicode="&#x14d;" horiz-adv-x="500" d="M250 473q96 0 164 -70.5t68 -170.5t-68 -170.5t-164 -70.5t-164 70.5t-68 170.5t68 170.5t164 70.5zM54 232q0 -85 57.5 -145t138.5 -60t138.5 60t57.5 145t-57.5 145.5t-138.5 60.5t-138.5 -60.5t-57.5 -145.5zM393 607h-286v36h286v-36z" />
<glyph unicode="&#x14e;" horiz-adv-x="714" d="M357 688q141 0 240 -102.5t99 -246.5t-99 -246t-240 -102t-240 102t-99 246t99 246.5t240 102.5zM54 339q0 -130 89 -221t214 -91q126 0 215 91.5t89 220.5q0 130 -89.5 221.5t-214.5 91.5t-214 -91.5t-89 -221.5zM375 821q72 0 108 55l29 -21q-47 -69 -137 -69t-137 69 l29 21q36 -55 108 -55z" />
<glyph unicode="&#x14f;" horiz-adv-x="500" d="M250 473q96 0 164 -70.5t68 -170.5t-68 -170.5t-164 -70.5t-164 70.5t-68 170.5t68 170.5t164 70.5zM54 232q0 -85 57.5 -145t138.5 -60t138.5 60t57.5 145t-57.5 145.5t-138.5 60.5t-138.5 -60.5t-57.5 -145.5zM250 607q72 0 108 55l30 -21q-48 -70 -138 -70t-138 70 l30 21q36 -55 108 -55z" />
<glyph unicode="&#x150;" horiz-adv-x="714" d="M357 688q141 0 240 -102.5t99 -246.5t-99 -246t-240 -102t-240 102t-99 246t99 246.5t240 102.5zM54 339q0 -130 89 -221t214 -91q126 0 215 91.5t89 220.5q0 130 -89.5 221.5t-214.5 91.5t-214 -91.5t-89 -221.5zM456 759l-26 25l100 100l25 -25zM278 759l-26 25 l100 100l25 -25z" />
<glyph unicode="&#x151;" horiz-adv-x="500" d="M250 473q96 0 164 -70.5t68 -170.5t-68 -170.5t-164 -70.5t-164 70.5t-68 170.5t68 170.5t164 70.5zM54 232q0 -85 57.5 -145t138.5 -60t138.5 60t57.5 145t-57.5 145.5t-138.5 60.5t-138.5 -60.5t-57.5 -145.5zM331 545l-26 25l100 100l25 -25zM153 545l-26 25l100 100 l25 -25z" />
<glyph unicode="&#x152;" horiz-adv-x="821" d="M357 643q-126 0 -214.5 -89t-88.5 -215t88.5 -214.5t214.5 -88.5h54v607h-54zM768 679v-36h-322v-286h179v-36h-179v-285h358v-36h-447q-141 0 -240 99t-99 240t99 240.5t240 99.5h411z" />
<glyph unicode="&#x153;" horiz-adv-x="901" d="M250 438q-84 0 -140 -60t-56 -146t56 -145.5t140 -59.5t140 59.5t56 145.5t-56 146t-140 60zM483 214q7 -79 66 -133t139 -54q88 0 150 65l25 -24q-72 -77 -175 -77q-74 0 -134.5 41t-88.5 107q-26 -67 -83.5 -107.5t-131.5 -40.5q-99 0 -165.5 70t-66.5 171t66.5 171 t165.5 70q74 0 131.5 -40.5t83.5 -107.5q28 66 89 107t134 41q121 0 194 -99l10 -13l-13 -11q-2 -2 -39 -35.5t-57.5 -49t-58 -33.5t-69.5 -18h-172zM656 250q14 0 28.5 4t30.5 12.5t28 16t29 21.5t25 21t25 22.5t21 18.5q-62 72 -155 72q-79 0 -138.5 -54.5t-66.5 -133.5 h173z" />
<glyph unicode="&#x154;" horiz-adv-x="571" d="M548 0q-26 0 -46 10.5t-40 41.5l-103 161q-31 48 -67.5 60.5t-112.5 12.5h-90v-286h-35v679h236q107 0 167.5 -58.5t60.5 -138.5q0 -93 -74 -150q-40 -32 -121 -38v-1q40 -20 66 -60l104 -162q13 -21 24.5 -28t30.5 -7h6v-36h-6zM89 321h201q94 0 143 49t49 112 q0 65 -50 113t-142 48h-201v-322zM229 759l-25 25l99 100l26 -25z" />
<glyph unicode="&#x155;" horiz-adv-x="321" d="M304 473l-4 -36q-87 -2 -149 -77.5t-62 -180.5v-179h-35v464h30l4 -149h2q30 72 87.5 115t126.5 43zM157 545l-25 25l99 100l26 -25z" />
<glyph unicode="&#x156;" horiz-adv-x="571" d="M548 0q-26 0 -46 10.5t-40 41.5l-103 161q-31 48 -67.5 60.5t-112.5 12.5h-90v-286h-35v679h236q107 0 167.5 -58.5t60.5 -138.5q0 -93 -74 -150q-40 -32 -121 -38v-1q40 -20 66 -60l104 -162q13 -21 24.5 -28t30.5 -7h6v-36h-6zM89 321h201q94 0 143 49t49 112 q0 65 -50 113t-142 48h-201v-322zM275 -76q0 13 9 22t22 9t22.5 -9t9.5 -22q0 -65 -60 -125l-16 16q35 35 35 80q-22 7 -22 29z" />
<glyph unicode="&#x157;" horiz-adv-x="321" d="M304 473l-4 -36q-87 -2 -149 -77.5t-62 -180.5v-179h-35v464h30l4 -149h2q30 72 87.5 115t126.5 43zM150 -76q0 13 9 22t22 9t22 -9t9 -22q0 -66 -59 -125l-16 16q35 35 35 80q-22 7 -22 29z" />
<glyph unicode="&#x158;" horiz-adv-x="571" d="M548 0q-26 0 -46 10.5t-40 41.5l-103 161q-31 48 -67.5 60.5t-112.5 12.5h-90v-286h-35v679h236q107 0 167.5 -58.5t60.5 -138.5q0 -93 -74 -150q-40 -32 -121 -38v-1q40 -20 66 -60l104 -162q13 -21 24.5 -28t30.5 -7h6v-36h-6zM89 321h201q94 0 143 49t49 112 q0 65 -50 113t-142 48h-201v-322zM252 795l123 98l22 -28l-133 -106h-28l-133 106l22 28l123 -98h4z" />
<glyph unicode="&#x159;" horiz-adv-x="321" d="M304 473l-4 -36q-87 -2 -149 -77.5t-62 -180.5v-179h-35v464h30l4 -149h2q30 72 87.5 115t126.5 43zM180 580l124 99l22 -28l-133 -106h-29l-133 106l23 28l123 -99h3z" />
<glyph unicode="&#x15a;" horiz-adv-x="571" d="M286 27q98 0 165 45.5t67 106.5q0 54 -48 90t-116 57t-136 42.5t-116 61t-48 97.5q0 69 69 115t163 46q138 0 232 -84l-23 -27q-82 75 -209 75q-84 0 -140.5 -38t-56.5 -87q0 -40 34.5 -70t86 -46.5t112 -37t112 -41t86 -60t34.5 -93.5q0 -80 -79.5 -134t-188.5 -54 q-95 0 -163 33t-105 71l25 25q33 -33 95 -63t148 -30zM264 759l-25 25l99 100l26 -25z" />
<glyph unicode="&#x15b;" d="M214 27q69 0 115 30.5t46 67.5q0 34 -33 56.5t-80.5 36t-94.5 28t-80 42t-33 69.5q0 50 47.5 83t112.5 33q104 0 161 -70l-27 -24q-49 59 -134 59q-50 0 -87.5 -23.5t-37.5 -57.5q0 -31 33 -51.5t80.5 -33.5t95 -28.5t80.5 -45t33 -73.5q0 -58 -59 -96t-138 -38 q-70 0 -120.5 23t-75.5 57l28 22q51 -66 168 -66zM193 545l-25 25l99 100l26 -25z" />
<glyph unicode="&#x15c;" horiz-adv-x="571" d="M286 27q98 0 165 45.5t67 106.5q0 54 -48 90t-116 57t-136 42.5t-116 61t-48 97.5q0 69 69 115t163 46q138 0 232 -84l-23 -27q-82 75 -209 75q-84 0 -140.5 -38t-56.5 -87q0 -40 34.5 -70t86 -46.5t112 -37t112 -41t86 -60t34.5 -93.5q0 -80 -79.5 -134t-188.5 -54 q-95 0 -163 33t-105 71l25 25q33 -33 95 -63t148 -30zM288 848h-4l-123 -98l-23 28l133 106h29l133 -106l-22 -28z" />
<glyph unicode="&#x15d;" d="M214 27q69 0 115 30.5t46 67.5q0 34 -33 56.5t-80.5 36t-94.5 28t-80 42t-33 69.5q0 50 47.5 83t112.5 33q104 0 161 -70l-27 -24q-49 59 -134 59q-50 0 -87.5 -23.5t-37.5 -57.5q0 -31 33 -51.5t80.5 -33.5t95 -28.5t80.5 -45t33 -73.5q0 -58 -59 -96t-138 -38 q-70 0 -120.5 23t-75.5 57l28 22q51 -66 168 -66zM216 634h-4l-123 -98l-22 27l133 107h29l133 -107l-23 -27z" />
<glyph unicode="&#x15e;" horiz-adv-x="571" d="M263 -91l-22 6l22 77q-86 5 -148.5 36.5t-96.5 66.5l25 25q33 -33 95 -63t148 -30q98 0 165 45.5t67 106.5q0 54 -48 90t-116 57t-136 42.5t-116 61t-48 97.5q0 69 69 115t163 46q138 0 232 -84l-23 -27q-82 75 -209 75q-84 0 -140.5 -38t-56.5 -87q0 -40 34.5 -70 t86 -46.5t112 -37t112 -41t86 -60t34.5 -93.5q0 -79 -77.5 -132.5t-185.5 -55.5l-13 -46q9 3 27 3q38 0 61 -26t23 -60q0 -36 -26.5 -56t-60.5 -20q-54 0 -79 42l23 13q18 -29 56 -29q25 0 38.5 16t13.5 38t-13 38.5t-36 16.5q-15 0 -42 -12z" />
<glyph unicode="&#x15f;" d="M201 -91l-22 6l22 76q-64 2 -111.5 25t-71.5 55l28 22q51 -66 168 -66q69 0 115 30.5t46 67.5q0 34 -33 56.5t-80.5 36t-94.5 28t-80 42t-33 69.5q0 50 47.5 83t112.5 33q104 0 161 -70l-27 -24q-49 59 -134 59q-50 0 -87.5 -23.5t-37.5 -57.5q0 -31 33 -51.5t80.5 -33.5 t95 -28.5t80.5 -45t33 -73.5q0 -56 -54 -93t-128 -41l-14 -46q9 3 28 3q38 0 61 -26t23 -60q0 -36 -27 -56t-61 -20q-53 0 -78 42l23 13q18 -29 55 -29q25 0 38.5 16t13.5 38t-12.5 38.5t-35.5 16.5q-15 0 -42 -12z" />
<glyph unicode="&#x160;" horiz-adv-x="571" d="M286 27q98 0 165 45.5t67 106.5q0 54 -48 90t-116 57t-136 42.5t-116 61t-48 97.5q0 69 69 115t163 46q138 0 232 -84l-23 -27q-82 75 -209 75q-84 0 -140.5 -38t-56.5 -87q0 -40 34.5 -70t86 -46.5t112 -37t112 -41t86 -60t34.5 -93.5q0 -80 -79.5 -134t-188.5 -54 q-95 0 -163 33t-105 71l25 25q33 -33 95 -63t148 -30zM288 795l123 98l22 -28l-133 -106h-29l-133 106l23 28l123 -98h4z" />
<glyph unicode="&#x161;" d="M214 27q69 0 115 30.5t46 67.5q0 34 -33 56.5t-80.5 36t-94.5 28t-80 42t-33 69.5q0 50 47.5 83t112.5 33q104 0 161 -70l-27 -24q-49 59 -134 59q-50 0 -87.5 -23.5t-37.5 -57.5q0 -31 33 -51.5t80.5 -33.5t95 -28.5t80.5 -45t33 -73.5q0 -58 -59 -96t-138 -38 q-70 0 -120.5 23t-75.5 57l28 22q51 -66 168 -66zM216 580l123 99l23 -28l-133 -106h-29l-133 106l22 28l123 -99h4z" />
<glyph unicode="&#x162;" horiz-adv-x="571" d="M270 -77l-23 6l21 72v642h-250v36h536v-36h-250v-643h-8l-12 -41q9 3 28 3q38 0 61 -25.5t23 -59.5q0 -36 -27 -56.5t-61 -20.5q-54 0 -79 42l24 13q17 -28 55 -28q25 0 38.5 15.5t13.5 37.5t-12.5 39t-35.5 17q-12 0 -42 -13z" />
<glyph unicode="&#x163;" horiz-adv-x="321" d="M174 -86l-22 7l23 79q-38 14 -62 48.5t-24 76.5v304h-71v35h71v107h36v-107h179v-35h-179v-304q0 -41 28.5 -69.5t69.5 -28.5q37 0 70 23l21 -29q-39 -30 -91 -30q-8 0 -22 2l-13 -43q12 4 28 4q38 0 61 -26t23 -60q0 -36 -27 -56.5t-61 -20.5q-53 0 -78 42l23 13 q17 -28 55 -28q25 0 38.5 15.5t13.5 37.5t-12.5 39t-35.5 17q-12 0 -42 -13z" />
<glyph unicode="&#x164;" horiz-adv-x="571" d="M18 679h536v-36h-250v-643h-36v643h-250v36zM288 795l123 98l22 -28l-133 -106h-29l-133 106l23 28l123 -98h4z" />
<glyph unicode="&#x165;" d="M125 125q0 -41 28.5 -69.5t69.5 -28.5q37 0 70 23l21 -29q-39 -30 -91 -30q-55 0 -94.5 39.5t-39.5 94.5v304h-71v35h71v107h36v-107h179v-35h-179v-304zM366 540q0 13 9 22t22 9t22.5 -9t9.5 -22q0 -65 -60 -125l-16 16q35 35 35 80q-22 7 -22 29z" />
<glyph unicode="&#x166;" horiz-adv-x="571" d="M18 679h536v-36h-250v-143h107v-36h-107v-464h-36v464h-107v36h107v143h-250v36z" />
<glyph unicode="&#x167;" horiz-adv-x="321" d="M125 125q0 -41 28.5 -69.5t69.5 -28.5q37 0 70 23l21 -29q-39 -30 -91 -30q-55 0 -94.5 39.5t-39.5 94.5v161h-35v35h35v108h-71v35h71v107h36v-107h179v-35h-179v-108h143v-35h-143v-161z" />
<glyph unicode="&#x168;" horiz-adv-x="571" d="M350 832q24 0 30 31l5 24l35 -6l-4 -24q-11 -60 -66 -60q-28 0 -70.5 24.5t-58.5 24.5q-24 0 -30 -31l-6 -24l-35 6l5 24q11 60 66 60q28 0 70.5 -24.5t58.5 -24.5zM536 241q0 -103 -73 -176.5t-177 -73.5t-177 73.5t-73 176.5v438h35v-438q0 -88 63 -151t152 -63 q88 0 151 62.5t63 151.5v438h36v-438z" />
<glyph unicode="&#x169;" horiz-adv-x="526" d="M324 618q24 0 30 31l5 24l35 -6l-4 -24q-11 -60 -66 -60q-28 0 -70.5 24.5t-58.5 24.5q-24 0 -30 -31l-6 -24l-35 6l5 24q11 60 66 60q28 0 70.5 -24.5t58.5 -24.5zM45 464h35v-312q0 -60 38.5 -92.5t104.5 -32.5q89 0 152 68t63 164v205h35v-464h-30l-4 132h-3 q-31 -64 -88 -102.5t-125 -38.5q-81 0 -129.5 43.5t-48.5 117.5v312z" />
<glyph unicode="&#x16a;" horiz-adv-x="571" d="M428 821h-285v36h285v-36zM536 241q0 -103 -73 -176.5t-177 -73.5t-177 73.5t-73 176.5v438h35v-438q0 -88 63 -151t152 -63q88 0 151 62.5t63 151.5v438h36v-438z" />
<glyph unicode="&#x16b;" horiz-adv-x="526" d="M401 607h-285v36h285v-36zM45 464h35v-312q0 -60 38.5 -92.5t104.5 -32.5q89 0 152 68t63 164v205h35v-464h-30l-4 132h-3q-31 -64 -88 -102.5t-125 -38.5q-81 0 -129.5 43.5t-48.5 117.5v312z" />
<glyph unicode="&#x16c;" horiz-adv-x="571" d="M285 821q72 0 108 55l30 -21q-48 -70 -138 -70q-89 0 -137 70l29 21q36 -55 108 -55zM536 241q0 -103 -73 -176.5t-177 -73.5t-177 73.5t-73 176.5v438h35v-438q0 -88 63 -151t152 -63q88 0 151 62.5t63 151.5v438h36v-438z" />
<glyph unicode="&#x16d;" horiz-adv-x="526" d="M259 607q72 0 108 55l30 -21q-48 -70 -138 -70q-89 0 -137 70l29 21q36 -55 108 -55zM45 464h35v-312q0 -60 38.5 -92.5t104.5 -32.5q89 0 152 68t63 164v205h35v-464h-30l-4 132h-3q-31 -64 -88 -102.5t-125 -38.5q-81 0 -129.5 43.5t-48.5 117.5v312z" />
<glyph unicode="&#x16e;" horiz-adv-x="571" d="M286 893q32 0 61 -27q28 -27 28 -63q0 -35 -28 -62q-29 -27 -61 -27q-31 0 -61 28q-28 27 -28 61q0 36 28 63q29 27 61 27zM286 866q-21 0 -43 -20q-19 -19 -19 -43t19 -43t43 -19q22 0 43 19q20 20 20 43t-20 43q-22 20 -43 20zM536 241q0 -103 -73 -176.5t-177 -73.5 t-177 73.5t-73 176.5v438h35v-438q0 -88 63 -151t152 -63q88 0 151 62.5t63 151.5v438h36v-438z" />
<glyph unicode="&#x16f;" horiz-adv-x="526" d="M259 679q33 0 61 -27t28 -63q0 -35 -28 -62t-61 -27q-31 0 -61 28q-28 27 -28 61q0 36 28 63t61 27zM259 652q-21 0 -43 -20q-19 -19 -19 -43t19 -43t43 -19q22 0 43 19q20 20 20 43t-20 43q-22 20 -43 20zM45 464h35v-312q0 -60 38.5 -92.5t104.5 -32.5q89 0 152 68 t63 164v205h35v-464h-30l-4 132h-3q-31 -64 -88 -102.5t-125 -38.5q-81 0 -129.5 43.5t-48.5 117.5v312z" />
<glyph unicode="&#x170;" horiz-adv-x="571" d="M367 759l-26 25l100 100l25 -25zM189 759l-26 25l100 100l25 -25zM536 241q0 -103 -73 -176.5t-177 -73.5t-177 73.5t-73 176.5v438h35v-438q0 -88 63 -151t152 -63q88 0 151 62.5t63 151.5v438h36v-438z" />
<glyph unicode="&#x171;" horiz-adv-x="526" d="M45 464h35v-312q0 -60 38.5 -92.5t104.5 -32.5q89 0 152 68t63 164v205h35v-464h-30l-4 132h-3q-31 -64 -88 -102.5t-125 -38.5q-81 0 -129.5 43.5t-48.5 117.5v312zM340 545l-26 25l100 100l25 -25zM162 545l-26 25l100 100l25 -25z" />
<glyph unicode="&#x172;" horiz-adv-x="571" d="M265 -99q0 -17 11.5 -30.5t39.5 -13.5q20 0 38 11l18 -31q-25 -16 -56 -16q-40 0 -63.5 23t-23.5 57t15.5 53t48.5 37h-7q-104 0 -177 73.5t-73 176.5v438h35v-438q0 -88 63 -151t152 -63q88 0 151 62.5t63 151.5v438h36v-438q0 -80 -46 -144t-119 -91q-8 -5 -22 -13 t-20 -11t-16 -9.5t-14 -9.5t-11 -8t-9 -8.5t-6 -9t-5 -11t-2 -11.5t-1 -14z" />
<glyph unicode="&#x173;" horiz-adv-x="526" d="M442 12l-4 111h-1q-30 -65 -87 -103t-127 -38q-81 0 -129.5 43.5t-48.5 117.5v321h35v-321q0 -60 38.5 -92.5t104.5 -32.5q87 0 151 66.5t64 165.5v214h35v-460q-85 -49 -85 -100q0 -21 15.5 -34t37.5 -13q20 0 38 11l18 -30q-26 -17 -56 -17q-38 0 -63 23.5t-25 56.5 q0 59 89 111z" />
<glyph unicode="&#x174;" horiz-adv-x="928" d="M467 848h-4l-123 -98l-23 27l133 107h29l133 -107l-22 -27zM1 672l34 13l233 -628l178 457v93h36v-93l179 -457l233 628l34 -13l-254 -681h-27l-183 471l-183 -471h-27z" />
<glyph unicode="&#x175;" horiz-adv-x="785" d="M395 634h-4l-123 -98l-23 27l133 107h29l133 -107l-22 -27zM12 457l32 14l188 -419l143 317v77h36v-77l143 -317l188 419l32 -14l-208 -465h-25l-148 329l-148 -329h-25z" />
<glyph unicode="&#x176;" horiz-adv-x="571" d="M288 848h-4l-123 -98l-23 27l133 107h29l133 -107l-22 -27zM3 670l30 18l253 -414l252 414l31 -18l-265 -435v-235h-36v235z" />
<glyph unicode="&#x177;" horiz-adv-x="500" d="M252 634h-4l-123 -98l-23 27l133 107h29l133 -107l-22 -27zM2 457l32 14l207 -466l224 467l33 -16l-277 -575q-45 -95 -120 -95q-33 0 -62 19.5t-46 45.5l30 19q13 -21 34.5 -35t43.5 -14q50 0 87 76l33 66z" />
<glyph unicode="&#x178;" horiz-adv-x="571" d="M361 808q0 13 9.5 22t22.5 9t22 -9t9 -22t-9 -22.5t-22 -9.5t-22.5 9.5t-9.5 22.5zM152 808q0 13 9 22t22 9t22 -9t9 -22t-9 -22.5t-22 -9.5t-22 9.5t-9 22.5zM3 670l30 18l253 -414l252 414l31 -18l-265 -435v-235h-36v235z" />
<glyph unicode="&#x179;" horiz-adv-x="535" d="M500 679v-24l-429 -618h-1v-1h448v-36h-500v23l429 619h1v1h-412v36h464zM246 759l-25 25l100 100l25 -25z" />
<glyph unicode="&#x17a;" horiz-adv-x="464" d="M371 429h-335v35h393v-25l-353 -402v-1h370v-36h-428v25l353 403v1zM211 545l-25 25l99 100l26 -25z" />
<glyph unicode="&#x17b;" horiz-adv-x="535" d="M500 679v-24l-429 -618h-1v-1h448v-36h-500v23l429 619h1v1h-412v36h464zM237 826q0 13 9 22t22 9t22 -9t9 -22t-9 -22t-22 -9t-22 9t-9 22z" />
<glyph unicode="&#x17c;" horiz-adv-x="464" d="M371 429h-335v35h393v-25l-353 -402v-1h370v-36h-428v25l353 403v1zM201 612q0 13 9 22t22 9t22 -9t9 -22t-9 -22.5t-22 -9.5t-22 9.5t-9 22.5z" />
<glyph unicode="&#x17d;" horiz-adv-x="535" d="M500 679v-24l-429 -618h-1v-1h448v-36h-500v23l429 619h1v1h-412v36h464zM270 795l123 98l22 -28l-133 -106h-28l-133 106l22 28l123 -98h4z" />
<glyph unicode="&#x17e;" horiz-adv-x="464" d="M371 429h-335v35h393v-25l-353 -402v-1h370v-36h-428v25l353 403v1zM234 580l123 99l22 -28l-133 -106h-28l-133 106l22 28l123 -99h4z" />
<glyph unicode="&#x17f;" horiz-adv-x="267" d="M268 571q0 33 -25.5 57t-61.5 24q-38 0 -65 -28.5t-27 -69.5v-554h-35v429h-36v35h36v90q0 55 37 94.5t90 39.5q51 0 87 -34.5t36 -82.5h-36z" />
<glyph unicode="&#x192;" horiz-adv-x="463" d="M232 -80q0 -56 -39 -95t-95 -39q-74 0 -113 62l-3 5v22h36v-12q30 -42 80 -42q40 0 69 29t29 70v437h-107v36h107v134q0 55 39 94.5t95 39.5q73 0 113 -63l3 -4v-23h-35v12q-30 42 -81 42q-40 0 -69 -28.5t-29 -69.5v-134h143v-36h-143v-437z" />
<glyph unicode="&#x1cd;" horiz-adv-x="571" d="M288 794l123 99l22 -28l-133 -106h-29l-133 106l23 28l123 -99h4zM122 214h327l-163 410zM108 179l-73 -185l-34 12l271 682h27l272 -682l-34 -12l-74 185h-355z" />
<glyph unicode="&#x1ce;" horiz-adv-x="491" d="M257 580l123 99l22 -28l-133 -106h-29l-133 106l23 28l123 -99h4zM214 -9q-91 0 -143.5 43t-52.5 109q0 60 52.5 101.5t125.5 41.5h215v44q0 43 -46.5 75.5t-114.5 32.5q-87 0 -154 -41l-19 30q75 46 173 46q80 0 138 -41t58 -102v-330h-30l-4 98h-1q-29 -49 -81.5 -78 t-115.5 -29zM214 27q80 0 138.5 50.5t58.5 109.5v63h-215q-60 0 -101 -32t-41 -75q0 -50 41.5 -83t118.5 -33z" />
<glyph unicode="&#x1cf;" horiz-adv-x="142" d="M74 794l123 99l22 -28l-133 -106h-29l-133 106l23 28l123 -99h4zM89 0h-35v679h35v-679z" />
<glyph unicode="&#x1d0;" horiz-adv-x="142" d="M56 562l-88 72l22 28l79 -64h3l79 64l22 -28l-88 -72h-29zM54 464h35v-464h-35v464z" />
<glyph unicode="&#x1d1;" horiz-adv-x="714" d="M357 688q141 0 240 -102.5t99 -246.5t-99 -246t-240 -102t-240 102t-99 246t99 246.5t240 102.5zM54 339q0 -130 89 -221t214 -91q126 0 215 91.5t89 220.5q0 130 -89.5 221.5t-214.5 91.5t-214 -91.5t-89 -221.5zM377 795l123 98l22 -28l-133 -106h-28l-133 106l22 28 l123 -98h4z" />
<glyph unicode="&#x1d2;" horiz-adv-x="500" d="M250 473q96 0 164 -70.5t68 -170.5t-68 -170.5t-164 -70.5t-164 70.5t-68 170.5t68 170.5t164 70.5zM54 232q0 -85 57.5 -145t138.5 -60t138.5 60t57.5 145t-57.5 145.5t-138.5 60.5t-138.5 -60.5t-57.5 -145.5zM252 580l123 99l22 -28l-133 -106h-28l-133 106l22 28 l123 -99h4z" />
<glyph unicode="&#x1d3;" horiz-adv-x="571" d="M288 794l123 99l22 -28l-133 -106h-29l-133 106l23 28l123 -99h4zM536 241q0 -103 -73 -176.5t-177 -73.5t-177 73.5t-73 176.5v438h35v-438q0 -88 63 -151t152 -63q88 0 151 62.5t63 151.5v438h36v-438z" />
<glyph unicode="&#x1d4;" horiz-adv-x="526" d="M261 580l123 99l22 -28l-133 -106h-29l-133 106l23 28l123 -99h4zM45 464h35v-312q0 -60 38.5 -92.5t104.5 -32.5q89 0 152 68t63 164v205h35v-464h-30l-4 132h-3q-31 -64 -88 -102.5t-125 -38.5q-81 0 -129.5 43.5t-48.5 117.5v312z" />
<glyph unicode="&#x1e6;" horiz-adv-x="660" d="M359 794l123 99l22 -28l-133 -106h-29l-133 106l23 28l123 -99h4zM54 339q1 -131 87.5 -221.5t215.5 -90.5q78 0 141 45t91 117v97h-143v35h179v-321h-30l-5 125h-1q-38 -61 -99.5 -97.5t-132.5 -36.5q-144 0 -241 101t-98 247q0 145 97.5 247t241.5 102q136 0 231 -87 l-24 -26q-83 77 -207 77q-128 0 -215.5 -91.5t-87.5 -221.5z" />
<glyph unicode="&#x1e7;" horiz-adv-x="535" d="M252 580l123 99l22 -28l-133 -106h-29l-133 106l23 28l123 -99h4zM250 438q-81 0 -138.5 -61t-57.5 -145q0 -85 57.5 -145t138.5 -60t138.5 60t57.5 145q0 84 -57.5 145t-138.5 61zM250 473q62 -1 114 -34.5t81 -89.5h3l4 115h30v-437q0 -100 -70.5 -170.5t-170.5 -70.5 q-105 0 -176 76l26 25q63 -66 150 -66q85 0 145 60.5t60 145.5v89q-29 -56 -81.5 -90t-114.5 -35q-96 0 -164 71t-68 170t68 170t164 71z" />
<glyph unicode="&#x1e8;" horiz-adv-x="571" d="M89 0h-35v679h35v-460l400 469l27 -23l-264 -310l239 -282q20 -22 30.5 -29.5t26.5 -7.5h6v-36h-6q-26 0 -43.5 11.5t-40.5 38.5l-236 277l-139 -163v-164zM288 795l123 98l22 -28l-133 -106h-29l-133 106l23 28l123 -98h4z" />
<glyph unicode="&#x1e9;" horiz-adv-x="464" d="M205 214l-116 -122v-92h-35v679h35v-533l315 331l25 -25l-200 -212l151 -167q34 -37 61 -37h5v-36h-5q-26 0 -44 11.5t-43 37.5zM270 759l123 98l22 -28l-133 -106h-28l-133 106l22 28l123 -98h4z" />
<glyph unicode="&#x1ea;" horiz-adv-x="750" d="M397 -99q0 -17 11.5 -30.5t39.5 -13.5q21 0 39 11l17 -30q-26 -17 -56 -17q-40 0 -63 23t-23 57q0 30 13.5 48.5t42.5 35.5q-21 -3 -43 -3q-148 0 -252.5 104.5t-104.5 252.5t104.5 252.5t252.5 104.5t252.5 -104.5t104.5 -252.5q0 -106 -56 -193t-148 -130 q-15 -9 -37 -21t-31 -17.5t-23 -14t-19 -14t-11 -13.5t-8 -16t-2 -19zM54 339q0 -133 94 -227t227 -94t227 94t94 227q0 134 -94 228t-227 94t-227 -94t-94 -228z" />
<glyph unicode="&#x1eb;" horiz-adv-x="500" d="M252 -9h-2q-96 0 -164 70.5t-68 170.5t68 170.5t164 70.5t164 -70.5t68 -170.5q0 -76 -42 -138t-109 -88q-10 -6 -27.5 -16t-23.5 -13.5t-17.5 -11t-15 -11t-9.5 -10.5t-8 -12.5t-3.5 -13.5t-1.5 -17q0 -17 11.5 -30.5t39.5 -13.5q20 0 38 11l18 -31q-25 -16 -56 -16 q-40 0 -63.5 23t-23.5 57t15 52.5t48 36.5v1zM54 232q0 -85 57.5 -145t138.5 -60t138.5 60t57.5 145t-57.5 145.5t-138.5 60.5t-138.5 -60.5t-57.5 -145.5z" />
<glyph unicode="&#x1ec;" horiz-adv-x="750" d="M397 -99q0 -17 11.5 -30.5t39.5 -13.5q21 0 39 11l17 -30q-26 -17 -56 -17q-40 0 -63 23t-23 57q0 30 13.5 48.5t42.5 35.5q-21 -3 -43 -3q-148 0 -252.5 104.5t-104.5 252.5t104.5 252.5t252.5 104.5t252.5 -104.5t104.5 -252.5q0 -106 -56 -193t-148 -130 q-15 -9 -37 -21t-31 -17.5t-23 -14t-19 -14t-11 -13.5t-8 -16t-2 -19zM54 339q0 -133 94 -227t227 -94t227 94t94 227q0 134 -94 228t-227 94t-227 -94t-94 -228zM518 741h-286v36h286v-36z" />
<glyph unicode="&#x1ed;" horiz-adv-x="500" d="M252 -9h-2q-96 0 -164 70.5t-68 170.5t68 170.5t164 70.5t164 -70.5t68 -170.5q0 -76 -42 -138t-109 -88q-10 -6 -27.5 -16t-23.5 -13.5t-17.5 -11t-15 -11t-9.5 -10.5t-8 -12.5t-3.5 -13.5t-1.5 -17q0 -17 11.5 -30.5t39.5 -13.5q20 0 38 11l18 -31q-25 -16 -56 -16 q-40 0 -63.5 23t-23.5 57t15 52.5t48 36.5v1zM54 232q0 -85 57.5 -145t138.5 -60t138.5 60t57.5 145t-57.5 145.5t-138.5 60.5t-138.5 -60.5t-57.5 -145.5zM393 518h-286v36h286v-36z" />
<glyph unicode="&#x1f4;" horiz-adv-x="660" d="M54 339q1 -131 87.5 -221.5t215.5 -90.5q78 0 141 45t91 117v97h-143v35h179v-321h-30l-5 125h-1q-38 -61 -99.5 -97.5t-132.5 -36.5q-144 0 -241 101t-98 247q0 145 97.5 247t241.5 102q136 0 231 -87l-24 -26q-83 77 -207 77q-128 0 -215.5 -91.5t-87.5 -221.5z M336 759l-25 25l99 100l26 -25z" />
<glyph unicode="&#x1f5;" horiz-adv-x="535" d="M250 438q-81 0 -138.5 -61t-57.5 -145q0 -85 57.5 -145t138.5 -60t138.5 60t57.5 145q0 84 -57.5 145t-138.5 61zM250 473q62 -1 114 -34.5t81 -89.5h3l4 115h30v-437q0 -100 -70.5 -170.5t-170.5 -70.5q-105 0 -176 76l26 25q63 -66 150 -66q85 0 145 60.5t60 145.5v89 q-29 -56 -81.5 -90t-114.5 -35q-96 0 -164 71t-68 170t68 170t164 71zM229 545l-25 25l99 100l26 -25z" />
<glyph unicode="&#x200;" horiz-adv-x="571" d="M122 214h327l-163 410zM108 179l-73 -185l-34 12l271 682h27l272 -682l-34 -12l-74 185h-355zM396 759l-99 100l26 25l99 -100zM218 759l-99 100l26 25l99 -100z" />
<glyph unicode="&#x201;" horiz-adv-x="491" d="M214 -9q-91 0 -143.5 43t-52.5 109q0 60 52.5 101.5t125.5 41.5h215v44q0 43 -46.5 75.5t-114.5 32.5q-87 0 -154 -41l-19 30q75 46 173 46q80 0 138 -41t58 -102v-330h-30l-4 98h-1q-29 -49 -81.5 -78t-115.5 -29zM411 250h-215q-60 0 -101 -32t-41 -75q0 -50 41.5 -83 t118.5 -33q80 0 138.5 50.5t58.5 109.5v63zM356 545l-99 100l26 25l99 -100zM178 545l-99 100l25 25l100 -100z" />
<glyph unicode="&#x218;" horiz-adv-x="571" d="M254 -85q0 13 9.5 22t22.5 9t22 -9t9 -22q0 -65 -60 -125l-16 16q36 36 36 80q-23 8 -23 29zM286 27q98 0 165 45.5t67 106.5q0 54 -48 90t-116 57t-136 42.5t-116 61t-48 97.5q0 69 69 115t163 46q138 0 232 -84l-23 -27q-82 75 -209 75q-84 0 -140.5 -38t-56.5 -87 q0 -40 34.5 -70t86 -46.5t112 -37t112 -41t86 -60t34.5 -93.5q0 -80 -79.5 -134t-188.5 -54q-95 0 -163 33t-105 71l25 25q33 -33 95 -63t148 -30z" />
<glyph unicode="&#x219;" d="M183 -85q0 13 9 22t22 9t22.5 -9t9.5 -22q0 -65 -60 -125l-16 16q35 35 35 80q-22 7 -22 29zM214 27q69 0 115 30.5t46 67.5q0 34 -33 56.5t-80.5 36t-94.5 28t-80 42t-33 69.5q0 50 47.5 83t112.5 33q104 0 161 -70l-27 -24q-49 59 -134 59q-50 0 -87.5 -23.5 t-37.5 -57.5q0 -31 33 -51.5t80.5 -33.5t95 -28.5t80.5 -45t33 -73.5q0 -58 -59 -96t-138 -38q-70 0 -120.5 23t-75.5 57l28 22q51 -66 168 -66z" />
<glyph unicode="&#x21a;" horiz-adv-x="571" d="M18 679h536v-36h-250v-643h-36v643h-250v36zM254 -76q0 13 9.5 22t22.5 9t22 -9t9 -22q0 -65 -60 -125l-16 16q36 36 36 80q-23 8 -23 29z" />
<glyph unicode="&#x21b;" horiz-adv-x="321" d="M165 -85q0 13 9 22t22 9t22.5 -9t9.5 -22q0 -65 -60 -125l-16 16q36 36 36 80q-23 8 -23 29zM125 125q0 -41 28.5 -69.5t69.5 -28.5q37 0 70 23l21 -29q-39 -30 -91 -30q-55 0 -94.5 39.5t-39.5 94.5v304h-71v35h71v107h36v-107h179v-35h-179v-304z" />
<glyph unicode="&#x226;" horiz-adv-x="571" d="M122 214h327l-163 410zM108 179l-73 -185l-34 12l271 682h27l272 -682l-34 -12l-74 185h-355zM263 826q0 13 9.5 22t22.5 9t22 -9t9 -22t-9 -22t-22 -9t-22.5 9t-9.5 22z" />
<glyph unicode="&#x227;" horiz-adv-x="491" d="M214 -9q-91 0 -143.5 43t-52.5 109q0 60 52.5 101.5t125.5 41.5h215v44q0 43 -46.5 75.5t-114.5 32.5q-87 0 -154 -41l-19 30q75 46 173 46q80 0 138 -41t58 -102v-330h-30l-4 98h-1q-29 -49 -81.5 -78t-115.5 -29zM411 250h-215q-60 0 -101 -32t-41 -75q0 -50 41.5 -83 t118.5 -33q80 0 138.5 50.5t58.5 109.5v63zM223 612q0 13 9 22t22 9t22.5 -9t9.5 -22t-9.5 -22.5t-22.5 -9.5t-22 9.5t-9 22.5z" />
<glyph unicode="&#x237;" horiz-adv-x="142" d="M54 464h35v-544q0 -56 -39.5 -95t-94.5 -39h-9v35h9q41 0 70 29.5t29 69.5v544z" />
<glyph unicode="&#x2b9;" horiz-adv-x="125" d="M53 566q9 33 9 79q0 25 -2 33l35 6q3 -12 3 -39q0 -51 -10 -88l-9 -28l-34 10z" />
<glyph unicode="&#x2ba;" horiz-adv-x="232" d="M151 566q10 37 10 79q0 21 -3 33l35 6q3 -12 3 -39q0 -51 -10 -88l-8 -28l-35 10zM53 566q9 33 9 79q0 25 -2 33l35 6q3 -12 3 -39q0 -51 -10 -88l-9 -28l-34 10z" />
<glyph unicode="&#x2bc;" horiz-adv-x="125" d="M36 656q0 13 9 22.5t22 9.5t22 -9.5t9 -22.5q0 -65 -60 -125l-16 16q36 36 36 80q-22 7 -22 29z" />
<glyph unicode="&#x2c6;" horiz-adv-x="357" d="M180 634h-3l-123 -98l-23 27l133 107h29l133 -107l-22 -27z" />
<glyph unicode="&#x2c7;" horiz-adv-x="357" d="M180 580l124 99l22 -28l-133 -106h-29l-133 106l23 28l123 -99h3z" />
<glyph unicode="&#x2c8;" horiz-adv-x="142" d="M54 679h35v-143h-35v143z" />
<glyph unicode="&#x2c9;" horiz-adv-x="321" d="M304 607h-286v36h286v-36z" />
<glyph unicode="&#x2ca;" horiz-adv-x="178" d="M41 545l-25 25l99 100l26 -25z" />
<glyph unicode="&#x2cb;" horiz-adv-x="178" d="M115 545l-99 100l26 25l99 -100z" />
<glyph unicode="&#x2d8;" horiz-adv-x="250" d="M125 607q72 0 108 55l29 -21q-48 -70 -137 -70t-137 70l29 21q36 -55 108 -55z" />
<glyph unicode="&#x2d9;" horiz-adv-x="107" d="M22 612q0 13 9.5 22t22.5 9t22 -9t9 -22t-9 -22.5t-22 -9.5t-22.5 9.5t-9.5 22.5z" />
<glyph unicode="&#x2da;" horiz-adv-x="214" d="M107 679q33 0 61 -27t28 -63q0 -35 -28 -62t-61 -27q-31 0 -61 28q-28 27 -28 61q0 36 28 63q29 27 61 27zM107 652q-21 0 -43 -20q-19 -19 -19 -43t19 -43t43 -19q22 0 43 19q20 20 20 43t-20 43q-22 20 -43 20z" />
<glyph unicode="&#x2db;" horiz-adv-x="214" d="M54 -99q0 -17 11 -30.5t39 -13.5q21 0 39 11l18 -30q-26 -17 -57 -17q-40 0 -63 23t-23 57q0 22 6 37.5t20.5 27.5t27 19.5t37.5 20.5t41 22l11 -21q-8 -5 -22 -13t-20 -11.5t-16.5 -9.5t-14.5 -9t-10.5 -8.5t-9 -9t-6.5 -9t-5 -11t-2 -11.5t-1 -14z" />
<glyph unicode="&#x2dc;" horiz-adv-x="250" d="M159 627q20 -9 30 -9q25 0 31 31l5 24l35 -6l-5 -24q-11 -60 -66 -60q-24 0 -43 10l-55 30q-20 9 -30 9q-25 0 -31 -31l-5 -24l-35 6l5 24q11 60 66 60q24 0 43 -10z" />
<glyph unicode="&#x2dd;" horiz-adv-x="357" d="M249 545l-26 25l100 100l25 -25zM71 545l-26 25l100 100l25 -25z" />
<glyph unicode="&#x2f5;" horiz-adv-x="357" d="M287 545l-99 100l25 25l99 -100zM108 545l-99 100l26 25l99 -100z" />
<glyph unicode="&#x300;" horiz-adv-x="0" d="M-130 545l-99 100l25 25l100 -100z" />
<glyph unicode="&#x301;" horiz-adv-x="0" d="M-173 545l-25 25l99 100l26 -25z" />
<glyph unicode="&#x302;" horiz-adv-x="0" d="M-212 634h-4l-123 -98l-23 27l133 107h29l133 -107l-22 -27z" />
<glyph unicode="&#x303;" horiz-adv-x="0" d="M-96 618q24 0 30 31l5 24l35 -6l-4 -24q-11 -60 -66 -60q-28 0 -70.5 24.5t-58.5 24.5q-24 0 -30 -31l-6 -24l-35 6l5 24q11 60 66 60q28 0 70.5 -24.5t58.5 -24.5z" />
<glyph unicode="&#x304;" horiz-adv-x="0" d="M-54 607h-285v36h285v-36z" />
<glyph unicode="&#x305;" horiz-adv-x="0" d="M-18 607h-357v36h357v-36z" />
<glyph unicode="&#x306;" horiz-adv-x="0" d="M-161 607q72 0 108 55l30 -21q-48 -70 -138 -70q-89 0 -137 70l29 21q36 -55 108 -55z" />
<glyph unicode="&#x307;" horiz-adv-x="0" d="M-121 612q0 13 9.5 22t22.5 9t22 -9t9 -22t-9 -22.5t-22 -9.5t-22.5 9.5t-9.5 22.5z" />
<glyph unicode="&#x308;" horiz-adv-x="0" d="M-121 594q0 13 9.5 22t22.5 9t22 -9t9 -22t-9 -22.5t-22 -9.5t-22.5 9.5t-9.5 22.5zM-330 594q0 13 9 22t22 9t22 -9t9 -22t-9 -22.5t-22 -9.5t-22 9.5t-9 22.5z" />
<glyph unicode="&#x309;" horiz-adv-x="0" d="M-143 679q37 0 63 -26.5t26 -63.5q0 -27 -11 -45t-24.5 -26t-24.5 -21.5t-11 -32.5h-36q0 27 11.5 45t24.5 26t24.5 21.5t11.5 32.5q0 23 -15.5 38.5t-38.5 15.5q-22 0 -37.5 -15.5t-15.5 -38.5h-36q0 37 26 63.5t63 26.5z" />
<glyph unicode="&#x30a;" horiz-adv-x="0" d="M-143 679q33 0 61 -27t28 -63q0 -35 -28 -62t-61 -27q-31 0 -61 28q-28 27 -28 61q0 36 28 63t61 27zM-143 652q-21 0 -43 -20q-19 -19 -19 -43t19 -43t43 -19q22 0 43 19q20 20 20 43t-20 43q-22 20 -43 20z" />
<glyph unicode="&#x30b;" horiz-adv-x="0" d="M-151 545l-26 25l100 100l25 -25zM-329 545l-26 25l100 100l25 -25z" />
<glyph unicode="&#x30c;" horiz-adv-x="0" d="M-212 580l123 99l22 -28l-133 -106h-29l-133 106l23 28l123 -99h4z" />
<glyph unicode="&#x30d;" horiz-adv-x="0" d="M-98 598q0 19 12.5 32t31.5 13t32 -13t13 -32t-13 -31.5t-32 -12.5t-31.5 12.5t-12.5 31.5z" />
<glyph unicode="&#x30f;" horiz-adv-x="0" d="M-77 545l-99 100l26 25l99 -100zM-255 545l-99 100l25 25l100 -100z" />
<glyph unicode="&#x311;" horiz-adv-x="0" d="M-161 625q-72 0 -108 -54l-29 20q48 70 137 70q90 0 138 -70l-30 -20q-36 54 -108 54z" />
<glyph unicode="&#x3a9;" horiz-adv-x="714" d="M643 0h-214v69l36 14q81 32 129.5 106.5t48.5 167.5v2q0 122 -82.5 207.5t-203.5 85.5t-203.5 -86.5t-82.5 -208.5q0 -93 48.5 -167.5t129.5 -106.5l37 -14v-69h-215v36h179v8l-14 6q-91 37 -145.5 120t-54.5 187q0 137 92.5 234t228.5 97t229 -96t93 -233v-2 q0 -104 -54.5 -187t-145.5 -120l-15 -6v-8h179v-36z" />
<glyph unicode="&#x3c0;" horiz-adv-x="500" d="M482 464v-35h-71v-358q0 -15 10 -25t25 -10h18v-36h-18q-29 0 -50 21t-21 50v358h-250v-429h-36v429h-71v35h464z" />
<glyph unicode="&#x1e80;" horiz-adv-x="928" d="M486 759l-99 100l25 25l100 -100zM1 672l34 13l233 -628l178 457v93h36v-93l179 -457l233 628l34 -13l-254 -681h-27l-183 471l-183 -471h-27z" />
<glyph unicode="&#x1e81;" horiz-adv-x="785" d="M415 545l-99 100l25 25l100 -100zM12 457l32 14l188 -419l143 317v77h36v-77l143 -317l188 419l32 -14l-208 -465h-25l-148 329l-148 -329h-25z" />
<glyph unicode="&#x1e82;" horiz-adv-x="928" d="M443 759l-25 25l99 100l26 -25zM1 672l34 13l233 -628l178 457v93h36v-93l179 -457l233 628l34 -13l-254 -681h-27l-183 471l-183 -471h-27z" />
<glyph unicode="&#x1e83;" horiz-adv-x="785" d="M372 545l-25 25l99 100l26 -25zM12 457l32 14l188 -419l143 317v77h36v-77l143 -317l188 419l32 -14l-208 -465h-25l-148 329l-148 -329h-25z" />
<glyph unicode="&#x1e84;" horiz-adv-x="928" d="M540 808q0 13 9.5 22t22.5 9t22 -9t9 -22t-9 -22.5t-22 -9.5t-22.5 9.5t-9.5 22.5zM331 808q0 13 9 22t22 9t22 -9t9 -22t-9 -22.5t-22 -9.5t-22 9.5t-9 22.5zM1 672l34 13l233 -628l178 457v93h36v-93l179 -457l233 628l34 -13l-254 -681h-27l-183 471l-183 -471h-27z " />
<glyph unicode="&#x1e85;" horiz-adv-x="785" d="M468 594q0 13 9.5 22t22.5 9t22 -9t9 -22t-9 -22.5t-22 -9.5t-22.5 9.5t-9.5 22.5zM259 594q0 13 9 22t22 9t22 -9t9 -22t-9 -22.5t-22 -9.5t-22 9.5t-9 22.5zM12 457l32 14l188 -419l143 317v77h36v-77l143 -317l188 419l32 -14l-208 -465h-25l-148 329l-148 -329h-25z " />
<glyph unicode="&#x1e86;" horiz-adv-x="928" d="M433 826q0 13 9.5 22t22.5 9t22 -9t9 -22t-9 -22.5t-22 -9.5t-22.5 9.5t-9.5 22.5zM1 672l34 13l233 -628l178 457v93h36v-93l179 -457l233 628l34 -13l-254 -681h-27l-183 471l-183 -471h-27z" />
<glyph unicode="&#x1e87;" horiz-adv-x="785" d="M361 612q0 13 9.5 22t22.5 9t22 -9t9 -22t-9 -22.5t-22 -9.5t-22.5 9.5t-9.5 22.5zM12 457l32 14l188 -419l143 317v77h36v-77l143 -317l188 419l32 -14l-208 -465h-25l-148 329l-148 -329h-25z" />
<glyph unicode="&#x1e8e;" horiz-adv-x="571" d="M254 826q0 13 9.5 22t22.5 9t22 -9t9 -22t-9 -22.5t-22 -9.5t-22.5 9.5t-9.5 22.5zM3 670l30 18l253 -414l252 414l31 -18l-265 -435v-235h-36v235z" />
<glyph unicode="&#x1e8f;" horiz-adv-x="500" d="M2 457l32 14l207 -466l224 467l33 -16l-277 -575q-45 -95 -120 -95q-33 0 -62 19.5t-46 45.5l30 19q13 -21 34.5 -35t43.5 -14q50 0 87 76l33 66zM219 612q0 13 9 22t22 9t22 -9t9 -22t-9 -22.5t-22 -9.5t-22 9.5t-9 22.5z" />
<glyph unicode="&#x1e9e;" horiz-adv-x="607" d="M375 27q75 0 127 29t52 67q0 37 -37 64t-89.5 44t-105 36t-89.5 50.5t-37 75.5q0 57 62.5 93.5t146.5 36.5q11 0 33.5 -2t25.5 -2q-6 63 -62.5 98t-133.5 35q-75 0 -127 -32t-52 -84v-536h-35v420h-36v35h36v81q0 72 64.5 112t149.5 40q93 0 162.5 -47.5t69.5 -135.5v-23 h-18q-6 0 -35 2.5t-42 2.5q-73 0 -123 -28.5t-50 -65.5q0 -34 37 -59t89 -42t104.5 -36t89.5 -52.5t37 -80.5q0 -57 -64 -94.5t-150 -37.5q-63 0 -122 19.5t-89 59.5l29 21q22 -30 71.5 -47t110.5 -17z" />
<glyph unicode="&#x1ef2;" horiz-adv-x="571" d="M308 759l-99 100l25 25l100 -100zM3 670l30 18l253 -414l252 414l31 -18l-265 -435v-235h-36v235z" />
<glyph unicode="&#x1ef3;" horiz-adv-x="500" d="M2 457l32 14l207 -466l224 467l33 -16l-277 -575q-45 -95 -120 -95q-33 0 -62 19.5t-46 45.5l30 19q13 -21 34.5 -35t43.5 -14q50 0 87 76l33 66zM271 545l-99 100l26 25l99 -100z" />
<glyph unicode="&#x2000;" />
<glyph unicode="&#x2001;" horiz-adv-x="857" />
<glyph unicode="&#x2002;" />
<glyph unicode="&#x2003;" horiz-adv-x="857" />
<glyph unicode="&#x2004;" horiz-adv-x="285" />
<glyph unicode="&#x2005;" horiz-adv-x="214" />
<glyph unicode="&#x2006;" horiz-adv-x="107" />
<glyph unicode="&#x2007;" horiz-adv-x="500" />
<glyph unicode="&#x2008;" horiz-adv-x="142" />
<glyph unicode="&#x2009;" horiz-adv-x="142" />
<glyph unicode="&#x200a;" horiz-adv-x="35" />
<glyph unicode="&#x200b;" horiz-adv-x="0" />
<glyph unicode="&#x2010;" horiz-adv-x="285" d="M268 286h-250v35h250v-35z" />
<glyph unicode="&#x2011;" horiz-adv-x="285" d="M268 286h-250v35h250v-35z" />
<glyph unicode="&#x2012;" horiz-adv-x="500" d="M482 286h-464v35h464v-35z" />
<glyph unicode="&#x2013;" d="M411 286h-393v35h393v-35z" />
<glyph unicode="&#x2014;" horiz-adv-x="857" d="M839 286h-821v35h821v-35z" />
<glyph unicode="&#x2015;" horiz-adv-x="964" d="M946 286h-928v35h928v-35z" />
<glyph unicode="&#x2018;" horiz-adv-x="142" d="M107 580q0 -13 -9 -22t-22 -9t-22 9t-9 22q0 66 59 125l17 -16q-36 -36 -36 -79q9 -3 15.5 -11.5t6.5 -18.5z" />
<glyph unicode="&#x2019;" horiz-adv-x="142" d="M54 674q0 13 9 22t22 9t22 -9t9 -22q0 -65 -60 -125l-16 16q36 36 36 80q-22 7 -22 29z" />
<glyph unicode="&#x201a;" horiz-adv-x="142" d="M54 22q0 13 9 22.5t22 9.5t22 -9.5t9 -22.5q0 -65 -60 -125l-16 16q36 36 36 80q-22 7 -22 29z" />
<glyph unicode="&#x201b;" horiz-adv-x="142" d="M107 674q0 -22 -22 -29q0 -44 36 -80l-17 -16q-59 59 -59 125q0 13 9 22t22 9t22 -9t9 -22z" />
<glyph unicode="&#x201c;" horiz-adv-x="250" d="M107 580q0 -13 -9 -22t-22 -9t-22 9t-9 22q0 66 59 125l17 -16q-36 -36 -36 -79q9 -3 15.5 -11.5t6.5 -18.5zM214 580q0 -13 -9 -22t-22 -9t-22 9t-9 22q0 65 60 125l16 -16q-36 -36 -36 -79q9 -3 15.5 -11.5t6.5 -18.5z" />
<glyph unicode="&#x201d;" horiz-adv-x="250" d="M54 674q0 13 9 22t22 9t22 -9t9 -22q0 -65 -60 -125l-16 16q36 36 36 80q-22 7 -22 29zM161 674q0 13 9 22t22 9t22 -9t9 -22q0 -65 -60 -125l-16 16q36 36 36 80q-22 7 -22 29z" />
<glyph unicode="&#x201e;" horiz-adv-x="250" d="M54 22q0 13 9 22.5t22 9.5t22 -9.5t9 -22.5q0 -65 -60 -125l-16 16q36 36 36 80q-22 7 -22 29zM161 22q0 13 9 22.5t22 9.5t22 -9.5t9 -22.5q0 -65 -60 -125l-16 16q36 36 36 80q-22 7 -22 29z" />
<glyph unicode="&#x201f;" horiz-adv-x="250" d="M107 674q0 -22 -22 -29q0 -44 36 -80l-17 -16q-59 59 -59 125q0 13 9 22t22 9t22 -9t9 -22zM214 674q0 -22 -22 -29q0 -44 36 -80l-16 -16q-60 60 -60 125q0 13 9 22t22 9t22 -9t9 -22z" />
<glyph unicode="&#x2020;" horiz-adv-x="500" d="M18 420v53l214 -9l-9 215h54l-9 -215l214 9v-53l-214 9l9 -572h-54l9 572z" />
<glyph unicode="&#x2021;" horiz-adv-x="500" d="M18 420v53l214 -9l-9 215h54l-9 -215l214 9v-53l-214 9v-161v-161l214 9v-54l-214 9l9 -214h-54l9 214l-214 -9v54l214 -9v161v161z" />
<glyph unicode="&#x2022;" horiz-adv-x="214" d="M18 232q0 37 26 63t63 26t63 -26t26 -63t-26 -63t-63 -26t-63 26t-26 63z" />
<glyph unicode="&#x2023;" horiz-adv-x="178" d="M18 321l143 -89l-143 -89v178z" />
<glyph unicode="&#x2024;" horiz-adv-x="142" d="M36 22q0 13 9 22.5t22 9.5t22 -9.5t9 -22.5t-9 -22t-22 -9t-22 9t-9 22z" />
<glyph unicode="&#x2025;" horiz-adv-x="285" d="M36 22q0 13 9 22.5t22 9.5t22 -9.5t9 -22.5t-9 -22t-22 -9t-22 9t-9 22zM179 22q0 13 9 22.5t22 9.5t22 -9.5t9 -22.5t-9 -22t-22 -9t-22 9t-9 22z" />
<glyph unicode="&#x2026;" horiz-adv-x="500" d="M36 22q0 13 9 22.5t22 9.5t22 -9.5t9 -22.5t-9 -22t-22 -9t-22 9t-9 22zM214 22q0 13 9.5 22.5t22.5 9.5t22 -9.5t9 -22.5t-9 -22t-22 -9t-22.5 9t-9.5 22zM393 22q0 13 9 22.5t22 9.5t22 -9.5t9 -22.5t-9 -22t-22 -9t-22 9t-9 22z" />
<glyph unicode="&#x2030;" horiz-adv-x="928" d="M540 619l27 -23l-500 -572l-27 23zM268 518q0 -51 -33.5 -88t-91.5 -37t-91.5 37t-33.5 88q0 50 33 87.5t92 37.5t92 -37.5t33 -87.5zM143 607q-43 0 -66 -26.5t-23 -62.5q0 -37 22.5 -63t66.5 -26t66.5 26t22.5 63q0 36 -22.5 62.5t-66.5 26.5zM589 125q0 -51 -33.5 -88 t-91.5 -37t-91.5 37t-33.5 88q0 50 33 87.5t92 37.5t92 -37.5t33 -87.5zM464 214q-43 0 -66 -26.5t-23 -62.5q0 -37 22.5 -63t66.5 -26t67 26t23 63q0 36 -23 62.5t-67 26.5zM911 125q0 -51 -33.5 -88t-91.5 -37t-91.5 37t-33.5 88q0 50 33 87.5t92 37.5t92 -37.5t33 -87.5z M786 214q-43 0 -66.5 -26.5t-23.5 -62.5q0 -37 23 -63t67 -26t66.5 26t22.5 63q0 36 -22.5 62.5t-66.5 26.5z" />
<glyph unicode="&#x2032;" horiz-adv-x="196" d="M59 500l-23 27q20 18 45.5 65t25.5 87h36q0 -52 -32 -106.5t-52 -72.5z" />
<glyph unicode="&#x2033;" horiz-adv-x="303" d="M166 500l-23 27q20 18 45.5 65t25.5 87h36q0 -52 -32 -106.5t-52 -72.5zM59 500l-23 27q20 18 45.5 65t25.5 87h36q0 -52 -32 -106.5t-52 -72.5z" />
<glyph unicode="&#x2034;" horiz-adv-x="410" d="M273 500l-23 27q20 18 45.5 65t25.5 87h36q0 -52 -32 -106.5t-52 -72.5zM59 500l-23 27q20 18 45.5 65t25.5 87h36q0 -52 -32 -106.5t-52 -72.5zM166 500l-23 27q20 18 45.5 65t25.5 87h36q0 -52 -32 -106.5t-52 -72.5z" />
<glyph unicode="&#x2035;" horiz-adv-x="196" d="M120 500q-20 18 -52 72.5t-32 106.5h35q0 -40 26 -87t46 -65z" />
<glyph unicode="&#x2036;" horiz-adv-x="303" d="M227 500q-20 18 -52 72.5t-32 106.5h35q0 -40 26 -87t46 -65zM120 500q-20 18 -52 72.5t-32 106.5h35q0 -40 26 -87t46 -65z" />
<glyph unicode="&#x2037;" horiz-adv-x="410" d="M334 500q-20 18 -52 72.5t-32 106.5h35q0 -40 26 -87t46 -65zM120 500q-20 18 -52 72.5t-32 106.5h35q0 -40 26 -87t46 -65zM227 500q-20 18 -52 72.5t-32 106.5h35q0 -40 26 -87t46 -65z" />
<glyph unicode="&#x2039;" horiz-adv-x="178" d="M45 233v-3l116 -140l-28 -22l-124 150v28l124 152l28 -23z" />
<glyph unicode="&#x203a;" horiz-adv-x="178" d="M134 233l-116 142l28 23l124 -152v-28l-124 -150l-28 22l116 140v3z" />
<glyph unicode="&#x203e;" horiz-adv-x="0" d="M-18 857h589v-36h-589v36z" />
<glyph unicode="&#x2044;" horiz-adv-x="178" d="M326 619l27 -23l-500 -572l-27 23z" />
<glyph unicode="&#x2070;" horiz-adv-x="321" d="M161 839q58 0 100.5 -57.5t42.5 -151.5q0 -97 -41.5 -158t-101.5 -61t-101.5 61t-41.5 158q0 94 42.5 151.5t100.5 57.5zM54 630q0 -87 33.5 -135.5t73.5 -48.5q41 0 74 49t33 135q0 81 -33 127.5t-74 46.5t-74 -46.5t-33 -127.5z" />
<glyph unicode="&#x2074;" horiz-adv-x="285" d="M196 679h36v-143h36v-36h-36v-71h-36v71h-196v29l3 5q74 111 101 170.5t27 116.5h36q0 -63 -26.5 -123t-93.5 -162h149v143z" />
<glyph unicode="&#x2075;" horiz-adv-x="285" d="M18 622q2 31 5.5 91.5t5.5 90.5l1 17h209v-35h-175l-7 -105q42 33 86 33q49 0 87 -41t38 -111q0 -73 -39.5 -112t-90.5 -39q-33 0 -67 18t-51 49l-2 4v5v11h36v-7q13 -20 36.5 -32.5t47.5 -12.5q36 0 65 29t29 87q0 56 -28 86.5t-61 30.5q-25 0 -53 -18.5t-37 -44.5z" />
<glyph unicode="&#x2076;" horiz-adv-x="285" d="M143 804q-69 0 -84 -131q39 41 89 41q48 0 84 -40.5t36 -111.5t-36 -111t-84 -40t-89 39t-41 107v50q5 233 125 233q62 0 100 -50l-29 -22q-26 36 -71 36zM54 558q1 -54 30.5 -83t63.5 -29q33 0 58.5 29.5t25.5 86.5t-25.5 87t-58.5 30q-34 0 -64 -31t-30 -86v-4z" />
<glyph unicode="&#x2077;" horiz-adv-x="250" d="M0 821h254v-29l-52 -70q-77 -106 -77 -293h-36q0 201 84 315l31 42h-204v35z" />
<glyph unicode="&#x2078;" horiz-adv-x="285" d="M75 734q0 -29 20 -49.5t48 -20.5t48 20.5t20 49.5t-20 49.5t-48 20.5t-48 -20.5t-20 -49.5zM143 411q-52 0 -88.5 37.5t-36.5 89.5q0 36 19 65.5t51 44.5q-49 30 -49 86q0 43 30.5 74t73.5 31t73 -31t30 -74q0 -56 -49 -86q32 -15 51.5 -44.5t19.5 -65.5 q0 -52 -36.5 -89.5t-88.5 -37.5zM232 538q0 38 -26 64.5t-63 26.5t-63 -26.5t-26 -64.5q0 -37 26.5 -64.5t62.5 -27.5t62.5 27.5t26.5 64.5z" />
<glyph unicode="&#x2079;" horiz-adv-x="285" d="M143 446q69 0 84 131q-39 -41 -89 -41q-48 0 -84 40.5t-36 111.5t36 111t84 40t89 -39t41 -107v-50q-5 -232 -125 -232q-62 0 -100 50l28 21q27 -36 72 -36zM232 692q-1 54 -30.5 83t-63.5 29q-33 0 -58.5 -29.5t-25.5 -86.5t25.5 -87t58.5 -30q34 0 64 31t30 86v4z" />
<glyph unicode="&#x2080;" horiz-adv-x="321" d="M161 196q58 0 100.5 -57t42.5 -151q0 -97 -41.5 -158.5t-101.5 -61.5t-101.5 61.5t-41.5 158.5q0 94 42.5 151t100.5 57zM54 -12q0 -87 33.5 -135.5t73.5 -48.5q41 0 74 49t33 135q0 81 -33 127t-74 46t-74 -46t-33 -127z" />
<glyph unicode="&#x2081;" horiz-adv-x="142" d="M54 120l-17 -19l-27 23l48 55h31v-393h-35v334z" />
<glyph unicode="&#x2082;" horiz-adv-x="285" d="M268 -214h-250v29l138 137q76 75 76 119q0 37 -26 63.5t-63 26.5t-63 -26.5t-26 -63.5h-36q0 52 36.5 88.5t88.5 36.5t88.5 -36.5t36.5 -88.5q0 -59 -87 -144l-107 -106h194v-35z" />
<glyph unicode="&#x2083;" horiz-adv-x="285" d="M143 21q28 0 48 20.5t20 49.5t-20 49.5t-48 20.5t-48 -20.5t-20 -49.5h-36q0 43 30.5 74t73.5 31t73 -31t30 -74q0 -54 -43 -86q30 -17 47.5 -47t17.5 -65q0 -52 -36.5 -88.5t-88.5 -36.5t-88.5 36.5t-36.5 88.5h36q0 -37 26 -63t63 -26t63 26t26 63q0 38 -26 65.5 t-63 27.5v35z" />
<glyph unicode="&#x2084;" horiz-adv-x="285" d="M196 36h36v-143h36v-36h-36v-71h-36v71h-196v30l3 4q73 111 100.5 171t27.5 117h36q0 -63 -26.5 -123.5t-93.5 -162.5h149v143z" />
<glyph unicode="&#x2085;" horiz-adv-x="285" d="M18 -21q2 31 5.5 92t5.5 91l1 17h209v-36h-175l-7 -105q42 33 86 33q49 0 87 -40.5t38 -110.5q0 -73 -39.5 -112.5t-90.5 -39.5q-33 0 -67 18t-51 49l-2 4v5v11h36v-7q12 -20 36 -32t48 -12q36 0 65 29t29 87q0 56 -28 86t-61 30q-25 0 -53 -18.5t-37 -44.5z" />
<glyph unicode="&#x2086;" horiz-adv-x="285" d="M143 161q-69 0 -84 -131q39 41 89 41q48 0 84 -40t36 -111t-36 -111.5t-84 -40.5t-89 39t-41 107v50q5 233 125 233q62 0 100 -50l-29 -22q-26 36 -71 36zM54 -85q1 -54 30.5 -82.5t63.5 -28.5q33 0 58.5 29.5t25.5 86.5t-25.5 86.5t-58.5 29.5q-34 0 -64 -30.5 t-30 -85.5v-5z" />
<glyph unicode="&#x2087;" horiz-adv-x="250" d="M0 179h254v-30l-52 -70q-77 -106 -77 -293h-36q0 201 84 315l31 42h-204v36z" />
<glyph unicode="&#x2088;" horiz-adv-x="285" d="M75 91q0 -29 20 -49.5t48 -20.5t48 20.5t20 49.5t-20 49.5t-48 20.5t-48 -20.5t-20 -49.5zM143 -232q-52 0 -88.5 37.5t-36.5 89.5q0 36 19 65.5t51 44.5q-49 30 -49 86q0 43 30.5 74t73.5 31t73 -31t30 -74q0 -56 -49 -86q32 -15 51.5 -44.5t19.5 -65.5 q0 -52 -36.5 -89.5t-88.5 -37.5zM232 -105q0 38 -26 64.5t-63 26.5t-63 -26.5t-26 -64.5q0 -37 26 -64t63 -27t63 27t26 64z" />
<glyph unicode="&#x2089;" horiz-adv-x="285" d="M143 -196q69 0 84 130q-39 -41 -89 -41q-48 0 -84 40.5t-36 111.5t36 111t84 40t89 -39t41 -107v-50q-5 -232 -125 -232q-62 0 -100 50l28 21q27 -35 72 -35zM232 49q-1 54 -30.5 83t-63.5 29q-33 0 -58.5 -29.5t-25.5 -86.5t25.5 -86.5t58.5 -29.5q34 0 64 30.5t30 85.5 v4z" />
<glyph unicode="&#x20ac;" horiz-adv-x="669" d="M120 250q29 -101 114.5 -166.5t194.5 -65.5q103 0 185 59l22 -29q-93 -66 -207 -66q-123 0 -219.5 75.5t-126.5 192.5h-83l4 36h71q-4 24 -4 53v18h-35l4 36h35q20 130 120 216.5t234 86.5q116 0 207 -66l7 -5v-54h-36v35q-83 55 -178 55q-119 0 -208 -76.5t-109 -191.5 h366l-5 -36h-365q0 -3 -0.5 -9t-0.5 -9q0 -23 5 -53h330l-4 -36h-318z" />
<glyph unicode="&#x20d6;" horiz-adv-x="0" d="M-36 821v-35h-463l36 -49l-28 -23l-63 84v11l63 84l28 -22l-36 -50h463z" />
<glyph unicode="&#x20d7;" horiz-adv-x="0" d="M-554 821h464l-36 50l28 22l62 -84v-11l-62 -84l-28 23l36 49h-464v35z" />
<glyph unicode="&#x2122;" horiz-adv-x="964" d="M375 679v-36h-143v-393h-36v393h-142v36h321zM635 239l-167 362l-42 -351h-32v36h1l47 395h28l181 -393l181 393h28l55 -422l-35 -5l-45 348l-167 -363h-33z" />
<glyph unicode="&#x2126;" horiz-adv-x="678" d="M625 0h-214v69l36 14q81 32 129.5 106.5t48.5 167.5v2q0 122 -82.5 207.5t-203.5 85.5t-203 -86.5t-82 -208.5q0 -94 48 -168t129 -106l37 -14v-69h-214v36h178v8l-14 6q-91 37 -145.5 120t-54.5 187q0 137 92.5 234t228.5 97t229 -96t93 -233v-2q0 -104 -54.5 -187 t-145.5 -120l-15 -6v-8h179v-36z" />
<glyph unicode="&#x2190;" horiz-adv-x="678" d="M68 250h593v-36h-593l102 -125l-28 -22l-124 151v28l124 151l28 -22z" />
<glyph unicode="&#x2191;" horiz-adv-x="357" d="M196 593v-593h-35v593l-125 -102l-23 28l151 124h29l151 -124l-23 -28z" />
<glyph unicode="&#x2192;" horiz-adv-x="678" d="M611 214h-593v36h593l-102 125l28 22l124 -151v-28l-124 -151l-28 22z" />
<glyph unicode="&#x2193;" horiz-adv-x="357" d="M161 50v593h35v-593l125 102l23 -28l-151 -124h-29l-151 124l23 28z" />
<glyph unicode="&#x2194;" horiz-adv-x="678" d="M611 214h-543l102 -125l-28 -22l-124 151v28l124 151l28 -22l-102 -125h543l-102 125l28 22l124 -151v-28l-124 -151l-28 22z" />
<glyph unicode="&#x2195;" horiz-adv-x="357" d="M161 50v543l-125 -102l-23 28l151 124h29l151 -124l-23 -28l-125 102v-543l125 102l23 -28l-151 -124h-29l-151 124l23 28z" />
<glyph unicode="&#x21d0;" horiz-adv-x="678" d="M54 233v-2l42 -52h565v-36h-535l44 -54l-28 -22l-124 151v28l124 151l28 -22l-44 -54h535v-35h-565z" />
<glyph unicode="&#x21d1;" horiz-adv-x="357" d="M179 607h-1l-53 -43v-564h-36v535l-53 -44l-23 28l151 124h29l151 -124l-23 -28l-53 44v-535h-36v564z" />
<glyph unicode="&#x21d2;" horiz-adv-x="678" d="M625 231v2l-43 53h-564v35h535l-44 54l28 22l124 -151v-28l-124 -151l-28 22l44 54h-535v36h564z" />
<glyph unicode="&#x21d3;" horiz-adv-x="357" d="M178 36h1l53 43v564h36v-535l53 44l23 -28l-151 -124h-29l-151 124l23 28l53 -44v535h36v-564z" />
<glyph unicode="&#x21d4;" horiz-adv-x="678" d="M582 286h-486l-42 -53v-2l42 -52h486l43 52v2zM553 321l-44 54l28 22l124 -151v-28l-124 -151l-28 22l44 54h-427l44 -54l-28 -22l-124 151v28l124 151l28 -22l-44 -54h427z" />
<glyph unicode="&#x21d5;" horiz-adv-x="357" d="M232 79v485l-53 43h-1l-53 -43v-485l53 -43h1zM268 108l53 44l23 -28l-151 -124h-29l-151 124l23 28l53 -44v427l-53 -44l-23 28l151 124h29l151 -124l-23 -28l-53 44v-427z" />
<glyph unicode="&#x2202;" d="M218 661q53 0 93 -32.5t60.5 -86t30 -110t9.5 -116.5q0 -150 -59.5 -242t-158.5 -92q-70 0 -122.5 63t-52.5 167q0 121 62 195.5t140 74.5q72 0 146 -55q-15 89 -51.5 143.5t-96.5 54.5q-43 0 -78 -29l-23 27q47 38 101 38zM217 446q-60 0 -111.5 -62.5t-51.5 -170.5 q0 -92 43 -143.5t98 -51.5q83 0 131.5 81t48.5 217q0 38 -2 57q-35 34 -78.5 53.5t-77.5 19.5z" />
<glyph unicode="&#x2205;" horiz-adv-x="678" d="M84 41l-25 25l41 41q-82 92 -82 214q0 134 94 228t227 94q123 0 215 -82l41 40l25 -25l-41 -40q82 -92 82 -215q0 -133 -94 -227t-228 -94q-122 0 -214 82zM554 510l-404 -403q79 -71 189 -71q119 0 202.5 83.5t83.5 201.5q0 110 -71 189zM529 536q-79 71 -190 71 q-118 0 -201.5 -83.5t-83.5 -202.5q0 -110 71 -189z" />
<glyph unicode="&#x2206;" horiz-adv-x="464" d="M261 571l194 -571h-446l195 571h57zM234 536h-4l-172 -500h348z" />
<glyph unicode="&#x220a;" horiz-adv-x="410" d="M72 321h285v-35h-285q7 -60 53 -101t107 -42h125v-36h-125q-81 1 -138.5 58.5t-57.5 138.5t57.5 138.5t138.5 57.5h125v-36h-125q-61 0 -107 -41.5t-53 -101.5z" />
<glyph unicode="&#x220d;" horiz-adv-x="410" d="M321 321q-7 60 -53 101.5t-107 41.5h-125v36h125q81 0 138.5 -57.5t57.5 -138.5t-57.5 -138.5t-138.5 -58.5h-125v36h125q61 1 107 42t53 101h-285v35h285z" />
<glyph unicode="&#x220f;" horiz-adv-x="571" d="M18 -179v858h536v-858h-36v822h-464v-822h-36z" />
<glyph unicode="&#x2211;" horiz-adv-x="571" d="M554 -125v-54h-536v31l361 398l-361 398v31h536v-54h-36v18h-447l345 -381v-24l-345 -381h447v18h36z" />
<glyph unicode="&#x2212;" d="M402 321h-375v36h375v-36z" />
<glyph unicode="&#x2217;" horiz-adv-x="285" d="M163 354l96 53l16 -28l-94 -56v-3l94 -56l-16 -28l-96 53l-2 -1l-2 -109h-32l-2 109l-3 1l-95 -53l-16 28l93 56v3l-93 56l16 28l95 -53l3 1l2 109h32l2 -109z" />
<glyph unicode="&#x221a;" horiz-adv-x="500" d="M9 185l112 28l59 -167l243 811h95v-36h-68l-252 -841h-32l-69 191l-79 -20z" />
<glyph unicode="&#x221b;" horiz-adv-x="571" d="M161 664q28 0 48 20.5t20 49.5t-20 49.5t-48 20.5t-48 -20.5t-20 -49.5h-36q0 43 30.5 74t73.5 31t73 -31t30 -74q0 -54 -43 -86q30 -17 47.5 -47t17.5 -65q0 -52 -36.5 -88.5t-88.5 -36.5t-88.5 36.5t-36.5 88.5h35q0 -37 26.5 -63.5t63.5 -26.5t63 26.5t26 63.5 q0 38 -26 65.5t-63 27.5v35zM80 185l112 28l60 -167l243 811h94v-36h-68l-251 -841h-32l-69 191l-80 -20z" />
<glyph unicode="&#x221c;" horiz-adv-x="571" d="M214 679h36v-143h36v-36h-36v-71h-36v71h-196v29l3 5q74 111 101 170.5t27 116.5h36q0 -63 -26.5 -123t-93.5 -162h149v143zM80 185l112 28l60 -167l243 811h94v-36h-68l-251 -841h-32l-69 191l-80 -20z" />
<glyph unicode="&#x221e;" horiz-adv-x="964" d="M457 250l-5 5q-3 3 -20.5 21t-23 22.5t-21.5 20t-24.5 21t-24.5 16.5t-28 15.5t-28 11t-33 8.5t-35 2q-75 0 -117.5 -40.5t-42.5 -102.5t42.5 -102.5t117.5 -40.5q18 0 34.5 2t33 8.5t28 10.5t28.5 16t24 16.5t25 21t21.5 19.5t23 23t20.5 21zM507 250l5 -5 q1 -1 20.5 -21t23 -23t21.5 -19.5t25 -21t24 -16.5t28.5 -16t28 -10.5t33 -8.5t34.5 -2q75 0 118 40.5t43 102.5t-43 102.5t-118 40.5q-18 0 -35 -2t-33 -8.5t-28 -11t-28 -15.5t-24.5 -16.5t-24.5 -21t-21.5 -20t-23 -22.5t-20.5 -21zM477 220l-23 -23l-26.5 -26.5t-26 -24 t-31 -24.5t-32 -19.5t-38 -17.5t-40 -9.5t-46.5 -4.5q-90 0 -143 51.5t-53 127.5t53 127.5t143 51.5q24 0 46.5 -4.5t40 -9.5t38 -17.5t32 -19.5t31 -24.5t26 -24l26.5 -26.5l23 -23l5 -5l6 5l23.5 23.5t25.5 26t26 24t31 24.5t32 19.5t37.5 17t40 10t46.5 4.5 q90 0 143 -51.5t53 -127.5t-53 -127.5t-143 -51.5q-24 0 -46.5 4.5t-40 10t-37.5 17t-32 19.5t-31 24.5t-26 24t-25.5 26l-23.5 23.5l-6 5z" />
<glyph unicode="&#x2227;" horiz-adv-x="464" d="M233 357h-2l-180 -295l-30 18l191 313h41l191 -313l-31 -18z" />
<glyph unicode="&#x2228;" horiz-adv-x="464" d="M231 107h2l180 295l31 -18l-191 -313h-41l-191 313l30 18z" />
<glyph unicode="&#x2229;" horiz-adv-x="500" d="M54 196q1 81 58 138.5t138 57.5t138.5 -57.5t57.5 -138.5v-125h-35v125q0 66 -47.5 113t-113.5 47t-113 -47t-48 -113v-125h-35v125z" />
<glyph unicode="&#x222a;" horiz-adv-x="500" d="M446 269q-1 -81 -58 -139t-138 -58t-138.5 58t-57.5 139v125h35v-125q0 -66 47.5 -113.5t113.5 -47.5t113 47.5t48 113.5v125h35v-125z" />
<glyph unicode="&#x222b;" horiz-adv-x="324" d="M76 -143q20 0 33.5 14t15.5 36l36 759q2 35 26.5 59.5t58.5 24.5q29 0 50 -16l-22 -29q-13 9 -28 9q-20 0 -34 -14t-16 -36l-35 -759q-2 -35 -26.5 -59.5t-58.5 -24.5q-27 0 -50 17l21 28q13 -9 29 -9z" />
<glyph unicode="&#x222c;" horiz-adv-x="500" d="M76 -143q20 0 33.5 14t15.5 36l36 759q2 35 26.5 59.5t58.5 24.5q29 0 50 -16l-22 -29q-13 9 -28 9q-20 0 -34 -14t-16 -36l-35 -759q-2 -35 -26.5 -59.5t-58.5 -24.5q-27 0 -50 17l21 28q13 -9 29 -9zM254 -143q20 0 34 14t16 36l35 759q2 35 26.5 59.5t58.5 24.5 q29 0 50 -16l-21 -29q-13 9 -29 9q-20 0 -33.5 -14t-15.5 -36l-36 -759q-2 -35 -26.5 -59.5t-58.5 -24.5q-27 0 -50 17l22 28q13 -9 28 -9z" />
<glyph unicode="&#x222d;" horiz-adv-x="680" d="M76 -143q20 0 33.5 14t15.5 36l36 759q2 35 26.5 59.5t58.5 24.5q29 0 50 -16l-22 -29q-13 9 -28 9q-20 0 -34 -14t-16 -36l-35 -759q-2 -35 -26.5 -59.5t-58.5 -24.5q-27 0 -50 17l21 28q13 -9 29 -9zM254 -143q20 0 34 14t16 36l35 759q2 35 26.5 59.5t58.5 24.5 q29 0 50 -16l-21 -29q-13 9 -29 9q-20 0 -33.5 -14t-15.5 -36l-36 -759q-2 -35 -26.5 -59.5t-58.5 -24.5q-27 0 -50 17l22 28q13 -9 28 -9zM433 -143q20 0 33.5 14t15.5 36l36 759q2 35 26.5 59.5t58.5 24.5q29 0 50 -16l-22 -29q-13 9 -28 9q-20 0 -33.5 -14t-15.5 -36 l-36 -759q-2 -35 -26.5 -59.5t-58.5 -24.5q-27 0 -50 17l21 28q13 -9 29 -9z" />
<glyph unicode="&#x223c;" horiz-adv-x="357" d="M276 296q-13 0 -44 11l-120 41q-29 9 -31 9l-4 -2q-20 -10 -28 -35l-34 10q15 44 47 58q14 5 19 5t44 -11l120 -41q29 -9 31 -9l4 2q18 11 28 37l34 -12q-16 -43 -47 -57q-10 -6 -19 -6z" />
<glyph unicode="&#x223d;" horiz-adv-x="357" d="M81 296q-9 0 -19 6q-31 14 -47 57l34 12q10 -26 28 -37l4 -2q2 0 31 9l120 41q38 11 44 11q5 0 19 -5q32 -14 47 -58l-34 -10q-8 25 -28 35l-4 2q-2 0 -31 -9l-120 -41q-31 -11 -44 -11z" />
<glyph unicode="&#x2248;" horiz-adv-x="357" d="M276 344q-16 0 -44 10l-120 42q-26 8 -31 8q-2 0 -4 -1q-19 -10 -28 -36l-34 11q15 44 47 58q11 4 19 4q5 0 44 -11l120 -41q29 -9 31 -9l4 2q18 11 28 37l34 -12q-16 -43 -47 -57q-8 -5 -19 -5zM276 187q-16 0 -44 10l-120 41q-29 9 -31 9t-4 -1q-19 -10 -28 -36l-34 11 q15 44 47 58q11 4 19 4q5 0 44 -11l120 -41q29 -9 31 -9l4 2q18 11 28 37l34 -12q-16 -43 -47 -57q-8 -5 -19 -5z" />
<glyph unicode="&#x2260;" d="M105 98l-32 18l58 98h-113v36h134l84 143h-218v36h238l67 116l32 -18l-58 -98h114v-36h-134l-84 -143h218v-36h-239z" />
<glyph unicode="&#x2264;" horiz-adv-x="392" d="M337 126l-319 176v40l320 169l16 -32l-299 -157v-1l299 -164zM357 36h-339v35h339v-35z" />
<glyph unicode="&#x2265;" horiz-adv-x="392" d="M56 126l-17 31l299 164v1l-300 157l17 32l320 -169v-40zM36 36v35h339v-35h-339z" />
<glyph unicode="&#x2282;" horiz-adv-x="410" d="M232 107q-81 1 -138.5 58.5t-57.5 138.5t57.5 138.5t138.5 57.5h125v-36h-125q-66 0 -113.5 -47t-47.5 -113t47.5 -113t113.5 -48h125v-36h-125z" />
<glyph unicode="&#x2283;" horiz-adv-x="410" d="M179 107h-125v36h125q66 1 113 48t47 113t-47 113t-113 47h-125v36h125q81 0 138.5 -57.5t57.5 -138.5t-57.5 -138.5t-138.5 -58.5z" />
<glyph unicode="&#x22c0;" horiz-adv-x="678" d="M341 643h-3l-285 -819l-34 13l293 842h54l294 -842l-34 -13z" />
<glyph unicode="&#x22c1;" horiz-adv-x="678" d="M338 -143h3l285 819l34 -13l-294 -842h-54l-293 842l34 13z" />
<glyph unicode="&#x2300;" horiz-adv-x="535" d="M443 521l25 -25l-37 -36q51 -61 51 -139q0 -89 -63 -151.5t-151 -62.5q-78 0 -139 51l-36 -37l-25 25l36 37q-50 59 -50 138q0 89 63 152t151 63q77 0 138 -51zM381 460q-50 40 -113 40q-74 0 -126.5 -53t-52.5 -126q0 -63 40 -113zM406 435l-252 -252q50 -40 114 -40 q74 0 126 52.5t52 125.5q0 64 -40 114z" />
<glyph unicode="&#x2301;" horiz-adv-x="571" d="M268 265v179l242 -161l-20 -30l-186 125v-179l-242 161l19 30z" />
<glyph unicode="&#x2302;" horiz-adv-x="714" d="M607 36v295l-250 198l-250 -198v-295h500zM643 0h-572v348l286 227l286 -227v-348z" />
<glyph unicode="&#x25ca;" horiz-adv-x="392" d="M216 679l160 -340l-160 -339h-39l-160 339l160 340h39zM196 43l141 296l-141 297l-140 -297z" />
<glyph unicode="&#x2a7d;" horiz-adv-x="392" d="M337 126l-319 176v40l320 169l16 -32l-299 -157v-1l299 -164zM18 245l336 -186l-17 -31l-319 176v41z" />
<glyph unicode="&#x2a7e;" horiz-adv-x="392" d="M56 126l-17 31l299 164v1l-299 157l16 32l320 -169v-40zM375 245v-41l-319 -176l-17 31z" />
<glyph unicode="&#xe000;" horiz-adv-x="214" d="M54 321q0 -291 147 -467l-22 -19q-80 96 -120.5 222t-40.5 264t41 265t120 222l22 -20q-73 -88 -110 -210t-37 -257z" />
<glyph unicode="&#xe001;" horiz-adv-x="214" d="M161 321q0 135 -37 257t-111 210l23 20q79 -94 119.5 -221.5t40.5 -265.5t-40 -264t-120 -222l-23 19q148 177 148 467z" />
<glyph unicode="&#xe002;" horiz-adv-x="785" d="M472 233l56 281h-95q-63 0 -125.5 -68t-62.5 -171q0 -63 33.5 -96.5t73.5 -33.5q30 0 64.5 21t52.5 59zM356 -36q-159 0 -248.5 96t-89.5 234q0 168 124.5 293t308.5 125q107 0 185 -47t114 -116.5t36 -149.5q0 -118 -66.5 -201.5t-160.5 -83.5q-72 0 -88 53 q-52 -58 -119 -58q-55 0 -99 43.5t-44 122.5q0 119 73 197t151 78h138l-64 -326q-3 -18 -3 -30q0 -44 55 -44q79 0 135 73t56 176q0 52 -18.5 100.5t-54 88.5t-94.5 64.5t-132 24.5q-168 0 -282.5 -115t-114.5 -268q0 -123 78.5 -208.5t223.5 -85.5q104 0 195 46l15 -32 q-100 -50 -210 -50z" />
<glyph unicode="&#xe003;" horiz-adv-x="178" d="M89 768v-893h72v-36h-107v965h107v-36h-72z" />
<glyph unicode="&#xe004;" horiz-adv-x="178" d="M89 768h-71v36h107v-965h-107v36h71v893z" />
<glyph unicode="&#xe005;" horiz-adv-x="178" d="M54 420v259q0 74 29.5 99.5t77.5 25.5v-36q-36 0 -54 -17.5t-18 -71.5v-259q0 -73 -53 -99q53 -26 53 -98v-259q0 -54 18 -71.5t54 -17.5v-36q-48 0 -77.5 25.5t-29.5 99.5v259q0 39 -18.5 55.5t-35.5 16.5h-18v53h18q17 0 35.5 16.5t18.5 55.5z" />
<glyph unicode="&#xe006;" horiz-adv-x="178" d="M125 420q0 -39 18.5 -55.5t35.5 -16.5h17v-53h-17q-17 0 -35.5 -16.5t-18.5 -55.5v-259q0 -74 -29.5 -99.5t-77.5 -25.5v36q36 0 53.5 17.5t17.5 71.5v259q0 72 54 98q-54 26 -54 99v259q0 54 -17.5 71.5t-53.5 17.5v36q48 0 77.5 -25.5t29.5 -99.5v-259z" />
<glyph unicode="&#xe007;" horiz-adv-x="312" d="M125 125q0 -41 28.5 -69.5t69.5 -28.5q37 0 70 23l21 -29q-39 -30 -91 -30q-55 0 -94.5 39.5t-39.5 94.5v304h-71v35h71v107h36v-107h143v-35h-143v-304z" />
<glyph unicode="&#xe008;" horiz-adv-x="321" d="M125 125q0 -41 28.5 -69.5t69.5 -28.5t70 23l21 -29q-39 -30 -91 -30q-55 0 -94.5 39.5t-39.5 94.5v304h-89v35h89v107h36v-107h179v-35h-179v-304z" />
<glyph unicode="&#xe009;" horiz-adv-x="312" d="M125 125q0 -41 28.5 -69.5t69.5 -28.5t70 23l21 -29q-39 -30 -91 -30q-55 0 -94.5 39.5t-39.5 94.5v304h-89v35h89v107h36v-107h143v-35h-143v-304z" />
<glyph unicode="&#xe00a;" horiz-adv-x="321" d="M125 125q0 -41 28.5 -69.5t69.5 -28.5t70 23l21 -29q-39 -30 -91 -30q-11 0 -31 4l-13 -45q12 4 28 4q38 0 61 -26t23 -60q0 -36 -26.5 -56.5t-60.5 -20.5q-54 0 -79 42l23 13q17 -28 56 -28q25 0 38 15.5t13 37.5t-12.5 39t-35.5 17q-12 0 -42 -13l-22 7l24 83 q-35 16 -56.5 48.5t-21.5 72.5v304h-89v35h89v107h36v-107h179v-35h-179v-304z" />
<glyph unicode="&#xe00b;" d="M366 576q0 13 9 22t22 9t22.5 -9t9.5 -22q0 -65 -60 -125l-16 16q35 35 35 79q-9 3 -15.5 11.5t-6.5 18.5zM125 125q0 -41 28.5 -69.5t69.5 -28.5t70 23l21 -29q-39 -30 -91 -30q-55 0 -94.5 39.5t-39.5 94.5v304h-89v35h89v107h36v-107h179v-35h-179v-304z" />
<glyph unicode="&#xe00c;" horiz-adv-x="321" d="M268 321v-35h-143v-161q0 -41 28.5 -69.5t69.5 -28.5t70 23l21 -29q-39 -30 -91 -30q-55 0 -94.5 39.5t-39.5 94.5v161h-35v35h35v108h-89v35h89v107h36v-107h179v-35h-179v-108h143z" />
<glyph unicode="&#xe00d;" horiz-adv-x="321" d="M165 -85q0 13 9 22t22 9t22.5 -9t9.5 -22q0 -65 -60 -125l-16 16q36 36 36 80q-23 8 -23 29zM125 125q0 -41 28.5 -69.5t69.5 -28.5t70 23l21 -29q-39 -30 -91 -30q-55 0 -94.5 39.5t-39.5 94.5v304h-89v35h89v107h36v-107h179v-35h-179v-304z" />
<glyph unicode="&#xe00e;" horiz-adv-x="312" d="M125 125q0 -41 28.5 -69.5t69.5 -28.5q37 0 70 23l21 -29q-39 -30 -91 -30q-8 0 -22 2l-13 -43q12 4 28 4q38 0 61 -26t23 -60q0 -36 -27 -56.5t-61 -20.5q-53 0 -78 42l23 13q17 -28 55 -28q25 0 38.5 15.5t13.5 37.5t-12.5 39t-35.5 17q-12 0 -42 -13l-22 7l23 79 q-38 14 -62 48.5t-24 76.5v304h-71v35h71v107h36v-107h143v-35h-143v-304z" />
<glyph unicode="&#xe00f;" horiz-adv-x="312" d="M250 321v-35h-125v-161q0 -41 28.5 -69.5t69.5 -28.5t70 23l21 -29q-39 -30 -91 -30q-55 0 -94.5 39.5t-39.5 94.5v161h-35v35h35v108h-71v35h71v107h36v-107h143v-35h-143v-108h125z" />
<glyph unicode="&#xe010;" horiz-adv-x="312" d="M165 -85q0 13 9 22t22 9t22.5 -9t9.5 -22q0 -65 -60 -125l-16 16q36 36 36 80q-23 8 -23 29zM125 125q0 -41 28.5 -69.5t69.5 -28.5q37 0 70 23l21 -29q-39 -30 -91 -30q-55 0 -94.5 39.5t-39.5 94.5v304h-71v35h71v107h36v-107h143v-35h-143v-304z" />
<glyph unicode="&#xe011;" horiz-adv-x="312" d="M125 125q0 -41 28.5 -69.5t69.5 -28.5t70 23l21 -29q-39 -30 -91 -30q-11 0 -31 4l-13 -45q12 4 28 4q38 0 61 -26t23 -60q0 -36 -26.5 -56.5t-60.5 -20.5q-54 0 -79 42l23 13q17 -28 56 -28q25 0 38 15.5t13 37.5t-12.5 39t-35.5 17q-12 0 -42 -13l-22 7l24 83 q-35 16 -56.5 48.5t-21.5 72.5v304h-89v35h89v107h36v-107h143v-35h-143v-304z" />
<glyph unicode="&#xe012;" horiz-adv-x="312" d="M250 321v-35h-125v-161q0 -41 28.5 -69.5t69.5 -28.5t70 23l21 -29q-39 -30 -91 -30q-55 0 -94.5 39.5t-39.5 94.5v161h-35v35h35v108h-89v35h89v107h36v-107h143v-35h-143v-108h125z" />
<glyph unicode="&#xe013;" horiz-adv-x="312" d="M165 -85q0 13 9 22t22 9t22.5 -9t9.5 -22q0 -65 -60 -125l-16 16q36 36 36 80q-23 8 -23 29zM125 125q0 -41 28.5 -69.5t69.5 -28.5t70 23l21 -29q-39 -30 -91 -30q-55 0 -94.5 39.5t-39.5 94.5v304h-89v35h89v107h36v-107h143v-35h-143v-304z" />
<glyph unicode="&#xe014;" horiz-adv-x="321" d="M188 322v-2l116 -141l-28 -22l-124 150v29l124 152l28 -24zM45 322v-2l116 -141l-28 -22l-124 150v29l124 152l28 -24z" />
<glyph unicode="&#xe015;" horiz-adv-x="321" d="M277 322l-116 142l27 24l124 -152v-29l-124 -150l-27 22l116 141v2zM134 322l-116 142l28 24l124 -152v-29l-124 -150l-28 22l116 141v2z" />
<glyph unicode="&#xe016;" horiz-adv-x="178" d="M45 322v-2l116 -141l-28 -22l-124 150v29l124 152l28 -24z" />
<glyph unicode="&#xe017;" horiz-adv-x="178" d="M134 322l-116 142l28 24l124 -152v-29l-124 -150l-28 22l116 141v2z" />
<glyph unicode="&#xe018;" horiz-adv-x="285" d="M89 545q0 59 42 101t101 42q33 0 63 -14l-16 -32q-23 10 -47 10q-44 0 -75.5 -31.5t-31.5 -75.5v-81h143v-35h-143v-429h-36v429h-71v35h71v81z" />
<glyph unicode="&#xe019;" horiz-adv-x="589" d="M304 429q-27 0 -36 -2q-62 -12 -120.5 -85t-58.5 -172v-170h-35v464h31l4 -162q31 72 88 117t109 45h107v81q0 59 42 101t101 42q32 0 62 -14l-16 -32q-23 10 -46 10q-44 0 -75.5 -31.5t-31.5 -75.5v-81h142v-35h-142v-429h-36v429h-89z" />
<glyph unicode="&#xe01a;" horiz-adv-x="464" d="M232 438q-60 0 -101.5 -38t-41.5 -92q0 -53 41.5 -91t101.5 -38t101.5 38t41.5 91q0 54 -41.5 92t-101.5 38zM411 308q0 -69 -53 -117t-126 -48q-61 0 -105 32q-53 -47 -53 -74q0 -23 27 -31l249 -67q41 -11 68.5 -40.5t27.5 -73.5q0 -45 -40 -74t-95 -29h-156 q-65 0 -109 36.5t-44 86.5q0 76 69 135q-33 19 -33 57q0 36 66 93q-50 48 -50 114q0 69 52.5 117t125.5 48q45 0 78 -16l136 7v-35h-92q57 -49 57 -121zM104 32q-66 -54 -66 -123q0 -35 33.5 -61.5t83.5 -26.5h156q43 0 71.5 20.5t28.5 47.5q0 59 -71 79z" />
<glyph unicode="&#xe01b;" horiz-adv-x="464" d="M232 438q-60 0 -101.5 -38t-41.5 -92q0 -53 41.5 -91t101.5 -38t101.5 38t41.5 91q0 54 -41.5 92t-101.5 38zM411 308q0 -69 -53 -117t-126 -48q-61 0 -105 32q-53 -47 -53 -74q0 -23 27 -31l249 -67q41 -11 68.5 -40.5t27.5 -73.5q0 -45 -40 -74t-95 -29h-156 q-65 0 -109 36.5t-44 86.5q0 76 69 135q-33 19 -33 57q0 36 66 93q-50 48 -50 114q0 69 52.5 117t125.5 48q45 0 78 -16l136 7v-35h-92q57 -49 57 -121zM104 32q-66 -54 -66 -123q0 -35 33.5 -61.5t83.5 -26.5h156q43 0 71.5 20.5t28.5 47.5q0 59 -71 79zM234 634h-4 l-123 -98l-22 27l133 107h28l133 -107l-22 -27z" />
<glyph unicode="&#xe01c;" horiz-adv-x="464" d="M232 438q-60 0 -101.5 -38t-41.5 -92q0 -53 41.5 -91t101.5 -38t101.5 38t41.5 91q0 54 -41.5 92t-101.5 38zM411 308q0 -69 -53 -117t-126 -48q-61 0 -105 32q-53 -47 -53 -74q0 -23 27 -31l249 -67q41 -11 68.5 -40.5t27.5 -73.5q0 -45 -40 -74t-95 -29h-156 q-65 0 -109 36.5t-44 86.5q0 76 69 135q-33 19 -33 57q0 36 66 93q-50 48 -50 114q0 69 52.5 117t125.5 48q45 0 78 -16l136 7v-35h-92q57 -49 57 -121zM104 32q-66 -54 -66 -123q0 -35 33.5 -61.5t83.5 -26.5h156q43 0 71.5 20.5t28.5 47.5q0 59 -71 79zM232 607 q72 0 108 55l30 -21q-48 -70 -138 -70q-89 0 -137 70l29 21q36 -55 108 -55z" />
<glyph unicode="&#xe01d;" horiz-adv-x="464" d="M232 438q-60 0 -101.5 -38t-41.5 -92q0 -53 41.5 -91t101.5 -38t101.5 38t41.5 91q0 54 -41.5 92t-101.5 38zM411 308q0 -69 -53 -117t-126 -48q-61 0 -105 32q-53 -47 -53 -74q0 -23 27 -31l249 -67q41 -11 68.5 -40.5t27.5 -73.5q0 -45 -40 -74t-95 -29h-156 q-65 0 -109 36.5t-44 86.5q0 76 69 135q-33 19 -33 57q0 36 66 93q-50 48 -50 114q0 69 52.5 117t125.5 48q45 0 78 -16l136 7v-35h-92q57 -49 57 -121zM104 32q-66 -54 -66 -123q0 -35 33.5 -61.5t83.5 -26.5h156q43 0 71.5 20.5t28.5 47.5q0 59 -71 79zM201 612q0 13 9 22 t22 9t22 -9t9 -22t-9 -22.5t-22 -9.5t-22 9.5t-9 22.5z" />
<glyph unicode="&#xe01e;" horiz-adv-x="464" d="M232 438q-60 0 -101.5 -38t-41.5 -92q0 -53 41.5 -91t101.5 -38t101.5 38t41.5 91q0 54 -41.5 92t-101.5 38zM411 308q0 -69 -53 -117t-126 -48q-61 0 -105 32q-53 -47 -53 -74q0 -23 27 -31l249 -67q41 -11 68.5 -40.5t27.5 -73.5q0 -45 -40 -74t-95 -29h-156 q-65 0 -109 36.5t-44 86.5q0 76 69 135q-33 19 -33 57q0 36 66 93q-50 48 -50 114q0 69 52.5 117t125.5 48q45 0 78 -16l136 7v-35h-92q57 -49 57 -121zM104 32q-66 -54 -66 -123q0 -35 33.5 -61.5t83.5 -26.5h156q43 0 71.5 20.5t28.5 47.5q0 59 -71 79zM265 594 q0 -13 -9 -22.5t-22 -9.5t-22 9.5t-9 22.5q0 66 59 125l17 -16q-36 -36 -36 -80q22 -7 22 -29z" />
<glyph unicode="&#xe01f;" horiz-adv-x="464" d="M232 438q-60 0 -101.5 -38t-41.5 -92q0 -53 41.5 -91t101.5 -38t101.5 38t41.5 91q0 54 -41.5 92t-101.5 38zM411 308q0 -69 -53 -117t-126 -48q-61 0 -105 32q-53 -47 -53 -74q0 -23 27 -31l249 -67q41 -11 68.5 -40.5t27.5 -73.5q0 -45 -40 -74t-95 -29h-156 q-65 0 -109 36.5t-44 86.5q0 76 69 135q-33 19 -33 57q0 36 66 93q-50 48 -50 114q0 69 52.5 117t125.5 48q45 0 78 -16l136 7v-35h-92q57 -49 57 -121zM104 32q-66 -54 -66 -123q0 -35 33.5 -61.5t83.5 -26.5h156q43 0 71.5 20.5t28.5 47.5q0 59 -71 79zM234 580l123 99 l22 -28l-133 -106h-28l-133 106l22 28l123 -99h4z" />
<glyph unicode="&#xe020;" horiz-adv-x="464" d="M232 438q-60 0 -101.5 -38t-41.5 -92q0 -53 41.5 -91t101.5 -38t101.5 38t41.5 91q0 54 -41.5 92t-101.5 38zM411 308q0 -69 -53 -117t-126 -48q-61 0 -105 32q-53 -47 -53 -74q0 -23 27 -31l249 -67q41 -11 68.5 -40.5t27.5 -73.5q0 -45 -40 -74t-95 -29h-156 q-65 0 -109 36.5t-44 86.5q0 76 69 135q-33 19 -33 57q0 36 66 93q-50 48 -50 114q0 69 52.5 117t125.5 48q45 0 78 -16l136 7v-35h-92q57 -49 57 -121zM104 32q-66 -54 -66 -123q0 -35 33.5 -61.5t83.5 -26.5h156q43 0 71.5 20.5t28.5 47.5q0 59 -71 79zM211 545l-25 25 l99 100l26 -25z" />
<glyph unicode="&#xe021;" horiz-adv-x="142" d="M103 656q0 -13 -9.5 -22t-22.5 -9t-22 9t-9 22t9 22.5t22 9.5t22.5 -9.5t9.5 -22.5zM89 0h-35v500h35v-500z" />
<glyph unicode="&#xe022;" horiz-adv-x="392" d="M246 656q0 -13 -9.5 -22t-22.5 -9t-22 9t-9 22t9 22.5t22 9.5t22.5 -9.5t9.5 -22.5zM232 421q0 -34 -18.5 -59.5t-44.5 -41.5t-52 -33.5t-44.5 -47t-18.5 -69.5q0 -59 41.5 -101t100.5 -42t101 42t42 101l36 9q0 -74 -53 -131t-126 -57t-125.5 52.5t-52.5 126.5 q0 46 18.5 80t44.5 53.5t52 35.5t44.5 36t18.5 46v79h36v-79z" />
<glyph unicode="&#xe023;" horiz-adv-x="214" d="M18 321q0 37 26 63.5t63 26.5t63 -26.5t26 -63.5t-26 -63t-63 -26t-63 26t-26 63z" />
<glyph unicode="&#xe024;" horiz-adv-x="178" d="M18 411l143 -90l-143 -89v179z" />
<glyph unicode="&#xe051;" d="M345 107h-262l-49 -114l-33 14l201 466h25l200 -466l-33 -14zM330 143l-116 269l-115 -269h231z" />
<glyph unicode="&#xe052;" d="M89 286h104q64 0 96 24t32 52q0 26 -31.5 46.5t-96.5 20.5h-104v-143zM89 250v-214h157q64 0 96.5 26t32.5 67q0 44 -37 82t-99 39h-150zM290 273v-1q55 -15 88 -55.5t33 -87.5q0 -57 -43.5 -93t-121.5 -36h-192v464h139q76 0 120 -29t44 -73q0 -62 -67 -89z" />
<glyph unicode="&#xe053;" horiz-adv-x="464" d="M259 438q-84 0 -144.5 -61t-60.5 -145t60.5 -144.5t144.5 -60.5q88 0 150 65l26 -24q-74 -77 -176 -77q-99 0 -170 71t-71 170t70.5 170t170.5 71q102 0 176 -77l-26 -24q-63 66 -150 66z" />
<glyph unicode="&#xe054;" horiz-adv-x="464" d="M54 464h147q102 0 173.5 -67.5t71.5 -164.5t-71.5 -164.5t-173.5 -67.5h-147v464zM89 36h114q86 0 147 57t61 139t-61 139.5t-147 57.5h-114v-393z" />
<glyph unicode="&#xe055;" horiz-adv-x="392" d="M89 429v-179h179v-36h-179v-178h286v-36h-321v464h285v-35h-250z" />
<glyph unicode="&#xe056;" horiz-adv-x="392" d="M54 464h321v-35h-286v-179h179v-36h-179v-214h-35v464z" />
<glyph unicode="&#xe057;" horiz-adv-x="482" d="M411 179h-94v35h129v-214h-30l-4 67h-1q-72 -76 -152 -76q-100 0 -170.5 70.5t-70.5 170.5t70.5 170.5t170.5 70.5q88 0 149 -44l-20 -29q-54 38 -129 38q-85 0 -145 -60t-60 -146t60 -145.5t145 -59.5q40 0 85 23.5t67 53.5v75z" />
<glyph unicode="&#xe058;" horiz-adv-x="464" d="M54 464h35v-214h286v214h36v-464h-36v214h-286v-214h-35v464z" />
<glyph unicode="&#xe059;" horiz-adv-x="142" d="M89 0h-35v464h35v-464z" />
<glyph unicode="&#xe05a;" horiz-adv-x="267" d="M36 464h196v-355q0 -54 -38 -86t-87 -32q-31 0 -60.5 12.5t-43.5 35.5l30 19q10 -15 32.5 -23t41.5 -8q35 0 62 22t27 60v320h-160v35z" />
<glyph unicode="&#xe05b;" d="M178 227l-88 -103h-1v-124h-35v464h35v-286l260 302l27 -24l-174 -202l159 -193q21 -25 37 -25h13v-36h-13q-20 0 -33 8t-31 30z" />
<glyph unicode="&#xe05c;" horiz-adv-x="392" d="M89 36h286v-36h-321v464h35v-428z" />
<glyph unicode="&#xe05d;" horiz-adv-x="642" d="M18 2l61 471h27l215 -436l216 436h27l61 -471l-36 -6l-51 400l-200 -405h-34l-199 405l-51 -400z" />
<glyph unicode="&#xe05e;" horiz-adv-x="464" d="M411 464v-473h-37l-285 419v-410h-35v473h36l285 -419v410h36z" />
<glyph unicode="&#xe05f;" horiz-adv-x="500" d="M250 473q96 0 164 -70.5t68 -170.5t-68 -170.5t-164 -70.5t-164 70.5t-68 170.5t68 170.5t164 70.5zM54 232q0 -85 57.5 -145t138.5 -60t138.5 60t57.5 145t-57.5 145.5t-138.5 60.5t-138.5 -60.5t-57.5 -145.5z" />
<glyph unicode="&#xe060;" d="M54 464h187q71 0 120.5 -46.5t49.5 -113.5t-48.5 -114t-116.5 -47h-157v-143h-35v464zM89 429v-250h151q56 0 95.5 36.5t39.5 88.5t-39.5 88.5t-95.5 36.5h-151z" />
<glyph unicode="&#xe061;" horiz-adv-x="500" d="M250 438q-84 0 -140 -60t-56 -146t56 -145.5t140 -59.5t140 59.5t56 145.5t-56 146t-140 60zM259 -9q-54 0 -93.5 -27t-61.5 -67q39 21 77 21q50 0 114 -30t91 -30q21 0 34 15t13 29h36q0 -30 -24 -55t-59 -25t-99 30t-106 30q-28 0 -56 -14t-33 -33l-4 -14h-39v18 q0 41 32.5 90t86.5 76q-68 26 -109 87.5t-41 139.5q0 101 66.5 171t165.5 70t165.5 -70t66.5 -171q0 -98 -63.5 -168t-159.5 -73z" />
<glyph unicode="&#xe062;" d="M398 0q-19 0 -32.5 8t-31.5 30l-74 89q-3 4 -11 13.5t-9.5 11.5t-7.5 8.5t-8 7t-8 4t-10 4t-11.5 2t-15 1.5h-18.5h-72v-179h-35v464h151q81 0 125.5 -40t44.5 -96q0 -48 -32.5 -87.5t-92.5 -52.5q14 -10 38 -38l73 -89q14 -16 20 -20.5t17 -4.5h13v-36h-13zM204 214 q62 0 98.5 34t36.5 79q0 42 -34.5 72t-99.5 30h-116v-215h115z" />
<glyph unicode="&#xe063;" d="M214 27q72 0 116.5 25t44.5 64q0 37 -33 61t-80.5 37t-94.5 27t-80 43t-33 73q0 46 49.5 81.5t111.5 35.5q95 0 155 -60l-25 -25q-49 49 -130 49q-51 0 -88.5 -27t-37.5 -54q0 -34 33 -55.5t80.5 -34.5t95 -28t80.5 -45.5t33 -77.5q0 -54 -54 -89.5t-143 -35.5 q-133 0 -193 79l29 21q47 -64 164 -64z" />
<glyph unicode="&#xe064;" d="M18 464h393v-35h-179v-429h-36v429h-178v35z" />
<glyph unicode="&#xe065;" d="M71 170q0 -58 42.5 -100.5t100.5 -42.5t100.5 42.5t42.5 100.5v294h36v-294q0 -74 -52.5 -126.5t-126.5 -52.5q-73 0 -125.5 52.5t-52.5 126.5v294h35v-294z" />
<glyph unicode="&#xe066;" d="M427 457l-200 -466h-25l-200 466l32 14l180 -419l181 419z" />
<glyph unicode="&#xe067;" horiz-adv-x="642" d="M455 60l152 411l34 -13l-172 -466h-27l-121 319l-120 -319h-27l-172 466l34 13l152 -411l116 308v78h35v-78z" />
<glyph unicode="&#xe068;" d="M379 476l28 -23l-170 -210l188 -232l-28 -22l-183 226l-182 -226l-28 22l187 232l-169 210l28 23l164 -204z" />
<glyph unicode="&#xe069;" d="M214 195l182 282l30 -19l-194 -302v-156h-36v156l-193 302l30 19z" />
<glyph unicode="&#xe06a;" horiz-adv-x="392" d="M366 441l-293 -405h302v-36h-357v20l11 15l284 394h-286v35h339v-23z" />
<glyph unicode="&#xe06b;" d="M236 545l-99 100l25 25l100 -100zM345 107h-262l-49 -114l-33 14l201 466h25l200 -466l-33 -14zM330 143l-116 269l-115 -269h231z" />
<glyph unicode="&#xe06c;" d="M193 545l-25 25l99 100l26 -25zM345 107h-262l-49 -114l-33 14l201 466h25l200 -466l-33 -14zM330 143l-116 269l-115 -269h231z" />
<glyph unicode="&#xe06d;" d="M217 634h-4l-123 -98l-23 27l133 107h29l133 -107l-22 -27zM345 107h-262l-49 -114l-33 14l201 466h25l200 -466l-33 -14zM330 143l-116 269l-115 -269h231z" />
<glyph unicode="&#xe06e;" d="M279 618q24 0 30 31l5 24l35 -6l-4 -24q-11 -60 -66 -60q-28 0 -70.5 24.5t-58.5 24.5q-24 0 -30 -31l-6 -24l-35 6l5 24q11 60 66 60q28 0 70.5 -24.5t58.5 -24.5zM345 107h-262l-49 -114l-33 14l201 466h25l200 -466l-33 -14zM330 143l-116 269l-115 -269h231z" />
<glyph unicode="&#xe06f;" d="M290 594q0 13 9.5 22t22.5 9t22 -9t9 -22t-9 -22.5t-22 -9.5t-22.5 9.5t-9.5 22.5zM81 594q0 13 9 22t22 9t22 -9t9 -22t-9 -22.5t-22 -9.5t-22 9.5t-9 22.5zM345 107h-262l-49 -114l-33 14l201 466h25l200 -466l-33 -14zM330 143l-116 269l-115 -269h231z" />
<glyph unicode="&#xe070;" d="M214 623q-22 0 -43 -19q-19 -19 -19 -43t19 -43q20 -20 43 -20q21 0 43 20q20 20 20 43t-20 43q-21 19 -43 19zM330 143l-116 269l-115 -269h231zM214 650q33 0 61 -27q29 -27 29 -62q0 -36 -29 -63q-22 -20 -48 -25l200 -466l-33 -14l-49 114h-262l-49 -114l-33 14 l200 466q-24 4 -47 26q-29 27 -29 62t29 62q28 27 60 27z" />
<glyph unicode="&#xe071;" horiz-adv-x="607" d="M235 464h319v-35h-215v-179h143v-36h-143v-178h250v-36h-285v107h-210l-60 -119l-32 16zM304 429h-48l-144 -286h192v286z" />
<glyph unicode="&#xe072;" horiz-adv-x="464" d="M213 -85l-22 6l21 75q-84 17 -139 83.5t-55 152.5q0 99 70.5 170t170.5 71q102 0 176 -77l-26 -24q-63 66 -150 66q-84 0 -144.5 -61t-60.5 -145t60.5 -144.5t144.5 -60.5q88 0 150 65l26 -24q-74 -77 -176 -77q-13 0 -20 1l-11 -41q9 3 27 3q38 0 61 -25.5t23 -59.5 q0 -36 -26.5 -56.5t-60.5 -20.5q-54 0 -79 42l23 13q17 -28 56 -28q25 0 38.5 15.5t13.5 37.5t-13 39t-36 17q-12 0 -42 -13z" />
<glyph unicode="&#xe073;" horiz-adv-x="392" d="M89 429v-179h179v-36h-179v-178h286v-36h-321v464h285v-35h-250zM218 545l-99 100l26 25l99 -100z" />
<glyph unicode="&#xe074;" horiz-adv-x="392" d="M89 429v-179h179v-36h-179v-178h286v-36h-321v464h285v-35h-250zM175 545l-25 25l99 100l26 -25z" />
<glyph unicode="&#xe075;" horiz-adv-x="392" d="M89 429v-179h179v-36h-179v-178h286v-36h-321v464h285v-35h-250zM198 634h-3l-124 -98l-22 27l133 107h29l133 -107l-23 -27z" />
<glyph unicode="&#xe076;" horiz-adv-x="392" d="M89 429v-179h179v-36h-179v-178h286v-36h-321v464h285v-35h-250zM272 594q0 13 9.5 22t22.5 9t22 -9t9 -22t-9 -22.5t-22 -9.5t-22.5 9.5t-9.5 22.5zM62 594q0 13 9.5 22t22.5 9t22 -9t9 -22t-9 -22.5t-22 -9.5t-22.5 9.5t-9.5 22.5z" />
<glyph unicode="&#xe077;" horiz-adv-x="142" d="M89 0h-35v464h35v-464zM93 545l-99 100l26 25l99 -100z" />
<glyph unicode="&#xe078;" horiz-adv-x="142" d="M89 0h-35v464h35v-464zM50 545l-25 25l99 100l26 -25z" />
<glyph unicode="&#xe079;" horiz-adv-x="142" d="M54 464h35v-464h-35v464zM57 670h29l88 -72l-22 -27l-79 63h-3l-79 -63l-22 27z" />
<glyph unicode="&#xe07a;" horiz-adv-x="142" d="M54 464h35v-464h-35v464zM107 594q0 13 9 22t22 9t22.5 -9t9.5 -22t-9.5 -22.5t-22.5 -9.5t-22 9.5t-9 22.5zM-27 594q0 13 9 22t22 9t22.5 -9t9.5 -22t-9.5 -22.5t-22.5 -9.5t-22 9.5t-9 22.5z" />
<glyph unicode="&#xe07b;" horiz-adv-x="464" d="M89 36h114q86 0 147 57t61 139t-61 139.5t-147 57.5h-114v-179h107v-36h-107v-178zM54 464h147q102 0 173.5 -67.5t71.5 -164.5t-71.5 -164.5t-173.5 -67.5h-147v214h-54v36h54v214z" />
<glyph unicode="&#xe07c;" horiz-adv-x="464" d="M411 464v-473h-37l-285 419v-410h-35v473h36l285 -419v410h36zM266 627q20 -9 30 -9q25 0 31 31l5 24l35 -6l-5 -24q-11 -60 -66 -60q-23 0 -42 10l-56 30q-20 9 -30 9q-24 0 -30 -31l-6 -24l-35 6l5 24q11 60 66 60q24 0 43 -10z" />
<glyph unicode="&#xe07d;" horiz-adv-x="500" d="M250 473q96 0 164 -70.5t68 -170.5t-68 -170.5t-164 -70.5t-164 70.5t-68 170.5t68 170.5t164 70.5zM54 232q0 -85 57.5 -145t138.5 -60t138.5 60t57.5 145t-57.5 145.5t-138.5 60.5t-138.5 -60.5t-57.5 -145.5zM271 545l-99 100l26 25l99 -100z" />
<glyph unicode="&#xe07e;" horiz-adv-x="500" d="M250 473q96 0 164 -70.5t68 -170.5t-68 -170.5t-164 -70.5t-164 70.5t-68 170.5t68 170.5t164 70.5zM54 232q0 -85 57.5 -145t138.5 -60t138.5 60t57.5 145t-57.5 145.5t-138.5 60.5t-138.5 -60.5t-57.5 -145.5zM229 545l-25 25l99 100l26 -25z" />
<glyph unicode="&#xe07f;" horiz-adv-x="500" d="M250 473q96 0 164 -70.5t68 -170.5t-68 -170.5t-164 -70.5t-164 70.5t-68 170.5t68 170.5t164 70.5zM54 232q0 -85 57.5 -145t138.5 -60t138.5 60t57.5 145t-57.5 145.5t-138.5 60.5t-138.5 -60.5t-57.5 -145.5zM252 634h-4l-123 -98l-22 27l133 107h28l133 -107l-22 -27 z" />
<glyph unicode="&#xe080;" horiz-adv-x="500" d="M250 473q96 0 164 -70.5t68 -170.5t-68 -170.5t-164 -70.5t-164 70.5t-68 170.5t68 170.5t164 70.5zM54 232q0 -85 57.5 -145t138.5 -60t138.5 60t57.5 145t-57.5 145.5t-138.5 60.5t-138.5 -60.5t-57.5 -145.5zM284 627q20 -9 30 -9q25 0 31 31l5 24l35 -6l-5 -24 q-11 -60 -66 -60q-24 0 -43 10l-55 30q-20 9 -30 9q-25 0 -31 -31l-5 -24l-35 6l5 24q11 60 66 60q24 0 43 -10z" />
<glyph unicode="&#xe081;" horiz-adv-x="500" d="M250 473q96 0 164 -70.5t68 -170.5t-68 -170.5t-164 -70.5t-164 70.5t-68 170.5t68 170.5t164 70.5zM54 232q0 -85 57.5 -145t138.5 -60t138.5 60t57.5 145t-57.5 145.5t-138.5 60.5t-138.5 -60.5t-57.5 -145.5zM326 594q0 13 9 22t22 9t22 -9t9 -22t-9 -22.5t-22 -9.5 t-22 9.5t-9 22.5zM116 594q0 13 9 22t22 9t22.5 -9t9.5 -22t-9.5 -22.5t-22.5 -9.5t-22 9.5t-9 22.5z" />
<glyph unicode="&#xe082;" horiz-adv-x="535" d="M57 -4l-25 25l47 47q-61 71 -61 164q0 104 73 177t177 73q93 0 164 -61l47 47l25 -25l-47 -47q61 -71 61 -164q0 -104 -73 -177t-177 -73q-93 0 -164 61zM431 371l-302 -302q61 -51 139 -51q88 0 151 63t63 151q0 78 -51 139zM406 396q-59 50 -138 50q-88 0 -151 -63 t-63 -151q0 -79 50 -138z" />
<glyph unicode="&#xe083;" d="M236 545l-99 100l25 25l100 -100zM71 170q0 -58 42.5 -100.5t100.5 -42.5t100.5 42.5t42.5 100.5v294h36v-294q0 -74 -52.5 -126.5t-126.5 -52.5q-73 0 -125.5 52.5t-52.5 126.5v294h35v-294z" />
<glyph unicode="&#xe084;" d="M193 545l-25 25l99 100l26 -25zM71 170q0 -58 42.5 -100.5t100.5 -42.5t100.5 42.5t42.5 100.5v294h36v-294q0 -74 -52.5 -126.5t-126.5 -52.5q-73 0 -125.5 52.5t-52.5 126.5v294h35v-294z" />
<glyph unicode="&#xe085;" d="M217 634h-4l-123 -98l-23 27l133 107h29l133 -107l-22 -27zM71 170q0 -58 42.5 -100.5t100.5 -42.5t100.5 42.5t42.5 100.5v294h36v-294q0 -74 -52.5 -126.5t-126.5 -52.5q-73 0 -125.5 52.5t-52.5 126.5v294h35v-294z" />
<glyph unicode="&#xe086;" d="M290 594q0 13 9.5 22t22.5 9t22 -9t9 -22t-9 -22.5t-22 -9.5t-22.5 9.5t-9.5 22.5zM81 594q0 13 9 22t22 9t22 -9t9 -22t-9 -22.5t-22 -9.5t-22 9.5t-9 22.5zM71 170q0 -58 42.5 -100.5t100.5 -42.5t100.5 42.5t42.5 100.5v294h36v-294q0 -74 -52.5 -126.5t-126.5 -52.5 q-73 0 -125.5 52.5t-52.5 126.5v294h35v-294z" />
<glyph unicode="&#xe087;" d="M193 545l-25 25l99 100l26 -25zM214 195l182 282l30 -19l-194 -302v-156h-36v156l-193 302l30 19z" />
<glyph unicode="&#xe088;" d="M89 393v-250h151q56 0 95.5 37t39.5 89t-39.5 88t-95.5 36h-151zM54 464h35v-35h152q71 0 120.5 -47t49.5 -114t-48.5 -114t-116.5 -47h-157v-107h-35v464z" />
<glyph unicode="&#xe089;" d="M357 607h-285v36h285v-36zM345 107h-262l-49 -114l-33 14l201 466h25l200 -466l-33 -14zM330 143l-116 269l-115 -269h231z" />
<glyph unicode="&#xe08a;" d="M345 107h-262l-49 -114l-33 14l201 466h25l200 -466l-33 -14zM330 143l-116 269l-115 -269h231zM214 607q72 0 108 55l30 -21q-48 -70 -138 -70q-89 0 -137 70l29 21q36 -55 108 -55z" />
<glyph unicode="&#xe08b;" d="M202 473h25l200 -466l-9 -4q-85 -51 -85 -99q0 -21 15.5 -34t37.5 -13q20 0 38 11l18 -30q-26 -17 -56 -17q-38 0 -63.5 23.5t-25.5 56.5q0 58 90 111l-42 95h-262l-49 -114l-33 14zM330 143l-116 269l-115 -269h231z" />
<glyph unicode="&#xe08c;" horiz-adv-x="464" d="M229 545l-25 25l99 100l26 -25zM259 438q-84 0 -144.5 -61t-60.5 -145t60.5 -144.5t144.5 -60.5q88 0 150 65l26 -24q-74 -77 -176 -77q-99 0 -170 71t-71 170t70.5 170t170.5 71q102 0 176 -77l-26 -24q-63 66 -150 66z" />
<glyph unicode="&#xe08d;" horiz-adv-x="464" d="M252 634h-4l-123 -98l-23 27l133 107h29l133 -107l-22 -27zM259 438q-84 0 -144.5 -61t-60.5 -145t60.5 -144.5t144.5 -60.5q88 0 150 65l26 -24q-74 -77 -176 -77q-99 0 -170 71t-71 170t70.5 170t170.5 71q102 0 176 -77l-26 -24q-63 66 -150 66z" />
<glyph unicode="&#xe08e;" horiz-adv-x="464" d="M218 612q0 13 9.5 22t22.5 9t22 -9t9 -22t-9 -22.5t-22 -9.5t-22.5 9.5t-9.5 22.5zM259 438q-84 0 -144.5 -61t-60.5 -145t60.5 -144.5t144.5 -60.5q88 0 150 65l26 -24q-74 -77 -176 -77q-99 0 -170 71t-71 170t70.5 170t170.5 71q102 0 176 -77l-26 -24q-63 66 -150 66 z" />
<glyph unicode="&#xe08f;" horiz-adv-x="464" d="M252 580l123 99l22 -28l-133 -106h-29l-133 106l23 28l123 -99h4zM259 438q-84 0 -144.5 -61t-60.5 -145t60.5 -144.5t144.5 -60.5q88 0 150 65l26 -24q-74 -77 -176 -77q-99 0 -170 71t-71 170t70.5 170t170.5 71q102 0 176 -77l-26 -24q-63 66 -150 66z" />
<glyph unicode="&#xe090;" horiz-adv-x="464" d="M217 580l123 99l22 -28l-133 -106h-29l-133 106l23 28l123 -99h4zM54 464h147q102 0 173.5 -67.5t71.5 -164.5t-71.5 -164.5t-173.5 -67.5h-147v464zM89 36h114q86 0 147 57t61 139t-61 139.5t-147 57.5h-114v-393z" />
<glyph unicode="&#xe091;" horiz-adv-x="464" d="M89 36h114q86 0 147 57t61 139t-61 139.5t-147 57.5h-114v-179h107v-36h-107v-178zM54 464h147q102 0 173.5 -67.5t71.5 -164.5t-71.5 -164.5t-173.5 -67.5h-147v214h-54v36h54v214z" />
<glyph unicode="&#xe092;" horiz-adv-x="392" d="M89 429v-179h179v-36h-179v-178h286v-36h-321v464h285v-35h-250zM339 607h-285v36h285v-36z" />
<glyph unicode="&#xe093;" horiz-adv-x="392" d="M89 429v-179h179v-36h-179v-178h286v-36h-321v464h285v-35h-250zM196 607q72 0 108 55l30 -21q-48 -70 -138 -70q-89 0 -137 70l29 21q36 -55 108 -55z" />
<glyph unicode="&#xe094;" horiz-adv-x="392" d="M89 429v-179h179v-36h-179v-178h286v-36h-321v464h285v-35h-250zM165 612q0 13 9 22t22 9t22.5 -9t9.5 -22t-9.5 -22.5t-22.5 -9.5t-22 9.5t-9 22.5z" />
<glyph unicode="&#xe095;" horiz-adv-x="392" d="M362 0q-67 -38 -79 -52q-15 -17 -15 -46q0 -17 11.5 -30.5t39.5 -13.5q21 0 38 10l18 -30q-25 -16 -56 -16q-40 0 -63.5 23t-23.5 57q0 27 11.5 46t25 28t42.5 24h-257v464h285v-35h-250v-179h179v-36h-179v-178h286v-28z" />
<glyph unicode="&#xe096;" horiz-adv-x="392" d="M89 429v-179h179v-36h-179v-178h286v-36h-321v464h285v-35h-250zM198 580l123 99l23 -28l-133 -106h-29l-133 106l22 28l124 -99h3z" />
<glyph unicode="&#xe097;" horiz-adv-x="482" d="M411 179h-94v35h129v-214h-30l-4 67h-1q-72 -76 -152 -76q-100 0 -170.5 70.5t-70.5 170.5t70.5 170.5t170.5 70.5q88 0 149 -44l-20 -29q-54 38 -129 38q-85 0 -145 -60t-60 -146t60 -145.5t145 -59.5q40 0 85 23.5t67 53.5v75zM252 623h-4l-123 -98l-23 27l133 107h29 l133 -107l-22 -27z" />
<glyph unicode="&#xe098;" horiz-adv-x="482" d="M250 596q72 0 108 55l30 -21q-48 -70 -138 -70q-89 0 -137 70l29 21q36 -55 108 -55zM411 179h-94v35h129v-214h-30l-4 67h-1q-72 -76 -152 -76q-100 0 -170.5 70.5t-70.5 170.5t70.5 170.5t170.5 70.5q88 0 149 -44l-20 -29q-54 38 -129 38q-85 0 -145 -60t-60 -146 t60 -145.5t145 -59.5q40 0 85 23.5t67 53.5v75z" />
<glyph unicode="&#xe099;" horiz-adv-x="482" d="M218 601q0 13 9.5 22t22.5 9t22 -9t9 -22t-9 -22.5t-22 -9.5t-22.5 9.5t-9.5 22.5zM411 179h-94v35h129v-214h-30l-4 67h-1q-72 -76 -152 -76q-100 0 -170.5 70.5t-70.5 170.5t70.5 170.5t170.5 70.5q88 0 149 -44l-20 -29q-54 38 -129 38q-85 0 -145 -60t-60 -146 t60 -145.5t145 -59.5q40 0 85 23.5t67 53.5v75z" />
<glyph unicode="&#xe09a;" horiz-adv-x="482" d="M218 -75q0 13 9 22t22 9t22 -9t9 -22q0 -65 -60 -125l-16 16q36 36 36 80q-22 7 -22 29zM411 179h-94v35h129v-214h-30l-4 67h-1q-72 -76 -152 -76q-100 0 -170.5 70.5t-70.5 170.5t70.5 170.5t170.5 70.5q88 0 149 -44l-20 -29q-54 38 -129 38q-85 0 -145 -60t-60 -146 t60 -145.5t145 -59.5q40 0 85 23.5t67 53.5v75z" />
<glyph unicode="&#xe09b;" horiz-adv-x="464" d="M54 464h35v-214h286v214h36v-464h-36v214h-286v-214h-35v464zM234 634h-4l-123 -98l-22 27l133 107h28l133 -107l-22 -27z" />
<glyph unicode="&#xe09c;" horiz-adv-x="464" d="M18 321v36h36v107h35v-107h286v107h36v-107h35v-36h-35v-321h-36v214h-286v-214h-35v321h-36zM375 321h-286v-71h286v71z" />
<glyph unicode="&#xe09d;" horiz-adv-x="142" d="M104 588q-19 0 -40 17t-26 17q-14 0 -14 -15v-21h-31v26q0 19 13 32.5t32 13.5t37.5 -17.5t27.5 -17.5q16 0 16 16v22h31v-27q0 -19 -13.5 -32.5t-32.5 -13.5zM89 0h-35v464h35v-464z" />
<glyph unicode="&#xe09e;" horiz-adv-x="142" d="M54 464h35v-464h-35v464zM143 607h-143v36h143v-36z" />
<glyph unicode="&#xe09f;" horiz-adv-x="142" d="M54 464h35v-464h-35v464zM71 625q43 0 64 31l29 -20q-31 -47 -93 -47q-61 0 -92 47l29 20q21 -31 63 -31z" />
<glyph unicode="&#xe0a0;" horiz-adv-x="142" d="M89 -10q-49 -28 -63.5 -43t-14.5 -46q0 -17 11.5 -30.5t39.5 -13.5q20 0 38 11l18 -31q-25 -16 -56 -16q-40 0 -63.5 23t-23.5 57q0 37 18.5 56.5t60.5 41.5v465h35v-474z" />
<glyph unicode="&#xe0a1;" horiz-adv-x="267" d="M120 670h28l106 -85l-22 -28l-96 77h-4l-96 -77l-23 28zM36 464h196v-355q0 -54 -38 -86t-87 -32q-31 0 -60.5 12.5t-43.5 35.5l30 19q10 -15 32.5 -23t41.5 -8q35 0 62 22t27 60v320h-160v35z" />
<glyph unicode="&#xe0a2;" d="M208 -82q0 13 9 22.5t22 9.5t22 -9.5t9 -22.5q0 -65 -60 -125l-16 16q36 36 36 80q-22 7 -22 29zM178 227l-88 -103h-1v-124h-35v464h35v-286l260 302l27 -24l-174 -202l159 -193q21 -25 37 -25h13v-36h-13q-20 0 -33 8t-31 30z" />
<glyph unicode="&#xe0a3;" horiz-adv-x="392" d="M89 36h286v-36h-321v464h35v-428zM175 545l-25 25l99 100l26 -25z" />
<glyph unicode="&#xe0a4;" horiz-adv-x="392" d="M89 36h286v-36h-321v464h35v-428zM194 -76q0 13 9 22t22 9t22.5 -9t9.5 -22q0 -65 -60 -125l-16 16q36 36 36 80q-23 8 -23 29z" />
<glyph unicode="&#xe0a5;" horiz-adv-x="392" d="M89 36h286v-36h-321v464h35v-428zM311 518q0 13 9 22t22 9t22 -9t9 -22q0 -65 -60 -125l-16 16q36 36 36 79q-9 3 -15.5 11.5t-6.5 18.5z" />
<glyph unicode="&#xe0a6;" horiz-adv-x="392" d="M277 251q0 13 9 22t22 9t22 -9t9 -22t-9 -22t-22 -9t-22 9t-9 22zM89 36h286v-36h-321v464h35v-428z" />
<glyph unicode="&#xe0a7;" horiz-adv-x="392" d="M11 148l-22 29l65 46v241h35v-216l145 104l21 -29l-166 -119v-168h286v-36h-321v179z" />
<glyph unicode="&#xe0a8;" horiz-adv-x="464" d="M411 464v-473h-37l-285 419v-410h-35v473h36l285 -419v410h36zM211 545l-25 25l99 100l26 -25z" />
<glyph unicode="&#xe0a9;" horiz-adv-x="464" d="M411 464v-473h-37l-285 419v-410h-35v473h36l285 -419v410h36zM212 -85q0 13 9 22t22 9t22.5 -9t9.5 -22q0 -65 -60 -125l-16 16q35 35 35 80q-22 7 -22 29z" />
<glyph unicode="&#xe0aa;" horiz-adv-x="464" d="M411 464v-473h-37l-285 419v-410h-35v473h36l285 -419v410h36zM234 580l123 99l22 -28l-133 -106h-28l-133 106l22 28l123 -99h4z" />
<glyph unicode="&#xe0ab;" horiz-adv-x="500" d="M54 464h35v-120q72 129 197 129q67 0 113.5 -47t46.5 -114v-383q0 -101 -84 -141l-3 -2h-5h-24v35h20q61 34 61 108v383q0 52 -36.5 89t-88.5 37q-85 0 -141 -66t-56 -167v-205h-35v464z" />
<glyph unicode="&#xe0ac;" horiz-adv-x="500" d="M250 473q96 0 164 -70.5t68 -170.5t-68 -170.5t-164 -70.5t-164 70.5t-68 170.5t68 170.5t164 70.5zM54 232q0 -85 57.5 -145t138.5 -60t138.5 60t57.5 145t-57.5 145.5t-138.5 60.5t-138.5 -60.5t-57.5 -145.5zM393 607h-286v36h286v-36z" />
<glyph unicode="&#xe0ad;" horiz-adv-x="500" d="M250 473q96 0 164 -70.5t68 -170.5t-68 -170.5t-164 -70.5t-164 70.5t-68 170.5t68 170.5t164 70.5zM54 232q0 -85 57.5 -145t138.5 -60t138.5 60t57.5 145t-57.5 145.5t-138.5 60.5t-138.5 -60.5t-57.5 -145.5zM250 607q72 0 108 55l30 -21q-48 -70 -138 -70t-138 70 l30 21q36 -55 108 -55z" />
<glyph unicode="&#xe0ae;" horiz-adv-x="500" d="M250 473q96 0 164 -70.5t68 -170.5t-68 -170.5t-164 -70.5t-164 70.5t-68 170.5t68 170.5t164 70.5zM54 232q0 -85 57.5 -145t138.5 -60t138.5 60t57.5 145t-57.5 145.5t-138.5 60.5t-138.5 -60.5t-57.5 -145.5zM331 545l-26 25l100 100l25 -25zM153 545l-26 25l100 100 l25 -25z" />
<glyph unicode="&#xe0af;" horiz-adv-x="607" d="M304 36v393h-42q-86 0 -147 -57.5t-61 -139.5t61 -139t147 -57h42zM339 36h250v-36h-326q-102 0 -173.5 67.5t-71.5 164.5t71.5 164.5t173.5 67.5h291v-35h-215v-179h143v-36h-143v-178z" />
<glyph unicode="&#xe0b0;" d="M398 0q-19 0 -32.5 8t-31.5 30l-74 89q-3 4 -11 13.5t-9.5 11.5t-7.5 8.5t-8 7t-8 4t-10 4t-11.5 2t-15 1.5h-18.5h-72v-179h-35v464h151q81 0 125.5 -40t44.5 -96q0 -48 -32.5 -87.5t-92.5 -52.5q14 -10 38 -38l73 -89q14 -16 20 -20.5t17 -4.5h13v-36h-13zM204 214 q62 0 98.5 34t36.5 79q0 42 -34.5 72t-99.5 30h-116v-215h115zM175 545l-25 25l99 100l26 -25z" />
<glyph unicode="&#xe0b1;" d="M398 0q-19 0 -32.5 8t-31.5 30l-74 89q-3 4 -11 13.5t-9.5 11.5t-7.5 8.5t-8 7t-8 4t-10 4t-11.5 2t-15 1.5h-18.5h-72v-179h-35v464h151q81 0 125.5 -40t44.5 -96q0 -48 -32.5 -87.5t-92.5 -52.5q14 -10 38 -38l73 -89q14 -16 20 -20.5t17 -4.5h13v-36h-13zM204 214 q62 0 98.5 34t36.5 79q0 42 -34.5 72t-99.5 30h-116v-215h115zM212 -76q0 13 9 22t22 9t22.5 -9t9.5 -22q0 -65 -60 -125l-16 16q35 35 35 80q-22 7 -22 29z" />
<glyph unicode="&#xe0b2;" d="M398 0q-19 0 -32.5 8t-31.5 30l-74 89q-3 4 -11 13.5t-9.5 11.5t-7.5 8.5t-8 7t-8 4t-10 4t-11.5 2t-15 1.5h-18.5h-72v-179h-35v464h151q81 0 125.5 -40t44.5 -96q0 -48 -32.5 -87.5t-92.5 -52.5q14 -10 38 -38l73 -89q14 -16 20 -20.5t17 -4.5h13v-36h-13zM204 214 q62 0 98.5 34t36.5 79q0 42 -34.5 72t-99.5 30h-116v-215h115zM198 580l123 99l23 -28l-133 -106h-29l-133 106l22 28l124 -99h3z" />
<glyph unicode="&#xe0b3;" d="M214 27q72 0 116.5 25t44.5 64q0 37 -33 61t-80.5 37t-94.5 27t-80 43t-33 73q0 46 49.5 81.5t111.5 35.5q95 0 155 -60l-25 -25q-49 49 -130 49q-51 0 -88.5 -27t-37.5 -54q0 -34 33 -55.5t80.5 -34.5t95 -28t80.5 -45.5t33 -77.5q0 -54 -54 -89.5t-143 -35.5 q-133 0 -193 79l29 21q47 -64 164 -64zM193 545l-25 25l99 100l26 -25z" />
<glyph unicode="&#xe0b4;" d="M214 27q72 0 116.5 25t44.5 64q0 37 -33 61t-80.5 37t-94.5 27t-80 43t-33 73q0 46 49.5 81.5t111.5 35.5q95 0 155 -60l-25 -25q-49 49 -130 49q-51 0 -88.5 -27t-37.5 -54q0 -34 33 -55.5t80.5 -34.5t95 -28t80.5 -45.5t33 -77.5q0 -54 -54 -89.5t-143 -35.5 q-133 0 -193 79l29 21q47 -64 164 -64zM216 634h-4l-123 -98l-22 27l133 107h29l133 -107l-23 -27z" />
<glyph unicode="&#xe0b5;" d="M214 27q72 0 116.5 25t44.5 64q0 37 -33 61t-80.5 37t-94.5 27t-80 43t-33 73q0 46 49.5 81.5t111.5 35.5q95 0 155 -60l-25 -25q-49 49 -130 49q-51 0 -88.5 -27t-37.5 -54q0 -34 33 -55.5t80.5 -34.5t95 -28t80.5 -45.5t33 -77.5q0 -52 -49.5 -87t-132.5 -38l-12 -39 q9 3 28 3q38 0 61 -26t23 -60q0 -36 -26.5 -56t-60.5 -20q-54 0 -79 42l23 13q18 -29 56 -29q25 0 38 16t13 38t-12.5 38.5t-35.5 16.5q-15 0 -42 -12l-22 6l20 69q-124 4 -180 79l29 21q47 -64 164 -64z" />
<glyph unicode="&#xe0b6;" d="M214 27q72 0 116.5 25t44.5 64q0 37 -33 61t-80.5 37t-94.5 27t-80 43t-33 73q0 46 49.5 81.5t111.5 35.5q95 0 155 -60l-25 -25q-49 49 -130 49q-51 0 -88.5 -27t-37.5 -54q0 -34 33 -55.5t80.5 -34.5t95 -28t80.5 -45.5t33 -77.5q0 -54 -54 -89.5t-143 -35.5 q-133 0 -193 79l29 21q47 -64 164 -64zM216 580l123 99l23 -28l-133 -106h-29l-133 106l22 28l123 -99h4z" />
<glyph unicode="&#xe0b7;" d="M199 -77l-23 6l21 71h-1v429h-178v35h393v-35h-179v-429h-8l-11 -41q9 3 28 3q38 0 61 -25.5t23 -59.5q0 -36 -27 -56.5t-61 -20.5q-54 0 -79 42l24 13q17 -28 55 -28q25 0 38.5 15.5t13.5 37.5t-12.5 38.5t-35.5 16.5q-15 0 -42 -12z" />
<glyph unicode="&#xe0b8;" d="M18 464h393v-35h-179v-429h-36v429h-178v35zM216 580l123 99l23 -28l-133 -106h-29l-133 106l22 28l123 -99h4z" />
<glyph unicode="&#xe0b9;" d="M18 464h393v-35h-179v-108h72v-35h-72v-286h-36v286h-71v35h71v108h-178v35z" />
<glyph unicode="&#xe0ba;" d="M279 618q24 0 30 31l5 24l35 -6l-4 -24q-11 -60 -66 -60q-28 0 -70.5 24.5t-58.5 24.5q-24 0 -30 -31l-6 -24l-35 6l5 24q11 60 66 60q28 0 70.5 -24.5t58.5 -24.5zM71 170q0 -58 42.5 -100.5t100.5 -42.5t100.5 42.5t42.5 100.5v294h36v-294q0 -74 -52.5 -126.5 t-126.5 -52.5q-73 0 -125.5 52.5t-52.5 126.5v294h35v-294z" />
<glyph unicode="&#xe0bb;" d="M357 607h-285v36h285v-36zM71 170q0 -58 42.5 -100.5t100.5 -42.5t100.5 42.5t42.5 100.5v294h36v-294q0 -74 -52.5 -126.5t-126.5 -52.5q-73 0 -125.5 52.5t-52.5 126.5v294h35v-294z" />
<glyph unicode="&#xe0bc;" d="M214 607q72 0 108 55l30 -21q-48 -70 -138 -70q-89 0 -137 70l29 21q36 -55 108 -55zM71 170q0 -58 42.5 -100.5t100.5 -42.5t100.5 42.5t42.5 100.5v294h36v-294q0 -74 -52.5 -126.5t-126.5 -52.5q-73 0 -125.5 52.5t-52.5 126.5v294h35v-294z" />
<glyph unicode="&#xe0bd;" d="M214 679q33 0 61 -27t28 -63q0 -35 -28 -62t-61 -27q-31 0 -61 28q-28 27 -28 61q0 36 28 63q29 27 61 27zM214 652q-21 0 -43 -20q-19 -19 -19 -43t19 -43t43 -19q22 0 43 19q20 20 20 43t-20 43q-22 20 -43 20zM71 170q0 -58 42.5 -100.5t100.5 -42.5t100.5 42.5 t42.5 100.5v294h36v-294q0 -74 -52.5 -126.5t-126.5 -52.5q-73 0 -125.5 52.5t-52.5 126.5v294h35v-294z" />
<glyph unicode="&#xe0be;" d="M295 545l-26 25l100 100l25 -25zM117 545l-26 25l100 100l25 -25zM71 170q0 -58 42.5 -100.5t100.5 -42.5t100.5 42.5t42.5 100.5v294h36v-294q0 -74 -52.5 -126.5t-126.5 -52.5q-73 0 -125.5 52.5t-52.5 126.5v294h35v-294z" />
<glyph unicode="&#xe0bf;" d="M180 -99q0 -17 11.5 -30.5t39.5 -13.5q21 0 39 11l18 -31q-25 -16 -57 -16q-40 0 -63 23t-23 57t15 53t48 37q-71 2 -121.5 54.5t-50.5 124.5v294h35v-294q0 -58 42.5 -100.5t100.5 -42.5t100.5 42.5t42.5 100.5v294h36v-294q0 -53 -29 -97.5t-76 -65.5q-9 -5 -24.5 -14 t-22 -12.5t-17.5 -10.5t-15 -10.5t-10.5 -9.5t-8.5 -10t-5 -10.5t-4 -13.5t-1 -15z" />
<glyph unicode="&#xe0c0;" horiz-adv-x="642" d="M324 634h-4l-123 -98l-23 27l133 107h29l133 -107l-22 -27zM455 60l152 411l34 -13l-172 -466h-27l-121 319l-120 -319h-27l-172 466l34 13l152 -411l116 308v78h35v-78z" />
<glyph unicode="&#xe0c1;" d="M217 634h-4l-123 -98l-23 27l133 107h29l133 -107l-22 -27zM214 195l182 282l30 -19l-194 -302v-156h-36v156l-193 302l30 19z" />
<glyph unicode="&#xe0c2;" d="M290 594q0 13 9.5 22t22.5 9t22 -9t9 -22t-9 -22.5t-22 -9.5t-22.5 9.5t-9.5 22.5zM81 594q0 13 9 22t22 9t22 -9t9 -22t-9 -22.5t-22 -9.5t-22 9.5t-9 22.5zM214 195l182 282l30 -19l-194 -302v-156h-36v156l-193 302l30 19z" />
<glyph unicode="&#xe0c3;" horiz-adv-x="392" d="M175 545l-25 25l99 100l26 -25zM366 441l-293 -405h302v-36h-357v20l11 15l284 394h-286v35h339v-23z" />
<glyph unicode="&#xe0c4;" horiz-adv-x="392" d="M165 612q0 13 9.5 22t22.5 9t22 -9t9 -22t-9 -22.5t-22 -9.5t-22.5 9.5t-9.5 22.5zM366 441l-293 -405h302v-36h-357v20l11 15l284 394h-286v35h339v-23z" />
<glyph unicode="&#xe0c5;" horiz-adv-x="392" d="M199 580l123 99l22 -28l-133 -106h-29l-133 106l23 28l123 -99h4zM366 441l-293 -405h302v-36h-357v20l11 15l284 394h-286v35h339v-23z" />
<glyph unicode="&#xe0c6;" d="M217 580l123 99l22 -28l-133 -106h-29l-133 106l23 28l123 -99h4zM345 107h-262l-49 -114l-33 14l201 466h25l200 -466l-33 -14zM330 143l-116 269l-115 -269h231z" />
<glyph unicode="&#xe0c7;" horiz-adv-x="142" d="M74 580l123 99l22 -28l-133 -106h-29l-133 106l23 28l123 -99h4zM89 0h-35v464h35v-464z" />
<glyph unicode="&#xe0c8;" horiz-adv-x="500" d="M250 473q96 0 164 -70.5t68 -170.5t-68 -170.5t-164 -70.5t-164 70.5t-68 170.5t68 170.5t164 70.5zM54 232q0 -85 57.5 -145t138.5 -60t138.5 60t57.5 145t-57.5 145.5t-138.5 60.5t-138.5 -60.5t-57.5 -145.5zM252 580l123 99l22 -28l-133 -106h-28l-133 106l22 28 l123 -99h4z" />
<glyph unicode="&#xe0c9;" d="M217 580l123 99l22 -28l-133 -106h-29l-133 106l23 28l123 -99h4zM71 170q0 -58 42.5 -100.5t100.5 -42.5t100.5 42.5t42.5 100.5v294h36v-294q0 -74 -52.5 -126.5t-126.5 -52.5q-73 0 -125.5 52.5t-52.5 126.5v294h35v-294z" />
<glyph unicode="&#xe0ca;" horiz-adv-x="482" d="M252 569l123 99l22 -28l-133 -106h-29l-133 106l23 28l123 -99h4zM411 179h-94v35h129v-214h-30l-4 67h-1q-72 -76 -152 -76q-100 0 -170.5 70.5t-70.5 170.5t70.5 170.5t170.5 70.5q88 0 149 -44l-20 -29q-54 38 -129 38q-85 0 -145 -60t-60 -146t60 -145.5t145 -59.5 q40 0 85 23.5t67 53.5v75z" />
<glyph unicode="&#xe0cb;" d="M178 227l-88 -103h-1v-124h-35v464h35v-286l260 302l27 -24l-174 -202l159 -193q21 -25 37 -25h13v-36h-13q-20 0 -33 8t-31 30zM198 580l123 99l23 -28l-133 -106h-29l-133 106l22 28l124 -99h3z" />
<glyph unicode="&#xe0cc;" horiz-adv-x="500" d="M269 -99q0 -17 11.5 -30.5t39.5 -13.5q20 0 38 11l18 -30q-26 -17 -56 -17q-40 0 -63.5 23t-23.5 57q0 53 44 92q-18 -2 -27 -2q-96 0 -164 71t-68 170t68 170t164 71t164 -71t68 -170q0 -69 -35 -126.5t-92 -88.5q-49 -31 -67.5 -56t-18.5 -60zM54 232q0 -85 57.5 -145 t138.5 -60t138.5 60t57.5 145t-57.5 145.5t-138.5 60.5t-138.5 -60.5t-57.5 -145.5z" />
<glyph unicode="&#xe0cd;" horiz-adv-x="500" d="M392 607h-285v36h285v-36zM269 -99q0 -17 11.5 -30.5t39.5 -13.5q20 0 38 11l18 -30q-26 -17 -56 -17q-40 0 -63.5 23t-23.5 57q0 53 44 92q-18 -2 -27 -2q-96 0 -164 71t-68 170t68 170t164 71t164 -71t68 -170q0 -69 -35 -126.5t-92 -88.5q-49 -31 -67.5 -56t-18.5 -60 zM54 232q0 -85 57.5 -145t138.5 -60t138.5 60t57.5 145t-57.5 145.5t-138.5 60.5t-138.5 -60.5t-57.5 -145.5z" />
<glyph unicode="&#xe0ce;" horiz-adv-x="482" d="M411 179h-94v35h129v-214h-30l-4 67h-1q-72 -76 -152 -76q-100 0 -170.5 70.5t-70.5 170.5t70.5 170.5t170.5 70.5q88 0 149 -44l-20 -29q-54 38 -129 38q-85 0 -145 -60t-60 -146t60 -145.5t145 -59.5q40 0 85 23.5t67 53.5v75zM229 534l-25 25l99 100l26 -25z" />
<glyph unicode="&#xe0cf;" d="M345 107h-262l-49 -114l-33 14l201 466h25l200 -466l-33 -14zM330 143l-116 269l-115 -269h231zM316 545l-99 100l26 25l99 -100zM138 545l-100 100l26 25l99 -100z" />
<glyph unicode="&#xe0d0;" d="M214 27q72 0 116.5 25t44.5 64q0 37 -33 61t-80.5 37t-94.5 27t-80 43t-33 73q0 46 49.5 81.5t111.5 35.5q95 0 155 -60l-25 -25q-49 49 -130 49q-51 0 -88.5 -27t-37.5 -54q0 -34 33 -55.5t80.5 -34.5t95 -28t80.5 -45.5t33 -77.5q0 -54 -54 -89.5t-143 -35.5 q-133 0 -193 79l29 21q47 -64 164 -64zM196 -85q0 13 9 22t22 9t22 -9t9 -22q0 -66 -59 -125l-16 16q35 35 35 80q-22 7 -22 29z" />
<glyph unicode="&#xe0d1;" d="M18 464h393v-35h-179v-429h-36v429h-178v35zM194 -76q0 13 9 22t22 9t22.5 -9t9.5 -22q0 -65 -60 -125l-16 16q36 36 36 80q-23 8 -23 29z" />
<glyph unicode="&#xe0d2;" d="M345 107h-262l-49 -114l-33 14l201 466h25l200 -466l-33 -14zM330 143l-116 269l-115 -269h231zM183 612q0 13 9 22t22 9t22.5 -9t9.5 -22t-9.5 -22.5t-22.5 -9.5t-22 9.5t-9 22.5z" />
<glyph unicode="&#xe0d3;" horiz-adv-x="642" d="M343 545l-99 100l25 25l100 -100zM455 60l152 411l34 -13l-172 -466h-27l-121 319l-120 -319h-27l-172 466l34 13l152 -411l116 308v78h35v-78z" />
<glyph unicode="&#xe0d4;" horiz-adv-x="642" d="M300 545l-25 25l99 100l26 -25zM455 60l152 411l34 -13l-172 -466h-27l-121 319l-120 -319h-27l-172 466l34 13l152 -411l116 308v78h35v-78z" />
<glyph unicode="&#xe0d5;" horiz-adv-x="642" d="M397 594q0 13 9.5 22t22.5 9t22 -9t9 -22t-9 -22.5t-22 -9.5t-22.5 9.5t-9.5 22.5zM188 594q0 13 9 22t22 9t22 -9t9 -22t-9 -22.5t-22 -9.5t-22 9.5t-9 22.5zM455 60l152 411l34 -13l-172 -466h-27l-121 319l-120 -319h-27l-172 466l34 13l152 -411l116 308v78h35v-78z " />
<glyph unicode="&#xe0d6;" horiz-adv-x="642" d="M290 612q0 13 9.5 22t22.5 9t22 -9t9 -22t-9 -22.5t-22 -9.5t-22.5 9.5t-9.5 22.5zM455 60l152 411l34 -13l-172 -466h-27l-121 319l-120 -319h-27l-172 466l34 13l152 -411l116 308v78h35v-78z" />
<glyph unicode="&#xe0d7;" d="M183 612q0 13 9.5 22t22.5 9t22 -9t9 -22t-9 -22.5t-22 -9.5t-22.5 9.5t-9.5 22.5zM214 195l182 282l30 -19l-194 -302v-156h-36v156l-193 302l30 19z" />
<glyph unicode="&#xe0d8;" horiz-adv-x="464" d="M291 27q53 0 86.5 19.5t33.5 40.5q0 24 -25.5 40t-62.5 27t-74 23t-62.5 34t-25.5 53q0 41 41.5 68t97.5 27q20 0 31 -1q-8 35 -44 57.5t-82 22.5q-47 0 -81.5 -22t-34.5 -54v-362h-35v286h-36v35h36v41q0 49 45 80t106 31q67 0 115.5 -38t48.5 -94v-24q-42 6 -69 6 q-44 0 -74 -18.5t-30 -40.5q0 -21 26 -36t62.5 -25.5t73 -23t62.5 -36t26 -56.5q0 -42 -46 -69t-109 -27q-44 0 -87.5 13t-65.5 42l28 22q13 -18 48.5 -29.5t76.5 -11.5z" />
<glyph unicode="&#xe0d9;" d="M236 545l-99 100l25 25l100 -100zM214 195l182 282l30 -19l-194 -302v-156h-36v156l-193 302l30 19z" />
<glyph unicode="&#xf000;" horiz-adv-x="321" d="M161 375q58 0 100.5 -57.5t42.5 -151.5q0 -97 -41.5 -158.5t-101.5 -61.5t-101.5 61.5t-41.5 158.5q0 94 42.5 151.5t100.5 57.5zM54 166q0 -87 33.5 -135.5t73.5 -48.5q41 0 74 49t33 135q0 81 -33 127t-74 46t-74 -46t-33 -127z" />
<glyph unicode="&#xf001;" horiz-adv-x="142" d="M54 298l-17 -19l-27 24l48 54h31v-393h-35v334z" />
<glyph unicode="&#xf002;" horiz-adv-x="285" d="M268 -36h-250v30l138 136q76 75 76 119v1q0 37 -26 63t-63 26t-63 -26t-26 -63h-36q0 52 36.5 88.5t88.5 36.5t88.5 -36.5t36.5 -88.5v-1q0 -59 -87 -144l-107 -105h194v-36z" />
<glyph unicode="&#xf003;" horiz-adv-x="285" d="M143 200q28 0 48 20.5t20 49.5t-20 49t-48 20t-48 -20t-20 -49h-36q0 43 30.5 74t73.5 31t73 -31t30 -74q0 -54 -43 -86q29 -17 47 -47.5t18 -65.5q0 -52 -36.5 -88.5t-88.5 -36.5t-88.5 36.5t-36.5 88.5h36q0 -37 26 -63t63 -26t63 26t26 63q0 38 -26 65.5t-63 27.5v36z " />
<glyph unicode="&#xf004;" horiz-adv-x="285" d="M196 214h36v-143h36v-35h-36v-72h-36v72h-196v29l3 5q74 111 101 170.5t27 116.5h36q0 -63 -26.5 -123.5t-93.5 -162.5h149v143z" />
<glyph unicode="&#xf005;" horiz-adv-x="285" d="M18 158q2 30 5.5 90.5t5.5 91.5l1 17h209v-36h-175l-7 -104q42 33 86 33q49 0 87 -41t38 -111q0 -73 -39.5 -112.5t-90.5 -39.5q-33 0 -67 18t-51 49l-2 5v4v12h36v-7q13 -20 36.5 -32.5t47.5 -12.5q36 0 65 29t29 87q0 56 -28 86t-61 30q-25 0 -53 -18t-37 -44z" />
<glyph unicode="&#xf006;" horiz-adv-x="285" d="M143 340q-69 0 -84 -131q39 41 89 41q48 0 84 -40.5t36 -111.5t-36 -111.5t-84 -40.5t-89 39.5t-41 107.5v50q5 232 125 232q62 0 100 -50l-29 -21q-26 36 -71 36zM54 94q1 -54 30.5 -83t63.5 -29q33 0 58.5 29.5t25.5 86.5t-25.5 86.5t-58.5 29.5q-34 0 -64 -30.5 t-30 -85.5v-4z" />
<glyph unicode="&#xf007;" horiz-adv-x="250" d="M0 357h254v-29l-52 -70q-77 -106 -77 -294h-36q0 201 84 315l31 42h-204v36z" />
<glyph unicode="&#xf008;" horiz-adv-x="285" d="M75 270q0 -29 20 -49.5t48 -20.5t48 20.5t20 49.5t-20 49t-48 20t-48 -20t-20 -49zM143 -54q-52 0 -88.5 37.5t-36.5 89.5q0 36 19 66t51 45q-49 30 -49 86q0 43 30.5 74t73.5 31t73 -31t30 -74q0 -56 -49 -86q32 -15 51.5 -45t19.5 -66q0 -52 -36.5 -89.5t-88.5 -37.5z M232 73q0 38 -26 64.5t-63 26.5t-63 -26.5t-26 -64.5q0 -37 26 -64t63 -27t63 27t26 64z" />
<glyph unicode="&#xf009;" horiz-adv-x="285" d="M143 -18q69 0 84 130q-39 -41 -89 -41q-48 0 -84 40.5t-36 111.5t36 111.5t84 40.5t89 -39t41 -107v-50q-5 -233 -125 -233q-62 0 -100 50l28 22q27 -36 72 -36zM232 228q-1 54 -30.5 82.5t-63.5 28.5q-33 0 -58.5 -29.5t-25.5 -86.5t25.5 -86.5t58.5 -29.5q34 0 64 30.5 t30 85.5v5z" />
<glyph unicode="&#xf00a;" horiz-adv-x="321" d="M161 696q58 0 100.5 -57t42.5 -151q0 -97 -41.5 -158.5t-101.5 -61.5t-101.5 61.5t-41.5 158.5q0 94 42.5 151t100.5 57zM54 488q0 -87 33.5 -135.5t73.5 -48.5q41 0 74 49t33 135q0 81 -33 127t-74 46t-74 -46t-33 -127z" />
<glyph unicode="&#xf00b;" horiz-adv-x="142" d="M54 620l-17 -19l-27 23l48 55h31v-393h-35v334z" />
<glyph unicode="&#xf00c;" horiz-adv-x="285" d="M268 286h-250v29l138 137q76 75 76 119q0 37 -26 63.5t-63 26.5t-63 -26.5t-26 -63.5h-36q0 52 36.5 88.5t88.5 36.5t88.5 -36.5t36.5 -88.5q0 -59 -87 -144l-107 -106h194v-35z" />
<glyph unicode="&#xf00d;" horiz-adv-x="285" d="M143 521q28 0 48 20.5t20 49.5t-20 49.5t-48 20.5t-48 -20.5t-20 -49.5h-36q0 43 30.5 74t73.5 31t73 -31t30 -74q0 -54 -43 -86q30 -17 47.5 -47t17.5 -65q0 -52 -36.5 -88.5t-88.5 -36.5t-88.5 36.5t-36.5 88.5h36q0 -37 26 -63t63 -26t63 26t26 63q0 38 -26 65.5 t-63 27.5v35z" />
<glyph unicode="&#xf00e;" horiz-adv-x="285" d="M196 536h36v-143h36v-36h-36v-71h-36v71h-196v30l3 4q73 111 100.5 171t27.5 117h36q0 -63 -26.5 -123.5t-93.5 -162.5h149v143z" />
<glyph unicode="&#xf00f;" horiz-adv-x="285" d="M18 479q2 31 5.5 91.5t5.5 91.5l1 17h209v-36h-175l-7 -105q42 33 86 33q49 0 87 -40.5t38 -110.5q0 -73 -39.5 -112.5t-90.5 -39.5q-33 0 -67 18t-51 49l-2 4v5v11h36v-7q12 -20 36 -32t48 -12q36 0 65 29t29 87q0 56 -28 86t-61 30q-25 0 -53 -18.5t-37 -44.5z" />
<glyph unicode="&#xf010;" horiz-adv-x="285" d="M143 661q-69 0 -84 -131q39 41 89 41q48 0 84 -40t36 -111t-36 -111.5t-84 -40.5t-89 39t-41 107v50q5 233 125 233q62 0 100 -50l-29 -22q-26 36 -71 36zM54 415q1 -54 30.5 -82.5t63.5 -28.5q33 0 58.5 29.5t25.5 86.5t-25.5 86.5t-58.5 29.5q-34 0 -64 -30.5 t-30 -85.5v-5z" />
<glyph unicode="&#xf011;" horiz-adv-x="250" d="M0 679h254v-30l-52 -70q-77 -106 -77 -293h-36q0 201 84 315l31 42h-204v36z" />
<glyph unicode="&#xf012;" horiz-adv-x="285" d="M75 591q0 -29 20 -49.5t48 -20.5t48 20.5t20 49.5t-20 49.5t-48 20.5t-48 -20.5t-20 -49.5zM143 268q-52 0 -88.5 37.5t-36.5 89.5q0 36 19 65.5t51 44.5q-49 30 -49 86q0 43 30.5 74t73.5 31t73 -31t30 -74q0 -56 -49 -86q32 -15 51.5 -44.5t19.5 -65.5 q0 -52 -36.5 -89.5t-88.5 -37.5zM232 395q0 38 -26 64.5t-63 26.5t-63 -26.5t-26 -64.5q0 -37 26 -64t63 -27t63 27t26 64z" />
<glyph unicode="&#xf013;" horiz-adv-x="285" d="M143 304q69 0 84 130q-39 -41 -89 -41q-48 0 -84 40.5t-36 111.5t36 111t84 40t89 -39t41 -107v-50q-5 -232 -125 -232q-62 0 -100 50l28 21q27 -35 72 -35zM232 549q-1 54 -30.5 83t-63.5 29q-33 0 -58.5 -29.5t-25.5 -86.5t25.5 -86.5t58.5 -29.5q34 0 64 30.5t30 85.5 v4z" />
<glyph unicode="&#xf014;" horiz-adv-x="178" d="M76 612q0 13 9 22t22 9t22 -9t9 -22t-9 -22.5t-22 -9.5t-22 9.5t-9 22.5zM89 464h36v-544q0 -56 -39.5 -95t-94.5 -39h-9v35h9q40 0 69 29t29 70v544z" />
<glyph unicode="&#xf015;" horiz-adv-x="178" d="M93 670h28l89 -72l-22 -27l-79 63h-4l-78 -63l-23 27zM89 464h36v-544q0 -56 -39.5 -95t-94.5 -39h-9v35h9q40 0 69 29t29 70v544z" />
<glyph unicode="&#xf016;" horiz-adv-x="178" d="M89 464h36v-544q0 -56 -39.5 -95t-94.5 -39h-9v35h9q40 0 69 29t29 70v544z" />
<glyph unicode="&#xf017;" horiz-adv-x="750" d="M54 464h31l4 -163q39 93 127 141.5t195 48.5q285 0 285 -179v-312h-31l-3 73h-2q-34 -39 -88 -60.5t-108 -21.5q-85 0 -140.5 43.5t-55.5 113.5q0 60 51.5 99t144.5 39h197v26q0 70 -56 106.5t-194 36.5q-81 0 -152.5 -31.5t-120.5 -100.5t-49 -162v-161h-35v464z M661 120v130h-197q-79 0 -119.5 -29t-40.5 -73q0 -55 45 -88t115 -33q59 0 117.5 25.5t79.5 67.5z" />
<glyph unicode="&#xf018;" horiz-adv-x="571" d="M375 125q0 -41 28.5 -69.5t69.5 -28.5q37 0 70 23l21 -29q-39 -30 -91 -30q-55 0 -94.5 39.5t-39.5 94.5v304h-35q-27 0 -36 -2q-62 -12 -120.5 -85t-58.5 -172v-170h-35v464h31l4 -162q31 72 88 117t109 45h53v107h36v-107h179v-35h-179v-304z" />
<glyph unicode="&#xf019;" horiz-adv-x="625" d="M54 464h31l4 -162q31 72 88 117t109 45h107v72q0 63 44.5 107.5t107.5 44.5q42 0 76.5 -20.5t54.5 -55.5l-30 -18q-33 58 -101 58q-48 0 -82 -34t-34 -82v-72h142v-35h-142v-429h-36v429h-89q-27 0 -36 -2q-62 -12 -120.5 -85t-58.5 -172v-170h-35v464z" />
<glyph unicode="&#xf01a;" horiz-adv-x="562" d="M375 125q0 -41 28.5 -69.5t69.5 -28.5q37 0 70 23l21 -29q-39 -30 -91 -30q-55 0 -94.5 39.5t-39.5 94.5v304h-35q-27 0 -36 -2q-62 -12 -120.5 -85t-58.5 -172v-170h-35v464h31l4 -162q31 72 88 117t109 45h53v107h36v-107h143v-35h-143v-304z" />
<glyph unicode="&#xf01b;" horiz-adv-x="758" d="M536 429h-107v35h107v36q0 48 -27 77.5t-71 29.5t-70.5 -29.5t-26.5 -77.5q0 -49 27 -79l-26 -25q-45 42 -128 42q-50 0 -87.5 -23.5t-37.5 -57.5q0 -31 33 -51.5t80.5 -33.5t95 -28.5t80.5 -45t33 -73.5q0 -58 -59 -96t-138 -38q-70 0 -120.5 23t-75.5 57l28 22 q51 -66 168 -66q69 0 115 30.5t46 67.5q0 34 -33 56.5t-80.5 36t-94.5 28t-80 42t-33 69.5q0 50 47.5 83t112.5 33q57 0 97 -16q-6 22 -6 43q0 64 37 103.5t96 39.5t96 -39.5t37 -103.5v-36h143v-35h-143v-304q0 -40 29 -69t70 -29q36 0 69 23l22 -29q-39 -30 -91 -30 q-56 0 -95 39.5t-39 94.5v304z" />
<glyph unicode="&#xf01c;" horiz-adv-x="928" d="M259 -9q-99 0 -170 70.5t-71 170.5t71 170.5t170 70.5q105 0 177 -77l-27 -24q-63 66 -150 66q-84 0 -144.5 -60.5t-60.5 -145.5t60.5 -145t144.5 -60q134 0 259 123v529h36v-493l291 291l25 -25l-193 -193l168 -186q33 -37 60 -37h6v-36h-6q-25 0 -44 11.5t-43 37.5 l-167 184l-97 -98v-135h-36v101q-124 -110 -259 -110z" />
<glyph unicode="&#xf01d;" horiz-adv-x="821" d="M232 438q-60 0 -101.5 -38t-41.5 -92q0 -53 41.5 -91t101.5 -38t101.5 38t41.5 91q0 54 -41.5 92t-101.5 38zM590 315q30 72 87.5 115t126.5 43l-5 -35q-87 -2 -148.5 -77.5t-61.5 -181.5v-179h-35v321q0 44 -26.5 76t-63.5 32h-110q57 -49 57 -121q0 -69 -53 -117 t-126 -48q-61 0 -105 32q-53 -47 -53 -74q0 -23 27 -31l249 -67q41 -11 68.5 -40.5t27.5 -73.5q0 -45 -40 -74t-95 -29h-156q-65 0 -109 36.5t-44 86.5q0 76 69 135q-33 19 -33 57q0 36 66 93q-50 48 -50 114q0 69 52.5 117t125.5 48q45 0 78 -16l154 7q52 0 88.5 -42 t36.5 -101v-6h1zM104 32q-66 -54 -66 -123q0 -35 33.5 -61.5t83.5 -26.5h156q43 0 71.5 20.5t28.5 47.5q0 59 -71 79z" />
<glyph unicode="&#xf01e;" horiz-adv-x="928" d="M54 250h173q14 0 28.5 3.5t30.5 12.5t28 16t29.5 21.5t25 21t26 23t20.5 18.5q-62 72 -156 72q-79 0 -138.5 -54.5t-66.5 -133.5zM518 679h36v-493l291 291l25 -25l-193 -193l168 -186q33 -37 60 -37h6v-36h-6q-25 0 -44 11.5t-43 37.5l-167 184l-97 -98v-135h-36v101 q-124 -110 -259 -110q-100 0 -170.5 70.5t-70.5 170.5t71 170.5t170 70.5q59 0 110 -26.5t85 -72.5l10 -13l-13 -11q-5 -4 -39.5 -35t-56.5 -48.5t-59 -35t-69 -17.5h-173q7 -79 66 -133t139 -54q134 0 259 123v529z" />
<glyph unicode="&#xf01f;" horiz-adv-x="821" d="M589 429h-107v35h107v36q0 44 -31 75.5t-75 31.5t-75 -31.5t-31 -75.5q0 -17 5 -33t13 -27.5t15 -19.5t15.5 -15.5t9.5 -8.5l-26 -24q-63 66 -150 66q-84 0 -144.5 -61t-60.5 -145t60.5 -144.5t144.5 -60.5q88 0 150 65l26 -24q-74 -77 -176 -77q-99 0 -170 71t-71 170 t70.5 170t170.5 71q44 0 95 -21v1q-11 28 -11 47q0 60 40.5 101.5t99.5 41.5t100.5 -42t41.5 -101v-36h179v-35h-179v-304q0 -41 28.5 -69.5t69.5 -28.5q37 0 70 23l21 -29q-39 -30 -91 -30q-55 0 -94.5 39.5t-39.5 94.5v304z" />
<glyph unicode="&#xf020;" horiz-adv-x="812" d="M589 429h-107v35h107v36q0 44 -31 75.5t-75 31.5t-75 -31.5t-31 -75.5q0 -17 5 -33t13 -27.5t15 -19.5t15.5 -15.5t9.5 -8.5l-26 -24q-63 66 -150 66q-84 0 -144.5 -61t-60.5 -145t60.5 -144.5t144.5 -60.5q88 0 150 65l26 -24q-74 -77 -176 -77q-99 0 -170 71t-71 170 t70.5 170t170.5 71q44 0 95 -21v1q-11 28 -11 47q0 60 40.5 101.5t99.5 41.5t100.5 -42t41.5 -101v-36h143v-35h-143v-304q0 -41 28.5 -69.5t69.5 -28.5q37 0 70 23l21 -29q-39 -30 -91 -30q-55 0 -94.5 39.5t-39.5 94.5v304z" />
<glyph unicode="&#xf021;" horiz-adv-x="928" d="M551 125q-87 -82 -155.5 -108t-136.5 -26q-100 0 -170.5 70.5t-70.5 170.5t71 170.5t170 70.5q59 0 110 -26.5t85 -72.5l10 -13l-13 -11q-5 -4 -39.5 -35t-56.5 -48.5t-59 -35t-69 -17.5h-173q7 -79 66 -133t139 -54q38 0 68.5 5.5t86 34.5t112.5 84l119 113l-167 189 l26 23l167 -188l201 191l25 -26l-203 -192l221 -249l-27 -24l-220 249zM54 250h173q14 0 28.5 3.5t30.5 12.5t28 16t29.5 21.5t25 21t26 23t20.5 18.5q-62 72 -156 72q-79 0 -138.5 -54.5t-66.5 -133.5z" />
<glyph unicode="&#xf022;" horiz-adv-x="928" d="M54 250h174q16 0 34.5 6.5t32.5 13.5t35 23.5t29.5 23.5t30 27t24.5 22q-62 72 -155 72q-79 0 -138.5 -55t-66.5 -133zM518 679h36v-493l291 291l25 -25l-193 -193l168 -186q33 -37 60 -37h6v-36h-6q-44 0 -87 49l-166 184l-98 -97v-136h-36v102q-84 -74 -167 -98 q-37 -18 -51.5 -26t-31.5 -20.5t-22 -25t-5 -30.5q0 -17 12 -30.5t40 -13.5q19 0 37 11l18 -31q-25 -16 -55 -16q-40 0 -64 23t-24 57q0 54 63 88v1h-9q-100 0 -170.5 70.5t-70.5 170.5t71 170.5t170 70.5q59 0 110 -26.5t85 -72.5l9 -13l-12 -11q-3 -2 -39 -35t-57 -49 t-58 -34t-69 -18h-1h-173q7 -79 66 -133t139 -54q134 0 259 123v529z" />
<glyph unicode="&#xf023;" horiz-adv-x="714" d="M679 464v-25l-353 -402v-1h370v-36h-428v25l353 403v1h-317q-27 0 -36 -2q-62 -12 -120.5 -85t-58.5 -172v-170h-35v464h31l4 -162q31 72 88 117t109 45h393z" />
<glyph unicode="&#xf024;" horiz-adv-x="991" d="M555 332q31 64 88 102.5t125 38.5q81 0 129.5 -43.5t48.5 -117.5v-312h-35v312q0 60 -38.5 93t-104.5 33q-89 0 -151.5 -68t-62.5 -165v-205h-36v643h-17q-50 0 -87 -37.5t-37 -87.5q0 -35 16.5 -68t41.5 -53l-26 -25q-63 66 -150 66q-84 0 -144.5 -61t-60.5 -145 t60.5 -144.5t144.5 -60.5q88 0 150 65l26 -24q-74 -77 -176 -77q-99 0 -170 71t-71 170t70.5 170t170.5 71q44 0 95 -21l1 1q-14 31 -14 65q0 65 47.5 113t112.5 48h53v-347h1z" />
<glyph unicode="&#xf025;" horiz-adv-x="839" d="M107 857h-71v36h134v-36h-27v-178h107v-36h-107v-179h107v-35h-107v-393h107v-36h-107v-179h27v-35h-99v-9h-11v9h-24v35h71v1036z" />
<glyph unicode="&#xfb02;" d="M279 642q-23 10 -47 10q-44 0 -75.5 -31.5t-31.5 -75.5v-81h125v-35h-125v-429h-36v429h-71v35h71v81q0 59 42 101t101 42q33 0 63 -14zM339 679h36v-679h-36v679z" />
<glyph unicode="&#xfb04;" horiz-adv-x="678" d="M589 679h36v-679h-36v679zM304 634q-27 18 -63 18q-48 0 -82 -34t-34 -82v-72h214v81q0 59 42 101t101 42q33 0 63 -14l-16 -32q-23 10 -47 10q-44 0 -75.5 -31.5t-31.5 -75.5v-81h125v-35h-125v-429h-36v429h-214v-429h-36v429h-71v35h71v72q0 63 44.5 107.5t107.5 44.5 q42 0 82 -25z" />
<glyph unicode="&#xfb06;" horiz-adv-x="767" d="M536 429h-107v35h107v36q0 48 -27 77.5t-71 29.5t-70.5 -29.5t-26.5 -77.5q0 -49 27 -79l-26 -25q-45 42 -128 42q-50 0 -87.5 -23.5t-37.5 -57.5q0 -31 33 -51.5t80.5 -33.5t95 -28.5t80.5 -45t33 -73.5q0 -58 -59 -96t-138 -38q-70 0 -120.5 23t-75.5 57l28 22 q51 -66 168 -66q69 0 115 30.5t46 67.5q0 34 -33 56.5t-80.5 36t-94.5 28t-80 42t-33 69.5q0 50 47.5 83t112.5 33q57 0 97 -16q-6 22 -6 43q0 64 37 103.5t96 39.5t96 -39.5t37 -103.5v-36h179v-35h-179v-304q0 -40 29 -69t70 -29q36 0 69 23l22 -29q-39 -30 -91 -30 q-56 0 -95 39.5t-39 94.5v304z" />
<glyph horiz-adv-x="1000" />
<glyph horiz-adv-x="1000" />
<glyph horiz-adv-x="1000" />
<glyph horiz-adv-x="1000" />
<glyph horiz-adv-x="1000" />
<glyph horiz-adv-x="1000" />
<glyph horiz-adv-x="1000" />
<glyph horiz-adv-x="1000" />
</font>
</defs>
</svg>
