<?xml version="1.0" standalone="no"?>
<!DOCTYPE svg PUBLIC "-//W3C//DTD SVG 1.1//EN" "http://www.w3.org/Graphics/SVG/1.1/DTD/svg11.dtd" >
<svg>
<metadata>
Created by FontForge 20110222 at Thu May 23 06:27:04 2013
 By Orthosie Webhosting
(c) 1991 Bigelow &#38; Holmes Inc. All Rights Reserved. (c) 1990-1991 Type Solutions, Inc. All Rights Reserved.
</metadata>
<defs>
<font id="LucidaSansTypewriterBold" horiz-adv-x="1234" >
  <font-face 
    font-family="LucidaSansTypewriterBold"
    font-weight="600"
    font-stretch="semi-condensed"
    units-per-em="2048"
    panose-1="2 11 7 9 4 5 4 3 2 4"
    ascent="1638"
    descent="-410"
    x-height="1086"
    cap-height="1480"
    bbox="-12 -420 1308 1900"
    underline-thickness="100"
    underline-position="-150"
    unicode-range="U+0020-F002"
  />
<missing-glyph horiz-adv-x="1536" 
d="M256 0v1280h1024v-1280h-1024zM320 64h896v1152h-896v-1152z" />
    <glyph glyph-name=".notdef" horiz-adv-x="1536" 
d="M256 0v1280h1024v-1280h-1024zM320 64h896v1152h-896v-1152z" />
    <glyph glyph-name="glyph1" horiz-adv-x="0" 
 />
    <glyph glyph-name="glyph2" 
 />
    <glyph glyph-name="space" unicode=" " 
 />
    <glyph glyph-name="exclam" unicode="!" 
d="M469 0v247h296v-247h-296zM518 444l-49 740v296h296v-296l-49 -740h-198z" />
    <glyph glyph-name="quotedbl" unicode="&#x22;" 
d="M246 987l-49 592h296l-49 -592h-198zM789 987l-49 592h296l-49 -592h-198z" />
    <glyph glyph-name="numbersign" unicode="#" 
d="M160 0l109 432h-196l34 173h207l68 271h-221l34 173h231l110 431h180l-110 -431h172l110 431h181l-109 -431h200l-34 -173h-210l-69 -271h224l-35 -173h-232l-111 -432h-179l110 432h-175l-112 -432h-177zM493 605h174l68 271h-175z" />
    <glyph glyph-name="dollar" unicode="$" 
d="M549 -160v164q-167 0 -405 74v218q223 -101 405 -111v475l-51 35q-161 108 -212.5 167t-75.5 119.5t-24 130.5q0 131 90.5 238t272.5 129v162h161v-162q157 -8 318 -63v-201q-164 77 -318 91v-448l45 -30q208 -133 265 -218.5t57 -197.5q0 -143 -91 -261t-276 -148v-163
h-161zM679 197q70 22 106.5 70.5t36.5 105.5q0 46 -24 90t-121 112zM578 944v353q-136 -45 -136 -163q0 -53 27.5 -95.5t108.5 -94.5z" />
    <glyph glyph-name="percent" unicode="%" 
d="M134 -37l799 1554h167l-799 -1554h-167zM296 740q-152 0 -224 108t-72 262q0 156 72.5 263t223.5 107t223.5 -107t72.5 -263q0 -154 -72 -262t-224 -108zM296 925q43 0 57.5 53.5t14.5 132.5q0 80 -15 132t-56 52q-44 0 -58 -53t-14 -131q0 -79 14 -132.5t57 -53.5z
M938 0q-153 0 -224.5 108t-71.5 262q0 156 72.5 263t223.5 107t223.5 -107t72.5 -263q0 -154 -72 -262t-224 -108zM938 185q42 0 56.5 53.5t14.5 132.5t-14.5 131.5t-55.5 52.5q-44 0 -58.5 -53.5t-14.5 -130.5q0 -79 14.5 -132.5t57.5 -53.5z" />
    <glyph glyph-name="ampersand" unicode="&#x26;" 
d="M888 0q-22 26 -46 57l-22 28q-61 -54 -150 -88t-190 -34q-151 0 -245.5 60.5t-150 164t-55.5 226.5q0 286 313 451l-15 26q-80 142 -103.5 210t-23.5 114q0 78 48.5 151t132 112t194.5 39q108 0 191 -35.5t128.5 -109t45.5 -152.5q0 -83 -56.5 -187.5t-214.5 -195.5
l21 -38q139 -255 227 -377q45 85 54.5 153t9.5 241v66h249q0 -181 -33 -318.5t-166 -300.5l20 -29q114 -164 173 -234h-336zM577 985q115 108 115 226q0 59 -33 87t-67 28q-41 0 -73 -31t-32 -83q0 -65 70 -190zM716 242q-46 63 -109 166l-78 127q-47 76 -95 169
q-105 -93 -105 -231q0 -140 75 -210t161 -70q75 0 151 49z" />
    <glyph glyph-name="quotesingle" unicode="'" 
d="M518 938l-74 641h345l-74 -641h-197z" />
    <glyph glyph-name="parenleft" unicode="(" 
d="M1110 -296q-269 34 -441.5 161.5t-270 332.5t-97.5 445q0 243 99.5 450t279 334.5t430.5 151.5v-197q-158 -24 -273.5 -123t-177 -248.5t-61.5 -367.5q0 -305 132 -499t380 -243v-197z" />
    <glyph glyph-name="parenright" unicode=")" 
d="M123 1579q267 -34 440.5 -161.5t271 -332t97.5 -445.5q0 -243 -99.5 -449.5t-278.5 -334.5t-431 -152v197q158 24 273.5 123.5t177 248.5t61.5 367q0 304 -131.5 498.5t-380.5 243.5v197z" />
    <glyph glyph-name="asterisk" unicode="*" 
d="M491 586l-236 147l254 238q28 -45 81 -60zM150 1033l76 266l298 -181q-31 -39 -31 -80q0 -7 1 -17zM570 1151l-90 329h274l-86 -329q-28 9 -50 9q-20 0 -48 -9zM744 1022q1 8 1 13q0 42 -31 81l298 175l72 -259zM758 586l-119 324q32 7 47.5 18.5t33.5 33.5l265 -220z
" />
    <glyph glyph-name="plus" unicode="+" 
d="M524 0v438h-438v185h438v438h185v-438h438v-185h-438v-438h-185z" />
    <glyph glyph-name="comma" unicode="," 
d="M444 -296v136q91 7 113.5 37t22.5 75v48h-136v345h345v-279q0 -150 -40.5 -225t-107.5 -106t-197 -31z" />
    <glyph glyph-name="hyphen" unicode="-" 
d="M210 530v198h814v-198h-814z" />
    <glyph glyph-name="period" unicode="." 
d="M444 0v345h345v-345h-345z" />
    <glyph glyph-name="slash" unicode="/" 
d="M8 -296l966 1875h252l-968 -1875h-250z" />
    <glyph glyph-name="zero" unicode="0" 
d="M617 -37q-254 0 -398.5 204t-144.5 573t144.5 573t398.5 204t398.5 -204t144.5 -573t-144.5 -573t-398.5 -204zM617 160q113 0 167.5 116t54.5 464q0 349 -54.5 464.5t-167.5 115.5t-167.5 -115.5t-54.5 -464.5q0 -348 54.5 -464t167.5 -116z" />
    <glyph glyph-name="one" unicode="1" 
d="M222 0v197h296v1086h-296v173l592 61v-1320h296v-197h-888z" />
    <glyph glyph-name="two" unicode="2" 
d="M164 0v247q72 107 165 210l45 49l136 155q101 114 165 224.5t64 211.5q0 103 -64.5 157t-160.5 54q-143 0 -304 -83v222q176 70 381 70q227 0 347 -123.5t120 -281.5q0 -95 -44 -183t-180 -220l-118 -115q-178 -172 -264 -347h600v-247h-888z" />
    <glyph glyph-name="three" unicode="3" 
d="M202 17v214q148 -71 274 -71q108 0 186 69t78 174q0 77 -42.5 141t-131.5 97t-191 33h-38v198h24q179 0 268.5 74.5t89.5 185.5q0 85 -50.5 136.5t-164.5 51.5q-121 0 -285 -70v211q122 43 194.5 49.5t143.5 6.5q156 0 251.5 -47.5t150.5 -128t55 -186.5
q0 -112 -68 -207.5t-255 -152.5q210 -59 290.5 -169t80.5 -231q0 -117 -68 -215.5t-198 -157.5t-288 -59q-46 0 -102.5 6t-97.5 14.5t-106 33.5z" />
    <glyph glyph-name="four" unicode="4" 
d="M687 0v395h-592v247l555 838h296v-851h198v-234h-198v-395h-259zM323 629h364v550z" />
    <glyph glyph-name="five" unicode="5" 
d="M258 17v220q131 -77 239 -77q106 0 170.5 72t64.5 190q0 142 -95.5 229t-328.5 87h-25v742h765v-246h-550l-43 -304q315 -30 456 -172t141 -324q0 -191 -143.5 -331t-368.5 -140q-117 0 -282 54z" />
    <glyph glyph-name="six" unicode="6" 
d="M1076 1473v-222q-143 69 -263 69q-176 0 -278.5 -143t-102.5 -382q65 69 113 99.5t100.5 47t106.5 16.5q106 0 193.5 -58.5t136.5 -161t49 -239.5q0 -151 -58 -275.5t-159 -192.5t-249 -68q-191 0 -305 82t-184.5 251.5t-70.5 394.5q0 236 79 424t230 295.5t358 107.5
q85 0 224 -29q27 -5 80 -16zM647 160q82 0 132 73t50 214q0 134 -47.5 203.5t-127.5 69.5q-79 0 -140.5 -65.5t-61.5 -198.5q0 -138 55.5 -217t139.5 -79z" />
    <glyph glyph-name="seven" unicode="7" 
d="M287 0q8 185 81.5 367.5t182.5 361.5l307 505h-633v246h876v-246l-43 -63q-302 -441 -388.5 -715t-86.5 -456h-296z" />
    <glyph glyph-name="eight" unicode="8" 
d="M431 798q-96 68 -163.5 150.5t-67.5 189.5q0 152 122 265.5t320 113.5q196 0 299.5 -104t103.5 -240q0 -206 -235 -350q175 -133 244 -234.5t69 -208.5q0 -114 -66.5 -213.5t-177 -151.5t-266.5 -52q-154 0 -262 49.5t-168.5 150.5t-60.5 210q0 130 89.5 243t219.5 182z
M676 940q93 112 93 215q0 71 -41.5 118t-107.5 47t-105 -39.5t-39 -91.5q0 -58 50 -116t150 -133zM564 678q-82 -78 -106.5 -145t-24.5 -129q0 -95 61 -169.5t152 -74.5q80 0 129 48t49 127q0 47 -22 94.5t-85 110t-95 89.5z" />
    <glyph glyph-name="nine" unicode="9" 
d="M179 7v222q142 -69 262 -69q177 0 279.5 143.5t102.5 381.5q-66 -68 -114 -99t-100 -47t-106 -16q-155 0 -267 126t-112 332q0 152 57.5 276t158.5 192.5t250 68.5q191 0 305 -82.5t184.5 -252.5t70.5 -394q0 -236 -79 -424t-230 -295t-358 -107q-86 0 -225 28
q-26 6 -79 16zM608 1320q-82 0 -132.5 -72.5t-50.5 -213.5q0 -134 47.5 -204t127.5 -70t141.5 66t61.5 199q0 138 -56 216.5t-139 78.5z" />
    <glyph glyph-name="colon" unicode=":" 
d="M444 0v345h345v-345h-345zM444 740v346h345v-346h-345z" />
    <glyph glyph-name="semicolon" unicode=";" 
d="M444 -296v136q60 5 86.5 18t38 42.5t11.5 51.5v48h-136v345h345v-279q0 -150 -40.5 -225t-107.5 -106t-197 -31zM444 740v346h345v-346h-345z" />
    <glyph glyph-name="less" unicode="&#x3c;" 
d="M1147 1061v-213l-642 -318l642 -324v-206l-1061 530z" />
    <glyph glyph-name="equal" unicode="=" 
d="M86 234v185h1061v-185h-1061zM86 642v185h1061v-185h-1061z" />
    <glyph glyph-name="greater" unicode="&#x3e;" 
d="M86 0v213l642 317l-642 325v206l1061 -531z" />
    <glyph glyph-name="question" unicode="?" 
d="M351 0v247h296v-247h-296zM351 444v28q0 113 65.5 196t196.5 185l85 66q66 52 106 114.5t40 122.5q0 76 -69 120t-188 44q-112 0 -236 -40v-194h-197v360q235 72 490 72q273 0 397.5 -101t124.5 -234q0 -87 -51.5 -176t-204.5 -190l-95 -63q-90 -59 -117.5 -93.5
t-39 -72.5t-11.5 -84v-60h-296z" />
    <glyph glyph-name="at" unicode="@" 
d="M943 40q-175 -77 -315 -77q-259 0 -418 202t-159 528q0 237 84.5 428.5t233 293.5t344.5 102q189 0 296 -108.5t107 -344.5v-620h99v-148h-272v306q-54 -127 -104 -188.5t-108 -97.5t-117 -36q-98 0 -164.5 93.5t-66.5 278.5q0 227 106.5 393t288.5 166q67 0 154 -28
q-16 80 -46.5 113t-81.5 50.5t-115 17.5q-231 0 -348.5 -212.5t-117.5 -468.5q0 -167 50.5 -292.5t148.5 -196t213 -70.5q139 0 308 93v-177zM943 926v105q-75 38 -131 38q-131 0 -183 -129.5t-52 -270.5q0 -85 22 -147t62 -60q64 4 140.5 122.5t141.5 341.5z" />
    <glyph glyph-name="A" unicode="A" 
d="M21 0l480 1480h296l415 -1480h-307l-108 376h-446l-123 -376h-207zM410 561h338l-156 557z" />
    <glyph glyph-name="B" unicode="B" 
d="M137 0v1480h523q186 0 271.5 -40.5t129 -119t43.5 -178.5q0 -108 -58.5 -192.5t-203.5 -153.5q182 -77 254 -184t72 -236q0 -159 -113 -267.5t-344 -108.5h-574zM433 876h73q146 0 218.5 69t72.5 173q0 84 -48.5 124.5t-201.5 40.5h-114v-407zM433 197h160
q142 0 198.5 62t56.5 154q0 119 -89 192.5t-251 73.5h-75v-482z" />
    <glyph glyph-name="C" unicode="C" 
d="M1186 44q-234 -82 -443 -82q-208 0 -370 98t-247 277t-85 405q0 215 79 390.5t233 280.5t445 105q206 0 388 -46v-240q-232 88 -384 88q-123 0 -227.5 -66.5t-159 -211.5t-54.5 -309q0 -247 127 -403.5t320 -156.5q169 0 378 98v-227z" />
    <glyph glyph-name="D" unicode="D" 
d="M86 0v1480h529q316 0 446 -180t130 -523q0 -237 -63.5 -410.5t-192.5 -270t-388 -96.5h-461zM382 197h96q204 0 296.5 122t92.5 419q0 162 -32.5 274t-117 191.5t-266.5 79.5h-69v-1086z" />
    <glyph glyph-name="E" unicode="E" 
d="M168 0v1480h925v-197h-629v-419h531v-185h-531v-482h682v-197h-978z" />
    <glyph glyph-name="F" unicode="F" 
d="M173 0v1480h1024v-197h-728v-469h615v-185h-615v-629h-296z" />
    <glyph glyph-name="G" unicode="G" 
d="M1162 31q-76 -24 -147.5 -38t-143.5 -22t-133 -8q-200 0 -364 94t-250 264.5t-86 412.5q0 233 79.5 405.5t233 275t435.5 102.5q195 0 376 -50v-234q-53 27 -117.5 46t-130 30.5t-118.5 11.5q-123 0 -227 -66.5t-159 -203t-55 -310.5q0 -256 124.5 -411.5t340.5 -155.5
q30 0 58 5v524h284v-672z" />
    <glyph glyph-name="H" unicode="H" 
d="M99 0v1480h296v-610h444v610h296v-1480h-296v672h-444v-672h-296z" />
    <glyph glyph-name="I" unicode="I" 
d="M123 0v197h345v1086h-345v197h987v-197h-345v-1086h345v-197h-987z" />
    <glyph glyph-name="J" unicode="J" 
d="M156 -5v229q190 -60 331 -60q73 0 138 32t98.5 92.5t33.5 229.5v765h-493v197h790v-916q0 -268 -62.5 -381.5t-181.5 -166.5t-308 -53q-175 0 -346 32z" />
    <glyph glyph-name="K" unicode="K" 
d="M142 0v1480h296v-606h63l466 606h248l-505 -655l523 -825h-351l-381 603h-63v-603h-296z" />
    <glyph glyph-name="L" unicode="L" 
d="M216 0v1480h296v-1283h691v-197h-987z" />
    <glyph glyph-name="M" unicode="M" 
d="M84 0v1480h342l198 -665h3l207 665h316v-1480h-222v1136h-3l-210 -741h-226l-205 742h-3v-1137h-197z" />
    <glyph glyph-name="N" unicode="N" 
d="M111 0v1480h274l538 -955h2v955h198v-1480h-259l-553 987h-3v-987h-197z" />
    <glyph glyph-name="O" unicode="O" 
d="M617 -37q-295 0 -443.5 210.5t-148.5 566.5t148 566.5t444 210.5t444 -210.5t148 -566.5t-148.5 -566.5t-443.5 -210.5zM617 160q79 0 140 55.5t96.5 171.5t35.5 352q0 237 -33.5 351t-95.5 172t-143 58q-80 0 -141.5 -57.5t-95.5 -172.5t-34 -351q0 -237 34.5 -352.5
t96 -171t140.5 -55.5z" />
    <glyph glyph-name="P" unicode="P" 
d="M148 0v1480h573q243 0 350.5 -102t107.5 -295q0 -150 -62.5 -259t-191.5 -172.5t-367 -63.5h-114v-588h-296zM444 785h73q99 0 182.5 30.5t122.5 106t39 159.5q0 57 -22.5 104.5t-74.5 72.5t-210 25h-110v-498z" />
    <glyph glyph-name="Q" unicode="Q" 
d="M895 25q93 -48 215 -70.5t198 -22.5l-208 -205q-161 45 -292 132l-96 65q-15 9 -63 39h-33q-293 0 -442 209.5t-149 567.5q0 261 71.5 429.5t198 258t322.5 89.5q189 0 314.5 -84t201.5 -255t76 -438q0 -149 -27.5 -284t-92 -238.5t-194.5 -192.5zM617 160q79 0 140 55.5
t96.5 171.5t35.5 352q0 237 -34 351t-95.5 172t-142.5 58q-80 0 -141.5 -57t-95.5 -172t-34 -349q0 -239 34.5 -354.5t96 -171.5t140.5 -56z" />
    <glyph glyph-name="R" unicode="R" 
d="M137 0v1480h562q210 0 312 -106t102 -267q0 -86 -31 -166t-84.5 -144t-155.5 -120l379 -677h-341l-337 605h-110v-605h-296zM433 802h55q93 0 165.5 34t110.5 104.5t38 150.5q0 55 -21 101.5t-62 68.5t-191 22h-95v-481z" />
    <glyph glyph-name="S" unicode="S" 
d="M104 12v248q234 -95 431 -95q138 0 224 61t86 151q0 51 -28 94q-29 42 -146 106l-276 150q-134 73 -188 128t-82 121t-28 141q0 166 130.5 283t418.5 117q217 0 413 -49v-234q-212 86 -406 86q-134 0 -206.5 -44.5t-72.5 -113.5q0 -37 19 -74t117 -89l306 -164
q195 -104 268 -202q72 -98 72 -230q0 -121 -65 -223.5t-194.5 -159.5t-351.5 -57q-200 0 -441 49z" />
    <glyph glyph-name="T" unicode="T" 
d="M469 0v1283h-444v197h1184v-197h-444v-1283h-296z" />
    <glyph glyph-name="U" unicode="U" 
d="M111 1480h296v-954q0 -179 32.5 -242t80.5 -93.5t118 -30.5q105 0 171.5 71t66.5 299v950h247v-912q0 -291 -59.5 -397.5t-173 -157t-259.5 -50.5q-151 0 -267.5 52.5t-184.5 165.5t-68 346v953z" />
    <glyph glyph-name="V" unicode="V" 
d="M448 0l-435 1480h309l327 -1111l360 1111h211l-476 -1480h-296z" />
    <glyph glyph-name="W" unicode="W" 
d="M200 0l-195 1480h261l116 -938h2l167 544h195l162 -572h2l121 966h197l-197 -1480h-222l-191 710h-3l-213 -710h-202z" />
    <glyph glyph-name="X" unicode="X" 
d="M36 0l427 733l-416 747h338l273 -488l277 488h226l-392 -691l431 -789h-335l-290 528l-310 -528h-229z" />
    <glyph glyph-name="Y" unicode="Y" 
d="M462 0v626l-461 854h338l330 -611l337 611h227l-475 -854v-626h-296z" />
    <glyph glyph-name="Z" unicode="Z" 
d="M86 0v200l685 1083h-644v197h995v-197l-681 -1086h681v-197h-1036z" />
    <glyph glyph-name="bracketleft" unicode="[" 
d="M370 -296v1875h765v-197h-494v-1481h494v-197h-765z" />
    <glyph glyph-name="backslash" unicode="\" 
d="M970 -296l-955 1875h248l954 -1875h-247z" />
    <glyph glyph-name="bracketright" unicode="]" 
d="M864 1579v-1875h-765v197h493v1481h-493v197h765z" />
    <glyph glyph-name="asciicircum" unicode="^" 
d="M86 296l530 1184l531 -1184h-203l-328 733l-331 -733h-199z" />
    <glyph glyph-name="underscore" unicode="_" 
d="M0 -222v222h1234v-222h-1234z" />
    <glyph glyph-name="grave" unicode="`" 
d="M668 1283l-298 296h298l197 -296h-197z" />
    <glyph glyph-name="a" unicode="a" 
d="M742 114q-51 -69 -124 -104t-168 -35q-151 0 -257.5 93t-106.5 247q0 110 54 193.5t166 133t349 49.5h116v53q0 85 -58.5 127t-176.5 42q-160 0 -357 -93v216q120 44 226.5 59t184.5 15q140 0 243 -33t168.5 -113t65.5 -284v-368q0 -61 7.5 -78t22.5 -26t37 -9q14 0 35 5
v-197q-91 -32 -163 -32q-51 0 -94 14t-76.5 38.5t-64.5 86.5h-29zM771 316v177h-107q-179 0 -232.5 -51.5t-53.5 -111.5q0 -58 45 -96t106 -38q45 0 110 28.5t132 91.5z" />
    <glyph glyph-name="b" unicode="b" 
d="M123 0v1579h296v-493l-12 -205h12q60 100 112.5 143t106 64.5t120.5 21.5q187 0 299.5 -148.5t112.5 -394.5q0 -267 -124.5 -429.5t-335.5 -162.5q-87 0 -160 32.5t-131 96.5h-12l-37 -104h-247zM419 308q39 -42 98 -72t115 -30q65 0 115.5 37t76 122.5t25.5 196.5
q0 144 -51.5 209t-137.5 65q-63 0 -120.5 -39t-120.5 -136v-353z" />
    <glyph glyph-name="c" unicode="c" 
d="M1111 23q-65 -17 -130.5 -27t-130 -15.5t-118.5 -5.5q-292 0 -462.5 150t-170.5 415q0 251 155 410.5t466 159.5q211 0 391 -48v-219q-189 70 -357 70q-137 0 -236 -83.5t-99 -254.5q0 -112 46.5 -203t145.5 -139t216 -48q133 0 284 54v-216z" />
    <glyph glyph-name="d" unicode="d" 
d="M839 0l12 205h-12q-61 -100 -113 -143.5t-106 -65t-121 -21.5q-184 0 -297.5 148t-113.5 395q0 267 124 429.5t337 162.5q87 0 159.5 -32t130.5 -96h12l-12 104v493h296v-1579h-296zM839 777q-39 43 -97.5 73t-114.5 30q-66 0 -116 -37t-76 -122.5t-26 -196.5
q0 -144 51 -209t139 -65q64 0 121 39.5t119 134.5v353z" />
    <glyph glyph-name="e" unicode="e" 
d="M1147 45q-254 -70 -447 -70q-182 0 -320.5 67.5t-213.5 200t-75 297.5q0 159 70 295t204 205.5t295 69.5q223 0 355 -143t132 -397v-110h-734q13 -131 113 -197t244 -66q167 0 377 77v-229zM404 658h456q0 255 -215 255q-103 0 -166 -67.5t-75 -187.5z" />
    <glyph glyph-name="f" unicode="f" 
d="M411 0v864h-210v197h210v155q0 176 107 282t339 106q189 0 367 -42v-212q-189 56 -305 56q-65 0 -112 -17t-73.5 -51.5t-26.5 -124.5v-152h419v-197h-419v-864h-296z" />
    <glyph glyph-name="g" unicode="g" 
d="M195 -333l27 211q228 -90 378 -90q117 0 182.5 69.5t65.5 196.5l3 204h-12q-53 -129 -138.5 -193.5t-202.5 -64.5q-190 0 -301 154t-111 384q0 255 125 413.5t339 158.5q83 0 155.5 -30.5t133.5 -92.5h24l25 99h247v-951q0 -217 -66.5 -328.5t-178 -168.5t-252.5 -57
q-188 0 -443 86zM839 460v328q-85 70 -127 85t-90 15q-120 0 -167.5 -100.5t-47.5 -224.5q0 -135 50 -207t140 -72q70 0 130.5 44t111.5 132z" />
    <glyph glyph-name="h" unicode="h" 
d="M142 0v1579h296v-493l-12 -210h12q40 103 125 168.5t219 65.5q145 0 233.5 -90t88.5 -278v-742h-296v675q0 95 -32.5 129.5t-91.5 34.5q-70 0 -136 -48.5t-110 -115.5v-675h-296z" />
    <glyph glyph-name="i" unicode="i" 
d="M592 0v888h-395v198h691v-1086h-296zM592 1283v296h296v-296h-296z" />
    <glyph glyph-name="j" unicode="j" 
d="M123 -375v234q181 -81 313 -81q56 0 99 22t62 67.5t19 197.5v823h-394v198h691v-1005q0 -243 -60 -331t-163 -129t-228 -41q-132 0 -339 45zM616 1283v296h297v-296h-297z" />
    <glyph glyph-name="k" unicode="k" 
d="M170 0v1579h296v-968h46l343 475h242l-314 -431l431 -655h-359l-343 527h-46v-527h-296z" />
    <glyph glyph-name="l" unicode="l" 
d="M494 0v1382h-395v197h691v-1579h-296z" />
    <glyph glyph-name="m" unicode="m" 
d="M741 0h-247v722q0 79 -11.5 98t-32.5 19q-62 0 -116 -137v-702h-247v1086h247l-13 -210h13q35 98 93 166t133 68q68 0 120.5 -51.5t60.5 -182.5h12q30 101 82.5 167.5t127.5 66.5q53 0 98.5 -34t66 -99t20.5 -252v-725h-247v722q0 79 -11.5 98t-32.5 19q-62 0 -116 -137
v-702z" />
    <glyph glyph-name="n" unicode="n" 
d="M142 0v1086h296l-12 -210h12q40 103 125 168.5t219 65.5q146 0 234 -90.5t88 -277.5v-742h-296v675q0 95 -32.5 129.5t-91.5 34.5q-70 0 -136 -48.5t-110 -115.5v-675h-296z" />
    <glyph glyph-name="o" unicode="o" 
d="M616 -25q-232 0 -399.5 144.5t-167.5 423.5q0 277 167 422t400 145q234 0 401 -145t167 -422q0 -279 -167.5 -423.5t-400.5 -144.5zM616 173q113 0 180 87t67 283t-67.5 283t-179.5 87t-179 -87t-67 -283t67 -283t179 -87z" />
    <glyph glyph-name="p" unicode="p" 
d="M117 -395v1481h296l-12 -205h12q60 100 112.5 143t106 64.5t120.5 21.5q187 0 299.5 -148.5t112.5 -394.5q0 -267 -124.5 -429.5t-335.5 -162.5q-87 0 -160 32.5t-131 96.5h-12l12 -104v-395h-296zM413 308q39 -42 98 -72t115 -30q65 0 115.5 37t76 122.5t25.5 196.5
q0 144 -51.5 209t-137.5 65q-63 0 -120.5 -39t-120.5 -136v-353z" />
    <glyph glyph-name="q" unicode="q" 
d="M839 -395v395l12 205h-12q-61 -100 -113 -143.5t-106 -65t-121 -21.5q-184 0 -297.5 148t-113.5 395q0 267 124 429.5t337 162.5q87 0 159.5 -32t130.5 -96h25l24 104h247v-1481h-296zM839 777q-39 43 -98 73t-114 30q-66 0 -116 -37t-76.5 -122.5t-26.5 -196.5
q0 -143 51.5 -208.5t139.5 -65.5q64 0 120.5 39.5t119.5 134.5v353z" />
    <glyph glyph-name="r" unicode="r" 
d="M222 0v1086h296l-12 -210h12q58 95 115.5 140.5t125.5 69.5t158 24q86 0 206 -24v-444h-198v205q-36 2 -53 2q-68 0 -129.5 -23t-116 -66.5t-108.5 -128.5v-631h-296z" />
    <glyph glyph-name="s" unicode="s" 
d="M157 37v224q250 -88 397 -88q98 0 158.5 29.5t60.5 91.5q0 38 -27 62q-28 24 -78 44l-232 92q-272 108 -272 287q0 92 61 170t165 120t300 42q144 0 335 -41v-228q-202 71 -344 71q-91 0 -149 -24t-58 -70q0 -28 20.5 -48t125.5 -63l257 -105q135 -55 181 -126
q45 -72 45 -155q0 -95 -57 -174.5t-172 -126t-260 -46.5q-62 0 -155 6.5t-302 55.5z" />
    <glyph glyph-name="t" unicode="t" 
d="M1101 26q-177 -51 -312 -51q-115 0 -214 40.5t-147 110.5t-48 212v526h-234v197h234v271h296v-271h401v-197h-401v-460q0 -105 26 -140.5t70.5 -51.5t93.5 -16q118 0 235 48v-218z" />
    <glyph glyph-name="u" unicode="u" 
d="M1092 1086v-1086h-296l13 210h-13q-39 -102 -124 -168.5t-220 -66.5q-145 0 -233.5 90.5t-88.5 278.5v742h296v-676q0 -94 32.5 -128.5t92.5 -34.5q69 0 134.5 48.5t110.5 114.5v676h296z" />
    <glyph glyph-name="v" unicode="v" 
d="M477 0l-425 1086h316l309 -790l314 790h215l-433 -1086h-296z" />
    <glyph glyph-name="w" unicode="w" 
d="M192 0l-182 1086h263l103 -667h3l166 568h206l167 -572h3l103 671h200l-181 -1086h-234l-189 660h-3l-191 -660h-234z" />
    <glyph glyph-name="x" unicode="x" 
d="M67 0l390 554l-378 532h359l230 -325l236 325h246l-364 -498l407 -588h-354l-262 381l-270 -381h-240z" />
    <glyph glyph-name="y" unicode="y" 
d="M103 -395v198h124q107 0 164 36t95 123l41 93l-486 1031h327l320 -676l308 676h218l-539 -1192q-63 -139 -156 -214t-267 -75h-149z" />
    <glyph glyph-name="z" unicode="z" 
d="M118 0v222l622 666h-597v198h987v-198l-620 -666h629v-222h-1021z" />
    <glyph glyph-name="braceleft" unicode="{" 
d="M629 642q115 -40 171.5 -116.5t56.5 -163.5q0 -49 -19 -147l-21 -110l-10 -56q-5 -26 -5 -49q0 -99 170 -99h114v-197h-135q-250 0 -340.5 78t-90.5 186q0 62 20 149l35 148q14 60 14 112q0 78 -54 122t-196 44h-117v197h117q143 0 196.5 44t53.5 122q0 52 -14 112
l-35 148q-20 86 -20 149q0 108 90.5 186t340.5 78h135v-197h-114q-86 0 -114.5 -12.5t-42 -36t-13.5 -50.5q0 -24 5 -49l10 -56l21 -110q19 -98 19 -146q0 -88 -57 -164.5t-171 -115.5z" />
    <glyph glyph-name="bar" unicode="|" 
d="M506 -296v1875h222v-1875h-222z" />
    <glyph glyph-name="braceright" unicode="}" 
d="M604 642q-114 39 -171 115.5t-57 163.5q0 49 19 147l21 110l11 56q4 27 4 49q0 99 -169 99h-114v197h134q250 0 341 -77.5t91 -186.5q0 -63 -20 -149l-35 -148q-14 -60 -14 -112q0 -78 53.5 -122t195.5 -44h118v-197h-118q-141 0 -195 -44t-54 -122q0 -52 14 -112
l35 -148q20 -86 20 -149q0 -109 -91 -186.5t-341 -77.5h-134v197h114q85 0 114 12.5t42 36t13 50.5q0 25 -4 49l-11 56l-21 110q-19 98 -19 147q0 86 57 163t171 117z" />
    <glyph glyph-name="asciitilde" unicode="~" 
d="M1147 703q-6 -135 -43 -205.5t-95 -111.5t-134 -41q-63 0 -111.5 17t-153.5 70l-113 57q-62 32 -119 32q-32 0 -58.5 -16t-41.5 -45t-22 -102h-170q0 182 84 272.5t179 90.5q110 0 272 -85l89 -47q81 -43 141 -43q49 0 86 38t37 119h173z" />
    <glyph glyph-name="nonbreakingspace" unicode="&#xa0;" 
 />
    <glyph glyph-name="exclamdown" unicode="&#xa1;" 
d="M765 1086v-247h-296v247h296zM716 642l49 -741v-296h-296v296l49 741h198z" />
    <glyph glyph-name="cent" unicode="&#xa2;" 
d="M643 0v176q-255 14 -394 171.5t-139 404.5q0 155 55.5 278t167 201.5t310.5 95.5v153h160v-155q130 -9 252 -40v-216q-138 58 -252 65v-760q128 8 252 55v-202q-126 -38 -252 -47v-180h-160zM643 391v740q-113 -34 -164.5 -136t-51.5 -228q0 -118 41.5 -223t174.5 -153z
" />
    <glyph glyph-name="sterling" unicode="&#xa3;" 
d="M216 0v247q78 9 112 35t47.5 68.5t13.5 169.5v171h-161v197h161v179q0 167 46.5 257.5t136 141.5t244.5 51q102 0 227 -27v-209q-127 39 -200 39q-62 0 -110 -39t-48 -187v-206h210v-197h-210v-66q0 -100 -12.5 -160t-51.5 -110t-125 -108h565v-247h-845z" />
    <glyph glyph-name="currency" unicode="&#xa4;" 
d="M369 359l-153 -149l-139 136l153 153q-37 61 -56 121t-19 120q0 61 19 121t56 120l-153 153l139 137l153 -150q67 38 129 57t119 19q58 0 119.5 -19t127.5 -57l153 150l139 -137l-152 -153q37 -60 55.5 -120t18.5 -121q0 -60 -18.5 -120t-55.5 -121l152 -153l-139 -136
l-153 149q-66 -37 -127.5 -56t-119.5 -19t-120 19t-128 56zM617 506q87 0 157 66t70 168q0 103 -70 169t-157 66q-88 0 -158 -66t-70 -169q0 -102 70 -168t158 -66z" />
    <glyph glyph-name="yen" unicode="&#xa5;" 
d="M463 0v259h-246v160h246v161h-246v160h246l-463 740h337l334 -519l338 519h225l-474 -740h246v-160h-246v-161h246v-160h-246v-259h-297z" />
    <glyph glyph-name="brokenbar" unicode="&#xa6;" 
d="M506 -296v740h222v-740h-222zM506 839v740h222v-740h-222z" />
    <glyph glyph-name="section" unicode="&#xa7;" 
d="M217 -288v232q218 -67 367 -67q91 0 140.5 36t49.5 91q0 38 -23 71t-101 73l-155 78q-186 94 -239 171q-53 76 -53 168q0 68 24 143.5t131 201.5q-83 53 -125 121t-42 150q0 136 115.5 236t351.5 100q157 0 309 -43v-221q-121 49 -182.5 58.5t-122.5 9.5
q-107 0 -160.5 -33t-53.5 -85q0 -47 40 -82t102 -67l179 -92q153 -78 200 -162t47 -170q0 -67 -31.5 -153.5t-112.5 -181.5q102 -64 136 -131.5t34 -135.5q0 -94 -60.5 -180t-166 -127.5t-251.5 -41.5q-162 0 -347 33zM717 390q78 111 78 183q0 47 -35.5 91.5t-92.5 73.5
l-151 77q-85 -102 -85 -185q0 -29 8.5 -52t26 -42.5t99.5 -63.5z" />
    <glyph glyph-name="dieresis" unicode="&#xa8;" 
d="M321 1283v222h222v-222h-222zM691 1283v222h222v-222h-222z" />
    <glyph glyph-name="copyright" unicode="&#xa9;" 
d="M617 -37q-141 0 -270.5 78t-207 228.5t-77.5 434.5q0 357 76 504.5t205.5 228t273.5 80.5q146 0 276.5 -82t205 -229.5t74.5 -432.5q0 -357 -79.5 -507t-208.5 -226.5t-268 -76.5zM617 111q106 0 202.5 60.5t150.5 183.5t54 405q0 241 -50 359t-147 184t-210 66
q-109 0 -205.5 -63t-149 -184t-52.5 -404q0 -242 53.5 -363t150 -182.5t203.5 -61.5zM891 359q-127 -58 -234 -58q-178 0 -278.5 126t-100.5 319q0 190 100.5 315t272.5 125q101 0 240 -43v-151q-106 64 -201 64q-104 0 -147.5 -78.5t-43.5 -228.5q0 -179 57.5 -243.5
t137.5 -64.5q78 0 197 57v-139z" />
    <glyph glyph-name="ordfeminine" unicode="&#xaa;" 
d="M775 842q-97 -76 -172 -101t-144 -25q-79 0 -143.5 28.5t-101 85.5t-36.5 118q0 71 48 133t140.5 95t293.5 33h107v20q0 75 -68 101.5t-167 26.5q-163 0 -320 -64v181q179 44 362 44q160 0 245.5 -25.5t128 -84t42.5 -193.5v-194q0 -78 16.5 -101t55.5 -23q12 0 39 4
v-154q-77 -31 -154 -31q-61 0 -106 26.5t-66 99.5zM767 984l1 89h-56q-169 0 -234.5 -28t-65.5 -81q0 -33 33 -53t92 -20q60 0 117.5 23.5t112.5 69.5z" />
    <glyph glyph-name="guillemotleft" unicode="&#xab;" 
d="M510 987l158 -117l-232 -332l219 -308l-145 -119l-442 427zM1016 987l157 -117l-231 -332l219 -308l-145 -119l-442 427z" />
    <glyph glyph-name="logicalnot" unicode="&#xac;" 
d="M86 642v185h1061v-593h-185v408h-876z" />
    <glyph glyph-name="sfthyphen" unicode="&#xad;" 
d="M210 530v198h814v-198h-814z" />
    <glyph glyph-name="registered" unicode="&#xae;" 
d="M623 444q-141 0 -266 68.5t-198 197.5t-73 271q0 139 71 267t197.5 198.5t268.5 70.5q141 0 267.5 -70.5t197.5 -198.5t71 -267q0 -142 -73 -271t-198 -197.5t-265 -68.5zM623 592q102 0 191 50.5t143 141t54 197.5q0 105 -52 194.5t-142.5 141.5t-193.5 52
q-104 0 -194 -52t-142.5 -142t-52.5 -194q0 -107 54 -197.5t143.5 -141t191.5 -50.5zM394 716v547h258q103 0 140 -18t54.5 -51.5t17.5 -75.5q0 -102 -108 -173l114 -229h-190l-69 189h-33v-189h-184zM578 1016h28q23 0 49 16t26 51q0 24 -13 41.5t-66 17.5h-24v-126z" />
    <glyph glyph-name="degree" unicode="&#xb0;" 
d="M617 1172q-73 0 -123 52.5t-50 120.5q0 67 49.5 119.5t123.5 52.5q73 0 122.5 -52.5t49.5 -119.5q0 -68 -49.5 -120.5t-122.5 -52.5zM617 1264q34 0 57 24.5t23 56.5q0 31 -23 55.5t-57 24.5q-35 0 -57.5 -24.5t-22.5 -55.5q0 -32 23 -56.5t57 -24.5z" />
    <glyph glyph-name="plusminus" unicode="&#xb1;" 
d="M86 0v185h1061v-185h-1061zM524 308v284h-438v185h438v284h185v-284h438v-185h-438v-284h-185z" />
    <glyph glyph-name="twosuperior" unicode="&#xb2;" 
d="M235 740v154q66 52 228 150l111 67q83 50 120 86.5t37 71.5q0 37 -39.5 62.5t-117.5 25.5q-48 0 -116.5 -9t-222.5 -74v179q166 65 360 65q173 0 272.5 -63t99.5 -164q0 -62 -37.5 -117.5t-96.5 -90.5l-111 -66l-72 -44q-46 -28 -55.5 -36.5t-23.5 -23.5h423v-173h-759z
" />
    <glyph glyph-name="threesuperior" unicode="&#xb3;" 
d="M281 747v174q78 -22 160.5 -33.5t128.5 -11.5q91 0 136.5 19.5t45.5 58.5t-53 60t-239 21h-70v160h71q133 0 199.5 22t66.5 66q0 37 -38.5 55.5t-116.5 18.5q-135 0 -291 -43v164q149 39 321 39q174 0 265 -50t91 -136q0 -65 -53.5 -114.5t-118.5 -68.5l-43 -14l51 -10
q70 -12 132.5 -59.5t62.5 -123.5q0 -98 -97.5 -161.5t-275.5 -63.5q-156 0 -335 31z" />
    <glyph glyph-name="acute" unicode="&#xb4;" 
d="M566 1283h-197l197 296h298z" />
    <glyph glyph-name="mu" unicode="&#xb5;" 
d="M130 -296v1382h296v-643q0 -125 46 -172.5t113 -47.5q77 0 133 64t78 133v666h296v-1086h-296l13 210h-13q-26 -117 -79.5 -176t-134.5 -59q-36 0 -75 14.5t-81 43.5v-329h-296z" />
    <glyph glyph-name="paragraph" unicode="&#xb6;" 
d="M495 -296v1036q-212 53 -292 162t-80 254q0 93 33 164t107 115.5t232 44.5h518v-1776h-173v1628h-173v-1628h-172z" />
    <glyph glyph-name="cedilla" unicode="&#xb8;" 
d="M471 -366v107q83 -35 139 -35q40 0 56 15.5t16 28.5q0 27 -29.5 40.5t-88.5 13.5q-24 0 -56 -5l92 201h126l-50 -113q117 -17 153.5 -55t36.5 -83q0 -50 -48.5 -97t-165.5 -47q-76 0 -181 29z" />
    <glyph glyph-name="onesuperior" unicode="&#xb9;" 
d="M511 740v580h-160v160l382 25v-765h-222z" />
    <glyph glyph-name="ordmasculine" unicode="&#xba;" 
d="M616 716q-210 0 -333 106t-123 295t123 295t333 106q211 0 334 -106t123 -295t-123 -295t-334 -106zM616 876q90 0 156 60t66 180q0 122 -66.5 181.5t-155.5 59.5q-88 0 -155 -59.5t-67 -181.5q0 -120 66.5 -180t155.5 -60z" />
    <glyph glyph-name="guillemotright" unicode="&#xbb;" 
d="M219 111l-158 117l232 332l-220 308l146 119l442 -427zM725 111l-158 117l231 332l-219 308l146 119l441 -427z" />
    <glyph glyph-name="onequarter" unicode="&#xbc;" 
d="M43 -37l809 1554h196l-809 -1554h-196zM123 745v563h-123v172l345 37v-777zM919 0v173h-370v183l342 409h226v-444h117v-148h-117v-173h-198zM714 321h205v246z" />
    <glyph glyph-name="onehalf" unicode="&#xbd;" 
d="M12 -37l808 1554h195l-811 -1554h-192zM123 740v568h-123v172l345 37v-777h-222zM691 0v187q23 46 42.5 70.5t53.5 58.5t72 66l43 36q17 14 32 32.5t22 33.5t7 40q0 44 -26.5 71.5t-77.5 27.5q-66 0 -168 -50v172q111 32 226 32q127 0 207 -62t80 -158q0 -53 -26 -106.5
t-121 -122.5l-47 -33l-38 -27q-33 -25 -51 -40.5t-33 -54.5h346v-173h-543z" />
    <glyph glyph-name="threequarters" unicode="&#xbe;" 
d="M0 -37l1050 1554h210l-1051 -1554h-209zM9 742v160q112 -31 173 -31q58 0 81 27.5t23 58.5q0 40 -38 69.5t-158 29.5v150q123 0 166.5 25.5t43.5 66.5q0 31 -26.5 50.5t-80.5 19.5q-74 0 -184 -40v158q126 32 240 32q140 0 205 -56t65 -128q0 -47 -31.5 -99t-159.5 -104
q81 -16 119.5 -41t61.5 -61t23 -82q0 -103 -83 -165t-233 -62q-91 0 -207 22zM910 0v176h-373v173l347 412h223v-439h117v-146h-117v-176h-197zM708 322h202v239z" />
    <glyph glyph-name="questiondown" unicode="&#xbf;" 
d="M883 1086v-247h-296v247h296zM883 654v-28q0 -113 -65 -195.5t-197 -185.5l-85 -66q-66 -53 -106 -115.5t-40 -121.5q0 -74 68 -119t189 -45q113 0 236 40v194h197v-360q-235 -72 -490 -72q-273 0 -397.5 101t-124.5 234q0 86 50.5 175t205.5 191l95 63q90 59 117.5 93.5
t39 72.5t11.5 84v60h296z" />
    <glyph glyph-name="Agrave" unicode="&#xc0;" 
d="M21 0l480 1480h296l415 -1480h-307l-108 376h-446l-123 -376h-207zM410 561h338l-156 557zM692 1604l-298 296h298l197 -296h-197z" />
    <glyph glyph-name="Aacute" unicode="&#xc1;" 
d="M21 0l480 1480h296l415 -1480h-307l-108 376h-446l-123 -376h-207zM410 561h338l-156 557zM640 1604h-197l197 296h298z" />
    <glyph glyph-name="Acircumflex" unicode="&#xc2;" 
d="M21 0l480 1480h296l415 -1480h-307l-108 376h-446l-123 -376h-207zM410 561h338l-156 557zM330 1604l188 296h248l187 -296h-196l-115 149l-118 -149h-194z" />
    <glyph glyph-name="Atilde" unicode="&#xc3;" 
d="M21 0l480 1480h296l415 -1480h-307l-108 376h-446l-123 -376h-207zM410 561h338l-156 557zM333 1604q10 155 56 204t107 49q45 0 120 -24l86 -29q36 -11 52 -11q13 0 24 8t17.5 20.5t6.5 35.5h148q-10 -155 -56 -204t-107 -49q-45 0 -120 24l-87 29q-35 11 -51 11
q-13 0 -24 -8t-17.5 -20.5t-6.5 -35.5h-148z" />
    <glyph glyph-name="Adieresis" unicode="&#xc4;" 
d="M21 0l480 1480h296l415 -1480h-307l-108 376h-446l-123 -376h-207zM410 561h338l-156 557zM346 1604v222h222v-222h-222zM716 1604v222h222v-222h-222z" />
    <glyph glyph-name="Aring" unicode="&#xc5;" 
d="M735 1480h63l414 -1480h-307l-108 376h-446l-123 -376h-207l482 1480h62q-39 25 -58.5 59.5t-19.5 77.5q0 65 47.5 112.5t113.5 47.5q65 0 112.5 -47t47.5 -114q0 -38 -18 -72t-55 -64zM410 561h338l-156 557zM647 1542q31 0 52.5 22t21.5 52t-21.5 52t-52.5 22
q-30 0 -52 -22t-22 -52t22 -52t52 -22z" />
    <glyph glyph-name="AE" unicode="&#xc6;" 
d="M4 0l556 1480h589v-197h-302v-419h278v-185h-278v-482h320v-197h-567v280h-292l-104 -280h-200zM373 453h227v615z" />
    <glyph glyph-name="Ccedilla" unicode="&#xc7;" 
d="M726 -34l-36 -75q83 -7 136.5 -45t53.5 -95q0 -38 -26.5 -73.5t-80 -54t-116.5 -18.5q-81 0 -172 31v108q86 -33 139 -33q34 0 52 11.5t18 29.5q0 26 -30.5 40.5t-82.5 14.5q-23 0 -63 -5l85 176q-188 33 -308 136t-187 266t-67 361q0 219 81.5 397t239 279t438.5 101
q204 0 386 -46v-240q-232 88 -384 88q-123 0 -227.5 -66.5t-159 -211.5t-54.5 -309q0 -247 127 -403.5t320 -156.5q169 0 378 98v-227q-223 -78 -417 -78h-43z" />
    <glyph glyph-name="Egrave" unicode="&#xc8;" 
d="M168 0v1480h925v-197h-629v-419h531v-185h-531v-482h682v-197h-978zM708 1604l-298 296h298l197 -296h-197z" />
    <glyph glyph-name="Eacute" unicode="&#xc9;" 
d="M168 0v1480h925v-197h-629v-419h531v-185h-531v-482h682v-197h-978zM631 1604h-197l197 296h298z" />
    <glyph glyph-name="Ecircumflex" unicode="&#xca;" 
d="M168 0v1480h925v-197h-629v-419h531v-185h-531v-482h682v-197h-978zM345 1604l188 296h248l187 -296h-196l-115 149l-118 -149h-194z" />
    <glyph glyph-name="Edieresis" unicode="&#xcb;" 
d="M168 0v1480h925v-197h-629v-419h531v-185h-531v-482h682v-197h-978zM361 1604v222h222v-222h-222zM731 1604v222h222v-222h-222z" />
    <glyph glyph-name="Igrave" unicode="&#xcc;" 
d="M123 0v197h345v1086h-345v197h987v-197h-345v-1086h345v-197h-987zM668 1604l-298 296h298l197 -296h-197z" />
    <glyph glyph-name="Iacute" unicode="&#xcd;" 
d="M123 0v197h345v1086h-345v197h987v-197h-345v-1086h345v-197h-987zM604 1604h-197l197 296h298z" />
    <glyph glyph-name="Icircumflex" unicode="&#xce;" 
d="M123 0v197h345v1086h-345v197h987v-197h-345v-1086h345v-197h-987zM305 1604l188 296h248l187 -296h-196l-115 149l-118 -149h-194z" />
    <glyph glyph-name="Idieresis" unicode="&#xcf;" 
d="M123 0v197h345v1086h-345v197h987v-197h-345v-1086h345v-197h-987zM321 1604v222h222v-222h-222zM691 1604v222h222v-222h-222z" />
    <glyph glyph-name="Eth" unicode="&#xd0;" 
d="M86 0v691h-74v197h74v592h529q316 0 446 -180t130 -523q0 -237 -63.5 -410.5t-192.5 -270t-388 -96.5h-461zM382 197h96q204 0 296.5 122t92.5 419q0 162 -32.5 273.5t-117 191.5t-266.5 80h-69v-395h247v-197h-247v-494z" />
    <glyph glyph-name="Ntilde" unicode="&#xd1;" 
d="M111 0v1480h274l538 -955h2v955h198v-1480h-259l-553 987h-3v-987h-197zM308 1604q10 155 56 204t107 49q45 0 120 -24l86 -29q36 -11 52 -11q13 0 24 8t17.5 20.5t6.5 35.5h148q-10 -155 -56 -204t-107 -49q-45 0 -120 24l-87 29q-35 11 -51 11q-13 0 -24 -8
t-17.5 -20.5t-6.5 -35.5h-148z" />
    <glyph glyph-name="Ograve" unicode="&#xd2;" 
d="M617 -37q-295 0 -443.5 210.5t-148.5 566.5t148 566.5t444 210.5t444 -210.5t148 -566.5t-148.5 -566.5t-443.5 -210.5zM617 160q79 0 140 55.5t96.5 171.5t35.5 352q0 237 -33.5 351t-95.5 172t-143 58q-80 0 -141.5 -57.5t-95.5 -172.5t-34 -351q0 -237 34.5 -352.5
t96 -171t140.5 -55.5zM668 1604l-298 296h298l197 -296h-197z" />
    <glyph glyph-name="Oacute" unicode="&#xd3;" 
d="M617 -37q-295 0 -443.5 210.5t-148.5 566.5t148 566.5t444 210.5t444 -210.5t148 -566.5t-148.5 -566.5t-443.5 -210.5zM617 160q79 0 140 55.5t96.5 171.5t35.5 352q0 237 -33.5 351t-95.5 172t-143 58q-80 0 -141.5 -57.5t-95.5 -172.5t-34 -351q0 -237 34.5 -352.5
t96 -171t140.5 -55.5zM653 1604h-197l197 296h298z" />
    <glyph glyph-name="Ocircumflex" unicode="&#xd4;" 
d="M617 -37q-295 0 -443.5 210.5t-148.5 566.5t148 566.5t444 210.5t444 -210.5t148 -566.5t-148.5 -566.5t-443.5 -210.5zM617 160q79 0 140 55.5t96.5 171.5t35.5 352q0 237 -33.5 351t-95.5 172t-143 58q-80 0 -141.5 -57.5t-95.5 -172.5t-34 -351q0 -237 34.5 -352.5
t96 -171t140.5 -55.5zM305 1604l188 296h248l187 -296h-196l-115 149l-118 -149h-194z" />
    <glyph glyph-name="Otilde" unicode="&#xd5;" 
d="M617 -37q-295 0 -443.5 210.5t-148.5 566.5t148 566.5t444 210.5t444 -210.5t148 -566.5t-148.5 -566.5t-443.5 -210.5zM617 160q79 0 140 55.5t96.5 171.5t35.5 352q0 237 -33.5 351t-95.5 172t-143 58q-80 0 -141.5 -57.5t-95.5 -172.5t-34 -351q0 -237 34.5 -352.5
t96 -171t140.5 -55.5zM308 1604q10 155 56 204t107 49q45 0 120 -24l86 -29q36 -11 52 -11q13 0 24 8t17.5 20.5t6.5 35.5h148q-10 -155 -56 -204t-107 -49q-45 0 -120 24l-87 29q-35 11 -51 11q-13 0 -24 -8t-17.5 -20.5t-6.5 -35.5h-148z" />
    <glyph glyph-name="Odieresis" unicode="&#xd6;" 
d="M617 -37q-295 0 -443.5 210.5t-148.5 566.5t148 566.5t444 210.5t444 -210.5t148 -566.5t-148.5 -566.5t-443.5 -210.5zM617 160q79 0 140 55.5t96.5 171.5t35.5 352q0 237 -33.5 351t-95.5 172t-143 58q-80 0 -141.5 -57.5t-95.5 -172.5t-34 -351q0 -237 34.5 -352.5
t96 -171t140.5 -55.5zM321 1604v222h222v-222h-222zM691 1604v222h222v-222h-222z" />
    <glyph glyph-name="multiply" unicode="&#xd7;" 
d="M217 0l-131 129l406 401l-406 397l131 134l408 -400l406 400l116 -131l-391 -399l391 -399l-115 -132l-406 400z" />
    <glyph glyph-name="Oslash" unicode="&#xd8;" 
d="M303 44l-49 -78l-229 -1l137 225q-58 91 -86 171.5t-39.5 172.5t-11.5 189q0 275 69 441.5t196.5 259.5t335.5 93q70 0 138.5 -10t163.5 -72l51 82h232l-140 -226q68 -112 91.5 -186.5t35 -169.5t11.5 -199q0 -250 -69 -419.5t-191 -261.5t-321 -92q-59 0 -120.5 8
t-107 23t-97.5 50zM355 503l441 716q-54 70 -94.5 85.5t-80.5 15.5q-83 0 -144.5 -56t-96 -171t-34.5 -353v-70q0 -100 9 -167zM436 261q32 -42 58 -60t61.5 -29.5t66.5 -11.5q115 0 191 127t76 427q0 160 -12 261z" />
    <glyph glyph-name="Ugrave" unicode="&#xd9;" 
d="M111 1480h296v-954q0 -179 32.5 -242t80.5 -93.5t118 -30.5q105 0 171.5 71t66.5 299v950h247v-912q0 -291 -59.5 -397.5t-173 -157t-259.5 -50.5q-151 0 -267.5 52.5t-184.5 165.5t-68 346v953zM655 1604l-298 296h298l197 -296h-197z" />
    <glyph glyph-name="Uacute" unicode="&#xda;" 
d="M111 1480h296v-954q0 -179 32.5 -242t80.5 -93.5t118 -30.5q105 0 171.5 71t66.5 299v950h247v-912q0 -291 -59.5 -397.5t-173 -157t-259.5 -50.5q-151 0 -267.5 52.5t-184.5 165.5t-68 346v953zM628 1604h-197l197 296h298z" />
    <glyph glyph-name="Ucircumflex" unicode="&#xdb;" 
d="M111 1480h296v-954q0 -179 32.5 -242t80.5 -93.5t118 -30.5q105 0 171.5 71t66.5 299v950h247v-912q0 -291 -59.5 -397.5t-173 -157t-259.5 -50.5q-151 0 -267.5 52.5t-184.5 165.5t-68 346v953zM330 1604l188 296h248l187 -296h-196l-115 149l-118 -149h-194z" />
    <glyph glyph-name="Udieresis" unicode="&#xdc;" 
d="M111 1480h296v-954q0 -179 32.5 -242t80.5 -93.5t118 -30.5q105 0 171.5 71t66.5 299v950h247v-912q0 -291 -59.5 -397.5t-173 -157t-259.5 -50.5q-151 0 -267.5 52.5t-184.5 165.5t-68 346v953zM346 1604v222h222v-222h-222zM716 1604v222h222v-222h-222z" />
    <glyph glyph-name="Yacute" unicode="&#xdd;" 
d="M462 0v626l-461 854h338l330 -611l337 611h227l-475 -854v-626h-296zM671 1604h-197l197 296h298z" />
    <glyph glyph-name="Thorn" unicode="&#xde;" 
d="M148 0v1480h296v-271h277q244 0 351 -102.5t107 -295.5q0 -149 -62.5 -258.5t-191.5 -172.5t-367 -63h-114v-317h-296zM444 514h73q99 0 182.5 30.5t122.5 105.5t39 160q0 57 -22.5 104.5t-74.5 72.5t-210 25h-110v-498z" />
    <glyph glyph-name="germandbls" unicode="&#xdf;" 
d="M106 0v1007q0 268 45.5 373.5t135.5 164.5t263 59q221 0 323 -74.5t102 -192.5q0 -30 -6 -58t-21.5 -61.5t-79.5 -127.5l-40 -56q-30 -44 -36 -59.5t-6 -33.5q0 -42 47 -88l172 -166q89 -87 126.5 -168t37.5 -169q0 -153 -99 -264t-304 -111q-111 0 -241 39v232
q107 -52 151.5 -62.5t84.5 -10.5q73 0 109 43t36 90q0 19 -7 39.5t-18 38.5t-53 58l-148 144q-97 94 -121 147.5t-24 100.5q0 71 74 197l35 60q51 88 51 170q0 62 -37.5 103.5t-105.5 41.5q-49 0 -83 -20.5t-50.5 -68t-16.5 -190.5v-1127h-296z" />
    <glyph glyph-name="agrave" unicode="&#xe0;" 
d="M742 114q-51 -69 -124 -104t-168 -35q-151 0 -257.5 93t-106.5 247q0 110 54 193.5t166 133t349 49.5h116v53q0 85 -58.5 127t-176.5 42q-160 0 -357 -93v216q120 44 226.5 59t184.5 15q140 0 243 -33t168.5 -113t65.5 -284v-368q0 -61 7.5 -78t22.5 -26t37 -9q14 0 35 5
v-197q-91 -32 -163 -32q-51 0 -94 14t-76.5 38.5t-64.5 86.5h-29zM771 316v177h-107q-179 0 -232.5 -51.5t-53.5 -111.5q0 -58 45 -96t106 -38q45 0 110 28.5t132 91.5zM679 1283l-298 296h298l197 -296h-197z" />
    <glyph glyph-name="aacute" unicode="&#xe1;" 
d="M742 114q-51 -69 -124 -104t-168 -35q-151 0 -257.5 93t-106.5 247q0 110 54 193.5t166 133t349 49.5h116v53q0 85 -58.5 127t-176.5 42q-160 0 -357 -93v216q120 44 226.5 59t184.5 15q140 0 243 -33t168.5 -113t65.5 -284v-368q0 -61 7.5 -78t22.5 -26t37 -9q14 0 35 5
v-197q-91 -32 -163 -32q-51 0 -94 14t-76.5 38.5t-64.5 86.5h-29zM771 316v177h-107q-179 0 -232.5 -51.5t-53.5 -111.5q0 -58 45 -96t106 -38q45 0 110 28.5t132 91.5zM602 1283h-197l197 296h298z" />
    <glyph glyph-name="acircumflex" unicode="&#xe2;" 
d="M742 114q-51 -69 -124 -104t-168 -35q-151 0 -257.5 93t-106.5 247q0 110 54 193.5t166 133t349 49.5h116v53q0 85 -58.5 127t-176.5 42q-160 0 -357 -93v216q120 44 226.5 59t184.5 15q140 0 243 -33t168.5 -113t65.5 -284v-368q0 -61 7.5 -78t22.5 -26t37 -9q14 0 35 5
v-197q-91 -32 -163 -32q-51 0 -94 14t-76.5 38.5t-64.5 86.5h-29zM771 316v177h-107q-179 0 -232.5 -51.5t-53.5 -111.5q0 -58 45 -96t106 -38q45 0 110 28.5t132 91.5zM316 1283l188 296h248l187 -296h-196l-115 149l-118 -149h-194z" />
    <glyph glyph-name="atilde" unicode="&#xe3;" 
d="M742 114q-51 -69 -124 -104t-168 -35q-151 0 -257.5 93t-106.5 247q0 110 54 193.5t166 133t349 49.5h116v53q0 85 -58.5 127t-176.5 42q-160 0 -357 -93v216q120 44 226.5 59t184.5 15q140 0 243 -33t168.5 -113t65.5 -284v-368q0 -61 7.5 -78t22.5 -26t37 -9q14 0 35 5
v-197q-91 -32 -163 -32q-51 0 -94 14t-76.5 38.5t-64.5 86.5h-29zM771 316v177h-107q-179 0 -232.5 -51.5t-53.5 -111.5q0 -58 45 -96t106 -38q45 0 110 28.5t132 91.5zM319 1283q10 155 56 204t107 49q45 0 120 -24l86 -29q36 -11 52 -11q13 0 24 8t17.5 20.5t6.5 35.5h148
q-10 -155 -56 -204t-107 -49q-45 0 -120 24l-87 29q-35 11 -51 11q-13 0 -24 -8t-17.5 -20.5t-6.5 -35.5h-148z" />
    <glyph glyph-name="adieresis" unicode="&#xe4;" 
d="M742 114q-51 -69 -124 -104t-168 -35q-151 0 -257.5 93t-106.5 247q0 110 54 193.5t166 133t349 49.5h116v53q0 85 -58.5 127t-176.5 42q-160 0 -357 -93v216q120 44 226.5 59t184.5 15q140 0 243 -33t168.5 -113t65.5 -284v-368q0 -61 7.5 -78t22.5 -26t37 -9q14 0 35 5
v-197q-91 -32 -163 -32q-51 0 -94 14t-76.5 38.5t-64.5 86.5h-29zM771 316v177h-107q-179 0 -232.5 -51.5t-53.5 -111.5q0 -58 45 -96t106 -38q45 0 110 28.5t132 91.5zM332 1283v222h222v-222h-222zM702 1283v222h222v-222h-222z" />
    <glyph glyph-name="aring" unicode="&#xe5;" 
d="M742 114q-51 -69 -124 -104t-168 -35q-151 0 -257.5 93t-106.5 247q0 110 54 193.5t166 133t349 49.5h116v53q0 85 -58.5 127t-176.5 42q-160 0 -357 -93v216q120 44 226.5 59t184.5 15q140 0 243 -33t168.5 -113t65.5 -284v-368q0 -61 7.5 -78t22.5 -26t37 -9q14 0 35 5
v-197q-91 -32 -163 -32q-51 0 -94 14t-76.5 38.5t-64.5 86.5h-29zM771 316v177h-107q-179 0 -232.5 -51.5t-53.5 -111.5q0 -58 45 -96t106 -38q45 0 110 28.5t132 91.5zM627 1283q-66 0 -113 47t-47 113q0 67 47.5 114t112.5 47q66 0 113.5 -47t47.5 -114q0 -66 -47.5 -113
t-113.5 -47zM627 1369q31 0 52.5 22t21.5 52t-21.5 52t-52.5 22q-30 0 -52 -22t-22 -52t22 -52t52 -22z" />
    <glyph glyph-name="ae" unicode="&#xe6;" 
d="M583 135q-43 -69 -79 -98t-83 -45.5t-98 -16.5q-82 0 -147 40t-102.5 121t-37.5 171q0 146 101.5 252.5t318.5 106.5h53v76q0 122 -33.5 149t-93.5 27q-41 0 -89.5 -10t-158.5 -62v198q120 47 183.5 56.5t126.5 9.5q74 0 123.5 -16.5t101.5 -70.5q48 44 98 65.5t102 21.5
q90 0 164 -57t113 -182t39 -307v-71h-432v-24q0 -165 51 -219.5t130 -54.5q31 0 78 8t173 62v-208q-157 -82 -310 -82q-61 0 -110 15t-89.5 44t-92.5 101zM509 284v209l-35 1q-95 0 -142.5 -43t-47.5 -122q0 -63 29.5 -93.5t69.5 -30.5q30 0 57.5 16t68.5 63zM753 666h183
v47q0 70 -18 137.5t-68 67.5q-46 0 -71.5 -57t-25.5 -154v-41z" />
    <glyph glyph-name="ccedilla" unicode="&#xe7;" 
d="M1111 23q-134 -38 -336 -49l-40 -89q84 -11 117.5 -29t54 -45t20.5 -59q0 -56 -52 -101.5t-158 -45.5q-83 0 -186 26v106q88 -34 135 -34q75 0 75 45q0 54 -110 54q-28 0 -64 -5l82 181q-254 22 -402 165.5t-148 388.5q0 260 155.5 419t465.5 159q211 0 391 -48v-219
q-189 70 -357 70q-137 0 -236 -83.5t-99 -254.5q0 -112 46.5 -203t145.5 -139t216 -48q133 0 284 54v-216z" />
    <glyph glyph-name="egrave" unicode="&#xe8;" 
d="M1147 45q-254 -70 -447 -70q-182 0 -320.5 67.5t-213.5 200t-75 297.5q0 159 70 295t204 205.5t295 69.5q223 0 355 -143t132 -397v-110h-734q13 -131 113 -197t244 -66q167 0 377 77v-229zM404 658h456q0 255 -215 255q-103 0 -166 -67.5t-75 -187.5zM716 1283l-298 296
h298l197 -296h-197z" />
    <glyph glyph-name="eacute" unicode="&#xe9;" 
d="M1147 45q-254 -70 -447 -70q-182 0 -320.5 67.5t-213.5 200t-75 297.5q0 159 70 295t204 205.5t295 69.5q223 0 355 -143t132 -397v-110h-734q13 -131 113 -197t244 -66q167 0 377 77v-229zM404 658h456q0 255 -215 255q-103 0 -166 -67.5t-75 -187.5zM640 1283h-197
l197 296h298z" />
    <glyph glyph-name="ecircumflex" unicode="&#xea;" 
d="M1147 45q-254 -70 -447 -70q-182 0 -320.5 67.5t-213.5 200t-75 297.5q0 159 70 295t204 205.5t295 69.5q223 0 355 -143t132 -397v-110h-734q13 -131 113 -197t244 -66q167 0 377 77v-229zM404 658h456q0 255 -215 255q-103 0 -166 -67.5t-75 -187.5zM354 1283l188 296
h248l187 -296h-196l-115 149l-118 -149h-194z" />
    <glyph glyph-name="edieresis" unicode="&#xeb;" 
d="M1147 45q-254 -70 -447 -70q-182 0 -320.5 67.5t-213.5 200t-75 297.5q0 159 70 295t204 205.5t295 69.5q223 0 355 -143t132 -397v-110h-734q13 -131 113 -197t244 -66q167 0 377 77v-229zM404 658h456q0 255 -215 255q-103 0 -166 -67.5t-75 -187.5zM370 1283v222h222
v-222h-222zM740 1283v222h222v-222h-222z" />
    <glyph glyph-name="igrave" unicode="&#xec;" 
d="M592 0v888h-395v198h691v-1086h-296zM668 1283l-298 296h298l197 -296h-197z" />
    <glyph glyph-name="iacute" unicode="&#xed;" 
d="M592 0v888h-395v198h691v-1086h-296zM678 1283h-197l197 296h298z" />
    <glyph glyph-name="icircumflex" unicode="&#xee;" 
d="M592 0v888h-395v198h691v-1086h-296zM391 1283l188 296h248l187 -296h-196l-115 149l-118 -149h-194z" />
    <glyph glyph-name="idieresis" unicode="&#xef;" 
d="M592 0v888h-395v198h691v-1086h-296zM383 1283v222h222v-222h-222zM753 1283v222h222v-222h-222z" />
    <glyph glyph-name="eth" unicode="&#xf0;" 
d="M690 1078l-29 45q-48 58 -91 93l-175 -101l-87 149l91 54q-170 64 -363 64v197q361 0 610 -114l246 145l89 -151l-166 -97q184 -153 272.5 -334.5t88.5 -406.5q0 -283 -150 -464.5t-410 -181.5q-171 0 -299.5 70.5t-199.5 202t-71 285.5q0 153 70.5 282t196 200.5
t294.5 71.5q41 0 83 -9zM621 173q116 0 183.5 89.5t67.5 269.5q0 177 -70.5 268.5t-183.5 91.5q-111 0 -181.5 -90t-70.5 -266q0 -188 72.5 -275.5t182.5 -87.5z" />
    <glyph glyph-name="ntilde" unicode="&#xf1;" 
d="M142 0v1086h296l-12 -210h12q40 103 125 168.5t219 65.5q146 0 234 -90.5t88 -277.5v-742h-296v675q0 95 -32.5 129.5t-91.5 34.5q-70 0 -136 -48.5t-110 -115.5v-675h-296zM314 1283q10 155 56 204t107 49q45 0 120 -24l86 -29q36 -11 52 -11q13 0 24 8t17.5 20.5
t6.5 35.5h148q-10 -155 -56 -204t-107 -49q-45 0 -120 24l-87 29q-35 11 -51 11q-13 0 -24 -8t-17.5 -20.5t-6.5 -35.5h-148z" />
    <glyph glyph-name="ograve" unicode="&#xf2;" 
d="M616 -25q-232 0 -399.5 144.5t-167.5 423.5q0 277 167 422t400 145q234 0 401 -145t167 -422q0 -279 -167.5 -423.5t-400.5 -144.5zM616 173q113 0 180 87t67 283t-67.5 283t-179.5 87t-179 -87t-67 -283t67 -283t179 -87zM667 1283l-298 296h298l197 -296h-197z" />
    <glyph glyph-name="oacute" unicode="&#xf3;" 
d="M616 -25q-232 0 -399.5 144.5t-167.5 423.5q0 277 167 422t400 145q234 0 401 -145t167 -422q0 -279 -167.5 -423.5t-400.5 -144.5zM616 173q113 0 180 87t67 283t-67.5 283t-179.5 87t-179 -87t-67 -283t67 -283t179 -87zM603 1283h-197l197 296h298z" />
    <glyph glyph-name="ocircumflex" unicode="&#xf4;" 
d="M616 -25q-232 0 -399.5 144.5t-167.5 423.5q0 277 167 422t400 145q234 0 401 -145t167 -422q0 -279 -167.5 -423.5t-400.5 -144.5zM616 173q113 0 180 87t67 283t-67.5 283t-179.5 87t-179 -87t-67 -283t67 -283t179 -87zM305 1283l188 296h248l187 -296h-196l-115 149
l-118 -149h-194z" />
    <glyph glyph-name="otilde" unicode="&#xf5;" 
d="M616 -25q-232 0 -399.5 144.5t-167.5 423.5q0 277 167 422t400 145q234 0 401 -145t167 -422q0 -279 -167.5 -423.5t-400.5 -144.5zM616 173q113 0 180 87t67 283t-67.5 283t-179.5 87t-179 -87t-67 -283t67 -283t179 -87zM308 1283q10 155 56 204t107 49q45 0 120 -24
l86 -29q36 -11 52 -11q13 0 24 8t17.5 20.5t6.5 35.5h148q-10 -155 -56 -204t-107 -49q-45 0 -120 24l-87 29q-35 11 -51 11q-13 0 -24 -8t-17.5 -20.5t-6.5 -35.5h-148z" />
    <glyph glyph-name="odieresis" unicode="&#xf6;" 
d="M616 -25q-232 0 -399.5 144.5t-167.5 423.5q0 277 167 422t400 145q234 0 401 -145t167 -422q0 -279 -167.5 -423.5t-400.5 -144.5zM616 173q113 0 180 87t67 283t-67.5 283t-179.5 87t-179 -87t-67 -283t67 -283t179 -87zM321 1283v222h222v-222h-222zM691 1283v222h222
v-222h-222z" />
    <glyph glyph-name="divide" unicode="&#xf7;" 
d="M487 37v259h253v-259h-253zM86 438v185h1061v-185h-1061zM487 765v259h259v-259h-259z" />
    <glyph glyph-name="oslash" unicode="&#xf8;" 
d="M338 33l-46 -58h-248l137 176q-57 66 -82 122.5t-38.5 128t-13.5 144.5q0 261 159.5 412.5t419.5 151.5q136 0 267 -58l47 58h249l-140 -174q53 -66 78.5 -122t40 -128.5t14.5 -149.5q0 -176 -72 -299t-201.5 -192.5t-278.5 -69.5q-46 0 -97 6.5t-99.5 18t-95.5 33.5z
M483 215q63 -42 131 -42q112 0 179.5 86t67.5 303q0 72 -11 129zM382 398l365 476q-61 39 -132 39q-115 0 -181 -89.5t-66 -268.5q0 -68 14 -157z" />
    <glyph glyph-name="ugrave" unicode="&#xf9;" 
d="M1092 1086v-1086h-296l13 210h-13q-39 -102 -124 -168.5t-220 -66.5q-145 0 -233.5 90.5t-88.5 278.5v742h296v-676q0 -94 32.5 -128.5t92.5 -34.5q69 0 134.5 48.5t110.5 114.5v676h296zM661 1283l-298 296h298l197 -296h-197z" />
    <glyph glyph-name="uacute" unicode="&#xfa;" 
d="M1092 1086v-1086h-296l13 210h-13q-39 -102 -124 -168.5t-220 -66.5q-145 0 -233.5 90.5t-88.5 278.5v742h296v-676q0 -94 32.5 -128.5t92.5 -34.5q69 0 134.5 48.5t110.5 114.5v676h296zM610 1283h-197l197 296h298z" />
    <glyph glyph-name="ucircumflex" unicode="&#xfb;" 
d="M1092 1086v-1086h-296l13 210h-13q-39 -102 -124 -168.5t-220 -66.5q-145 0 -233.5 90.5t-88.5 278.5v742h296v-676q0 -94 32.5 -128.5t92.5 -34.5q69 0 134.5 48.5t110.5 114.5v676h296zM311 1283l188 296h248l187 -296h-196l-115 149l-118 -149h-194z" />
    <glyph glyph-name="udieresis" unicode="&#xfc;" 
d="M1092 1086v-1086h-296l13 210h-13q-39 -102 -124 -168.5t-220 -66.5q-145 0 -233.5 90.5t-88.5 278.5v742h296v-676q0 -94 32.5 -128.5t92.5 -34.5q69 0 134.5 48.5t110.5 114.5v676h296zM340 1283v222h222v-222h-222zM710 1283v222h222v-222h-222z" />
    <glyph glyph-name="yacute" unicode="&#xfd;" 
d="M103 -395v198h124q107 0 164 36t95 123l41 93l-486 1031h327l320 -676l308 676h218l-539 -1192q-63 -139 -156 -214t-267 -75h-149zM657 1283h-197l197 296h298z" />
    <glyph glyph-name="thorn" unicode="&#xfe;" 
d="M117 -395v1777h296v-296l-12 -205h12q60 100 112.5 143t106 64.5t120.5 21.5q187 0 299.5 -148.5t112.5 -394.5q0 -267 -124.5 -429.5t-335.5 -162.5q-87 0 -160 32.5t-131 96.5h-12l12 -104v-395h-296zM413 308q39 -42 98 -72t115 -30q65 0 115.5 37t76 122.5
t25.5 196.5q0 144 -51.5 209t-137.5 65q-63 0 -120.5 -39t-120.5 -136v-353z" />
    <glyph glyph-name="ydieresis" unicode="&#xff;" 
d="M103 -395v198h124q107 0 164 36t95 123l41 93l-486 1031h327l320 -676l308 676h218l-539 -1192q-63 -139 -156 -214t-267 -75h-149zM399 1283v222h222v-222h-222zM769 1283v222h222v-222h-222z" />
    <glyph glyph-name="dotlessi" unicode="&#x131;" 
d="M592 0v888h-395v198h691v-1086h-296z" />
    <glyph glyph-name="OE" unicode="&#x152;" 
d="M667 0q-55 -24 -86 -31t-68 -7q-204 0 -322 204t-118 580q0 373 118.5 572t322.5 199q41 0 72 -8t81 -29h537v-197h-302v-419h284v-185h-284v-482h321v-197h-556zM655 399v697q0 153 -37 192.5t-90 39.5q-105 0 -156 -136t-51 -444q0 -301 49 -442.5t161 -141.5
q42 0 72 23t41 66.5t11 145.5z" />
    <glyph glyph-name="oe" unicode="&#x153;" 
d="M657 99q-35 -55 -63.5 -77.5t-70 -34.5t-88.5 -12q-197 0 -295 167t-98 402q0 230 99 398t291 168q49 0 91.5 -11.5t75 -34.5t72.5 -78q42 55 74 77.5t72 34.5t83 12q143 0 219 -111t76 -417v-85h-408v-45q0 -131 47 -196.5t141 -65.5q109 0 220 59v-200
q-123 -74 -280 -74q-47 0 -94 13t-83 35t-81 76zM429 171q74 0 91 92.5t17 351.5q0 187 -27.5 246t-82.5 59q-61 0 -99 -78t-38 -279q0 -178 31 -285t108 -107zM787 669h164v38q0 131 -20.5 171.5t-52.5 40.5q-46 0 -68.5 -70.5t-22.5 -145.5v-34z" />
    <glyph glyph-name="Scaron" unicode="&#x160;" 
d="M104 12v248q234 -95 431 -95q138 0 224 61t86 151q0 51 -28 94q-29 42 -146 106l-276 150q-134 73 -188 128t-82 121t-28 141q0 166 130.5 283t418.5 117q217 0 413 -49v-234q-212 86 -406 86q-134 0 -206.5 -44.5t-72.5 -113.5q0 -37 19 -74t117 -89l306 -164
q195 -104 268 -202q72 -98 72 -230q0 -121 -65 -223.5t-194.5 -159.5t-351.5 -57q-200 0 -441 49zM975 1900l-188 -296h-248l-187 296h196l115 -149l118 149h194z" />
    <glyph glyph-name="scaron" unicode="&#x161;" 
d="M157 37v224q250 -88 397 -88q98 0 158.5 29.5t60.5 91.5q0 38 -27 62q-28 24 -78 44l-232 92q-272 108 -272 287q0 92 61 170t165 120t300 42q144 0 335 -41v-228q-202 71 -344 71q-91 0 -149 -24t-58 -70q0 -28 20.5 -48t125.5 -63l257 -105q135 -55 181 -126
q45 -72 45 -155q0 -95 -57 -174.5t-172 -126t-260 -46.5q-62 0 -155 6.5t-302 55.5zM987 1579l-188 -296h-248l-187 296h196l115 -149l118 149h194z" />
    <glyph glyph-name="Ydieresis" unicode="&#x178;" 
d="M462 0v626l-461 854h338l330 -611l337 611h227l-475 -854v-626h-296zM352 1604v222h222v-222h-222zM722 1604v222h222v-222h-222z" />
    <glyph glyph-name="florin" unicode="&#x192;" 
d="M184 -296l201 987h-139v197h179l19 95q42 208 108.5 316.5t163.5 163.5t249 55q52 0 130 -9v-210q-89 30 -141 30q-68 0 -115 -47t-85 -243l-29 -151h168v-197h-206l-198 -987h-305z" />
    <glyph glyph-name="circumflex" unicode="&#x2c6;" 
d="M305 1283l188 296h248l187 -296h-196l-115 149l-118 -149h-194z" />
    <glyph glyph-name="caron" unicode="&#x2c7;" 
d="M928 1579l-188 -296h-248l-187 296h196l115 -149l118 149h194z" />
    <glyph glyph-name="macron" unicode="&#x2c9;" 
d="M321 1283v197h592v-197h-592z" />
    <glyph glyph-name="breve" unicode="&#x2d8;" 
d="M308 1538h148q23 -46 62 -63.5t98 -17.5q60 0 99 17.5t62 63.5h148q-13 -72 -30 -104q-36 -66 -108 -108.5t-171 -42.5q-79 0 -142 28t-105.5 78t-60.5 149z" />
    <glyph glyph-name="dotaccent" unicode="&#x2d9;" 
d="M493 1283v247h247v-247h-247z" />
    <glyph glyph-name="ring" unicode="&#x2da;" 
d="M616 1283q-66 0 -113 47t-47 113q0 67 47.5 114t112.5 47q66 0 113.5 -47t47.5 -114q0 -66 -47.5 -113t-113.5 -47zM616 1369q31 0 52.5 22t21.5 52t-21.5 52t-52.5 22q-30 0 -52 -22t-22 -52t22 -52t52 -22z" />
    <glyph glyph-name="ogonek" unicode="&#x2db;" 
d="M794 -369q-81 -26 -160 -26q-106 0 -150.5 42.5t-44.5 103.5q0 58 44 124t124 125h145q-133 -114 -133 -204q0 -29 19.5 -57t66.5 -28q40 0 89 25v-105z" />
    <glyph glyph-name="tilde" unicode="&#x2dc;" 
d="M308 1283q10 155 56 204t107 49q45 0 120 -24l86 -29q36 -11 52 -11q13 0 24 8t17.5 20.5t6.5 35.5h148q-10 -155 -56 -204t-107 -49q-45 0 -120 24l-87 29q-35 11 -51 11q-13 0 -24 -8t-17.5 -20.5t-6.5 -35.5h-148z" />
    <glyph glyph-name="hungarumlaut" unicode="&#x2dd;" 
d="M309 1283l172 296h215l-265 -296h-122zM740 1283l172 296h215l-265 -296h-122z" />
    <glyph glyph-name="pi" unicode="&#x3c0;" 
d="M216 0v839h-20q-57 0 -111.5 -35.5t-96.5 -101.5v293q43 49 95 70t156 21h958v-247h-136v-482q0 -128 47 -208t126 -149h-317q-100 111 -126 203.5t-26 173.5v462h-253v-839h-296z" />
    <glyph glyph-name="endash" unicode="&#x2013;" 
d="M136 530v149h962v-149h-962z" />
    <glyph glyph-name="emdash" unicode="&#x2014;" 
d="M62 530v149h1110v-149h-1110z" />
    <glyph glyph-name="quoteleft" unicode="&#x2018;" 
d="M789 1579v-136q-60 -5 -86.5 -17.5t-37.5 -42.5t-11 -52v-48h135v-345h-345v279q0 150 40.5 225t108 106t196.5 31z" />
    <glyph glyph-name="quoteright" unicode="&#x2019;" 
d="M444 938v135q60 5 86.5 18t38 43t11.5 51v49h-136v345h345v-279q0 -150 -40.5 -225t-107.5 -106t-197 -31z" />
    <glyph glyph-name="quotesinglbase" unicode="&#x201a;" 
d="M444 -296v136q60 5 86.5 18t38 42.5t11.5 51.5v48h-136v345h345v-279q0 -150 -40.5 -225t-107.5 -106t-197 -31z" />
    <glyph glyph-name="quotedblleft" unicode="&#x201c;" 
d="M493 1579v-123q-86 -6 -104.5 -39t-18.5 -99v-35h123v-296h-296v259q0 153 38.5 215.5t96 87.5t161.5 30zM1036 1579v-123q-86 -6 -104.5 -39t-18.5 -99v-35h123v-296h-296v259q0 153 38.5 215.5t96 87t161.5 30.5z" />
    <glyph glyph-name="quotedblright" unicode="&#x201d;" 
d="M197 987v123q88 7 105.5 40t17.5 98v35h-123v296h296v-259q0 -153 -38.5 -215.5t-96 -87t-161.5 -30.5zM740 987v123q86 7 104.5 39.5t18.5 98.5v35h-123v296h296v-259q0 -153 -38.5 -215.5t-96 -87t-161.5 -30.5z" />
    <glyph glyph-name="quotedblbase" unicode="&#x201e;" 
d="M197 -296v123q83 7 103 39t20 99v35h-123v296h296v-259q0 -153 -38.5 -215.5t-95.5 -87t-162 -30.5zM740 -296v123q88 7 105.5 40t17.5 98v35h-123v296h296v-259q0 -153 -38.5 -215.5t-95.5 -87t-162 -30.5z" />
    <glyph glyph-name="dagger" unicode="&#x2020;" 
d="M468 -296l25 1086l-296 -25v247l296 -25l-25 493h297l-25 -493l296 25v-247l-296 25l25 -1086h-297z" />
    <glyph glyph-name="daggerdbl" unicode="&#x2021;" 
d="M468 -296l25 493l-296 -24v246l296 -24v395l-296 -25v247l296 -25l-25 493h297l-25 -493l296 25v-247l-296 25v-395l296 24v-246l-296 24l25 -493h-297z" />
    <glyph glyph-name="bullet" unicode="&#x2022;" 
d="M617 364q-90 0 -156 65.5t-66 156.5q0 92 66 157t156 65t156 -65t66 -157q0 -91 -66 -156.5t-156 -65.5z" />
    <glyph glyph-name="ellipsis" unicode="&#x2026;" 
d="M95 0v222h222v-222h-222zM506 0v222h222v-222h-222zM917 0v222h223v-222h-223z" />
    <glyph glyph-name="perthousand" unicode="&#x2030;" 
d="M1 -37l676 1554h135l-679 -1554h-132zM209 839q-61 0 -104 26.5t-68 87.5t-25 195q0 158 24 217.5t67 87t106 27.5q62 0 105 -27t68 -87.5t25 -194.5q0 -158 -24.5 -217t-67 -87t-106.5 -28zM209 962q36 0 43 38.5t7 158.5q0 117 -5.5 156.5t-42.5 41.5q-35 3 -43 -32
q-8 -36 -8 -165q0 -120 7 -159t42 -39zM598 0q-61 0 -104 26.5t-68 87.5t-25 195q0 158 24 217.5t67 87.5t106 28q61 0 104.5 -27.5t68 -88t24.5 -194.5q0 -158 -24 -217t-67 -87t-106 -28zM598 123q36 0 42.5 38.5t6.5 158.5q0 118 -5 157t-42 41q-35 3 -43 -32
q-8 -36 -8 -165q0 -120 6.5 -159t42.5 -39zM1036 0q-61 0 -104 26.5t-68.5 87.5t-25.5 195q0 158 24.5 217.5t67.5 87.5t106 28q61 0 104.5 -27.5t68 -88t24.5 -194.5q0 -158 -24 -217t-67 -87t-106 -28zM1036 123q36 0 42.5 38.5t6.5 158.5q0 118 -5 157t-42 41
q-35 3 -43 -32q-8 -36 -8 -165q0 -120 6.5 -159t42.5 -39z" />
    <glyph glyph-name="guilsinglleft" unicode="&#x2039;" 
d="M767 987l158 -117l-232 -332l219 -308l-145 -119l-442 427z" />
    <glyph glyph-name="guilsinglright" unicode="&#x203a;" 
d="M468 111l-158 117l232 332l-220 308l146 119l442 -427z" />
    <glyph glyph-name="Euro" unicode="&#x20ac;" 
d="M446 479q47 -145 144 -226t217 -81q156 0 330 123v-227q-207 -105 -394 -105q-76 0 -147 15.5t-133.5 46t-116.5 74.5t-97.5 101t-85.5 146.5t-42 126.5v6h-133l39 199h63v119l2 6h-104l39 198h94q169 517 672 517q196 0 344 -70v-242q-186 115 -338 115
q-246 0 -353 -320h519l-39 -198h-514q-2 -21 -2 -66v-59h495l-39 -199h-420z" />
    <glyph glyph-name="trademark" unicode="&#x2122;" 
d="M173 740v592h-173v148h751l135 -358l134 358h214v-740h-192v490l-135 -368h-109l-119 316v-438h-136v592h-173v-592h-197z" />
    <glyph glyph-name="Omega" unicode="&#x2126;" 
d="M542 197v-197h-530v197h340q-129 150 -229 330t-100 383q0 260 158.5 433.5t434.5 173.5t435 -172.5t159 -436.5q0 -200 -99.5 -380t-229.5 -331h340v-197h-531v197q117 151 184.5 298.5t67.5 360.5q0 243 -94 366t-232 123q-137 0 -231 -122.5t-94 -369.5
q0 -209 67.5 -356.5t183.5 -299.5z" />
    <glyph glyph-name="partialdiff" unicode="&#x2202;" 
d="M166 1275q71 141 133.5 203.5t140.5 94t164 31.5q224 0 351 -184t127 -481q0 -248 -90.5 -487t-230 -358t-314.5 -119q-97 0 -168.5 41t-108.5 124t-37 181q0 172 83.5 344.5t211.5 277t258 104.5q40 0 85.5 -11t123.5 -66v33q0 101 -53.5 206t-142 147.5t-192.5 42.5
q-54 0 -108 -12t-103.5 -34.5t-129.5 -77.5zM883 770q-31 36 -71 53.5t-69 17.5q-69 0 -135.5 -62.5t-115 -197t-48.5 -239.5q0 -60 26 -97t70 -37q105 0 206.5 155.5t136.5 406.5z" />
    <glyph glyph-name="Delta" unicode="&#x2206;" 
d="M25 0v247l475 1233h271l438 -1233v-247h-1184zM210 247h709l-337 964z" />
    <glyph glyph-name="Pi" unicode="&#x220f;" 
d="M124 0v1283h-99v197h1184v-197h-98v-1283h-296v1283h-395v-1283h-296z" />
    <glyph glyph-name="Sigma" unicode="&#x2211;" 
d="M51 0v247l573 474l-499 562v197h1036v-197h-641l467 -521l-628 -515h852v-247h-1160z" />
    <glyph glyph-name="fraction" unicode="&#x2215;" 
d="M0 -37l1025 1554h209l-1026 -1554h-208z" />
    <glyph glyph-name="periodcentered" unicode="&#x2219;" 
d="M481 395v271h271v-271h-271z" />
    <glyph glyph-name="radical" unicode="&#x221a;" 
d="M482 -296l-243 674l-176 -62l-63 174l384 137l218 -597l438 1599h194l-530 -1925h-222z" />
    <glyph glyph-name="infinity" unicode="&#x221e;" 
d="M607 322q-60 -114 -142 -175t-167 -61q-126 0 -199.5 120.5t-73.5 323.5q0 209 81.5 327t208.5 118q90 0 167.5 -62.5t129.5 -150.5l17 -29q85 147 162 194.5t150 47.5q115 0 192 -120t77 -333q0 -201 -81 -318.5t-206 -117.5q-54 0 -110 24.5t-106 78t-76 96.5zM495 536
l-24 36q-33 51 -77 104t-79 51q-43 -3 -65.5 -61.5t-22.5 -139.5q0 -103 27.5 -158t72.5 -55q39 0 84.5 73t83.5 150zM742 521l22 -32q71 -105 102.5 -132t58.5 -27q30 0 58 46t28 163q0 92 -27 149q-27 56 -71 54q-41 -2 -76 -54.5t-63 -105.5z" />
    <glyph glyph-name="integral" unicode="&#x222b;" 
d="M825 1347q-44 -20 -63.5 -44t-29 -61t-9.5 -75q0 -46 8 -118q23 -211 32 -352l12 -197q13 -207 -32 -405.5t-139.5 -294.5t-214.5 -96q-85 0 -142 52t-57 125q0 54 33.5 99t87.5 45q44 0 77.5 -29t33.5 -76q0 -11 -3.5 -24t-11.5 -28q50 17 66 39t25 63t9 80q0 47 -8 125
q-30 310 -30 378l-3 196q0 325 48 468.5t137 222t194 78.5q84 0 142 -54.5t58 -128.5q0 -58 -30.5 -104.5t-92.5 -46.5q-50 0 -79 30t-29 73q0 10 3 25t8 35z" />
    <glyph glyph-name="approxequal" unicode="&#x2248;" 
d="M1147 456q-6 -135 -43 -205.5t-95 -111t-134 -40.5q-53 0 -99.5 13t-165.5 73l-113 57q-62 32 -119 32q-32 0 -58.5 -16t-41.5 -45t-22 -102h-170q0 182 84 272.5t179 90.5q110 0 272 -85l89 -47q81 -43 141 -43q50 0 86.5 38t36.5 119h173zM1147 945q-6 -136 -43 -206
t-95 -111t-134 -41q-53 0 -98.5 13t-166.5 74l-113 57q-63 31 -119 31q-32 0 -58.5 -15.5t-41.5 -45t-22 -102.5h-170q0 182 83.5 272.5t179.5 90.5q110 0 272 -85l89 -47q81 -42 141 -42q50 0 86.5 37.5t36.5 119.5h173z" />
    <glyph glyph-name="notequal" unicode="&#x2260;" 
d="M86 642v185h596l92 172h210l-94 -172h257v-185h-358l-124 -223h482v-185h-585l-92 -172h-210l93 172h-267v185h368l125 223h-493z" />
    <glyph glyph-name="lessequal" unicode="&#x2264;" 
d="M1147 1209v-213l-642 -317l642 -325v-206l-1061 531zM1147 0v-185h-1061v185h1061z" />
    <glyph glyph-name="greaterequal" unicode="&#x2265;" 
d="M86 148v213l642 318l-642 324v206l1061 -530zM86 0h1061v-185h-1061v185z" />
    <glyph glyph-name="lozenge" unicode="&#x25ca;" 
d="M617 0l-592 592l592 592l592 -592zM617 258l335 334l-335 324l-332 -324z" />
    <glyph glyph-name="fi" unicode="&#xf001;" 
d="M191 0v864h-123v197h123v127q0 152 46 235.5t132.5 132t196.5 48.5q62 0 166 -18v-209q-74 29 -123 29q-73 0 -109.5 -39t-36.5 -118v-188h617v-1061h-272v864h-345v-864h-272zM833 1308v271h247v-271h-247z" />
    <glyph glyph-name="fl" unicode="&#xf002;" 
d="M222 0v864h-123v197h123v96q0 162 41 251t131.5 142.5t242.5 53.5q36 0 84.5 -6t109.5 -19h280v-1579h-272v1368q-51 20 -99.5 29.5t-93.5 9.5q-67 0 -109.5 -35t-42.5 -150v-161h259v-197h-259v-864h-272z" />
  </font>
</defs>
</svg>
