<?xml version="1.0" standalone="no"?>
<!DOCTYPE svg PUBLIC "-//W3C//DTD SVG 1.1//EN" "http://www.w3.org/Graphics/SVG/1.1/DTD/svg11.dtd" >
<svg>
<metadata>
Created by FontForge 20110222 at Thu May 23 06:25:18 2013
 By Orthosie Webhosting
(c) 1991 Bigelow &#38; Holmes Inc. Pat. 289,422. All Rights Reserved. (c) 1990-1991 Type Solutions, Inc. All Rights Reserved.
</metadata>
<defs>
<font id="LucidaFaxDemibold" horiz-adv-x="1357" >
  <font-face 
    font-family="LucidaFaxDemibold"
    font-weight="600"
    font-stretch="normal"
    units-per-em="2048"
    panose-1="2 6 7 2 5 5 5 3 2 4"
    ascent="1638"
    descent="-410"
    x-height="1098"
    cap-height="1480"
    bbox="-617 -420 2388 1900"
    underline-thickness="100"
    underline-position="-150"
    unicode-range="U+0020-F002"
  />
<missing-glyph horiz-adv-x="748" 
d="M68 0v1365h544v-1365h-544zM136 68h408v1229h-408v-1229z" />
    <glyph glyph-name=".notdef" horiz-adv-x="748" 
d="M68 0v1365h544v-1365h-544zM136 68h408v1229h-408v-1229z" />
    <glyph glyph-name="glyph1" horiz-adv-x="0" 
 />
    <glyph glyph-name="glyph2" 
 />
    <glyph glyph-name="space" unicode=" " horiz-adv-x="679" 
 />
    <glyph glyph-name="exclam" unicode="!" horiz-adv-x="641" 
d="M173 0v247h296v-247h-296zM247 419l-74 765v296h296v-296l-74 -765h-148z" />
    <glyph glyph-name="quotedbl" unicode="&#x22;" horiz-adv-x="987" 
d="M197 987l-74 592h296l-74 -592h-148zM641 987l-74 592h296l-74 -592h-148z" />
    <glyph glyph-name="numbersign" unicode="#" 
d="M209 0l107 426h-274l29 148h282l83 333h-298l29 148h306l107 425h152l-106 -425h262l106 425h153l-106 -425h273l-29 -148h-282l-83 -333h299l-30 -148h-306l-106 -426h-153l107 426h-263l-106 -426h-153zM505 574h263l83 333h-262z" />
    <glyph glyph-name="dollar" unicode="$" 
d="M619 -160v163q-241 16 -415 77v259h160v-94q118 -74 255 -93v506l-41 27q-189 123 -257.5 213t-68.5 215q0 148 100 248t267 118v162h148v-163q173 -10 339 -67v-238h-160v94q-80 52 -179 63v-468l99 -61q281 -176 281 -393q0 -161 -106.5 -274.5t-273.5 -130.5v-163
h-148zM742 157q158 56 158 204q0 61 -39.5 115t-118.5 100v-419zM644 944v382q-148 -33 -148 -178q0 -52 37 -103t111 -101z" />
    <glyph glyph-name="percent" unicode="%" horiz-adv-x="1641" 
d="M69 -37l1268 1554h239l-1281 -1554h-226zM420 740q-179 0 -268.5 92.5t-89.5 277.5t89.5 277.5t268.5 92.5t268.5 -92.5t89.5 -277.5t-89.5 -277.5t-268.5 -92.5zM420 864q68 0 101.5 61.5t33.5 184.5q0 124 -33.5 185.5t-101.5 61.5t-102 -61.5t-34 -185.5
q0 -123 34 -184.5t102 -61.5zM1222 0q-179 0 -268.5 92.5t-89.5 277.5t89.5 277.5t268.5 92.5t268 -92.5t89 -277.5t-89 -277.5t-268 -92.5zM1222 123q68 0 101.5 62t33.5 185q0 124 -33.5 185.5t-101.5 61.5t-102 -61.5t-34 -185.5q0 -123 34 -185t102 -62z" />
    <glyph glyph-name="ampersand" unicode="&#x26;" horiz-adv-x="1597" 
d="M1083 0q-32 26 -77 83q-182 -120 -381 -120q-238 0 -397 136t-159 339q0 309 378 441q-118 180 -118 307q0 140 113 235.5t278 95.5q183 0 294 -86.5t111 -229.5q0 -120 -80.5 -202.5t-269.5 -157.5q189 -301 331 -473q104 93 104 310h-99v149h420v-148h-111
q-36 -242 -223 -422l87 -109h137v-148h-338zM703 957q174 93 174 254q0 76 -34 114t-102 38q-71 0 -106.5 -37t-35.5 -112q0 -110 104 -257zM922 188q-162 189 -401 572q-170 -89 -170 -262q0 -148 111.5 -256.5t262.5 -108.5q103 0 197 55z" />
    <glyph glyph-name="quotesingle" unicode="'" horiz-adv-x="567" 
d="M209 962l-86 617h321l-87 -617h-148z" />
    <glyph glyph-name="parenleft" unicode="(" horiz-adv-x="743" 
d="M633 -160v-149q-243 132 -388.5 391.5t-145.5 560.5q0 296 147 557.5t387 390.5v-148q-238 -232 -238 -801t238 -802z" />
    <glyph glyph-name="parenright" unicode=")" horiz-adv-x="743" 
d="M111 1443v148q243 -131 388.5 -390.5t145.5 -560.5q0 -296 -147.5 -557.5t-386.5 -391.5v149q237 233 237 802q0 568 -237 801z" />
    <glyph glyph-name="asterisk" unicode="*" horiz-adv-x="987" 
d="M394 1078l-295 26l68 210l256 -148q-29 -34 -29 -76v-12zM448 1189l-65 291h222l-63 -291q-28 11 -48 11t-46 -11zM596 1078q2 15 2 24q0 31 -26 66l250 146l67 -210zM512 994q46 7 76 53l222 -196l-180 -123zM480 993l-118 -265l-180 123l222 198q23 -43 76 -56z" />
    <glyph glyph-name="plus" unicode="+" 
d="M586 49v451h-450v185h450v450h185v-450h451v-185h-451v-451h-185z" />
    <glyph glyph-name="comma" unicode="," horiz-adv-x="666" 
d="M173 -296v111q107 10 123 185h-123v321h321v-248q0 -343 -321 -369z" />
    <glyph glyph-name="hyphen" unicode="-" horiz-adv-x="666" 
d="M99 534v185h469v-185h-469z" />
    <glyph glyph-name="period" unicode="." horiz-adv-x="666" 
d="M173 0v321h321v-321h-321z" />
    <glyph glyph-name="slash" unicode="/" horiz-adv-x="1153" 
d="M12 -296l909 1875h220l-910 -1875h-219z" />
    <glyph glyph-name="zero" unicode="0" 
d="M679 -37q-257 0 -415.5 214.5t-158.5 560.5q0 349 158.5 564t415.5 215t415 -215t158 -564q0 -346 -158.5 -560.5t-414.5 -214.5zM679 111q130 0 194.5 157.5t64.5 471.5q0 315 -65.5 472t-196.5 157q-128 0 -192 -157t-64 -472q0 -314 65 -471.5t194 -157.5z" />
    <glyph glyph-name="one" unicode="1" 
d="M851 1493v-1345h247v-148h-790v148h247v1135l-247 -49v148z" />
    <glyph glyph-name="two" unicode="2" 
d="M154 0v148q74 184 292 391l116 110q152 144 211.5 243.5t59.5 210.5q0 122 -66.5 194t-179.5 72q-65 0 -124 -19t-112 -58l-12 -132h-160v271q115 43 230 64.5t230 21.5q229 0 368.5 -111.5t139.5 -293.5q0 -134 -65.5 -231.5t-236.5 -218.5l-108 -76
q-265 -186 -279 -339h684v-247h-988z" />
    <glyph glyph-name="three" unicode="3" 
d="M191 20v253h160l13 -111q55 -25 110 -38t110 -13q124 0 201 78.5t77 205.5q0 152 -107 233t-308 81h-108v148h86q198 0 297 70.5t99 211.5q0 115 -62 172.5t-186 57.5q-48 0 -96.5 -11.5t-97.5 -34.5l-12 -111h-161v235q96 36 204.5 53.5t228.5 17.5q225 0 353.5 -93
t128.5 -256q0 -137 -83 -230t-250 -142q191 -40 286.5 -141t95.5 -263q0 -199 -151.5 -314.5t-411.5 -115.5q-124 0 -228 14.5t-188 42.5z" />
    <glyph glyph-name="four" unicode="4" 
d="M796 401h-697v166l732 935h218v-904h173v-197h-173v-253h148v-148h-549v148h148v253zM310 598h486v620z" />
    <glyph glyph-name="five" unicode="5" 
d="M234 12v247h160l13 -111q117 -33 171 -33q108 0 180.5 87t72.5 216q0 169 -122 259t-349 90h-86v713h845v-228h-672v-336h29q317 0 494 -130.5t177 -363.5q0 -212 -153.5 -335.5t-416.5 -123.5q-118 0 -343 49z" />
    <glyph glyph-name="six" unicode="6" 
d="M438 783q65 85 153.5 127.5t199.5 42.5q198 0 328 -131t130 -330q0 -229 -152 -379t-383 -150q-277 0 -431 196t-154 547q0 380 175.5 595.5t484.5 215.5q79 0 177 -15t215 -46v-253h-161l-12 111q-51 28 -104 41.5t-108 13.5q-156 0 -257.5 -151t-101.5 -385zM447 527
q0 -185 76 -302t196 -117q109 0 171.5 87t62.5 239q0 173 -66.5 271.5t-182.5 98.5q-113 0 -185 -77.5t-72 -199.5z" />
    <glyph glyph-name="seven" unicode="7" 
d="M274 0q46 243 169.5 460.5t532.5 773.5h-754v246h1012v-188q-598 -729 -627 -1292h-333z" />
    <glyph glyph-name="eight" unicode="8" 
d="M434 789q-218 153 -218 347q0 168 135.5 275t350.5 107q207 0 331 -91t124 -243q0 -219 -270 -356q338 -185 338 -429q0 -193 -153.5 -314.5t-396.5 -121.5q-247 0 -393 108.5t-146 292.5q0 131 80 245t218 180zM759 898q145 117 145 269q0 89 -63 145.5t-162 56.5
q-92 0 -151 -52t-59 -134q0 -124 228 -251zM552 709q-135 -133 -135 -310q0 -125 78.5 -206.5t198.5 -81.5q113 0 188 66.5t75 167.5q0 89 -57.5 147.5t-246.5 161.5z" />
    <glyph glyph-name="nine" unicode="9" 
d="M931 697q-65 -85 -153.5 -127.5t-200.5 -42.5q-198 0 -327.5 131t-129.5 331q0 229 151.5 378.5t383.5 149.5q276 0 430.5 -196t154.5 -548q0 -378 -176 -594t-485 -216q-79 0 -176.5 15.5t-214.5 46.5v253h160l13 -112q52 -27 105 -41t106 -14q157 0 258 151t101 385v50
zM922 954q0 184 -76 301.5t-196 117.5q-109 0 -171.5 -87.5t-62.5 -239.5q0 -173 66 -271t182 -98q114 0 186 77.5t72 199.5z" />
    <glyph glyph-name="colon" unicode=":" horiz-adv-x="666" 
d="M173 0v321h321v-321h-321zM173 802v321h321v-321h-321z" />
    <glyph glyph-name="semicolon" unicode=";" horiz-adv-x="666" 
d="M173 802v321h321v-321h-321zM173 -296v111q107 10 123 185h-123v321h321v-248q0 -343 -321 -369z" />
    <glyph glyph-name="less" unicode="&#x3c;" 
d="M1222 49l-1086 541l1086 545v-211l-672 -334l672 -332v-209z" />
    <glyph glyph-name="equal" unicode="=" 
d="M136 290v185h1086v-185h-1086zM136 697v185h1086v-185h-1086z" />
    <glyph glyph-name="greater" unicode="&#x3e;" 
d="M136 1135l1086 -541l-1086 -545v211l672 334l-672 333v208z" />
    <glyph glyph-name="question" unicode="?" horiz-adv-x="1098" 
d="M321 0v247h296v-247h-296zM321 419v13q0 160 147 303l50 49q173 168 173 346q0 110 -63.5 174.5t-172.5 64.5q-51 0 -97.5 -13.5t-88.5 -41.5l-13 -136h-160v272q89 34 191 51t217 17q232 0 367 -92t135 -249q0 -154 -165 -298l-65 -56q-112 -98 -135.5 -156t-23.5 -235
v-13h-296z" />
    <glyph glyph-name="at" unicode="@" horiz-adv-x="1752" 
d="M1156 46q-196 -83 -354 -83q-282 0 -465.5 174t-183.5 441q0 347 256 631q279 308 680 308q281 0 468 -177.5t187 -444.5q0 -251 -153 -425t-374 -174q-164 0 -164 110q0 25 14 81.5t41 144.5h-37q-106 -168 -203 -252t-186 -84q-87 0 -131 56.5t-44 168.5q0 246 164 447
t364 201q28 0 72.5 -9t105.5 -27h129l-105 -522q-5 -29 -8 -55t-3 -49q0 -72 74 -72q125 0 223 139.5t98 317.5q0 212 -154.5 357t-381.5 145q-320 0 -564.5 -244t-244.5 -564q0 -220 148 -360t380 -140q143 0 309 73zM1102 814l40 204q-40 23 -79.5 34.5t-78.5 11.5
q-124 0 -212.5 -142.5t-88.5 -342.5q0 -66 20.5 -99t60.5 -33q57 0 153 104.5t185 262.5z" />
    <glyph glyph-name="A" unicode="A" horiz-adv-x="1559" 
d="M414 429l-111 -281h148v-148h-400v148h87l533 1351h232l534 -1351h86v-148h-552v148h148l-111 281h-594zM475 583h472l-237 595z" />
    <glyph glyph-name="B" unicode="B" horiz-adv-x="1323" 
d="M817 768q205 -40 307.5 -140t102.5 -259q0 -184 -122.5 -276.5t-368.5 -92.5h-656v148h148v1184h-148v148h657q205 0 317 -86t112 -243q0 -129 -87 -224.5t-262 -158.5zM506 148h67q186 0 267.5 58.5t81.5 190.5q0 129 -99.5 211.5t-257.5 82.5h-59v-543zM506 833h61
q152 0 227.5 68t75.5 204q0 124 -68.5 175.5t-231.5 51.5h-64v-499z" />
    <glyph glyph-name="C" unicode="C" horiz-adv-x="1487" 
d="M1373 59q-225 -96 -488 -96q-371 0 -578.5 205.5t-207.5 573.5q0 370 202.5 572.5t573.5 202.5q114 0 235 -16t250 -48v-310h-160l-16 148q-76 39 -152.5 58.5t-153.5 19.5q-211 0 -331.5 -167t-120.5 -460q0 -284 139 -450t376 -166q222 0 432 109v-176z" />
    <glyph glyph-name="D" unicode="D" horiz-adv-x="1656" 
d="M80 0v148h148v1184h-148v148h731q352 0 549.5 -188.5t197.5 -524.5q0 -349 -191.5 -558t-511.5 -209h-775zM536 160h171q262 0 393 152.5t131 456.5q0 282 -136 422.5t-408 140.5h-151v-1172z" />
    <glyph glyph-name="E" unicode="E" horiz-adv-x="1268" 
d="M1200 0h-1120v148h148v1184h-148v148h1073v-296h-160v148h-457v-493h309v99h148v-346h-148v99h-309v-531h503v161h161v-321z" />
    <glyph glyph-name="F" unicode="F" horiz-adv-x="1230" 
d="M536 660v-512h173v-148h-629v148h148v1184h-148v148h1073v-296h-160v148h-457v-524h309v99h148v-346h-148v99h-309z" />
    <glyph glyph-name="G" unicode="G" horiz-adv-x="1570" 
d="M1361 31q-305 -68 -502 -68q-350 0 -555 210t-205 569q0 369 202.5 572t571.5 203q131 0 256 -15.5t245 -47.5v-314h-168l-12 148q-82 41 -161.5 61t-157.5 20q-210 0 -329.5 -168.5t-119.5 -464.5q0 -290 133 -456.5t365 -166.5q64 0 128 23v385h-148v148h568v-148h-111
v-490z" />
    <glyph glyph-name="H" unicode="H" horiz-adv-x="1672" 
d="M536 697v-549h148v-148h-604v148h148v1184h-148v148h604v-148h-148v-487h599v487h-148v148h604v-148h-148v-1184h148v-148h-604v148h148v549h-599z" />
    <glyph glyph-name="I" unicode="I" horiz-adv-x="765" 
d="M536 1332v-1184h148v-148h-604v148h148v1184h-148v148h604v-148h-148z" />
    <glyph glyph-name="J" unicode="J" horiz-adv-x="962" 
d="M0 -262v250h173v-105q59 -31 116 -31q83 0 116 61t33 217v1202h-173v148h629v-148h-148v-1096q0 -287 -111 -409.5t-370 -122.5q-127 0 -265 34z" />
    <glyph glyph-name="K" unicode="K" horiz-adv-x="1514" 
d="M80 0v148h148v1184h-148v148h567v-148h-123l2 -562l525 562h-123v148h424v-148h-99l-463 -496l568 -688h112v-148h-562v148h98l-482 581v-581h123v-148h-567z" />
    <glyph glyph-name="L" unicode="L" horiz-adv-x="1246" 
d="M1206 0h-1126v148h148v1184h-148v148h604v-148h-148v-1172h509v161h161v-321z" />
    <glyph glyph-name="M" unicode="M" horiz-adv-x="1881" 
d="M228 148v1184h-148v148h466l414 -977l421 977h413v-148h-148v-1184h148v-148h-543v148h124l-2 940l-400 -928h-147l-394 938v-950h129v-148h-481v148h148z" />
    <glyph glyph-name="N" unicode="N" horiz-adv-x="1607" 
d="M1166 -15l-734 1048v-885h148v-148h-500v148h148v1184h-148v148h360l735 -1057v909h-148v148h500v-148h-149v-1347h-212z" />
    <glyph glyph-name="O" unicode="O" horiz-adv-x="1684" 
d="M842 -37q-345 0 -544 208t-199 569t199 569t544 208t544.5 -208t199.5 -569t-199.5 -569t-544.5 -208zM842 111q189 0 303 172.5t114 456.5q0 285 -114 457t-303 172q-188 0 -302 -172t-114 -457t114 -457t302 -172z" />
    <glyph glyph-name="P" unicode="P" horiz-adv-x="1292" 
d="M524 608v-460h161v-148h-605v148h148v1184h-148v148h643q237 0 367.5 -103t130.5 -289q0 -236 -158 -358t-463 -122h-76zM524 756h49q173 0 259.5 82.5t86.5 247.5q0 123 -74 184.5t-223 61.5h-98v-576z" />
    <glyph glyph-name="Q" unicode="Q" horiz-adv-x="1684" 
d="M957 -29q-76 -8 -127 -8q-335 0 -533 210.5t-198 566.5q0 361 199 569t544 208t544.5 -208t199.5 -569q0 -266 -105.5 -445.5t-317.5 -272.5q264 -104 682 -149l-251 -177q-330 64 -637 275zM1259 740q0 284 -114.5 456.5t-302.5 172.5t-302 -172t-114 -457
q0 -284 114 -456.5t302 -172.5t302.5 172.5t114.5 456.5z" />
    <glyph glyph-name="R" unicode="R" horiz-adv-x="1470" 
d="M524 632v-484h124v-148h-568v148h148v1184h-148v148h638q239 0 368 -96.5t129 -274.5q0 -151 -71.5 -256t-215.5 -163l390 -542h99v-148h-380l-399 632h-114zM524 774h52q169 0 253 79.5t84 238.5q0 120 -72.5 180t-217.5 60h-99v-558z" />
    <glyph glyph-name="S" unicode="S" horiz-adv-x="1169" 
d="M108 22v328h173v-154q74 -45 139.5 -68t122.5 -23q111 0 179 60.5t68 158.5q0 93 -43 151q-44 57 -167 125l-99 54q-201 111 -286 215q-85 103 -85 235q0 182 132 297.5t340 115.5q109 0 216.5 -15t213.5 -46v-300h-173v142q-63 39 -122 58.5t-115 19.5q-85 0 -144.5 -60
t-59.5 -146q0 -70 43 -120q43 -51 162 -119l100 -58q216 -124 298 -224q82 -101 82 -240q0 -203 -151 -324.5t-402 -121.5q-93 0 -198.5 15t-223.5 44z" />
    <glyph glyph-name="T" unicode="T" horiz-adv-x="1499" 
d="M596 1320h-376v-160h-161v320h1382v-320h-160v160h-376v-1172h148v-148h-605v148h148v1172z" />
    <glyph glyph-name="U" unicode="U" horiz-adv-x="1560" 
d="M203 1332h-148v148h604v-148h-148v-775q0 -234 76.5 -340t245.5 -106q164 0 232.5 103t68.5 348v770h-148v148h519v-148h-148v-743q0 -191 -30.5 -292.5t-111.5 -187.5q-141 -146 -415 -146q-304 0 -450.5 147t-146.5 452v770z" />
    <glyph glyph-name="V" unicode="V" horiz-adv-x="1505" 
d="M691 -19l-547 1351h-87v148h567v-148h-148l366 -896l361 896h-148v148h398v-148h-87l-527 -1351h-148z" />
    <glyph glyph-name="W" unicode="W" horiz-adv-x="1973" 
d="M497 -19l-332 1351h-86v148h528v-148h-148l209 -846l286 982h172l274 -1006l251 870h-148v148h394v-148h-87l-387 -1351h-175l-281 1023l-298 -1023h-172z" />
    <glyph glyph-name="X" unicode="X" horiz-adv-x="1388" 
d="M521 733l-357 599h-86v148h554v-148h-123l247 -411l283 411h-123v148h398v-148h-86l-371 -538l385 -646h87v-148h-555v148h123l-275 457l-297 -457h123v-148h-394v148h87z" />
    <glyph glyph-name="Y" unicode="Y" horiz-adv-x="1420" 
d="M549 642l-417 690h-87v148h553v-148h-122l313 -513l310 513h-123v148h384v-148h-86l-417 -689v-495h148v-148h-604v148h148v494z" />
    <glyph glyph-name="Z" unicode="Z" horiz-adv-x="1332" 
d="M115 0v136l747 1196h-553v-148h-160v296h1058v-141l-735 -1179h576v155h160v-315h-1093z" />
    <glyph glyph-name="bracketleft" unicode="[" horiz-adv-x="743" 
d="M173 -296v1875h463v-148h-210v-1579h210v-148h-463z" />
    <glyph glyph-name="backslash" unicode="\" horiz-adv-x="1153" 
d="M921 -296l-909 1875h219l910 -1875h-220z" />
    <glyph glyph-name="bracketright" unicode="]" horiz-adv-x="743" 
d="M571 1579v-1875h-463v148h210v1579h-210v148h463z" />
    <glyph glyph-name="asciicircum" unicode="^" 
d="M136 395l543 1085l543 -1085h-207l-336 672l-336 -672h-207z" />
    <glyph glyph-name="underscore" unicode="_" horiz-adv-x="1024" 
d="M92 -185v185h839v-185h-839z" />
    <glyph glyph-name="grave" unicode="`" horiz-adv-x="1338" 
d="M359 1579h274l219 -296h-169z" />
    <glyph glyph-name="a" unicode="a" horiz-adv-x="1207" 
d="M742 127q-79 -76 -161.5 -114t-168.5 -38q-147 0 -242.5 90.5t-95.5 228.5q0 188 139 275.5t438 87.5h50v130q0 188 -184 188q-100 0 -186 -66l-13 -95h-160v217q200 92 407 92q432 0 432 -333v-482q0 -161 85 -161q16 0 38 5l13 -152q-77 -25 -151 -25q-162 0 -240 152z
M701 242v282h-40q-148 0 -222.5 -49t-74.5 -148q0 -71 44 -119t110 -48q43 0 89 20.5t94 61.5z" />
    <glyph glyph-name="b" unicode="b" horiz-adv-x="1366" 
d="M173 -12v1443h-148v148h445v-688q62 116 155 174t217 58q190 0 302 -148t112 -399q0 -274 -127 -437.5t-339 -163.5q-92 0 -172 34t-148 102h-19l-25 -123h-253zM470 259q64 -52 122 -78.5t111 -26.5q108 0 173 107t65 283q0 179 -54.5 268t-163.5 89q-70 0 -133.5 -38
t-119.5 -114v-490z" />
    <glyph glyph-name="c" unicode="c" horiz-adv-x="1172" 
d="M1043 26q-167 -51 -346 -51q-274 0 -436 159.5t-162 427.5q0 261 155.5 411t427.5 150q92 0 183.5 -12.5t183.5 -37.5v-283h-160l-13 135q-42 25 -86.5 37.5t-92.5 12.5q-129 0 -206.5 -111.5t-77.5 -297.5q0 -203 84 -304.5t251 -101.5q156 0 295 56v-190z" />
    <glyph glyph-name="d" unicode="d" horiz-adv-x="1403" 
d="M885 0v207q-62 -116 -155 -174t-217 -58q-190 0 -302 148t-112 399q0 274 127 437.5t339 163.5q92 0 173 -34t151 -102l-4 111v333h-148v148h445v-1431h148v-148h-445zM885 839q-63 53 -121 79t-112 26q-108 0 -173 -107t-65 -283q0 -178 54.5 -267.5t162.5 -89.5
q72 0 135.5 38t118.5 113v491z" />
    <glyph glyph-name="e" unicode="e" horiz-adv-x="1224" 
d="M1089 43q-154 -68 -358 -68q-299 0 -465.5 154.5t-166.5 432.5q0 250 147.5 405.5t384.5 155.5q229 0 343.5 -140.5t114.5 -421.5v-43h-685q12 -180 98 -270.5t247 -90.5q167 0 340 80v-194zM410 666h389v26q0 142 -43.5 212.5t-130.5 70.5q-96 0 -150 -77t-65 -232z" />
    <glyph glyph-name="f" unicode="f" horiz-adv-x="913" 
d="M234 950h-154v148h154v44q0 231 95.5 346.5t286.5 115.5q88 0 165.5 -17t143.5 -51v-228h-173v106q-27 23 -54 34t-53 11q-65 0 -90 -47.5t-25 -170.5v-143h278v-148h-278v-802h173v-148h-617v148h148v802z" />
    <glyph glyph-name="g" unicode="g" horiz-adv-x="1297" 
d="M304 39q-114 61 -114 144q0 108 210 206q-123 46 -184.5 133t-61.5 215q0 176 121 281t325 105q64 0 120.5 -10t106.5 -30l409 33l-74 -185l-184 36q74 -108 74 -224q0 -172 -122 -280.5t-316 -108.5q-38 0 -71 6q-94 -38 -94 -99q0 -57 128 -57h168q234 0 333 -59
q98 -60 98 -201q0 -164 -157.5 -264t-415.5 -100q-233 0 -381 66t-148 169q0 75 57.5 131t172.5 93zM426 733q0 -110 49.5 -179.5t128.5 -69.5q80 0 128 70.5t48 187.5q0 126 -44 188.5t-132 62.5q-89 0 -133.5 -65t-44.5 -195zM439 0q-40 -31 -60.5 -63.5t-20.5 -67.5
q0 -70 65.5 -105.5t195.5 -35.5q121 0 204.5 51.5t83.5 125.5q0 56 -45.5 75.5t-176.5 19.5h-246z" />
    <glyph glyph-name="h" unicode="h" horiz-adv-x="1406" 
d="M518 891q67 116 161 174t215 58q148 0 231.5 -92t83.5 -254v-629h148v-148h-567v148h123v595q0 85 -32.5 127.5t-98.5 42.5q-58 0 -124 -41t-140 -123v-601h123v-148h-567v148h148v1283h-148v148h444v-688z" />
    <glyph glyph-name="i" unicode="i" horiz-adv-x="728" 
d="M518 1098v-950h148v-148h-592v148h148v802h-148v148h444zM222 1283v296h296v-296h-296z" />
    <glyph glyph-name="j" unicode="j" horiz-adv-x="799" 
d="M602 1098v-1076q0 -221 -105 -331.5t-315 -110.5q-138 0 -268 44v240h173v-111q52 -25 93 -25q63 0 94.5 55t31.5 164v1003h-148v148h444zM306 1283v296h296v-296h-296z" />
    <glyph glyph-name="k" unicode="k" horiz-adv-x="1335" 
d="M506 529v-381h111v-148h-543v148h148v1283h-148v148h432v-985h69l327 356h-111v148h409v-148h-99l-291 -318l384 -484h87v-148h-298l-408 529h-69z" />
    <glyph glyph-name="l" unicode="l" horiz-adv-x="728" 
d="M518 1579v-1431h148v-148h-592v148h148v1283h-148v148h444z" />
    <glyph glyph-name="m" unicode="m" horiz-adv-x="2048" 
d="M506 891q81 116 175 174t202 58q120 0 191 -58t92 -174h18q81 116 175.5 174t202.5 58q145 0 217 -78.5t72 -236.5v-660h148v-148h-556v148h124v593q0 86 -32 129t-96 43q-62 0 -127.5 -41t-133.5 -123v-601h124v-148h-531v148h123v593q0 86 -31.5 129t-95.5 43
q-62 0 -127.5 -41t-133.5 -123v-601h123v-148h-555v148h148v802h-148v148h432v-207z" />
    <glyph glyph-name="n" unicode="n" horiz-adv-x="1406" 
d="M518 891q67 116 161 174t215 58q148 0 231.5 -92t83.5 -254v-629h148v-148h-567v148h123v595q0 85 -32.5 127.5t-98.5 42.5q-63 0 -129 -41t-135 -123v-601h123v-148h-567v148h148v802h-148v148h444v-207z" />
    <glyph glyph-name="o" unicode="o" horiz-adv-x="1338" 
d="M670 -25q-266 0 -418.5 153.5t-152.5 420.5t152.5 420.5t418.5 153.5q265 0 417.5 -153.5t152.5 -420.5t-152.5 -420.5t-417.5 -153.5zM670 123q114 0 185 118t71 308t-71 308t-185 118q-115 0 -185.5 -118t-70.5 -308t70.5 -308t185.5 -118z" />
    <glyph glyph-name="p" unicode="p" horiz-adv-x="1403" 
d="M518 0v-247h148v-148h-592v148h148v1197h-148v148h444v-207q62 116 155 174t217 58q190 0 302.5 -148t112.5 -399q0 -274 -127 -437.5t-340 -163.5q-91 0 -172 34t-152 102zM518 259q64 -52 122.5 -78.5t111.5 -26.5q108 0 173 107t65 283q0 179 -54.5 268t-164.5 89
q-70 0 -133.5 -38t-119.5 -114v-490z" />
    <glyph glyph-name="q" unicode="q" horiz-adv-x="1366" 
d="M885 207q-62 -116 -155 -174t-217 -58q-190 0 -302 148t-112 399q0 274 127 437.5t339 163.5q92 0 173 -34t151 -102l-4 111h297v-1345h148v-148h-593v148h148v454zM885 833q-63 53 -121.5 79t-111.5 26q-108 0 -173 -107t-65 -284q0 -178 54.5 -267t163.5 -89
q71 0 134.5 38t118.5 113v491z" />
    <glyph glyph-name="r" unicode="r" horiz-adv-x="1012" 
d="M518 749v-601h148v-148h-592v148h148v802h-148v148h444v-207q127 232 350 232q36 0 70 -13v-320h-173v101q-141 0 -247 -142z" />
    <glyph glyph-name="s" unicode="s" horiz-adv-x="1146" 
d="M136 52v259h173v-104q69 -42 129.5 -63t112.5 -21q94 0 141 33.5t47 99.5q0 94 -185 167l-90 36q-316 125 -316 337q0 151 122 239t332 88q92 0 180.5 -14t173.5 -42v-259h-172v105q-47 31 -94.5 46.5t-94.5 15.5q-72 0 -117.5 -37t-45.5 -94q0 -54 42 -89t164 -82
l90 -35q169 -65 238 -136t69 -180q0 -152 -130 -249.5t-333 -97.5q-126 0 -235 19.5t-201 57.5z" />
    <glyph glyph-name="t" unicode="t" horiz-adv-x="873" 
d="M774 9q-91 -34 -187 -34q-182 0 -273.5 91.5t-91.5 274.5v609h-148v148h148v185l296 49v-234h244v-148h-244v-616q0 -96 38.5 -144t114.5 -48q46 0 103 21v-154z" />
    <glyph glyph-name="u" unicode="u" horiz-adv-x="1406" 
d="M888 0v207q-67 -116 -161 -174t-215 -58q-148 0 -231.5 92t-83.5 254v629h-148v148h444v-743q0 -85 33 -127.5t98 -42.5q64 0 130 41t134 122v602h-148v148h444v-950h148v-148h-444z" />
    <glyph glyph-name="v" unicode="v" horiz-adv-x="1266" 
d="M546 -12l-428 962h-87v148h531v-148h-124l266 -597l266 597h-124v148h363v-148h-86l-429 -962h-148z" />
    <glyph glyph-name="w" unicode="w" horiz-adv-x="1736" 
d="M435 -12l-315 962h-87v148h497v-148h-135l189 -569l277 717h152l259 -717l190 569h-136v148h376v-148h-86l-321 -962h-148l-270 745l-288 -745h-154z" />
    <glyph glyph-name="x" unicode="x" horiz-adv-x="1164" 
d="M441 525l-306 425h-86v148h492v-148h-86l171 -238l190 238h-87v148h350v-148h-87l-283 -354l217 -300l106 -148h86v-148h-491v148h87l-187 258l-207 -258h86v-148h-353v148h86z" />
    <glyph glyph-name="y" unicode="y" horiz-adv-x="1277" 
d="M212 -395l328 407l-418 938h-86v148h530v-148h-123l265 -596l266 596h-123v148h362v-148h-86l-606 -1345h-309z" />
    <glyph glyph-name="z" unicode="z" horiz-adv-x="1255" 
d="M136 0v129l613 821h-434v-123h-161v271h942v-123l-608 -815h471v124h161v-284h-984z" />
    <glyph glyph-name="braceleft" unicode="{" horiz-adv-x="743" 
d="M324 641q213 -94 213 -325q0 -73 -20 -185l-13 -71q-10 -57 -10 -95q0 -105 137 -113v-148h-72q-147 0 -246 87t-99 216q0 71 28 192l25 106q18 80 18 125q0 137 -130 137h-39v149h39q130 0 130 137q0 45 -18 125l-25 106q-28 121 -28 193q0 128 99.5 215t245.5 87h72
v-148q-137 -8 -137 -114q0 -37 10 -94l13 -71q20 -112 20 -186q0 -230 -213 -325z" />
    <glyph glyph-name="bar" unicode="|" horiz-adv-x="555" 
d="M185 -296v1875h185v-1875h-185z" />
    <glyph glyph-name="braceright" unicode="}" horiz-adv-x="743" 
d="M420 641q-213 95 -213 325q0 74 20 186l13 71q10 57 10 95q0 105 -137 113v148h72q146 0 245.5 -87t99.5 -214q0 -73 -28 -194l-25 -106q-18 -82 -18 -122q0 -140 130 -140h39v-149h-39q-130 0 -130 -137q0 -44 18 -125l25 -106q28 -121 28 -193q0 -128 -99.5 -215
t-245.5 -87h-72v148q137 8 137 114q0 37 -10 94l-13 71q-20 112 -20 186q0 230 213 324z" />
    <glyph glyph-name="asciitilde" unicode="~" 
d="M136 422q0 171 75.5 271t205.5 100q76 0 243 -87l111 -58q147 -77 205 -77q113 0 122 188h124q0 -171 -76 -271t-205 -100q-77 0 -244 88l-110 57q-147 78 -206 78q-111 0 -122 -189h-123z" />
    <glyph glyph-name="uni00A0" unicode="&#xa0;" 
 />
    <glyph glyph-name="exclamdown" unicode="&#xa1;" horiz-adv-x="641" 
d="M469 1098v-247h-296v247h296zM395 679l74 -765v-297h-296v297l74 765h148z" />
    <glyph glyph-name="cent" unicode="&#xa2;" 
d="M672 0v162q-251 26 -390.5 179t-139.5 402q0 244 141 392.5t389 166.5v178h149v-179q144 -12 308 -44v-295h-136v130q-71 38 -172 58v-838h34q123 0 274 55v-159q-159 -40 -308 -50v-158h-149zM672 345v804q-105 -35 -163.5 -140.5t-58.5 -259.5q0 -280 222 -404z" />
    <glyph glyph-name="sterling" unicode="&#xa3;" 
d="M262 0v234q197 29 197 312v166h-160v148h160v136q0 261 103 391t309 130q81 0 161 -17.5t158 -52.5v-244h-172v117q-32 25 -63 37t-60 12q-70 0 -105 -57t-35 -171v-281h195v-148h-195l-1 -91q0 -257 -279 -387h715v-234h-928z" />
    <glyph glyph-name="currency" unicode="&#xa4;" 
d="M432 300l-199 -198l-122 122l198 198q-37 60 -56 121.5t-19 125.5q0 65 19 126.5t56 119.5l-198 199l122 122l199 -199q60 38 121.5 57t124.5 19t124.5 -19t121.5 -57l199 199l122 -122l-199 -199q38 -59 57 -120.5t19 -125.5t-19 -125.5t-57 -121.5l199 -198l-122 -122
l-199 198q-59 -37 -120.5 -56t-125.5 -19t-125.5 19t-120.5 56zM678 447q91 0 156.5 65t65.5 156q0 92 -65.5 157.5t-156.5 65.5q-92 0 -157 -65.5t-65 -157.5q0 -91 65.5 -156t156.5 -65z" />
    <glyph glyph-name="yen" unicode="&#xa5;" 
d="M522 352h-259v123h259v148h-259v123h250l-368 586h-86v148h547v-148h-123l270 -429l282 429h-123v148h387v-148h-86l-386 -586h250v-123h-259v-148h259v-123h-259v-204h148v-148h-592v148h148v204z" />
    <glyph glyph-name="brokenbar" unicode="&#xa6;" horiz-adv-x="530" 
d="M173 -296v740h185v-740h-185zM173 839v740h185v-740h-185z" />
    <glyph glyph-name="section" unicode="&#xa7;" 
d="M213 -256v259h173v-108q64 -40 136.5 -60t152.5 -20q104 0 168 47t64 124q0 56 -38 89q-38 32 -167 87l-130 56q-194 82 -272 165t-78 206q0 174 162 301q-168 98 -168 267q0 172 131 266t371 94q194 0 392 -49v-259h-172v108q-114 54 -223 54q-101 0 -169 -46.5
t-68 -115.5q0 -92 173 -163l120 -48q201 -82 284 -172t83 -227q0 -154 -137 -294q83 -53 124 -123t41 -156q0 -168 -133 -260.5t-373 -92.5q-116 0 -227.5 18t-219.5 53zM881 374q54 72 54 143q0 76 -40.5 109.5t-245.5 127.5l-149 70q-56 -65 -56 -135q0 -75 53.5 -123.5
t212.5 -117.5z" />
    <glyph glyph-name="dieresis" unicode="&#xa8;" horiz-adv-x="1339" 
d="M361 1283v210h210v-210h-210zM768 1283v210h210v-210h-210z" />
    <glyph glyph-name="copyright" unicode="&#xa9;" horiz-adv-x="1752" 
d="M876 -37q-321 0 -549 227.5t-228 549.5t227.5 549.5t549.5 227.5t549.5 -227.5t227.5 -549.5q0 -321 -227.5 -549t-549.5 -228zM876 92q268 0 458 190t190 458t-190 458t-458 190t-457.5 -190t-189.5 -458t189.5 -458t457.5 -190zM1200 338q-144 -42 -283 -42
q-203 0 -328.5 123.5t-125.5 324.5q0 199 121.5 316.5t326.5 117.5q65 0 140 -10t160 -30v-188h-99l-12 99q-44 22 -89.5 32.5t-92.5 10.5q-123 0 -196.5 -94.5t-73.5 -252.5q0 -152 86 -249.5t222 -97.5q124 0 244 54v-114z" />
    <glyph glyph-name="ordfeminine" unicode="&#xaa;" horiz-adv-x="999" 
d="M601 830q-55 -57 -123.5 -85.5t-149.5 -28.5q-110 0 -183 62t-73 157q0 133 118 199t354 66h55v42q0 76 -42 114t-127 38q-46 0 -87 -12t-77 -36v-60h-148v164q77 34 162.5 50.5t180.5 16.5q209 0 303 -65t94 -210v-244q0 -112 78 -112h17v-136q-82 -32 -156 -32
q-143 0 -196 112zM599 942v134h-45q-111 0 -167 -30t-56 -91q0 -45 25 -68t75 -23q40 0 82 19.5t86 58.5z" />
    <glyph glyph-name="guillemotleft" unicode="&#xab;" horiz-adv-x="1208" 
d="M633 910l-238 -361l238 -364l-113 -83l-421 447l421 447zM1100 910l-237 -361l237 -364l-112 -83l-421 447l421 447z" />
    <glyph glyph-name="logicalnot" unicode="&#xac;" 
d="M136 697v185h1086v-592h-185v407h-901z" />
    <glyph glyph-name="uni00AD" unicode="&#xad;" horiz-adv-x="666" 
d="M99 534v185h469v-185h-469z" />
    <glyph glyph-name="registered" unicode="&#xae;" 
d="M678 543q-202 0 -344.5 142.5t-142.5 344.5t142.5 344.5t344.5 142.5t345 -142.5t143 -344.5t-143 -344.5t-345 -142.5zM678 666q151 0 257.5 106.5t106.5 257.5t-106.5 257.5t-257.5 106.5q-150 0 -257 -107t-107 -257q0 -151 107 -257.5t257 -106.5zM640 962v-194h-173
v99h50v320h-50v99h167q161 0 214.5 -26.5t53.5 -107.5q0 -51 -26 -93t-79 -74l59 -118h49v-99h-142l-82 194h-41zM640 1049h41q49 0 73.5 19t24.5 57q0 31 -24.5 46.5t-73.5 15.5h-41v-138z" />
    <glyph glyph-name="degree" unicode="&#xb0;" horiz-adv-x="691" 
d="M346 1123q-92 0 -157 64.5t-65 157.5t64.5 157.5t157.5 64.5t157.5 -64.5t64.5 -157.5t-64.5 -157.5t-157.5 -64.5zM346 1221q50 0 87 37t37 86q0 50 -37 87t-87 37q-49 0 -86 -37t-37 -87q0 -49 37 -86t86 -37z" />
    <glyph glyph-name="plusminus" unicode="&#xb1;" 
d="M136 0v185h1086v-185h-1086zM586 308v346h-450v185h450v345h185v-345h451v-185h-451v-346h-185z" />
    <glyph glyph-name="twosuperior" unicode="&#xb2;" horiz-adv-x="999" 
d="M188 728v115q74 128 194 215l34 25q159 114 159 198q0 44 -37.5 75t-91.5 31q-29 0 -55 -9.5t-49 -28.5v-78h-136v197q79 25 146 37.5t123 12.5q152 0 244 -60.5t92 -160.5q0 -125 -195 -233q-57 -31 -79 -46l-46 -31q-65 -43 -80 -86h400v-173h-623z" />
    <glyph glyph-name="threesuperior" unicode="&#xb3;" horiz-adv-x="999" 
d="M196 740v173h124v-65q61 -24 120 -24q66 0 99 28.5t33 85.5q0 68 -56.5 101.5t-170.5 33.5h-75v124h75q102 0 152.5 26.5t50.5 78.5q0 39 -33.5 66.5t-79.5 27.5q-19 0 -45 -9.5t-58 -28.5v-56h-136v171q29 8 43 12q121 32 217 32q160 0 239.5 -49.5t79.5 -148.5
q0 -53 -33.5 -98.5t-101.5 -82.5q82 -31 122.5 -81t40.5 -118q0 -105 -95 -167.5t-256 -62.5q-142 0 -256 31z" />
    <glyph glyph-name="acute" unicode="&#xb4;" horiz-adv-x="1338" 
d="M705 1579h274l-323 -296h-170z" />
    <glyph glyph-name="uni00B5" unicode="&#xb5;" horiz-adv-x="1443" 
d="M228 -296v1246h-148v148h444v-743q0 -85 33 -127.5t98 -42.5q63 0 129 41t135 122v602h-148v148h444v-950h148v-148h-444v207q-62 -113 -136 -169.5t-159 -56.5q-22 0 -47 8t-53 23v-308h-296z" />
    <glyph glyph-name="paragraph" unicode="&#xb6;" 
d="M570 -296v1036q-188 15 -299 125t-111 282q0 195 134 278q59 37 125 46t269 9h375v-1776h-148v1653h-197v-1653h-148z" />
    <glyph glyph-name="cedilla" unicode="&#xb8;" horiz-adv-x="1339" 
d="M519 -372v94q36 -14 81 -14t67 16.5t22 49.5q0 65 -128 85l100 141h122l-74 -113q162 -33 162 -139q0 -71 -51 -107t-154 -36q-50 0 -147 23z" />
    <glyph glyph-name="onesuperior" unicode="&#xb9;" horiz-adv-x="999" 
d="M617 1517v-653h173v-124h-568v124h173v505h-148v124z" />
    <glyph glyph-name="ordmasculine" unicode="&#xba;" horiz-adv-x="999" 
d="M500 716q-208 0 -323 105t-115 295q0 191 115 296t323 105t323 -105t115 -296q0 -190 -115 -295t-323 -105zM500 839q78 0 125.5 76t47.5 201q0 126 -47.5 202t-125.5 76t-125.5 -76t-47.5 -202q0 -125 47.5 -201t125.5 -76z" />
    <glyph glyph-name="guillemotright" unicode="&#xbb;" horiz-adv-x="1208" 
d="M576 188l237 361l-237 364l112 83l421 -447l-421 -447zM108 188l237 361l-237 364l113 83l421 -447l-421 -447z" />
    <glyph glyph-name="onequarter" unicode="&#xbc;" horiz-adv-x="1573" 
d="M424 1517v-653h148v-124h-518v124h148v505h-148v124zM366 -37h-226l1126 1554h230zM1227 210h-399v99l432 468h165v-432h98v-135h-98v-124h92v-86h-382v86h92v124zM996 345h231v247z" />
    <glyph glyph-name="onehalf" unicode="&#xbd;" horiz-adv-x="1573" 
d="M419 1517v-653h148v-124h-518v124h148v505h-148v124zM287 -37h-226l1126 1554h230zM900 0v115q75 128 195 215l34 25q159 114 159 198q0 44 -37.5 75t-92.5 31q-28 0 -54 -9t-50 -28v-79h-135v197q79 25 146 37.5t123 12.5q152 0 244 -60.5t92 -160.5q0 -125 -195 -232
q-56 -32 -79 -47l-46 -31q-65 -43 -80 -86h399v-173h-623z" />
    <glyph glyph-name="threequarters" unicode="&#xbe;" horiz-adv-x="1573" 
d="M48 740v173h123v-65q61 -24 121 -24q66 0 98.5 28.5t32.5 85.5q0 68 -56.5 101.5t-170.5 33.5h-74v124h75q101 0 151.5 26.5t50.5 78.5q0 39 -33 66.5t-80 27.5q-19 0 -44.5 -9.5t-57.5 -28.5v-56h-136v171l42 12q122 32 218 32q160 0 239.5 -49.5t79.5 -148.5
q0 -53 -34 -98.5t-102 -82.5q82 -31 123 -81t41 -118q0 -105 -95 -167.5t-256 -62.5q-143 0 -256 31zM369 -37h-227l1127 1554h230zM1230 210h-400v99l433 468h164v-432h99v-135h-99v-124h93v-86h-383v86h93v124zM999 345h231v247z" />
    <glyph glyph-name="questiondown" unicode="&#xbf;" horiz-adv-x="1098" 
d="M781 1098v-247h-296v247h296zM781 679v-13q0 -160 -147 -303l-50 -49q-173 -169 -173 -346q0 -111 63.5 -175.5t172.5 -64.5q51 0 97.5 14t88.5 42l12 136h161v-272q-89 -34 -191 -51t-217 -17q-232 0 -367 92t-135 249q0 154 165 298l65 56q111 98 135 156t24 235v13
h296z" />
    <glyph glyph-name="Agrave" unicode="&#xc0;" horiz-adv-x="1559" 
d="M414 429l-111 -281h148v-148h-400v148h87l533 1351h232l534 -1351h86v-148h-552v148h148l-111 281h-594zM475 583h472l-237 595zM463 1900h274l219 -296h-169z" />
    <glyph glyph-name="Aacute" unicode="&#xc1;" horiz-adv-x="1559" 
d="M414 429l-111 -281h148v-148h-400v148h87l533 1351h232l534 -1351h86v-148h-552v148h148l-111 281h-594zM475 583h472l-237 595zM837 1900h274l-323 -296h-170z" />
    <glyph glyph-name="Acircumflex" unicode="&#xc2;" horiz-adv-x="1559" 
d="M414 429l-111 -281h148v-148h-400v148h87l533 1351h232l534 -1351h86v-148h-552v148h148l-111 281h-594zM475 583h472l-237 595zM437 1604l224 296h252l224 -296h-166l-184 170l-184 -170h-166z" />
    <glyph glyph-name="Atilde" unicode="&#xc3;" horiz-adv-x="1559" 
d="M414 429l-111 -281h148v-148h-400v148h87l533 1351h232l534 -1351h86v-148h-552v148h148l-111 281h-594zM475 583h472l-237 595zM439 1604q0 121 54 193.5t144 72.5q40 0 136 -31l74 -24q72 -23 96 -23q68 0 76 77h117q0 -121 -54 -193t-145 -72q-39 0 -135 31l-74 23
q-73 23 -97 23q-67 0 -75 -77h-117z" />
    <glyph glyph-name="Adieresis" unicode="&#xc4;" horiz-adv-x="1559" 
d="M414 429l-111 -281h148v-148h-400v148h87l533 1351h232l534 -1351h86v-148h-552v148h148l-111 281h-594zM475 583h472l-237 595zM479 1604v210h210v-210h-210zM886 1604v210h210v-210h-210z" />
    <glyph glyph-name="Aring" unicode="&#xc5;" horiz-adv-x="1559" 
d="M414 429l-111 -281h148v-148h-400v148h87l533 1351h31q-48 32 -72 72t-24 88q0 75 52.5 128t127.5 53t128 -53t53 -128q0 -49 -24 -89t-73 -71h33l534 -1351h86v-148h-552v148h148l-111 281h-594zM786 1559q50 0 75 25t25 75t-25 75t-75 25t-75 -25t-25 -75t25 -75
t75 -25zM475 583h472l-237 595z" />
    <glyph glyph-name="AE" unicode="&#xc6;" horiz-adv-x="1982" 
d="M794 0v148h148l1 259h-471l-157 -259h148v-148h-415v148h86l808 1332h926v-296h-161v148h-469v-493h321v99h148v-346h-148v99h-321v-531h515v154h161v-314h-1120zM565 561h377v622z" />
    <glyph glyph-name="Ccedilla" unicode="&#xc7;" horiz-adv-x="1487" 
d="M959 -38l-48 -74q182 -35 182 -141q0 -71 -60 -106.5t-181 -35.5q-68 0 -166 28v91q75 -19 118 -19q57 0 85.5 15.5t28.5 45.5q0 32 -54.5 60t-116.5 28l73 109q-219 23 -339 78t-216 175q-166 208 -166 526q0 370 202.5 572.5t573.5 202.5q114 0 235 -16t250 -48v-310
h-160l-16 148q-76 39 -152.5 58.5t-153.5 19.5q-211 0 -331.5 -167t-120.5 -460q0 -284 139 -450t376 -166q222 0 432 109v-176q-163 -70 -414 -97z" />
    <glyph glyph-name="Egrave" unicode="&#xc8;" horiz-adv-x="1268" 
d="M1200 0h-1120v148h148v1184h-148v148h1073v-296h-160v148h-457v-493h309v99h148v-346h-148v99h-309v-531h503v161h161v-321zM250 1900h274l219 -296h-169z" />
    <glyph glyph-name="Eacute" unicode="&#xc9;" horiz-adv-x="1268" 
d="M1200 0h-1120v148h148v1184h-148v148h1073v-296h-160v148h-457v-493h309v99h148v-346h-148v99h-309v-531h503v161h161v-321zM659 1900h274l-323 -296h-170z" />
    <glyph glyph-name="Ecircumflex" unicode="&#xca;" horiz-adv-x="1268" 
d="M1200 0h-1120v148h148v1184h-148v148h1073v-296h-160v148h-457v-493h309v99h148v-346h-148v99h-309v-531h503v161h161v-321zM293 1604l224 296h252l224 -296h-166l-184 170l-184 -170h-166z" />
    <glyph glyph-name="Edieresis" unicode="&#xcb;" horiz-adv-x="1268" 
d="M1200 0h-1120v148h148v1184h-148v148h1073v-296h-160v148h-457v-493h309v99h148v-346h-148v99h-309v-531h503v161h161v-321zM315 1604v210h210v-210h-210zM722 1604v210h210v-210h-210z" />
    <glyph glyph-name="Igrave" unicode="&#xcc;" horiz-adv-x="765" 
d="M536 1332v-1184h148v-148h-604v148h148v1184h-148v148h604v-148h-148zM52 1900h274l219 -296h-169z" />
    <glyph glyph-name="Iacute" unicode="&#xcd;" horiz-adv-x="765" 
d="M536 1332v-1184h148v-148h-604v148h148v1184h-148v148h604v-148h-148zM426 1900h274l-323 -296h-170z" />
    <glyph glyph-name="Icircumflex" unicode="&#xce;" horiz-adv-x="765" 
d="M536 1332v-1184h148v-148h-604v148h148v1184h-148v148h604v-148h-148zM32 1604l224 296h252l224 -296h-166l-184 170l-184 -170h-166z" />
    <glyph glyph-name="Idieresis" unicode="&#xcf;" horiz-adv-x="765" 
d="M536 1332v-1184h148v-148h-604v148h148v1184h-148v148h604v-148h-148zM74 1604v210h210v-210h-210zM481 1604v210h210v-210h-210z" />
    <glyph glyph-name="Eth" unicode="&#xd0;" horiz-adv-x="1699" 
d="M123 0v148h148v543h-197v148h197v493h-148v148h731q352 0 549.5 -188.5t197.5 -525.5q0 -348 -191.5 -557t-511.5 -209h-775zM580 160h150q312 0 435 186q109 164 109 423q0 282 -136 422.5t-408 140.5h-150v-493h271v-148h-271v-531z" />
    <glyph glyph-name="Ntilde" unicode="&#xd1;" horiz-adv-x="1607" 
d="M1166 -15l-734 1048v-885h148v-148h-500v148h148v1184h-148v148h360l735 -1057v909h-148v148h500v-148h-149v-1347h-212zM447 1604q0 121 54 193.5t144 72.5q40 0 136 -31l74 -24q72 -23 96 -23q68 0 76 77h117q0 -121 -54 -193t-145 -72q-39 0 -135 31l-74 23
q-73 23 -97 23q-67 0 -75 -77h-117z" />
    <glyph glyph-name="Ograve" unicode="&#xd2;" horiz-adv-x="1684" 
d="M842 -37q-345 0 -544 208t-199 569t199 569t544 208t544.5 -208t199.5 -569t-199.5 -569t-544.5 -208zM842 111q189 0 303 172.5t114 456.5q0 285 -114 457t-303 172q-188 0 -302 -172t-114 -457t114 -457t302 -172zM518 1900h274l219 -296h-169z" />
    <glyph glyph-name="Oacute" unicode="&#xd3;" horiz-adv-x="1684" 
d="M842 -37q-345 0 -544 208t-199 569t199 569t544 208t544.5 -208t199.5 -569t-199.5 -569t-544.5 -208zM842 111q189 0 303 172.5t114 456.5q0 285 -114 457t-303 172q-188 0 -302 -172t-114 -457t114 -457t302 -172zM892 1900h274l-323 -296h-170z" />
    <glyph glyph-name="Ocircumflex" unicode="&#xd4;" horiz-adv-x="1684" 
d="M842 -37q-345 0 -544 208t-199 569t199 569t544 208t544.5 -208t199.5 -569t-199.5 -569t-544.5 -208zM842 111q189 0 303 172.5t114 456.5q0 285 -114 457t-303 172q-188 0 -302 -172t-114 -457t114 -457t302 -172zM492 1604l224 296h252l224 -296h-166l-184 170
l-184 -170h-166z" />
    <glyph glyph-name="Otilde" unicode="&#xd5;" horiz-adv-x="1684" 
d="M842 -37q-345 0 -544 208t-199 569t199 569t544 208t544.5 -208t199.5 -569t-199.5 -569t-544.5 -208zM842 111q189 0 303 172.5t114 456.5q0 285 -114 457t-303 172q-188 0 -302 -172t-114 -457t114 -457t302 -172zM494 1604q0 121 54 193.5t144 72.5q40 0 136 -31
l74 -24q72 -23 96 -23q68 0 76 77h117q0 -121 -54 -193t-145 -72q-39 0 -135 31l-74 23q-73 23 -97 23q-67 0 -75 -77h-117z" />
    <glyph glyph-name="Odieresis" unicode="&#xd6;" horiz-adv-x="1684" 
d="M842 -37q-345 0 -544 208t-199 569t199 569t544 208t544.5 -208t199.5 -569t-199.5 -569t-544.5 -208zM842 111q189 0 303 172.5t114 456.5q0 285 -114 457t-303 172q-188 0 -302 -172t-114 -457t114 -457t302 -172zM534 1604v210h210v-210h-210zM941 1604v210h210v-210
h-210z" />
    <glyph glyph-name="multiply" unicode="&#xd7;" 
d="M136 181l411 411l-411 404l128 139l415 -412l414 412l129 -132l-410 -411l410 -414l-127 -129l-416 409l-415 -409z" />
    <glyph glyph-name="Oslash" unicode="&#xd8;" horiz-adv-x="1684" 
d="M292 -37h-193l185 224q-185 224 -185 559q0 353 199.5 562t536.5 209q260 0 454 -131l107 131h190l-182 -230q182 -231 182 -550q0 -357 -200.5 -565.5t-542.5 -208.5q-239 0 -445 124zM469 408l674 807q-122 154 -296 154q-201 0 -317 -166t-116 -454q0 -183 55 -341z
M1220 1068l-675 -804q112 -153 300 -153q195 0 310.5 169t115.5 455q0 172 -51 333z" />
    <glyph glyph-name="Ugrave" unicode="&#xd9;" horiz-adv-x="1560" 
d="M203 1332h-148v148h604v-148h-148v-775q0 -234 76.5 -340t245.5 -106q164 0 232.5 103t68.5 348v770h-148v148h519v-148h-148v-743q0 -191 -30.5 -292.5t-111.5 -187.5q-141 -146 -415 -146q-304 0 -450.5 147t-146.5 452v770zM493 1900h274l219 -296h-169z" />
    <glyph glyph-name="Uacute" unicode="&#xda;" horiz-adv-x="1560" 
d="M203 1332h-148v148h604v-148h-148v-775q0 -234 76.5 -340t245.5 -106q164 0 232.5 103t68.5 348v770h-148v148h519v-148h-148v-743q0 -191 -30.5 -292.5t-111.5 -187.5q-141 -146 -415 -146q-304 0 -450.5 147t-146.5 452v770zM867 1900h274l-323 -296h-170z" />
    <glyph glyph-name="Ucircumflex" unicode="&#xdb;" horiz-adv-x="1560" 
d="M203 1332h-148v148h604v-148h-148v-775q0 -234 76.5 -340t245.5 -106q164 0 232.5 103t68.5 348v770h-148v148h519v-148h-148v-743q0 -191 -30.5 -292.5t-111.5 -187.5q-141 -146 -415 -146q-304 0 -450.5 147t-146.5 452v770zM467 1604l224 296h252l224 -296h-166
l-184 170l-184 -170h-166z" />
    <glyph glyph-name="Udieresis" unicode="&#xdc;" horiz-adv-x="1560" 
d="M203 1332h-148v148h604v-148h-148v-775q0 -234 76.5 -340t245.5 -106q164 0 232.5 103t68.5 348v770h-148v148h519v-148h-148v-743q0 -191 -30.5 -292.5t-111.5 -187.5q-141 -146 -415 -146q-304 0 -450.5 147t-146.5 452v770zM509 1604v210h210v-210h-210zM916 1604v210
h210v-210h-210z" />
    <glyph glyph-name="Yacute" unicode="&#xdd;" horiz-adv-x="1420" 
d="M549 642l-417 690h-87v148h553v-148h-122l313 -513l310 513h-123v148h384v-148h-86l-417 -689v-495h148v-148h-604v148h148v494zM836 1900h274l-323 -296h-170z" />
    <glyph glyph-name="Thorn" unicode="&#xde;" horiz-adv-x="1292" 
d="M524 311v-163h148v-148h-592v148h148v1184h-148v148h592v-148h-148v-148h199q238 0 368 -103t130 -291q0 -234 -158.5 -356.5t-462.5 -122.5h-76zM524 460h49q173 0 259.5 82.5t86.5 247.5q0 123 -74 184.5t-223 61.5h-98v-576z" />
    <glyph glyph-name="germandbls" unicode="&#xdf;" horiz-adv-x="1425" 
d="M804 25v228h160v-101q56 -30 100 -30q63 0 94.5 32t31.5 96q0 80 -123 183l-129 110q-122 103 -156.5 156t-34.5 134q0 87 77 221l20 35q76 130 76 214q0 68 -40.5 112t-104.5 44q-82 0 -123.5 -66t-41.5 -198v-1047h98v-148h-542v148h148v967q0 255 108 372t345 117
q197 0 307.5 -72t110.5 -199q0 -113 -126 -225l-36 -32q-81 -71 -81 -131q0 -54 117 -149l139 -112q145 -116 193 -190.5t48 -179.5q0 -143 -104 -241t-258 -98q-160 0 -273 50z" />
    <glyph glyph-name="agrave" unicode="&#xe0;" horiz-adv-x="1207" 
d="M742 127q-79 -76 -161.5 -114t-168.5 -38q-147 0 -242.5 90.5t-95.5 228.5q0 188 139 275.5t438 87.5h50v130q0 188 -184 188q-100 0 -186 -66l-13 -95h-160v217q200 92 407 92q432 0 432 -333v-482q0 -161 85 -161q16 0 38 5l13 -152q-77 -25 -151 -25q-162 0 -240 152z
M701 242v282h-40q-148 0 -222.5 -49t-74.5 -148q0 -71 44 -119t110 -48q43 0 89 20.5t94 61.5zM245 1579h274l219 -296h-169z" />
    <glyph glyph-name="aacute" unicode="&#xe1;" horiz-adv-x="1207" 
d="M742 127q-79 -76 -161.5 -114t-168.5 -38q-147 0 -242.5 90.5t-95.5 228.5q0 188 139 275.5t438 87.5h50v130q0 188 -184 188q-100 0 -186 -66l-13 -95h-160v217q200 92 407 92q432 0 432 -333v-482q0 -161 85 -161q16 0 38 5l13 -152q-77 -25 -151 -25q-162 0 -240 152z
M701 242v282h-40q-148 0 -222.5 -49t-74.5 -148q0 -71 44 -119t110 -48q43 0 89 20.5t94 61.5zM618 1579h274l-323 -296h-170z" />
    <glyph glyph-name="acircumflex" unicode="&#xe2;" horiz-adv-x="1207" 
d="M742 127q-79 -76 -161.5 -114t-168.5 -38q-147 0 -242.5 90.5t-95.5 228.5q0 188 139 275.5t438 87.5h50v130q0 188 -184 188q-100 0 -186 -66l-13 -95h-160v217q200 92 407 92q432 0 432 -333v-482q0 -161 85 -161q16 0 38 5l13 -152q-77 -25 -151 -25q-162 0 -240 152z
M701 242v282h-40q-148 0 -222.5 -49t-74.5 -148q0 -71 44 -119t110 -48q43 0 89 20.5t94 61.5zM218 1283l224 296h252l224 -296h-166l-184 170l-184 -170h-166z" />
    <glyph glyph-name="atilde" unicode="&#xe3;" horiz-adv-x="1207" 
d="M742 127q-79 -76 -161.5 -114t-168.5 -38q-147 0 -242.5 90.5t-95.5 228.5q0 188 139 275.5t438 87.5h50v130q0 188 -184 188q-100 0 -186 -66l-13 -95h-160v217q200 92 407 92q432 0 432 -333v-482q0 -161 85 -161q16 0 38 5l13 -152q-77 -25 -151 -25q-162 0 -240 152z
M701 242v282h-40q-148 0 -222.5 -49t-74.5 -148q0 -71 44 -119t110 -48q43 0 89 20.5t94 61.5zM222 1283q0 121 54 193.5t144 72.5q40 0 136 -31l74 -24q72 -23 96 -23q68 0 76 77h117q0 -121 -54 -193t-145 -72q-39 0 -135 31l-74 23q-73 23 -97 23q-67 0 -75 -77h-117z
" />
    <glyph glyph-name="adieresis" unicode="&#xe4;" horiz-adv-x="1207" 
d="M742 127q-79 -76 -161.5 -114t-168.5 -38q-147 0 -242.5 90.5t-95.5 228.5q0 188 139 275.5t438 87.5h50v130q0 188 -184 188q-100 0 -186 -66l-13 -95h-160v217q200 92 407 92q432 0 432 -333v-482q0 -161 85 -161q16 0 38 5l13 -152q-77 -25 -151 -25q-162 0 -240 152z
M701 242v282h-40q-148 0 -222.5 -49t-74.5 -148q0 -71 44 -119t110 -48q43 0 89 20.5t94 61.5zM260 1283v210h210v-210h-210zM667 1283v210h210v-210h-210z" />
    <glyph glyph-name="aring" unicode="&#xe5;" horiz-adv-x="1207" 
d="M742 127q-79 -76 -161.5 -114t-168.5 -38q-147 0 -242.5 90.5t-95.5 228.5q0 188 139 275.5t438 87.5h50v130q0 188 -184 188q-100 0 -186 -66l-13 -95h-160v217q200 92 407 92q432 0 432 -333v-482q0 -161 85 -161q16 0 38 5l13 -152q-77 -25 -151 -25q-162 0 -240 152z
M701 242v282h-40q-148 0 -222.5 -49t-74.5 -148q0 -71 44 -119t110 -48q43 0 89 20.5t94 61.5zM640 1271q-75 0 -127.5 52.5t-52.5 128.5q0 75 52.5 127.5t127.5 52.5t128 -52.5t53 -127.5q0 -76 -53 -128.5t-128 -52.5zM640 1351q42 0 71.5 29.5t29.5 71.5q0 41 -29.5 70.5
t-71.5 29.5q-41 0 -70.5 -29.5t-29.5 -70.5q0 -42 29.5 -71.5t70.5 -29.5z" />
    <glyph glyph-name="ae" unicode="&#xe6;" horiz-adv-x="1807" 
d="M790 185q-76 -105 -167.5 -157.5t-199.5 -52.5q-156 0 -252.5 92t-96.5 240q0 188 138.5 274t440.5 86l51 -1v121q0 94 -46 141t-139 47q-99 0 -185 -66l-13 -95h-160v217q199 92 405 92q105 0 190 -32t149 -96q130 128 323 128q222 0 332.5 -140.5t110.5 -421.5v-37
h-684q17 -367 344 -367q169 0 340 80v-194q-183 -69 -346 -69q-199 0 -307.5 42.5t-227.5 168.5zM704 242v292h-38q-151 0 -226.5 -49.5t-75.5 -148.5q0 -74 45 -125t110 -51q44 0 90.5 20.5t94.5 61.5zM992 666h390l-1 26q0 283 -173 283q-193 0 -216 -309z" />
    <glyph glyph-name="ccedilla" unicode="&#xe7;" horiz-adv-x="1172" 
d="M1043 26q-146 -44 -288 -52l-59 -88q163 -33 163 -141q0 -60 -59 -100t-148 -40q-40 0 -145 24v92q44 -13 81 -13q45 0 67.5 16t22.5 47q0 64 -128 87l84 119q-267 33 -401 178t-134 402q0 265 154.5 415.5t428.5 150.5q92 0 183.5 -12.5t183.5 -37.5v-283h-160l-13 135
q-41 25 -87.5 37.5t-97.5 12.5q-124 0 -201 -113t-77 -296q0 -203 84 -304.5t251 -101.5q156 0 295 56v-190z" />
    <glyph glyph-name="egrave" unicode="&#xe8;" horiz-adv-x="1224" 
d="M1089 43q-154 -68 -358 -68q-299 0 -465.5 154.5t-166.5 432.5q0 250 147.5 405.5t384.5 155.5q229 0 343.5 -140.5t114.5 -421.5v-43h-685q12 -180 98 -270.5t247 -90.5q167 0 340 80v-194zM410 666h389v26q0 142 -43.5 212.5t-130.5 70.5q-96 0 -150 -77t-65 -232z
M310 1579h274l219 -296h-169z" />
    <glyph glyph-name="eacute" unicode="&#xe9;" horiz-adv-x="1224" 
d="M1089 43q-154 -68 -358 -68q-299 0 -465.5 154.5t-166.5 432.5q0 250 147.5 405.5t384.5 155.5q229 0 343.5 -140.5t114.5 -421.5v-43h-685q12 -180 98 -270.5t247 -90.5q167 0 340 80v-194zM410 666h389v26q0 142 -43.5 212.5t-130.5 70.5q-96 0 -150 -77t-65 -232z
M669 1579h274l-323 -296h-170z" />
    <glyph glyph-name="ecircumflex" unicode="&#xea;" horiz-adv-x="1224" 
d="M1089 43q-154 -68 -358 -68q-299 0 -465.5 154.5t-166.5 432.5q0 250 147.5 405.5t384.5 155.5q229 0 343.5 -140.5t114.5 -421.5v-43h-685q12 -180 98 -270.5t247 -90.5q167 0 340 80v-194zM410 666h389v26q0 142 -43.5 212.5t-130.5 70.5q-96 0 -150 -77t-65 -232z
M283 1283l224 296h252l224 -296h-166l-184 170l-184 -170h-166z" />
    <glyph glyph-name="edieresis" unicode="&#xeb;" horiz-adv-x="1224" 
d="M1089 43q-154 -68 -358 -68q-299 0 -465.5 154.5t-166.5 432.5q0 250 147.5 405.5t384.5 155.5q229 0 343.5 -140.5t114.5 -421.5v-43h-685q12 -180 98 -270.5t247 -90.5q167 0 340 80v-194zM410 666h389v26q0 142 -43.5 212.5t-130.5 70.5q-96 0 -150 -77t-65 -232z
M325 1283v210h210v-210h-210zM732 1283v210h210v-210h-210z" />
    <glyph glyph-name="igrave" unicode="&#xec;" horiz-adv-x="728" 
d="M518 1098v-950h148v-148h-592v148h148v802h-148v148h444zM46 1579h274l219 -296h-169z" />
    <glyph glyph-name="iacute" unicode="&#xed;" horiz-adv-x="728" 
d="M518 1098v-950h148v-148h-592v148h148v802h-148v148h444zM420 1579h274l-323 -296h-170z" />
    <glyph glyph-name="icircumflex" unicode="&#xee;" horiz-adv-x="728" 
d="M518 1098v-950h148v-148h-592v148h148v802h-148v148h444zM0 1283l224 296h252l224 -296h-166l-184 170l-184 -170h-166z" />
    <glyph glyph-name="idieresis" unicode="&#xef;" horiz-adv-x="728" 
d="M517 1098v-950h148v-148h-592v148h148v802h-148v148h444zM55 1283v210h210v-210h-210zM462 1283v210h210v-210h-210z" />
    <glyph glyph-name="eth" unicode="&#xf0;" horiz-adv-x="1327" 
d="M279 1064l-97 111l226 184q-177 72 -286 72h-19v148q253 0 473 -79l245 203l97 -111l-195 -159q255 -172 377.5 -376t122.5 -457q0 -281 -157 -453t-412 -172q-249 0 -399 151t-150 400q0 242 146 395t376 153q63 0 137 -18q-77 137 -215 229zM672 123q119 0 187.5 115
t68.5 314q0 376 -247 376q-117 0 -191.5 -112.5t-74.5 -291.5q0 -180 70.5 -290.5t186.5 -110.5z" />
    <glyph glyph-name="ntilde" unicode="&#xf1;" horiz-adv-x="1406" 
d="M518 891q67 116 161 174t215 58q148 0 231.5 -92t83.5 -254v-629h148v-148h-567v148h123v595q0 85 -32.5 127.5t-98.5 42.5q-63 0 -129 -41t-135 -123v-601h123v-148h-567v148h148v802h-148v148h444v-207zM393 1283q0 121 54 193.5t144 72.5q40 0 136 -31l74 -24
q72 -23 96 -23q68 0 76 77h117q0 -121 -54 -193t-145 -72q-39 0 -135 31l-74 23q-73 23 -97 23q-67 0 -75 -77h-117z" />
    <glyph glyph-name="ograve" unicode="&#xf2;" horiz-adv-x="1338" 
d="M670 -25q-266 0 -418.5 153.5t-152.5 420.5t152.5 420.5t418.5 153.5q265 0 417.5 -153.5t152.5 -420.5t-152.5 -420.5t-417.5 -153.5zM670 123q114 0 185 118t71 308t-71 308t-185 118q-115 0 -185.5 -118t-70.5 -308t70.5 -308t185.5 -118zM345 1579h274l219 -296h-169
z" />
    <glyph glyph-name="oacute" unicode="&#xf3;" horiz-adv-x="1338" 
d="M670 -25q-266 0 -418.5 153.5t-152.5 420.5t152.5 420.5t418.5 153.5q265 0 417.5 -153.5t152.5 -420.5t-152.5 -420.5t-417.5 -153.5zM670 123q114 0 185 118t71 308t-71 308t-185 118q-115 0 -185.5 -118t-70.5 -308t70.5 -308t185.5 -118zM719 1579h274l-323 -296
h-170z" />
    <glyph glyph-name="ocircumflex" unicode="&#xf4;" horiz-adv-x="1338" 
d="M670 -25q-266 0 -418.5 153.5t-152.5 420.5t152.5 420.5t418.5 153.5q265 0 417.5 -153.5t152.5 -420.5t-152.5 -420.5t-417.5 -153.5zM670 123q114 0 185 118t71 308t-71 308t-185 118q-115 0 -185.5 -118t-70.5 -308t70.5 -308t185.5 -118zM319 1283l224 296h252
l224 -296h-166l-184 170l-184 -170h-166z" />
    <glyph glyph-name="otilde" unicode="&#xf5;" horiz-adv-x="1338" 
d="M670 -25q-266 0 -418.5 153.5t-152.5 420.5t152.5 420.5t418.5 153.5q265 0 417.5 -153.5t152.5 -420.5t-152.5 -420.5t-417.5 -153.5zM670 123q114 0 185 118t71 308t-71 308t-185 118q-115 0 -185.5 -118t-70.5 -308t70.5 -308t185.5 -118zM321 1283q0 121 54 193.5
t144 72.5q40 0 136 -31l74 -24q72 -23 96 -23q68 0 76 77h117q0 -121 -54 -193t-145 -72q-39 0 -135 31l-74 23q-73 23 -97 23q-67 0 -75 -77h-117z" />
    <glyph glyph-name="odieresis" unicode="&#xf6;" horiz-adv-x="1338" 
d="M670 -25q-266 0 -418.5 153.5t-152.5 420.5t152.5 420.5t418.5 153.5q265 0 417.5 -153.5t152.5 -420.5t-152.5 -420.5t-417.5 -153.5zM670 123q114 0 185 118t71 308t-71 308t-185 118q-115 0 -185.5 -118t-70.5 -308t70.5 -308t185.5 -118zM361 1283v210h210v-210h-210
zM768 1283v210h210v-210h-210z" />
    <glyph glyph-name="divide" unicode="&#xf7;" 
d="M549 37v259h253v-259h-253zM136 500v185h1086v-185h-1086zM549 888v259h259v-259h-259z" />
    <glyph glyph-name="oslash" unicode="&#xf8;" horiz-adv-x="1338" 
d="M286 -25h-187l138 168q-138 163 -138 414q0 265 152.5 415.5t420.5 150.5q162 0 312 -74l61 74h195l-140 -165q140 -167 140 -416q0 -262 -153.5 -414.5t-417.5 -152.5q-161 0 -318 76zM433 380l411 500q-68 95 -168 95q-123 0 -192.5 -114t-69.5 -317q0 -72 19 -164z
M907 724l-411 -499q78 -102 173 -102q117 0 187 117.5t70 313.5q0 78 -19 170z" />
    <glyph glyph-name="ugrave" unicode="&#xf9;" horiz-adv-x="1406" 
d="M888 0v207q-67 -116 -161 -174t-215 -58q-148 0 -231.5 92t-83.5 254v629h-148v148h444v-743q0 -85 33 -127.5t98 -42.5q64 0 130 41t134 122v602h-148v148h444v-950h148v-148h-444zM301 1579h274l219 -296h-169z" />
    <glyph glyph-name="uacute" unicode="&#xfa;" horiz-adv-x="1406" 
d="M888 0v207q-67 -116 -161 -174t-215 -58q-148 0 -231.5 92t-83.5 254v629h-148v148h444v-743q0 -85 33 -127.5t98 -42.5q64 0 130 41t134 122v602h-148v148h444v-950h148v-148h-444zM713 1579h274l-323 -296h-170z" />
    <glyph glyph-name="ucircumflex" unicode="&#xfb;" horiz-adv-x="1406" 
d="M888 0v207q-67 -116 -161 -174t-215 -58q-148 0 -231.5 92t-83.5 254v629h-148v148h444v-743q0 -85 33 -127.5t98 -42.5q64 0 130 41t134 122v602h-148v148h444v-950h148v-148h-444zM327 1283l224 296h252l224 -296h-166l-184 170l-184 -170h-166z" />
    <glyph glyph-name="udieresis" unicode="&#xfc;" horiz-adv-x="1406" 
d="M888 0v207q-67 -116 -161 -174t-215 -58q-148 0 -231.5 92t-83.5 254v629h-148v148h444v-743q0 -85 33 -127.5t98 -42.5q64 0 130 41t134 122v602h-148v148h444v-950h148v-148h-444zM333 1283v210h210v-210h-210zM740 1283v210h210v-210h-210z" />
    <glyph glyph-name="yacute" unicode="&#xfd;" horiz-adv-x="1277" 
d="M212 -395l328 407l-418 938h-86v148h530v-148h-123l265 -596l266 596h-123v148h362v-148h-86l-606 -1345h-309zM758 1579h274l-323 -296h-170z" />
    <glyph glyph-name="thorn" unicode="&#xfe;" horiz-adv-x="1403" 
d="M518 0v-247h148v-148h-592v148h148v1481h-148v148h444v-491q62 116 155 174t217 58q190 0 302.5 -148t112.5 -399q0 -274 -127 -437.5t-340 -163.5q-91 0 -172 34t-152 102zM518 259q64 -52 122.5 -78.5t111.5 -26.5q108 0 173 107t65 283q0 179 -54.5 268t-164.5 89
q-70 0 -133.5 -38t-119.5 -114v-490z" />
    <glyph glyph-name="ydieresis" unicode="&#xff;" horiz-adv-x="1277" 
d="M212 -395l328 407l-418 938h-86v148h530v-148h-123l265 -596l266 596h-123v148h362v-148h-86l-606 -1345h-309zM400 1283v210h210v-210h-210zM807 1283v210h210v-210h-210z" />
    <glyph glyph-name="dotlessi" unicode="&#x131;" horiz-adv-x="728" 
d="M518 1098v-950h148v-148h-592v148h148v802h-148v148h444z" />
    <glyph glyph-name="OE" unicode="&#x152;" horiz-adv-x="2168" 
d="M1129 49q-71 -43 -150.5 -64.5t-167.5 -21.5q-319 0 -515.5 214.5t-196.5 562.5q0 407 245 611q200 167 461 167q92 0 173 -21.5t151 -65.5v49h925v-295h-160v147h-469v-493h321v99h148v-346h-148v99h-321v-531h515v154h161v-314h-972v49zM1129 582v317q0 255 -67 363
t-227 108q-192 0 -306.5 -171.5t-114.5 -458.5t114.5 -458t305.5 -171q161 0 228 107.5t67 363.5z" />
    <glyph glyph-name="oe" unicode="&#x153;" horiz-adv-x="2005" 
d="M1034 143q-75 -84 -169.5 -126t-208.5 -42q-255 0 -406 155.5t-151 418.5q0 262 151.5 418t405.5 156q124 0 220.5 -45.5t165.5 -136.5q153 182 379 182q212 0 324 -144.5t112 -417.5v-37h-684q17 -367 344 -367q169 0 340 80v-194q-183 -69 -346 -69q-175 0 -280.5 37.5
t-196.5 131.5zM668 123q107 0 160.5 106.5t53.5 318.5q0 214 -54 320.5t-163 106.5q-111 0 -181 -119t-70 -307q0 -190 70.5 -308t183.5 -118zM1178 666h390l-1 26q0 283 -173 283q-192 0 -216 -309z" />
    <glyph glyph-name="Scaron" unicode="&#x160;" horiz-adv-x="1169" 
d="M108 22v328h173v-154q74 -45 139.5 -68t122.5 -23q111 0 179 60.5t68 158.5q0 93 -43 151q-44 57 -167 125l-99 54q-201 111 -286 215q-85 103 -85 235q0 182 132 297.5t340 115.5q109 0 216.5 -15t213.5 -46v-300h-173v142q-63 39 -122 58.5t-115 19.5q-85 0 -144.5 -60
t-59.5 -146q0 -70 43 -120q43 -51 162 -119l100 -58q216 -124 298 -224q82 -101 82 -240q0 -203 -151 -324.5t-402 -121.5q-93 0 -198.5 15t-223.5 44zM942 1900l-224 -296h-252l-224 296h166l184 -169l184 169h166z" />
    <glyph glyph-name="scaron" unicode="&#x161;" horiz-adv-x="1146" 
d="M136 52v259h173v-104q69 -42 129.5 -63t112.5 -21q94 0 141 33.5t47 99.5q0 94 -185 167l-90 36q-316 125 -316 337q0 151 122 239t332 88q92 0 180.5 -14t173.5 -42v-259h-172v105q-47 31 -94.5 46.5t-94.5 15.5q-72 0 -117.5 -37t-45.5 -94q0 -54 42 -89t164 -82
l90 -35q169 -65 238 -136t69 -180q0 -152 -130 -249.5t-333 -97.5q-126 0 -235 19.5t-201 57.5zM952 1579l-224 -296h-252l-224 296h166l184 -169l184 169h166z" />
    <glyph glyph-name="Ydieresis" unicode="&#x178;" horiz-adv-x="1420" 
d="M549 642l-417 690h-87v148h553v-148h-122l313 -513l310 513h-123v148h384v-148h-86l-417 -689v-495h148v-148h-604v148h148v494zM478 1604v210h210v-210h-210zM885 1604v210h210v-210h-210z" />
    <glyph glyph-name="florin" unicode="&#x192;" 
d="M224 -315l75 315l141 709h-168v148h197l18 87q53 271 209.5 422t383.5 151q100 0 216 -37v-271h-173v126q-52 29 -103 29q-84 0 -130 -71.5t-84 -260.5l-35 -175h223v-148h-252l-200 -1005z" />
    <glyph glyph-name="circumflex" unicode="&#x2c6;" horiz-adv-x="1338" 
d="M319 1283l224 296h252l224 -296h-166l-184 170l-184 -170h-166z" />
    <glyph glyph-name="caron" unicode="&#x2c7;" horiz-adv-x="1338" 
d="M1019 1579l-224 -296h-252l-224 296h166l184 -169l184 169h166z" />
    <glyph glyph-name="macron" unicode="&#x2c9;" horiz-adv-x="1339" 
d="M361 1283v185h617v-185h-617z" />
    <glyph glyph-name="breve" unicode="&#x2d8;" horiz-adv-x="1338" 
d="M318 1579h123q50 -111 224 -111q184 0 233 111h123q-21 -135 -117 -215.5t-235 -80.5q-138 0 -234 80.5t-117 215.5z" />
    <glyph glyph-name="dotaccent" unicode="&#x2d9;" horiz-adv-x="1338" 
d="M546 1283v247h247v-247h-247z" />
    <glyph glyph-name="ring" unicode="&#x2da;" horiz-adv-x="1283" 
d="M641 1283q-75 0 -127.5 52.5t-52.5 128.5q0 75 52.5 127.5t127.5 52.5t128 -52.5t53 -127.5q0 -76 -53 -128.5t-128 -52.5zM641 1363q42 0 71.5 29.5t29.5 71.5q0 41 -29.5 70.5t-71.5 29.5q-41 0 -70.5 -29.5t-29.5 -70.5q0 -42 29.5 -71.5t70.5 -29.5z" />
    <glyph glyph-name="ogonek" unicode="&#x2db;" horiz-adv-x="1338" 
d="M876 -270q-80 -26 -169 -26q-82 0 -138.5 37t-56.5 90q0 91 144 169h130q-98 -76 -98 -135q0 -32 23 -48t69 -16q40 0 96 27v-98z" />
    <glyph glyph-name="tilde" unicode="&#x2dc;" horiz-adv-x="1338" 
d="M321 1283q0 121 54 193.5t144 72.5q40 0 136 -31l74 -24q72 -23 96 -23q68 0 76 77h117q0 -121 -54 -193t-145 -72q-39 0 -135 31l-74 23q-73 23 -97 23q-67 0 -75 -77h-117z" />
    <glyph glyph-name="hungarumlaut" unicode="&#x2dd;" horiz-adv-x="1338" 
d="M387 1283l217 296h188l-282 -296h-123zM723 1283l217 296h188l-282 -296h-123z" />
    <glyph glyph-name="pi" unicode="&#x3c0;" horiz-adv-x="1560" 
d="M302 0v851h-25q-123 0 -234 -66v275q94 38 277 38h1179v-247h-222v-390q0 -176 23.5 -262.5t102.5 -198.5h-330q-92 165 -92 479v372h-383v-851h-296z" />
    <glyph glyph-name="endash" unicode="&#x2013;" horiz-adv-x="1024" 
d="M99 537v160h827v-160h-827z" />
    <glyph glyph-name="emdash" unicode="&#x2014;" horiz-adv-x="2048" 
d="M99 537v123h1851v-123h-1851z" />
    <glyph glyph-name="quoteleft" unicode="&#x2018;" horiz-adv-x="567" 
d="M444 1579v-111q-124 -14 -124 -185h124v-321h-321v249q0 340 321 368z" />
    <glyph glyph-name="quoteright" unicode="&#x2019;" horiz-adv-x="567" 
d="M123 962v111q123 15 123 185h-123v321h321v-248q0 -342 -321 -369z" />
    <glyph glyph-name="quotesinglbase" unicode="&#x201a;" horiz-adv-x="567" 
d="M123 -296v111q107 10 123 185h-123v321h321v-248q0 -343 -321 -369z" />
    <glyph glyph-name="quotedblleft" unicode="&#x201c;" horiz-adv-x="1036" 
d="M419 1579v-117q-110 -19 -110 -158l-1 -21h111v-296h-296v218q0 335 296 374zM912 1579v-117q-110 -19 -110 -158l-1 -21h111v-296h-296v218q0 335 296 374z" />
    <glyph glyph-name="quotedblright" unicode="&#x201d;" horiz-adv-x="1036" 
d="M123 987v117q111 20 111 158v21h-111v296h296v-218q0 -334 -296 -374zM616 987v117q111 20 111 158v21h-111v296h296v-218q0 -334 -296 -374z" />
    <glyph glyph-name="quotedblbase" unicode="&#x201e;" horiz-adv-x="1036" 
d="M123 -296v117q111 20 111 158v21h-111v296h296v-218q0 -334 -296 -374zM616 -296v117q111 20 111 158v21h-111v296h296v-218q0 -334 -296 -374z" />
    <glyph glyph-name="dagger" unicode="&#x2020;" 
d="M530 -296l25 1101l-358 -25v222l358 -24l-25 502h296l-25 -502l358 24v-222l-358 25l25 -1101h-296z" />
    <glyph glyph-name="daggerdbl" unicode="&#x2021;" 
d="M530 -296l25 506l-358 -25v222l358 -25v420l-358 -25v222l358 -24l-25 505h296l-25 -505l358 24v-222l-358 25v-420l358 25v-222l-358 25l25 -506h-296z" />
    <glyph glyph-name="bullet" unicode="&#x2022;" 
d="M678 395q-81 0 -139 58t-58 139q0 82 57.5 140t139.5 58t140 -58t58 -140q0 -81 -58.5 -139t-139.5 -58z" />
    <glyph glyph-name="ellipsis" unicode="&#x2026;" horiz-adv-x="2048" 
d="M181 0v321h321v-321h-321zM864 0v321h321v-321h-321zM1547 0v321h321v-321h-321z" />
    <glyph glyph-name="perthousand" unicode="&#x2030;" horiz-adv-x="2449" 
d="M69 -37l1268 1554h239l-1281 -1554h-226zM420 740q-179 0 -268.5 92.5t-89.5 277.5t89.5 277.5t268.5 92.5t268.5 -92.5t89.5 -277.5t-89.5 -277.5t-268.5 -92.5zM420 864q68 0 101.5 61.5t33.5 184.5q0 124 -33.5 185.5t-101.5 61.5t-102 -61.5t-34 -185.5
q0 -123 34 -184.5t102 -61.5zM1222 0q-179 0 -268.5 92.5t-89.5 277.5t89.5 277.5t268.5 92.5t268 -92.5t89 -277.5t-89 -277.5t-268 -92.5zM1222 123q68 0 101.5 62t33.5 185q0 124 -33.5 185.5t-101.5 61.5t-102 -61.5t-34 -185.5q0 -123 34 -185t102 -62zM2030 0
q-179 0 -268.5 92.5t-89.5 277.5t89.5 277.5t268.5 92.5t268.5 -92.5t89.5 -277.5t-89.5 -277.5t-268.5 -92.5zM2030 123q68 0 102 62t34 185q0 124 -34 185.5t-102 61.5t-102 -61.5t-34 -185.5q0 -123 34 -185t102 -62z" />
    <glyph glyph-name="guilsinglleft" unicode="&#x2039;" horiz-adv-x="740" 
d="M633 910l-238 -361l238 -364l-113 -83l-421 447l421 447z" />
    <glyph glyph-name="guilsinglright" unicode="&#x203a;" horiz-adv-x="740" 
d="M108 188l237 361l-237 364l113 83l421 -447l-421 -447z" />
    <glyph glyph-name="Euro" unicode="&#x20ac;" horiz-adv-x="1358" 
d="M117 944l2 4q43 246 206 408t490 162q187 0 416 -66v-309h-160l-16 149q-125 78 -240 78q-49 0 -93 -12.5t-82 -36.5t-69.5 -60t-56.5 -83.5t-43 -105.5l-31 -128h508l-28 -147h-494v-41l2 -66v-6h467l-31 -147h-418l3 -7q38 -191 150.5 -297t277.5 -106q200 0 366 133
v-176q-192 -121 -428 -121q-93 0 -176.5 17t-156 50.5t-132.5 82.5t-106.5 112t-86.5 159.5t-40 145.5v7h-131l28 147h86q-2 14 -2 41l2 66v6h-114l28 147h103z" />
    <glyph glyph-name="trademark" unicode="&#x2122;" horiz-adv-x="2146" 
d="M404 1332h-130v-98h-160v246h787v-246h-160v98h-130v-444h136v-148h-479v148h136v444zM1440 799l-181 446v-505h-247v148h99v444h-99v148h342l169 -410l166 410h334v-148h-99v-444h99v-148h-296l-2 506l-180 -447h-105z" />
    <glyph glyph-name="uni2126" unicode="&#x2126;" horiz-adv-x="1844" 
d="M774 173v-173h-669v315h160v-149h332q-205 157 -307.5 328t-102.5 357q0 264 186 459q198 207 549 207q350 0 549 -207q186 -195 186 -459q0 -186 -102.5 -357t-307.5 -328h331v149h161v-315h-669v173q171 247 219 359.5t48 266.5q0 246 -117 405t-298 159t-298 -158.5
t-117 -404.5q0 -155 48 -267.5t219 -359.5z" />
    <glyph glyph-name="partialdiff" unicode="&#x2202;" 
d="M225 1269q97 185 196.5 260t246.5 75q217 0 348.5 -184t131.5 -487q0 -179 -63 -384t-159 -342q-164 -232 -425 -232q-143 0 -228 95.5t-85 255.5q0 257 178.5 487.5t377.5 230.5q68 0 131.5 -29t122.5 -87q0 215 -111.5 337t-308.5 122q-158 0 -353 -118zM990 804
q-40 44 -82.5 66t-88.5 22q-111 0 -211.5 -171.5t-100.5 -359.5q0 -75 23 -112.5t69 -37.5q117 0 228 168.5t163 424.5z" />
    <glyph glyph-name="uni2206" unicode="&#x2206;" horiz-adv-x="1665" 
d="M86 0v234l697 1253h106l677 -1253v-234h-1480zM262 234h976l-483 887z" />
    <glyph glyph-name="product" unicode="&#x220f;" horiz-adv-x="1672" 
d="M524 1320v-1172h148v-148h-592v148h148v1172h-148v160h1511v-160h-148v-1172h148v-148h-592v148h148v1172h-623z" />
    <glyph glyph-name="summation" unicode="&#x2211;" horiz-adv-x="1468" 
d="M43 0v228l643 519l-581 579v154h1233v-302h-160v148h-672l512 -511l-718 -581h927v154h161v-388h-1345z" />
    <glyph glyph-name="fraction" unicode="&#x2215;" horiz-adv-x="122" 
d="M-391 -37h-226l1126 1554h230z" />
    <glyph glyph-name="periodcentered" unicode="&#x2219;" 
d="M543 456v272h271v-272h-271z" />
    <glyph glyph-name="radical" unicode="&#x221a;" horiz-adv-x="1463" 
d="M130 327l-76 125l320 184l409 -748l602 1728h149l-660 -1912h-203l-390 706z" />
    <glyph glyph-name="infinity" unicode="&#x221e;" horiz-adv-x="1665" 
d="M821 436q-179 -288 -390 -288q-149 0 -259 125.5t-110 294.5q0 192 115.5 330t276.5 138q221 0 400 -310q171 310 376 310q157 0 265.5 -126t108.5 -308q0 -188 -112.5 -321t-271.5 -133q-116 0 -195 57t-204 231zM735 566q-183 265 -319 265q-79 0 -137 -80.5
t-58 -190.5q0 -104 53.5 -170t137.5 -66q145 0 323 242zM949 602q163 -255 290 -255q83 0 144.5 80.5t61.5 190.5q0 99 -54.5 172.5t-128.5 73.5q-135 0 -313 -262z" />
    <glyph glyph-name="integral" unicode="&#x222b;" 
d="M886 1347q-102 -46 -102 -180q0 -46 8 -118q23 -214 32 -352l12 -197q22 -346 -87.5 -571t-298.5 -225q-85 0 -142 50.5t-57 126.5q0 60 35 102t85 42q112 0 112 -106q0 -11 -3.5 -24t-11.5 -28q100 36 100 182q0 48 -8 125q-30 318 -30 379l-4 196q0 416 102 588
q106 181 278 181q85 0 142.5 -53t57.5 -130q0 -151 -124 -151q-108 0 -108 103q0 11 3 26t9 34z" />
    <glyph glyph-name="approxequal" unicode="&#x2248;" 
d="M136 637q0 170 75.5 270t205.5 100q76 0 243 -87l111 -58q147 -77 205 -77q113 0 122 188h124q0 -171 -76 -270.5t-205 -99.5q-77 0 -244 87l-110 58q-147 77 -206 77q-111 0 -122 -188h-123zM136 207q0 170 75.5 270t205.5 100q76 0 243 -87l111 -58q147 -77 205 -77
q113 0 122 188h124q0 -169 -75.5 -269.5t-201.5 -100.5q-81 0 -248 87l-110 57q-147 78 -205 78q-112 0 -123 -188h-123z" />
    <glyph glyph-name="notequal" unicode="&#x2260;" 
d="M136 290v185h384l127 222h-511v185h619l89 148h213l-90 -148h255v-185h-363l-125 -222h488v-185h-595l-83 -148h-214l84 148h-278z" />
    <glyph glyph-name="lessequal" unicode="&#x2264;" 
d="M1222 249l-1086 541l1086 542v-210l-672 -332l672 -333v-208zM136 0v185h1086v-185h-1086z" />
    <glyph glyph-name="greaterequal" unicode="&#x2265;" 
d="M136 1332l1086 -541l-1086 -542v210l672 332l-672 333v208zM136 0v185h1086v-185h-1086z" />
    <glyph glyph-name="lozenge" unicode="&#x25ca;" 
d="M679 0l-543 543l543 543l543 -543zM679 258l285 285l-285 274l-283 -274z" />
    <glyph glyph-name="uniF001" unicode="&#xf001;" horiz-adv-x="1437" 
d="M234 950h-154v148h154v44q0 231 96.5 346.5t289.5 115.5q97 0 230 -38v-221h-149v101q-24 10 -57 10q-65 0 -89.5 -46t-24.5 -170v-142h697v-950h149v-148h-568v148h123v802h-401v-802h124v-148h-568v148h148v802zM956 1283v296h271v-296h-271z" />
    <glyph glyph-name="uniF002" unicode="&#xf002;" horiz-adv-x="1437" 
d="M86 148h148v802h-154v148h154v71q0 218 100.5 326.5t301.5 108.5q72 0 197 -25h394v-1431h149v-148h-568v148h123v1240q-139 71 -249 71q-76 0 -114 -55t-38 -165v-141h241v-148h-241v-802h124v-148h-568v148z" />
    <glyph glyph-name="f000" horiz-adv-x="1024" 
d="M128 0v1480h768v-1480h-768zM256 128h512v1224h-512v-1224z" />
  </font>
</defs>
</svg>
